<?xml version="1.0" encoding="UTF-8" standalone="no"?>
<!-- Created with Inkscape (http://www.inkscape.org/) -->

<svg
   version="1.1"
   id="svg2"
   xml:space="preserve"
   width="346.66666"
   height="148"
   viewBox="0 0 346.66666 148"
   sodipodi:docname="BD_bothload_W_X.svg"
   inkscape:version="1.1.1 (3bf5ae0d25, 2021-09-20)"
   xmlns:inkscape="http://www.inkscape.org/namespaces/inkscape"
   xmlns:sodipodi="http://sodipodi.sourceforge.net/DTD/sodipodi-0.dtd"
   xmlns="http://www.w3.org/2000/svg"
   xmlns:svg="http://www.w3.org/2000/svg"><defs
     id="defs6"><clipPath
       clipPathUnits="userSpaceOnUse"
       id="clipPath58"><path
         d="m 169,100 h 83 v 10.879 h -83 z"
         id="path56" /></clipPath><clipPath
       clipPathUnits="userSpaceOnUse"
       id="clipPath68"><path
         d="m 168,99 h 84 v 11.879 h -84 z"
         id="path66" /></clipPath><clipPath
       clipPathUnits="userSpaceOnUse"
       id="clipPath262"><path
         d="m 14,21 h 2 v 89.879 h -2 z"
         id="path260" /></clipPath></defs><sodipodi:namedview
     id="namedview4"
     pagecolor="#ffffff"
     bordercolor="#666666"
     borderopacity="1.0"
     inkscape:pageshadow="2"
     inkscape:pageopacity="0.0"
     inkscape:pagecheckerboard="0"
     showgrid="false"
     inkscape:zoom="3.4528847"
     inkscape:cx="173.18852"
     inkscape:cy="73.9961"
     inkscape:window-width="2188"
     inkscape:window-height="1081"
     inkscape:window-x="626"
     inkscape:window-y="191"
     inkscape:window-maximized="0"
     inkscape:current-layer="g10" /><g
     id="g8"
     inkscape:groupmode="layer"
     inkscape:label="W_X"
     transform="matrix(1.3333333,0,0,1.3333333,0,3.7e-6)"><g
       id="g10"><path
         d="m 14.953,33.516 1.395,0.043 1.398,0.039 1.399,0.07 1.398,0.094 1.395,0.101 2.796,0.274 1.395,0.156 2.797,0.336 1.394,0.191 1.399,0.192 1.398,0.199 1.399,0.207 1.394,0.211 1.399,0.219 1.398,0.222 1.395,0.227 1.398,0.234 1.398,0.231 1.395,0.242 1.398,0.242 2.797,0.492 1.395,0.25 2.797,0.508 1.394,0.254 1.399,0.258 1.398,0.262 1.395,0.261 1.398,0.262 2.797,0.531 1.394,0.266 2.797,0.539 1.395,0.269 1.398,0.27 1.399,0.273 1.394,0.274 1.399,0.269 1.398,0.278 1.399,0.273 1.394,0.274 2.797,0.554 1.395,0.278 2.796,0.554 1.395,0.278 1.398,0.281 1.399,0.277 1.398,0.281 1.395,0.278 2.797,0.562 1.394,0.282 2.797,0.562 1.395,0.281 4.195,0.844 1.394,0.285 2.797,0.563 1.395,0.285 1.398,0.281 1.399,0.285 1.394,0.282 1.399,0.285 1.398,0.281 1.395,0.285 1.398,0.285 1.399,0.282 1.398,0.285 1.395,0.285 1.398,0.281 1.398,0.285 1.395,0.285 1.398,0.286 1.399,0.281 1.394,0.285 2.797,0.57 1.399,0.282 1.394,0.285 2.797,0.57 1.395,0.285 1.398,0.285 1.398,0.282 1.395,0.285 4.195,0.855 1.395,0.281 1.398,0.286"
         style="fill:none;stroke:#5e81b5;stroke-width:1.152;stroke-linecap:square;stroke-linejoin:miter;stroke-miterlimit:3.25;stroke-dasharray:none;stroke-opacity:1"
         id="path12" /><path
         d="m 14.953,33.25 1.395,0.801 1.398,0.804 1.399,0.454 1.398,0.14 1.395,0.129 1.398,-0.066 1.398,-0.063 1.395,-0.144 1.398,-0.196 1.399,-0.203 1.394,-0.277 1.399,-0.274 1.398,-0.304 1.399,-0.321 1.394,-0.324 2.797,-0.679 1.395,-0.34 1.398,-0.34 1.398,-0.336 1.395,-0.32 1.398,-0.321 1.399,-0.293 1.398,-0.289 1.395,-0.277 2.797,-0.484 1.394,-0.196 1.399,-0.187 1.398,-0.168 1.395,-0.121 1.398,-0.121 1.398,-0.063 1.399,-0.047 1.394,-0.019 2.797,0.062 1.395,0.106 1.398,0.117 1.399,0.152 1.394,0.211 1.399,0.207 1.398,0.297 1.399,0.305 1.394,0.351 1.399,0.403 1.398,0.406 1.395,0.504 1.398,0.508 1.398,0.558 1.395,0.613 1.398,0.618 1.399,0.722 1.398,0.719 1.395,0.781 1.398,0.828 1.399,0.84 1.394,0.938 1.399,0.941 1.398,1.004 1.395,1.047 1.398,1.062 2.797,2.313 1.394,1.227 1.399,1.265 1.398,1.281 1.395,1.364 1.398,1.367 1.399,1.437 1.394,1.469 1.399,1.488 1.398,1.563 1.395,1.562 1.398,1.629 1.399,1.653 1.398,1.675 1.395,1.731 1.398,1.734 1.398,1.793 1.395,1.809 1.398,1.824 1.399,1.871 1.394,1.867 1.399,1.911 1.398,1.917 1.399,1.93 1.394,1.949 1.399,1.954 1.398,1.96 1.395,1.969 2.796,3.93 1.395,1.961 1.398,1.953 1.399,1.949 1.398,1.938 1.395,1.925 1.398,1.926"
         style="fill:none;stroke:#e19c24;stroke-width:1.152;stroke-linecap:square;stroke-linejoin:miter;stroke-miterlimit:3.25;stroke-dasharray:none;stroke-opacity:1"
         id="path14" /><path
         d="m 156.047,58.559 h 13.121"
         style="fill:none;stroke:#ffffff;stroke-width:2.88;stroke-linecap:butt;stroke-linejoin:round;stroke-miterlimit:3.25;stroke-dasharray:none;stroke-opacity:0.666667"
         id="path16" /><path
         d="m 156.047,58.559 h 13.121"
         style="fill:none;stroke:#aaaaaa;stroke-width:0.9;stroke-linecap:square;stroke-linejoin:miter;stroke-miterlimit:3.25;stroke-dasharray:none;stroke-opacity:1"
         id="path18" /><path
         d="M 169.168,53.16 H 246.93 V 63.961 H 169.168 Z"
         style="fill:#ffffff;fill-opacity:0.666667;fill-rule:nonzero;stroke:none"
         id="path20" /><path
         d="M 169.168,53.16 H 246.93 V 63.961 H 169.168 Z"
         style="fill:none;stroke:#ffffff;stroke-width:0.9;stroke-linecap:square;stroke-linejoin:miter;stroke-miterlimit:3.25;stroke-dasharray:none;stroke-opacity:0.666667"
         id="path22" /><text
         style="font-variant:normal;font-weight:normal;font-size:6.48px;font-family:Arial;-inkscape-font-specification:ArialMT;writing-mode:lr-tb;fill:#000000;fill-opacity:1;fill-rule:nonzero;stroke:none"
         id="text26"
         x="172.23769"
         y="107.12721"><tspan
           sodipodi:role="line"
           id="tspan24"
           x="172.23769"
           y="107.12721">layer $\left[-30/-45/-30/-45\right]$</tspan></text><path
         d="m 156.047,106.199 h 1.965 l 0.121,-0.004 0.14,-0.004 0.153,-0.007 0.168,-0.008 0.187,-0.016 0.199,-0.015 0.215,-0.02 0.231,-0.027 0.25,-0.028 0.258,-0.031 0.273,-0.031 0.285,-0.035 0.297,-0.035 0.305,-0.032 0.316,-0.031 0.324,-0.031 0.328,-0.024 0.333,-0.019 0.343,-0.02 0.352,-0.011 0.355,-0.008 0.371,-0.008 0.383,-0.004 0.395,-0.004 h 0.832 l 0.441,-0.004 h 3.301"
         style="fill:none;stroke:#ffffff;stroke-width:2.88;stroke-linecap:butt;stroke-linejoin:round;stroke-miterlimit:3.25;stroke-dasharray:none;stroke-opacity:0.666667"
         id="path48" /><path
         d="m 156.047,106.199 h 1.965 l 0.121,-0.004 0.14,-0.004 0.153,-0.007 0.168,-0.008 0.187,-0.016 0.199,-0.015 0.215,-0.02 0.231,-0.027 0.25,-0.028 0.258,-0.031 0.273,-0.031 0.285,-0.035 0.297,-0.035 0.305,-0.032 0.316,-0.031 0.324,-0.031 0.328,-0.024 0.333,-0.019 0.343,-0.02 0.352,-0.011 0.355,-0.008 0.371,-0.008 0.383,-0.004 0.395,-0.004 h 0.832 l 0.441,-0.004 h 3.301"
         style="fill:none;stroke:#aaaaaa;stroke-width:0.9;stroke-linecap:square;stroke-linejoin:miter;stroke-miterlimit:3.25;stroke-dasharray:none;stroke-opacity:1"
         id="path50" /></g><g
       id="g62"
       transform="translate(1.168,-46.918)"><g
         id="g64"
         clip-path="url(#clipPath68)"><path
           d="m 169.168,100.344 h 82.078 v 10.801 h -82.078 z"
           style="fill:none;stroke:#ffffff;stroke-width:0.9;stroke-linecap:square;stroke-linejoin:miter;stroke-miterlimit:3.25;stroke-dasharray:none;stroke-opacity:0.666667"
           id="path70" /><text
           transform="translate(171.69953,107.17716)"
           style="font-variant:normal;font-weight:normal;font-size:6.48px;font-family:Arial;-inkscape-font-specification:ArialMT;writing-mode:lr-tb;fill:#000000;fill-opacity:1;fill-rule:nonzero;stroke:none"
           id="text74"><tspan
             sodipodi:role="line"
             id="tspan72"
             x="0"
             y="0">layer $\left[-45/45/-45/45\right]$</tspan></text></g></g><g
       id="g112"><path
         d="m 14.953,33.531 v -2"
         style="fill:none;stroke:#000000;stroke-width:0.36;stroke-linecap:butt;stroke-linejoin:miter;stroke-miterlimit:3.25;stroke-dasharray:none;stroke-opacity:1"
         id="path114" /><path
         d="M 21.867,33.531 V 32.332"
         style="fill:none;stroke:#000000;stroke-width:0.36;stroke-linecap:butt;stroke-linejoin:miter;stroke-miterlimit:3.25;stroke-dasharray:none;stroke-opacity:1"
         id="path116" /><path
         d="M 28.785,33.531 V 32.332"
         style="fill:none;stroke:#000000;stroke-width:0.36;stroke-linecap:butt;stroke-linejoin:miter;stroke-miterlimit:3.25;stroke-dasharray:none;stroke-opacity:1"
         id="path118" /><path
         d="M 35.703,33.531 V 32.332"
         style="fill:none;stroke:#000000;stroke-width:0.36;stroke-linecap:butt;stroke-linejoin:miter;stroke-miterlimit:3.25;stroke-dasharray:none;stroke-opacity:1"
         id="path120" /><path
         d="M 42.617,33.531 V 32.332"
         style="fill:none;stroke:#000000;stroke-width:0.36;stroke-linecap:butt;stroke-linejoin:miter;stroke-miterlimit:3.25;stroke-dasharray:none;stroke-opacity:1"
         id="path122" /><path
         d="m 49.535,33.531 v -2"
         style="fill:none;stroke:#000000;stroke-width:0.36;stroke-linecap:butt;stroke-linejoin:miter;stroke-miterlimit:3.25;stroke-dasharray:none;stroke-opacity:1"
         id="path124" /><text
         transform="translate(47.73256,41.558794)"
         style="font-variant:normal;font-weight:normal;font-size:6.48px;font-family:Arial;-inkscape-font-specification:ArialMT;writing-mode:lr-tb;fill:#000000;fill-opacity:1;fill-rule:nonzero;stroke:none"
         id="text128"><tspan
           x="0"
           y="0"
           id="tspan126">5</tspan></text><path
         d="M 56.449,33.531 V 32.332"
         style="fill:none;stroke:#000000;stroke-width:0.36;stroke-linecap:butt;stroke-linejoin:miter;stroke-miterlimit:3.25;stroke-dasharray:none;stroke-opacity:1"
         id="path130" /><path
         d="M 63.367,33.531 V 32.332"
         style="fill:none;stroke:#000000;stroke-width:0.36;stroke-linecap:butt;stroke-linejoin:miter;stroke-miterlimit:3.25;stroke-dasharray:none;stroke-opacity:1"
         id="path132" /><path
         d="M 70.285,33.531 V 32.332"
         style="fill:none;stroke:#000000;stroke-width:0.36;stroke-linecap:butt;stroke-linejoin:miter;stroke-miterlimit:3.25;stroke-dasharray:none;stroke-opacity:1"
         id="path134" /><path
         d="M 77.199,33.531 V 32.332"
         style="fill:none;stroke:#000000;stroke-width:0.36;stroke-linecap:butt;stroke-linejoin:miter;stroke-miterlimit:3.25;stroke-dasharray:none;stroke-opacity:1"
         id="path136" /><path
         d="m 84.117,33.531 v -2"
         style="fill:none;stroke:#000000;stroke-width:0.36;stroke-linecap:butt;stroke-linejoin:miter;stroke-miterlimit:3.25;stroke-dasharray:none;stroke-opacity:1"
         id="path138" /><text
         transform="translate(80.512816,41.558794)"
         style="font-variant:normal;font-weight:normal;font-size:6.48px;font-family:Arial;-inkscape-font-specification:ArialMT;writing-mode:lr-tb;fill:#000000;fill-opacity:1;fill-rule:nonzero;stroke:none"
         id="text142"><tspan
           x="0 3.60288"
           y="0"
           sodipodi:role="line"
           id="tspan140">10</tspan></text><path
         d="M 91.031,33.531 V 32.332"
         style="fill:none;stroke:#000000;stroke-width:0.36;stroke-linecap:butt;stroke-linejoin:miter;stroke-miterlimit:3.25;stroke-dasharray:none;stroke-opacity:1"
         id="path144" /><path
         d="M 97.949,33.531 V 32.332"
         style="fill:none;stroke:#000000;stroke-width:0.36;stroke-linecap:butt;stroke-linejoin:miter;stroke-miterlimit:3.25;stroke-dasharray:none;stroke-opacity:1"
         id="path146" /><path
         d="M 104.867,33.531 V 32.332"
         style="fill:none;stroke:#000000;stroke-width:0.36;stroke-linecap:butt;stroke-linejoin:miter;stroke-miterlimit:3.25;stroke-dasharray:none;stroke-opacity:1"
         id="path148" /><path
         d="M 111.781,33.531 V 32.332"
         style="fill:none;stroke:#000000;stroke-width:0.36;stroke-linecap:butt;stroke-linejoin:miter;stroke-miterlimit:3.25;stroke-dasharray:none;stroke-opacity:1"
         id="path150" /><path
         d="m 118.699,33.531 v -2"
         style="fill:none;stroke:#000000;stroke-width:0.36;stroke-linecap:butt;stroke-linejoin:miter;stroke-miterlimit:3.25;stroke-dasharray:none;stroke-opacity:1"
         id="path152" /><text
         transform="translate(115.09501,41.558794)"
         style="font-variant:normal;font-weight:normal;font-size:6.48px;font-family:Arial;-inkscape-font-specification:ArialMT;writing-mode:lr-tb;fill:#000000;fill-opacity:1;fill-rule:nonzero;stroke:none"
         id="text156"><tspan
           x="0 3.60288"
           y="0"
           sodipodi:role="line"
           id="tspan154">15</tspan></text><path
         d="M 125.617,33.531 V 32.332"
         style="fill:none;stroke:#000000;stroke-width:0.36;stroke-linecap:butt;stroke-linejoin:miter;stroke-miterlimit:3.25;stroke-dasharray:none;stroke-opacity:1"
         id="path158" /><path
         d="M 132.531,33.531 V 32.332"
         style="fill:none;stroke:#000000;stroke-width:0.36;stroke-linecap:butt;stroke-linejoin:miter;stroke-miterlimit:3.25;stroke-dasharray:none;stroke-opacity:1"
         id="path160" /><path
         d="M 139.449,33.531 V 32.332"
         style="fill:none;stroke:#000000;stroke-width:0.36;stroke-linecap:butt;stroke-linejoin:miter;stroke-miterlimit:3.25;stroke-dasharray:none;stroke-opacity:1"
         id="path162" /><path
         d="M 146.363,33.531 V 32.332"
         style="fill:none;stroke:#000000;stroke-width:0.36;stroke-linecap:butt;stroke-linejoin:miter;stroke-miterlimit:3.25;stroke-dasharray:none;stroke-opacity:1"
         id="path164" /><path
         d="m 153.281,33.531 v -2"
         style="fill:none;stroke:#000000;stroke-width:0.36;stroke-linecap:butt;stroke-linejoin:miter;stroke-miterlimit:3.25;stroke-dasharray:none;stroke-opacity:1"
         id="path166" /><text
         transform="translate(149.67719,41.558794)"
         style="font-variant:normal;font-weight:normal;font-size:6.48px;font-family:Arial;-inkscape-font-specification:ArialMT;writing-mode:lr-tb;fill:#000000;fill-opacity:1;fill-rule:nonzero;stroke:none"
         id="text170"><tspan
           x="0 3.60288"
           y="0"
           sodipodi:role="line"
           id="tspan168">20</tspan></text><path
         d="M 12.07,33.531 H 156.164"
         style="fill:none;stroke:#000000;stroke-width:0.36;stroke-linecap:butt;stroke-linejoin:miter;stroke-miterlimit:3.25;stroke-dasharray:none;stroke-opacity:1"
         id="path172" /><text
         transform="translate(161.92291,35.779106)"
         style="font-variant:normal;font-weight:normal;font-size:6.48px;font-family:Arial;-inkscape-font-specification:ArialMT;writing-mode:lr-tb;fill:#000000;fill-opacity:1;fill-rule:nonzero;stroke:none"
         id="text176"><tspan
           x="0"
           y="0"
           id="tspan174">x</tspan></text><path
         d="m 14.953,108.035 h 1.199"
         style="fill:none;stroke:#000000;stroke-width:0.36;stroke-linecap:butt;stroke-linejoin:miter;stroke-miterlimit:3.25;stroke-dasharray:none;stroke-opacity:1"
         id="path178" /><path
         d="m 14.953,104.113 h 1.199"
         style="fill:none;stroke:#000000;stroke-width:0.36;stroke-linecap:butt;stroke-linejoin:miter;stroke-miterlimit:3.25;stroke-dasharray:none;stroke-opacity:1"
         id="path180" /><path
         d="m 14.953,100.191 h 1.199"
         style="fill:none;stroke:#000000;stroke-width:0.36;stroke-linecap:butt;stroke-linejoin:miter;stroke-miterlimit:3.25;stroke-dasharray:none;stroke-opacity:1"
         id="path182" /><path
         d="m 14.953,96.27 h 2"
         style="fill:none;stroke:#000000;stroke-width:0.36;stroke-linecap:butt;stroke-linejoin:miter;stroke-miterlimit:3.25;stroke-dasharray:none;stroke-opacity:1"
         id="path184" /><text
         transform="translate(0,98.51703)"
         style="font-variant:normal;font-weight:normal;font-size:6.48px;font-family:MathematicaSans;-inkscape-font-specification:MathematicaSans;writing-mode:lr-tb;fill:#000000;fill-opacity:1;fill-rule:nonzero;stroke:none"
         id="text188"><tspan
           x="0"
           y="0"
           id="tspan186">-</tspan></text><text
         transform="translate(3.77784,98.51703)"
         style="font-variant:normal;font-weight:normal;font-size:6.48px;font-family:Arial;-inkscape-font-specification:ArialMT;writing-mode:lr-tb;fill:#000000;fill-opacity:1;fill-rule:nonzero;stroke:none"
         id="text192"><tspan
           x="0 3.60288 5.39784"
           y="0"
           sodipodi:role="line"
           id="tspan190">0.8</tspan></text><path
         d="m 14.953,92.348 h 1.199"
         style="fill:none;stroke:#000000;stroke-width:0.36;stroke-linecap:butt;stroke-linejoin:miter;stroke-miterlimit:3.25;stroke-dasharray:none;stroke-opacity:1"
         id="path194" /><path
         d="m 14.953,88.43 h 1.199"
         style="fill:none;stroke:#000000;stroke-width:0.36;stroke-linecap:butt;stroke-linejoin:miter;stroke-miterlimit:3.25;stroke-dasharray:none;stroke-opacity:1"
         id="path196" /><path
         d="m 14.953,84.508 h 1.199"
         style="fill:none;stroke:#000000;stroke-width:0.36;stroke-linecap:butt;stroke-linejoin:miter;stroke-miterlimit:3.25;stroke-dasharray:none;stroke-opacity:1"
         id="path198" /><path
         d="m 14.953,80.586 h 2"
         style="fill:none;stroke:#000000;stroke-width:0.36;stroke-linecap:butt;stroke-linejoin:miter;stroke-miterlimit:3.25;stroke-dasharray:none;stroke-opacity:1"
         id="path200" /><text
         transform="translate(0,82.832549)"
         style="font-variant:normal;font-weight:normal;font-size:6.48px;font-family:MathematicaSans;-inkscape-font-specification:MathematicaSans;writing-mode:lr-tb;fill:#000000;fill-opacity:1;fill-rule:nonzero;stroke:none"
         id="text204"><tspan
           x="0"
           y="0"
           id="tspan202">-</tspan></text><text
         transform="translate(3.77784,82.832549)"
         style="font-variant:normal;font-weight:normal;font-size:6.48px;font-family:Arial;-inkscape-font-specification:ArialMT;writing-mode:lr-tb;fill:#000000;fill-opacity:1;fill-rule:nonzero;stroke:none"
         id="text208"><tspan
           x="0 3.60288 5.39784"
           y="0"
           sodipodi:role="line"
           id="tspan206">0.6</tspan></text><path
         d="m 14.953,76.664 h 1.199"
         style="fill:none;stroke:#000000;stroke-width:0.36;stroke-linecap:butt;stroke-linejoin:miter;stroke-miterlimit:3.25;stroke-dasharray:none;stroke-opacity:1"
         id="path210" /><path
         d="m 14.953,72.742 h 1.199"
         style="fill:none;stroke:#000000;stroke-width:0.36;stroke-linecap:butt;stroke-linejoin:miter;stroke-miterlimit:3.25;stroke-dasharray:none;stroke-opacity:1"
         id="path212" /><path
         d="m 14.953,68.824 h 1.199"
         style="fill:none;stroke:#000000;stroke-width:0.36;stroke-linecap:butt;stroke-linejoin:miter;stroke-miterlimit:3.25;stroke-dasharray:none;stroke-opacity:1"
         id="path214" /><path
         d="m 14.953,64.902 h 2"
         style="fill:none;stroke:#000000;stroke-width:0.36;stroke-linecap:butt;stroke-linejoin:miter;stroke-miterlimit:3.25;stroke-dasharray:none;stroke-opacity:1"
         id="path216" /><text
         transform="translate(0,67.148068)"
         style="font-variant:normal;font-weight:normal;font-size:6.48px;font-family:MathematicaSans;-inkscape-font-specification:MathematicaSans;writing-mode:lr-tb;fill:#000000;fill-opacity:1;fill-rule:nonzero;stroke:none"
         id="text220"><tspan
           x="0"
           y="0"
           id="tspan218">-</tspan></text><text
         transform="translate(3.77784,67.148068)"
         style="font-variant:normal;font-weight:normal;font-size:6.48px;font-family:Arial;-inkscape-font-specification:ArialMT;writing-mode:lr-tb;fill:#000000;fill-opacity:1;fill-rule:nonzero;stroke:none"
         id="text224"><tspan
           x="0 3.60288 5.39784"
           y="0"
           sodipodi:role="line"
           id="tspan222">0.4</tspan></text><path
         d="m 14.953,60.98 h 1.199"
         style="fill:none;stroke:#000000;stroke-width:0.36;stroke-linecap:butt;stroke-linejoin:miter;stroke-miterlimit:3.25;stroke-dasharray:none;stroke-opacity:1"
         id="path226" /><path
         d="m 14.953,57.059 h 1.199"
         style="fill:none;stroke:#000000;stroke-width:0.36;stroke-linecap:butt;stroke-linejoin:miter;stroke-miterlimit:3.25;stroke-dasharray:none;stroke-opacity:1"
         id="path228" /><path
         d="m 14.953,53.137 h 1.199"
         style="fill:none;stroke:#000000;stroke-width:0.36;stroke-linecap:butt;stroke-linejoin:miter;stroke-miterlimit:3.25;stroke-dasharray:none;stroke-opacity:1"
         id="path230" /><path
         d="m 14.953,49.219 h 2"
         style="fill:none;stroke:#000000;stroke-width:0.36;stroke-linecap:butt;stroke-linejoin:miter;stroke-miterlimit:3.25;stroke-dasharray:none;stroke-opacity:1"
         id="path232" /><text
         transform="translate(0,51.463587)"
         style="font-variant:normal;font-weight:normal;font-size:6.48px;font-family:MathematicaSans;-inkscape-font-specification:MathematicaSans;writing-mode:lr-tb;fill:#000000;fill-opacity:1;fill-rule:nonzero;stroke:none"
         id="text236"><tspan
           x="0"
           y="0"
           id="tspan234">-</tspan></text><text
         transform="translate(3.77784,51.463587)"
         style="font-variant:normal;font-weight:normal;font-size:6.48px;font-family:Arial;-inkscape-font-specification:ArialMT;writing-mode:lr-tb;fill:#000000;fill-opacity:1;fill-rule:nonzero;stroke:none"
         id="text240"><tspan
           x="0 3.60288 5.39784"
           y="0"
           sodipodi:role="line"
           id="tspan238">0.2</tspan></text><path
         d="m 14.953,45.297 h 1.199"
         style="fill:none;stroke:#000000;stroke-width:0.36;stroke-linecap:butt;stroke-linejoin:miter;stroke-miterlimit:3.25;stroke-dasharray:none;stroke-opacity:1"
         id="path242" /><path
         d="m 14.953,41.375 h 1.199"
         style="fill:none;stroke:#000000;stroke-width:0.36;stroke-linecap:butt;stroke-linejoin:miter;stroke-miterlimit:3.25;stroke-dasharray:none;stroke-opacity:1"
         id="path244" /><path
         d="m 14.953,37.453 h 1.199"
         style="fill:none;stroke:#000000;stroke-width:0.36;stroke-linecap:butt;stroke-linejoin:miter;stroke-miterlimit:3.25;stroke-dasharray:none;stroke-opacity:1"
         id="path246" /><path
         d="m 14.953,33.531 h 2"
         style="fill:none;stroke:#000000;stroke-width:0.36;stroke-linecap:butt;stroke-linejoin:miter;stroke-miterlimit:3.25;stroke-dasharray:none;stroke-opacity:1"
         id="path248" /><path
         d="m 14.953,29.613 h 1.199"
         style="fill:none;stroke:#000000;stroke-width:0.36;stroke-linecap:butt;stroke-linejoin:miter;stroke-miterlimit:3.25;stroke-dasharray:none;stroke-opacity:1"
         id="path250" /><path
         d="m 14.953,25.691 h 1.199"
         style="fill:none;stroke:#000000;stroke-width:0.36;stroke-linecap:butt;stroke-linejoin:miter;stroke-miterlimit:3.25;stroke-dasharray:none;stroke-opacity:1"
         id="path252" /><path
         d="m 14.953,21.77 h 1.199"
         style="fill:none;stroke:#000000;stroke-width:0.36;stroke-linecap:butt;stroke-linejoin:miter;stroke-miterlimit:3.25;stroke-dasharray:none;stroke-opacity:1"
         id="path254" /></g><g
       id="g256"><g
         id="g258"
         clip-path="url(#clipPath262)"><path
           d="M 14.953,110.652 V 21.598"
           style="fill:none;stroke:#000000;stroke-width:0.36;stroke-linecap:butt;stroke-linejoin:miter;stroke-miterlimit:3.25;stroke-dasharray:none;stroke-opacity:1"
           id="path264" /></g></g><g
       id="g266"><text
         transform="translate(12.61248,15.905578)"
         style="font-variant:normal;font-weight:normal;font-size:6.48px;font-family:Arial;-inkscape-font-specification:ArialMT;writing-mode:lr-tb;fill:#000000;fill-opacity:1;fill-rule:nonzero;stroke:none"
         id="text270"><tspan
           x="0"
           y="0"
           id="tspan268">w</tspan></text></g></g></svg>
