<?xml version="1.0" encoding="UTF-8" standalone="no"?>
<!-- Created with Inkscape (http://www.inkscape.org/) -->

<svg
   version="1.1"
   id="svg2"
   xml:space="preserve"
   width="346.66666"
   height="150.66667"
   viewBox="0 0 346.66666 150.66667"
   sodipodi:docname="BD_transload_W_Y.svg"
   inkscape:version="1.1.1 (3bf5ae0d25, 2021-09-20)"
   xmlns:inkscape="http://www.inkscape.org/namespaces/inkscape"
   xmlns:sodipodi="http://sodipodi.sourceforge.net/DTD/sodipodi-0.dtd"
   xmlns="http://www.w3.org/2000/svg"
   xmlns:svg="http://www.w3.org/2000/svg"><defs
     id="defs6"><clipPath
       clipPathUnits="userSpaceOnUse"
       id="clipPath26"><path
         d="m 169,101 h 78 v 11.801 h -78 z"
         id="path24" /></clipPath><clipPath
       clipPathUnits="userSpaceOnUse"
       id="clipPath36"><path
         d="m 168,101 h 80 v 11.801 h -80 z"
         id="path34" /></clipPath><clipPath
       clipPathUnits="userSpaceOnUse"
       id="clipPath242"><path
         d="m 10,21 h 2 v 91.801 h -2 z"
         id="path240" /></clipPath></defs><sodipodi:namedview
     id="namedview4"
     pagecolor="#ffffff"
     bordercolor="#666666"
     borderopacity="1.0"
     inkscape:pageshadow="2"
     inkscape:pageopacity="0.0"
     inkscape:pagecheckerboard="0"
     showgrid="false"
     inkscape:zoom="3.4528847"
     inkscape:cx="173.18852"
     inkscape:cy="75.444164"
     inkscape:window-width="3440"
     inkscape:window-height="1369"
     inkscape:window-x="-8"
     inkscape:window-y="-8"
     inkscape:window-maximized="1"
     inkscape:current-layer="g8" /><g
     id="g8"
     inkscape:groupmode="layer"
     inkscape:label="W_Y"
     transform="matrix(1.3333333,0,0,1.3333333,0,7.1e-6)"><g
       id="g10"><path
         d="m 11.168,108.121 h 7.144 l 1.43,-0.004 h 8.574 l 1.43,-0.004 H 39.75 l 1.426,-0.004 h 12.863 l 1.43,-0.004 h 52.871 l 1.43,0.004 h 12.859 l 1.43,0.004 h 10.003 l 1.43,0.004 h 8.574 l 1.43,0.004 h 7.145"
         style="fill:none;stroke:#5e81b5;stroke-width:1.152;stroke-linecap:square;stroke-linejoin:miter;stroke-miterlimit:3.25;stroke-dasharray:none;stroke-opacity:1"
         id="path12" /><path
         d="m 11.168,28.969 1.43,0.679 2.859,1.368 1.426,0.679 2.859,1.36 2.86,1.367 1.425,0.683 2.86,1.368 1.429,0.687 1.43,0.684 1.43,0.687 1.426,0.688 4.289,2.062 1.429,0.684 1.43,0.687 1.426,0.68 1.429,0.684 2.86,1.359 1.43,0.676 1.425,0.672 2.86,1.336 2.859,1.32 1.43,0.652 1.426,0.653 1.429,0.64 1.43,0.637 1.43,0.633 2.859,1.25 1.426,0.605 1.429,0.606 1.43,0.597 2.86,1.172 1.429,0.563 1.426,0.562 1.43,0.551 2.859,1.07 1.43,0.508 1.426,0.508 1.429,0.488 2.86,0.946 2.859,0.875 1.426,0.414 1.429,0.398 1.43,0.391 2.859,0.703 1.43,0.32 1.426,0.301 1.43,0.293 2.859,0.492 1.43,0.207 1.429,0.184 1.426,0.172 1.43,0.117 1.43,0.113 1.429,0.062 1.43,0.043 1.426,0.02 1.429,-0.043 1.43,-0.047 1.43,-0.113 1.429,-0.141 1.43,-0.168 1.426,-0.246 1.43,-0.246 1.429,-0.344 1.43,-0.371 1.43,-0.414 1.429,-0.508 1.426,-0.507 1.43,-0.649 1.429,-0.676 1.43,-0.746 1.43,-0.867 1.426,-0.863 1.429,-1.078 1.43,-1.102 1.43,-1.223 2.859,-2.765 1.426,-1.692 1.43,-1.707 1.429,-1.847 1.43,-2.004 1.43,-2"
         style="fill:none;stroke:#e19c24;stroke-width:1.152;stroke-linecap:square;stroke-linejoin:miter;stroke-miterlimit:3.25;stroke-dasharray:none;stroke-opacity:1"
         id="path14" /><path
         d="m 155.469,108.121 h 1.898 l 0.11,-0.004 0.128,-0.004 0.145,-0.011 0.164,-0.016 0.18,-0.02 0.195,-0.027 0.219,-0.039 0.234,-0.043 0.254,-0.055 0.27,-0.062 0.289,-0.067 0.3,-0.074 0.317,-0.074 0.324,-0.074 0.336,-0.071 0.34,-0.07 0.348,-0.062 0.347,-0.055 0.352,-0.043 0.355,-0.035 0.364,-0.031 0.367,-0.02 0.375,-0.016 0.386,-0.007 0.395,-0.008 0.41,-0.004 h 4.168"
         style="fill:none;stroke:#ffffff;stroke-width:2.88;stroke-linecap:butt;stroke-linejoin:round;stroke-miterlimit:3.25;stroke-dasharray:none;stroke-opacity:0.666667"
         id="path16" /><path
         d="m 155.469,108.121 h 1.898 l 0.11,-0.004 0.128,-0.004 0.145,-0.011 0.164,-0.016 0.18,-0.02 0.195,-0.027 0.219,-0.039 0.234,-0.043 0.254,-0.055 0.27,-0.062 0.289,-0.067 0.3,-0.074 0.317,-0.074 0.324,-0.074 0.336,-0.071 0.34,-0.07 0.348,-0.062 0.347,-0.055 0.352,-0.043 0.355,-0.035 0.364,-0.031 0.367,-0.02 0.375,-0.016 0.386,-0.007 0.395,-0.008 0.41,-0.004 h 4.168"
         style="fill:none;stroke:#aaaaaa;stroke-width:0.9;stroke-linecap:square;stroke-linejoin:miter;stroke-miterlimit:3.25;stroke-dasharray:none;stroke-opacity:1"
         id="path18" /></g><g
       id="g20"><g
         id="g22"
         clip-path="url(#clipPath26)"><path
           d="m 169.039,101.727 h 77.758 v 10.801 h -77.758 z"
           style="fill:#ffffff;fill-opacity:0.666667;fill-rule:nonzero;stroke:none"
           id="path28" /></g></g><g
       id="g30"><g
         id="g32"
         clip-path="url(#clipPath36)"><path
           d="m 169.039,101.727 h 77.758 v 10.801 h -77.758 z"
           style="fill:none;stroke:#ffffff;stroke-width:0.9;stroke-linecap:square;stroke-linejoin:miter;stroke-miterlimit:3.25;stroke-dasharray:none;stroke-opacity:0.666667"
           id="path38" /><text
           transform="translate(173.19403,108.56125)"
           style="font-variant:normal;font-weight:normal;font-size:6.48px;font-family:Arial;-inkscape-font-specification:ArialMT;writing-mode:lr-tb;fill:#000000;fill-opacity:1;fill-rule:nonzero;stroke:none"
           id="text42"><tspan
             sodipodi:role="line"
             id="tspan40"
             x="0"
             y="0">layer $\left[-45/45/-45/45\right]$</tspan></text></g></g><g
       id="g64"><path
         d="m 155.469,44.758 h 6.75 l 0.355,0.004 h 6.465"
         style="fill:none;stroke:#ffffff;stroke-width:2.88;stroke-linecap:butt;stroke-linejoin:round;stroke-miterlimit:3.25;stroke-dasharray:none;stroke-opacity:0.666667"
         id="path66" /><path
         d="m 155.469,44.758 h 6.75 l 0.355,0.004 h 6.465"
         style="fill:none;stroke:#aaaaaa;stroke-width:0.9;stroke-linecap:square;stroke-linejoin:miter;stroke-miterlimit:3.25;stroke-dasharray:none;stroke-opacity:1"
         id="path68" /><path
         d="m 169.039,39.359 h 82.078 V 50.16 h -82.078 z"
         style="fill:#ffffff;fill-opacity:0.666667;fill-rule:nonzero;stroke:none"
         id="path70" /><path
         d="m 169.039,39.359 h 82.078 V 50.16 h -82.078 z"
         style="fill:none;stroke:#ffffff;stroke-width:0.9;stroke-linecap:square;stroke-linejoin:miter;stroke-miterlimit:3.25;stroke-dasharray:none;stroke-opacity:0.666667"
         id="path72" /><text
         transform="translate(171.56981,46.193286)"
         style="font-variant:normal;font-weight:normal;font-size:6.48px;font-family:Arial;-inkscape-font-specification:ArialMT;writing-mode:lr-tb;fill:#000000;fill-opacity:1;fill-rule:nonzero;stroke:none"
         id="text76"><tspan
           sodipodi:role="line"
           id="tspan74"
           x="0"
           y="0">layer $\left[-30/-45/-30/-45\right]$</tspan></text><path
         d="m 11.168,97.715 v -2"
         style="fill:none;stroke:#000000;stroke-width:0.36;stroke-linecap:butt;stroke-linejoin:miter;stroke-miterlimit:3.25;stroke-dasharray:none;stroke-opacity:1"
         id="path114" /><path
         d="M 18.242,97.715 V 96.516"
         style="fill:none;stroke:#000000;stroke-width:0.36;stroke-linecap:butt;stroke-linejoin:miter;stroke-miterlimit:3.25;stroke-dasharray:none;stroke-opacity:1"
         id="path116" /><path
         d="M 25.316,97.715 V 96.516"
         style="fill:none;stroke:#000000;stroke-width:0.36;stroke-linecap:butt;stroke-linejoin:miter;stroke-miterlimit:3.25;stroke-dasharray:none;stroke-opacity:1"
         id="path118" /><path
         d="M 32.391,97.715 V 96.516"
         style="fill:none;stroke:#000000;stroke-width:0.36;stroke-linecap:butt;stroke-linejoin:miter;stroke-miterlimit:3.25;stroke-dasharray:none;stroke-opacity:1"
         id="path120" /><path
         d="m 39.461,97.715 v -2"
         style="fill:none;stroke:#000000;stroke-width:0.36;stroke-linecap:butt;stroke-linejoin:miter;stroke-miterlimit:3.25;stroke-dasharray:none;stroke-opacity:1"
         id="path122" /><text
         transform="translate(37.660461,105.74287)"
         style="font-variant:normal;font-weight:normal;font-size:6.48px;font-family:Arial;-inkscape-font-specification:ArialMT;writing-mode:lr-tb;fill:#000000;fill-opacity:1;fill-rule:nonzero;stroke:none"
         id="text126"><tspan
           x="0"
           y="0"
           id="tspan124">2</tspan></text><path
         d="M 46.535,97.715 V 96.516"
         style="fill:none;stroke:#000000;stroke-width:0.36;stroke-linecap:butt;stroke-linejoin:miter;stroke-miterlimit:3.25;stroke-dasharray:none;stroke-opacity:1"
         id="path128" /><path
         d="M 53.609,97.715 V 96.516"
         style="fill:none;stroke:#000000;stroke-width:0.36;stroke-linecap:butt;stroke-linejoin:miter;stroke-miterlimit:3.25;stroke-dasharray:none;stroke-opacity:1"
         id="path130" /><path
         d="M 60.684,97.715 V 96.516"
         style="fill:none;stroke:#000000;stroke-width:0.36;stroke-linecap:butt;stroke-linejoin:miter;stroke-miterlimit:3.25;stroke-dasharray:none;stroke-opacity:1"
         id="path132" /><path
         d="m 67.758,97.715 v -2"
         style="fill:none;stroke:#000000;stroke-width:0.36;stroke-linecap:butt;stroke-linejoin:miter;stroke-miterlimit:3.25;stroke-dasharray:none;stroke-opacity:1"
         id="path134" /><text
         transform="translate(65.954769,105.74287)"
         style="font-variant:normal;font-weight:normal;font-size:6.48px;font-family:Arial;-inkscape-font-specification:ArialMT;writing-mode:lr-tb;fill:#000000;fill-opacity:1;fill-rule:nonzero;stroke:none"
         id="text138"><tspan
           x="0"
           y="0"
           id="tspan136">4</tspan></text><path
         d="M 74.832,97.715 V 96.516"
         style="fill:none;stroke:#000000;stroke-width:0.36;stroke-linecap:butt;stroke-linejoin:miter;stroke-miterlimit:3.25;stroke-dasharray:none;stroke-opacity:1"
         id="path140" /><path
         d="M 81.902,97.715 V 96.516"
         style="fill:none;stroke:#000000;stroke-width:0.36;stroke-linecap:butt;stroke-linejoin:miter;stroke-miterlimit:3.25;stroke-dasharray:none;stroke-opacity:1"
         id="path142" /><path
         d="M 88.977,97.715 V 96.516"
         style="fill:none;stroke:#000000;stroke-width:0.36;stroke-linecap:butt;stroke-linejoin:miter;stroke-miterlimit:3.25;stroke-dasharray:none;stroke-opacity:1"
         id="path144" /><path
         d="m 96.051,97.715 v -2"
         style="fill:none;stroke:#000000;stroke-width:0.36;stroke-linecap:butt;stroke-linejoin:miter;stroke-miterlimit:3.25;stroke-dasharray:none;stroke-opacity:1"
         id="path146" /><text
         transform="translate(94.249078,105.74287)"
         style="font-variant:normal;font-weight:normal;font-size:6.48px;font-family:Arial;-inkscape-font-specification:ArialMT;writing-mode:lr-tb;fill:#000000;fill-opacity:1;fill-rule:nonzero;stroke:none"
         id="text150"><tspan
           x="0"
           y="0"
           id="tspan148">6</tspan></text><path
         d="M 103.125,97.715 V 96.516"
         style="fill:none;stroke:#000000;stroke-width:0.36;stroke-linecap:butt;stroke-linejoin:miter;stroke-miterlimit:3.25;stroke-dasharray:none;stroke-opacity:1"
         id="path152" /><path
         d="M 110.199,97.715 V 96.516"
         style="fill:none;stroke:#000000;stroke-width:0.36;stroke-linecap:butt;stroke-linejoin:miter;stroke-miterlimit:3.25;stroke-dasharray:none;stroke-opacity:1"
         id="path154" /><path
         d="M 117.273,97.715 V 96.516"
         style="fill:none;stroke:#000000;stroke-width:0.36;stroke-linecap:butt;stroke-linejoin:miter;stroke-miterlimit:3.25;stroke-dasharray:none;stroke-opacity:1"
         id="path156" /><path
         d="m 124.344,97.715 v -2"
         style="fill:none;stroke:#000000;stroke-width:0.36;stroke-linecap:butt;stroke-linejoin:miter;stroke-miterlimit:3.25;stroke-dasharray:none;stroke-opacity:1"
         id="path158" /><text
         transform="translate(122.54339,105.74287)"
         style="font-variant:normal;font-weight:normal;font-size:6.48px;font-family:Arial;-inkscape-font-specification:ArialMT;writing-mode:lr-tb;fill:#000000;fill-opacity:1;fill-rule:nonzero;stroke:none"
         id="text162"><tspan
           x="0"
           y="0"
           id="tspan160">8</tspan></text><path
         d="M 131.418,97.715 V 96.516"
         style="fill:none;stroke:#000000;stroke-width:0.36;stroke-linecap:butt;stroke-linejoin:miter;stroke-miterlimit:3.25;stroke-dasharray:none;stroke-opacity:1"
         id="path164" /><path
         d="M 138.492,97.715 V 96.516"
         style="fill:none;stroke:#000000;stroke-width:0.36;stroke-linecap:butt;stroke-linejoin:miter;stroke-miterlimit:3.25;stroke-dasharray:none;stroke-opacity:1"
         id="path166" /><path
         d="M 145.566,97.715 V 96.516"
         style="fill:none;stroke:#000000;stroke-width:0.36;stroke-linecap:butt;stroke-linejoin:miter;stroke-miterlimit:3.25;stroke-dasharray:none;stroke-opacity:1"
         id="path168" /><path
         d="m 152.641,97.715 v -2"
         style="fill:none;stroke:#000000;stroke-width:0.36;stroke-linecap:butt;stroke-linejoin:miter;stroke-miterlimit:3.25;stroke-dasharray:none;stroke-opacity:1"
         id="path170" /><text
         transform="translate(149.03576,105.74287)"
         style="font-variant:normal;font-weight:normal;font-size:6.48px;font-family:Arial;-inkscape-font-specification:ArialMT;writing-mode:lr-tb;fill:#000000;fill-opacity:1;fill-rule:nonzero;stroke:none"
         id="text174"><tspan
           x="0 3.60288"
           y="0"
           sodipodi:role="line"
           id="tspan172">10</tspan></text><path
         d="M 8.223,97.715 H 155.586"
         style="fill:none;stroke:#000000;stroke-width:0.36;stroke-linecap:butt;stroke-linejoin:miter;stroke-miterlimit:3.25;stroke-dasharray:none;stroke-opacity:1"
         id="path176" /><text
         transform="translate(161.34695,99.96318)"
         style="font-variant:normal;font-weight:normal;font-size:6.48px;font-family:Arial;-inkscape-font-specification:ArialMT;writing-mode:lr-tb;fill:#000000;fill-opacity:1;fill-rule:nonzero;stroke:none"
         id="text180"><tspan
           x="0"
           y="0"
           id="tspan178">y</tspan></text><path
         d="m 11.168,110.824 h 1.199"
         style="fill:none;stroke:#000000;stroke-width:0.36;stroke-linecap:butt;stroke-linejoin:miter;stroke-miterlimit:3.25;stroke-dasharray:none;stroke-opacity:1"
         id="path182" /><path
         d="m 11.168,106.457 h 1.199"
         style="fill:none;stroke:#000000;stroke-width:0.36;stroke-linecap:butt;stroke-linejoin:miter;stroke-miterlimit:3.25;stroke-dasharray:none;stroke-opacity:1"
         id="path184" /><path
         d="m 11.168,102.086 h 1.199"
         style="fill:none;stroke:#000000;stroke-width:0.36;stroke-linecap:butt;stroke-linejoin:miter;stroke-miterlimit:3.25;stroke-dasharray:none;stroke-opacity:1"
         id="path186" /><path
         d="m 11.168,97.715 h 2"
         style="fill:none;stroke:#000000;stroke-width:0.36;stroke-linecap:butt;stroke-linejoin:miter;stroke-miterlimit:3.25;stroke-dasharray:none;stroke-opacity:1"
         id="path188" /><path
         d="m 11.168,93.348 h 1.199"
         style="fill:none;stroke:#000000;stroke-width:0.36;stroke-linecap:butt;stroke-linejoin:miter;stroke-miterlimit:3.25;stroke-dasharray:none;stroke-opacity:1"
         id="path190" /><path
         d="m 11.168,88.977 h 1.199"
         style="fill:none;stroke:#000000;stroke-width:0.36;stroke-linecap:butt;stroke-linejoin:miter;stroke-miterlimit:3.25;stroke-dasharray:none;stroke-opacity:1"
         id="path192" /><path
         d="m 11.168,84.609 h 1.199"
         style="fill:none;stroke:#000000;stroke-width:0.36;stroke-linecap:butt;stroke-linejoin:miter;stroke-miterlimit:3.25;stroke-dasharray:none;stroke-opacity:1"
         id="path194" /><path
         d="m 11.168,80.238 h 1.199"
         style="fill:none;stroke:#000000;stroke-width:0.36;stroke-linecap:butt;stroke-linejoin:miter;stroke-miterlimit:3.25;stroke-dasharray:none;stroke-opacity:1"
         id="path196" /><path
         d="m 11.168,75.867 h 2"
         style="fill:none;stroke:#000000;stroke-width:0.36;stroke-linecap:butt;stroke-linejoin:miter;stroke-miterlimit:3.25;stroke-dasharray:none;stroke-opacity:1"
         id="path198" /><text
         transform="translate(0,78.115401)"
         style="font-variant:normal;font-weight:normal;font-size:6.48px;font-family:Arial;-inkscape-font-specification:ArialMT;writing-mode:lr-tb;fill:#000000;fill-opacity:1;fill-rule:nonzero;stroke:none"
         id="text202"><tspan
           x="0 3.60288 5.39784"
           y="0"
           sodipodi:role="line"
           id="tspan200">0.1</tspan></text><path
         d="m 11.168,71.5 h 1.199"
         style="fill:none;stroke:#000000;stroke-width:0.36;stroke-linecap:butt;stroke-linejoin:miter;stroke-miterlimit:3.25;stroke-dasharray:none;stroke-opacity:1"
         id="path204" /><path
         d="m 11.168,67.129 h 1.199"
         style="fill:none;stroke:#000000;stroke-width:0.36;stroke-linecap:butt;stroke-linejoin:miter;stroke-miterlimit:3.25;stroke-dasharray:none;stroke-opacity:1"
         id="path206" /><path
         d="m 11.168,62.762 h 1.199"
         style="fill:none;stroke:#000000;stroke-width:0.36;stroke-linecap:butt;stroke-linejoin:miter;stroke-miterlimit:3.25;stroke-dasharray:none;stroke-opacity:1"
         id="path208" /><path
         d="m 11.168,58.391 h 1.199"
         style="fill:none;stroke:#000000;stroke-width:0.36;stroke-linecap:butt;stroke-linejoin:miter;stroke-miterlimit:3.25;stroke-dasharray:none;stroke-opacity:1"
         id="path210" /><path
         d="m 11.168,54.02 h 2"
         style="fill:none;stroke:#000000;stroke-width:0.36;stroke-linecap:butt;stroke-linejoin:miter;stroke-miterlimit:3.25;stroke-dasharray:none;stroke-opacity:1"
         id="path212" /><text
         transform="translate(0,56.267623)"
         style="font-variant:normal;font-weight:normal;font-size:6.48px;font-family:Arial;-inkscape-font-specification:ArialMT;writing-mode:lr-tb;fill:#000000;fill-opacity:1;fill-rule:nonzero;stroke:none"
         id="text216"><tspan
           x="0 3.60288 5.39784"
           y="0"
           sodipodi:role="line"
           id="tspan214">0.2</tspan></text><path
         d="m 11.168,49.652 h 1.199"
         style="fill:none;stroke:#000000;stroke-width:0.36;stroke-linecap:butt;stroke-linejoin:miter;stroke-miterlimit:3.25;stroke-dasharray:none;stroke-opacity:1"
         id="path218" /><path
         d="m 11.168,45.281 h 1.199"
         style="fill:none;stroke:#000000;stroke-width:0.36;stroke-linecap:butt;stroke-linejoin:miter;stroke-miterlimit:3.25;stroke-dasharray:none;stroke-opacity:1"
         id="path220" /><path
         d="m 11.168,40.914 h 1.199"
         style="fill:none;stroke:#000000;stroke-width:0.36;stroke-linecap:butt;stroke-linejoin:miter;stroke-miterlimit:3.25;stroke-dasharray:none;stroke-opacity:1"
         id="path222" /><path
         d="m 11.168,36.543 h 1.199"
         style="fill:none;stroke:#000000;stroke-width:0.36;stroke-linecap:butt;stroke-linejoin:miter;stroke-miterlimit:3.25;stroke-dasharray:none;stroke-opacity:1"
         id="path224" /><path
         d="m 11.168,32.172 h 2"
         style="fill:none;stroke:#000000;stroke-width:0.36;stroke-linecap:butt;stroke-linejoin:miter;stroke-miterlimit:3.25;stroke-dasharray:none;stroke-opacity:1"
         id="path226" /><text
         transform="translate(0,34.419844)"
         style="font-variant:normal;font-weight:normal;font-size:6.48px;font-family:Arial;-inkscape-font-specification:ArialMT;writing-mode:lr-tb;fill:#000000;fill-opacity:1;fill-rule:nonzero;stroke:none"
         id="text230"><tspan
           x="0 3.60288 5.39784"
           y="0"
           sodipodi:role="line"
           id="tspan228">0.3</tspan></text><path
         d="m 11.168,27.805 h 1.199"
         style="fill:none;stroke:#000000;stroke-width:0.36;stroke-linecap:butt;stroke-linejoin:miter;stroke-miterlimit:3.25;stroke-dasharray:none;stroke-opacity:1"
         id="path232" /><path
         d="m 11.168,23.434 h 1.199"
         style="fill:none;stroke:#000000;stroke-width:0.36;stroke-linecap:butt;stroke-linejoin:miter;stroke-miterlimit:3.25;stroke-dasharray:none;stroke-opacity:1"
         id="path234" /></g><g
       id="g236"><g
         id="g238"
         clip-path="url(#clipPath242)"><path
           d="M 11.168,112.676 V 21.598"
           style="fill:none;stroke:#000000;stroke-width:0.36;stroke-linecap:butt;stroke-linejoin:miter;stroke-miterlimit:3.25;stroke-dasharray:none;stroke-opacity:1"
           id="path244" /></g></g><g
       id="g246"><text
         transform="translate(8.828262,15.905578)"
         style="font-variant:normal;font-weight:normal;font-size:6.48px;font-family:Arial;-inkscape-font-specification:ArialMT;writing-mode:lr-tb;fill:#000000;fill-opacity:1;fill-rule:nonzero;stroke:none"
         id="text250"><tspan
           x="0"
           y="0"
           id="tspan248">w</tspan></text><text
         transform="translate(35.508294,7.039406)"
         style="font-variant:normal;font-weight:normal;font-size:7.776px;font-family:Arial;-inkscape-font-specification:ArialMT;writing-mode:lr-tb;fill:#000000;fill-opacity:1;fill-rule:nonzero;stroke:none"
         id="text254"><tspan
           sodipodi:role="line"
           id="tspan252"
           x="0"
           y="0" /></text><text
         transform="translate(115.5654,7.039406)"
         style="font-variant:normal;font-weight:normal;font-size:7.2px;font-family:MathematicaSans;-inkscape-font-specification:MathematicaSans;writing-mode:lr-tb;fill:#000000;fill-opacity:1;fill-rule:nonzero;stroke:none"
         id="text258"><tspan
           sodipodi:role="line"
           id="tspan256"
           x="0"
           y="0" /></text><text
         transform="translate(123.97478,7.039406)"
         style="font-variant:normal;font-weight:normal;font-size:7.776px;font-family:Arial;-inkscape-font-specification:ArialMT;writing-mode:lr-tb;fill:#000000;fill-opacity:1;fill-rule:nonzero;stroke:none"
         id="text262"><tspan
           x="0"
           y="0"
           id="tspan260" /></text></g></g></svg>
