<?xml version="1.0" encoding="UTF-8" standalone="no"?>
<!-- Created with Inkscape (http://www.inkscape.org/) -->

<svg
   version="1.1"
   id="svg2"
   xml:space="preserve"
   width="346.66666"
   height="134.66667"
   viewBox="0 0 346.66666 134.66667"
   sodipodi:docname="BD_transload_V_X.svg"
   inkscape:version="1.1.1 (3bf5ae0d25, 2021-09-20)"
   xmlns:inkscape="http://www.inkscape.org/namespaces/inkscape"
   xmlns:sodipodi="http://sodipodi.sourceforge.net/DTD/sodipodi-0.dtd"
   xmlns="http://www.w3.org/2000/svg"
   xmlns:svg="http://www.w3.org/2000/svg"><defs
     id="defs6" /><sodipodi:namedview
     id="namedview4"
     pagecolor="#ffffff"
     bordercolor="#666666"
     borderopacity="1.0"
     inkscape:pageshadow="2"
     inkscape:pageopacity="0.0"
     inkscape:pagecheckerboard="0"
     showgrid="false"
     inkscape:zoom="3.4500001"
     inkscape:cx="173.33333"
     inkscape:cy="67.391302"
     inkscape:window-width="3440"
     inkscape:window-height="1369"
     inkscape:window-x="-8"
     inkscape:window-y="-8"
     inkscape:window-maximized="1"
     inkscape:current-layer="g10" /><g
     id="g8"
     inkscape:groupmode="layer"
     inkscape:label="V_X"
     transform="matrix(1.3333333,0,0,1.3333333,0,6.7e-6)"><g
       id="g10"><path
         d="m 22.16,44.91 1.227,0.094 1.23,0.09 1.227,0.082 1.23,0.078 1.227,0.074 1.23,0.07 1.227,0.071 1.23,0.07 1.227,0.066 1.23,0.067 1.227,0.062 1.23,0.063 1.227,0.058 1.23,0.063 1.227,0.059 1.226,0.054 1.231,0.055 1.227,0.055 1.23,0.054 1.227,0.051 1.23,0.051 1.227,0.051 1.23,0.047 1.227,0.046 1.23,0.047 1.227,0.043 1.23,0.043 1.227,0.043 1.23,0.039 1.227,0.043 1.226,0.039 1.231,0.035 1.226,0.039 1.231,0.036 1.226,0.035 1.231,0.031 1.226,0.035 1.231,0.031 1.226,0.032 1.231,0.027 1.226,0.031 1.231,0.028 1.226,0.027 1.231,0.023 1.227,0.028 1.226,0.023 1.231,0.024 1.226,0.023 1.231,0.02 1.226,0.023 1.231,0.02 1.226,0.019 1.231,0.016 1.226,0.019 1.231,0.016 1.226,0.019 1.231,0.016 1.226,0.012 1.231,0.015 1.226,0.016 1.227,0.012 1.23,0.011 1.227,0.012 1.23,0.012 1.227,0.012 1.23,0.007 1.227,0.012 1.23,0.008 1.227,0.008 1.23,0.008 1.227,0.007 1.23,0.008 1.227,0.008 1.23,0.004 1.227,0.008 1.227,0.004 1.23,0.007 1.227,0.004 1.23,0.004 1.227,0.004 1.23,0.004 1.227,0.004 1.23,0.004 h 1.227 l 1.23,0.004 1.227,0.004 h 1.23 l 1.227,0.004 h 2.457 l 1.226,0.004 h 2.457 l 1.231,0.003 h 3.683 l 1.231,0.004 h 1.227"
         style="fill:none;stroke:#5e81b5;stroke-width:1.152;stroke-linecap:square;stroke-linejoin:miter;stroke-miterlimit:3.25;stroke-dasharray:none;stroke-opacity:1"
         id="path12" /><path
         d="m 22.16,44.91 1.227,-7.738 1.23,-7.738 1.227,-1.5 1.23,4.14 1.227,3.969 1.23,0.769 1.227,0.77 1.23,1.07 1.227,1.289 1.23,1.27 1.227,1.09 1.23,1.086 1.227,1.066 1.23,1.055 1.227,1.047 1.226,0.988 1.231,0.992 1.227,0.942 1.23,0.921 1.227,0.911 1.23,0.851 1.227,0.852 1.23,0.804 1.227,0.786 1.23,0.769 1.227,0.719 1.23,0.722 1.227,0.68 1.23,0.668 1.227,0.652 1.226,0.618 1.231,0.621 1.226,0.586 1.231,0.578 1.226,0.566 1.231,0.543 1.226,0.547 1.231,0.52 1.226,0.519 1.231,0.508 1.226,0.496 1.231,0.5 1.226,0.484 1.231,0.481 1.227,0.48 1.226,0.477 1.231,0.473 1.226,0.472 1.231,0.477 1.226,0.472 1.231,0.477 1.226,0.477 1.231,0.488 1.226,0.484 1.231,0.492 1.226,0.497 1.231,0.5 1.226,0.515 1.231,0.516 1.226,0.523 1.227,0.531 1.23,0.536 1.227,0.546 1.23,0.551 1.227,0.559 1.23,0.566 1.227,0.571 1.23,0.578 1.227,0.582 1.23,0.586 1.227,0.59 1.23,0.589 1.227,0.594 1.23,0.594 1.227,0.594 1.227,0.589 1.23,0.59 1.227,0.586 1.23,0.586 1.227,0.574 1.23,0.571 1.227,0.566 1.23,0.555 1.227,0.555 1.23,0.539 1.227,0.535 1.23,0.531 1.227,0.527 1.23,0.524 1.227,0.523 1.226,0.528 1.231,0.531 1.226,0.547 1.231,0.543 1.226,0.586 1.231,0.586 1.226,0.546 1.231,0.496 1.227,0.497"
         style="fill:none;stroke:#e19c24;stroke-width:1.152;stroke-linecap:square;stroke-linejoin:miter;stroke-miterlimit:3.25;stroke-dasharray:none;stroke-opacity:1"
         id="path14" /><path
         d="m 146.203,47.652 h 1.512 l 0.043,-0.004 0.047,-0.003 0.05,-0.012 0.059,-0.02 0.066,-0.027 0.075,-0.035 0.082,-0.051 0.093,-0.066 0.102,-0.079 0.117,-0.101 0.125,-0.117 0.141,-0.141 0.152,-0.16 0.168,-0.188 0.18,-0.214 0.199,-0.246 0.215,-0.274 0.23,-0.305 0.246,-0.336 0.266,-0.363 0.277,-0.39 0.29,-0.407 0.3,-0.429 0.309,-0.438 0.316,-0.449 0.325,-0.457 0.328,-0.457 0.332,-0.457 0.332,-0.453 0.332,-0.446 0.328,-0.433 0.328,-0.418 0.324,-0.399 0.317,-0.375 0.308,-0.351 0.301,-0.324 0.289,-0.289 0.277,-0.258 0.27,-0.227 0.266,-0.203 0.253,-0.176 0.247,-0.148 0.242,-0.129 0.238,-0.109 0.234,-0.09 0.231,-0.071 0.23,-0.058 0.227,-0.043 0.23,-0.031 0.227,-0.024 0.23,-0.016 0.231,-0.007 0.234,-0.004 h 3.66"
         style="fill:none;stroke:#ffffff;stroke-width:2.88;stroke-linecap:butt;stroke-linejoin:round;stroke-miterlimit:3.25;stroke-dasharray:none;stroke-opacity:0.666667"
         id="path16" /><path
         d="m 146.203,47.652 h 1.512 l 0.043,-0.004 0.047,-0.003 0.05,-0.012 0.059,-0.02 0.066,-0.027 0.075,-0.035 0.082,-0.051 0.093,-0.066 0.102,-0.079 0.117,-0.101 0.125,-0.117 0.141,-0.141 0.152,-0.16 0.168,-0.188 0.18,-0.214 0.199,-0.246 0.215,-0.274 0.23,-0.305 0.246,-0.336 0.266,-0.363 0.277,-0.39 0.29,-0.407 0.3,-0.429 0.309,-0.438 0.316,-0.449 0.325,-0.457 0.328,-0.457 0.332,-0.457 0.332,-0.453 0.332,-0.446 0.328,-0.433 0.328,-0.418 0.324,-0.399 0.317,-0.375 0.308,-0.351 0.301,-0.324 0.289,-0.289 0.277,-0.258 0.27,-0.227 0.266,-0.203 0.253,-0.176 0.247,-0.148 0.242,-0.129 0.238,-0.109 0.234,-0.09 0.231,-0.071 0.23,-0.058 0.227,-0.043 0.23,-0.031 0.227,-0.024 0.23,-0.016 0.231,-0.007 0.234,-0.004 h 3.66"
         style="fill:none;stroke:#aaaaaa;stroke-width:0.9;stroke-linecap:square;stroke-linejoin:miter;stroke-miterlimit:3.25;stroke-dasharray:none;stroke-opacity:1"
         id="path18" /><path
         d="m 163.234,30.945 h 77.758 v 10.797 h -77.758 z"
         style="fill:#ffffff;fill-opacity:0.666667;fill-rule:nonzero;stroke:none"
         id="path20" /><path
         d="m 163.234,30.945 h 77.758 v 10.797 h -77.758 z"
         style="fill:none;stroke:#ffffff;stroke-width:0.9;stroke-linecap:square;stroke-linejoin:miter;stroke-miterlimit:3.25;stroke-dasharray:none;stroke-opacity:0.666667"
         id="path22" /><text
         transform="translate(167.38883,37.776592)"
         style="font-variant:normal;font-weight:normal;font-size:6.48px;font-family:Arial;-inkscape-font-specification:ArialMT;writing-mode:lr-tb;fill:#000000;fill-opacity:1;fill-rule:nonzero;stroke:none"
         id="text26"><tspan
           sodipodi:role="line"
           id="tspan24"
           x="0"
           y="0">layer $\left[-45/45/-45/45\right]$</tspan></text><path
         d="m 146.203,95.977 h 1.488 l 0.043,-0.004 h 0.047 l 0.055,-0.012 0.062,-0.016 0.071,-0.023 0.082,-0.035 0.09,-0.051 0.105,-0.066 0.117,-0.082 0.129,-0.106 0.145,-0.125 0.16,-0.148 0.176,-0.176 0.195,-0.207 0.215,-0.235 0.234,-0.265 0.254,-0.305 0.274,-0.336 0.293,-0.367 0.308,-0.391 0.324,-0.41 0.336,-0.429 0.344,-0.442 0.355,-0.449 0.36,-0.453 0.363,-0.453 0.363,-0.45 0.364,-0.437 0.363,-0.43 0.359,-0.406 0.352,-0.387 0.344,-0.363 0.336,-0.332 0.32,-0.297 0.309,-0.262 0.3,-0.23 0.285,-0.199 0.282,-0.168 0.273,-0.149 0.262,-0.121 0.262,-0.098 0.253,-0.082 0.254,-0.062 0.25,-0.047 0.25,-0.035 0.25,-0.024 0.254,-0.015 0.254,-0.008 h 0.258 l 0.262,-0.004 h 3.347"
         style="fill:none;stroke:#ffffff;stroke-width:2.88;stroke-linecap:butt;stroke-linejoin:round;stroke-miterlimit:3.25;stroke-dasharray:none;stroke-opacity:0.666667"
         id="path48" /><path
         d="m 146.203,95.977 h 1.488 l 0.043,-0.004 h 0.047 l 0.055,-0.012 0.062,-0.016 0.071,-0.023 0.082,-0.035 0.09,-0.051 0.105,-0.066 0.117,-0.082 0.129,-0.106 0.145,-0.125 0.16,-0.148 0.176,-0.176 0.195,-0.207 0.215,-0.235 0.234,-0.265 0.254,-0.305 0.274,-0.336 0.293,-0.367 0.308,-0.391 0.324,-0.41 0.336,-0.429 0.344,-0.442 0.355,-0.449 0.36,-0.453 0.363,-0.453 0.363,-0.45 0.364,-0.437 0.363,-0.43 0.359,-0.406 0.352,-0.387 0.344,-0.363 0.336,-0.332 0.32,-0.297 0.309,-0.262 0.3,-0.23 0.285,-0.199 0.282,-0.168 0.273,-0.149 0.262,-0.121 0.262,-0.098 0.253,-0.082 0.254,-0.062 0.25,-0.047 0.25,-0.035 0.25,-0.024 0.254,-0.015 0.254,-0.008 h 0.258 l 0.262,-0.004 h 3.347"
         style="fill:none;stroke:#aaaaaa;stroke-width:0.9;stroke-linecap:square;stroke-linejoin:miter;stroke-miterlimit:3.25;stroke-dasharray:none;stroke-opacity:1"
         id="path50" /><path
         d="m 163.234,80.387 h 82.078 v 10.801 h -82.078 z"
         style="fill:#ffffff;fill-opacity:0.666667;fill-rule:nonzero;stroke:none"
         id="path52" /><path
         d="m 163.234,80.387 h 82.078 v 10.801 h -82.078 z"
         style="fill:none;stroke:#ffffff;stroke-width:0.9;stroke-linecap:square;stroke-linejoin:miter;stroke-miterlimit:3.25;stroke-dasharray:none;stroke-opacity:0.666667"
         id="path54" /><text
         transform="translate(165.76461,87.219722)"
         style="font-variant:normal;font-weight:normal;font-size:6.48px;font-family:Arial;-inkscape-font-specification:ArialMT;writing-mode:lr-tb;fill:#000000;fill-opacity:1;fill-rule:nonzero;stroke:none"
         id="text58"><tspan
           sodipodi:role="line"
           id="tspan56"
           x="0"
           y="0">layer $\left[-30/-45/-30/-45\right]$</tspan></text><path
         d="m 22.16,44.91 v -2"
         style="fill:none;stroke:#000000;stroke-width:0.36;stroke-linecap:butt;stroke-linejoin:miter;stroke-miterlimit:3.25;stroke-dasharray:none;stroke-opacity:1"
         id="path96" /><path
         d="M 28.242,44.91 V 43.711"
         style="fill:none;stroke:#000000;stroke-width:0.36;stroke-linecap:butt;stroke-linejoin:miter;stroke-miterlimit:3.25;stroke-dasharray:none;stroke-opacity:1"
         id="path98" /><path
         d="M 34.32,44.91 V 43.711"
         style="fill:none;stroke:#000000;stroke-width:0.36;stroke-linecap:butt;stroke-linejoin:miter;stroke-miterlimit:3.25;stroke-dasharray:none;stroke-opacity:1"
         id="path100" /><path
         d="M 40.402,44.91 V 43.711"
         style="fill:none;stroke:#000000;stroke-width:0.36;stroke-linecap:butt;stroke-linejoin:miter;stroke-miterlimit:3.25;stroke-dasharray:none;stroke-opacity:1"
         id="path102" /><path
         d="M 46.48,44.91 V 43.711"
         style="fill:none;stroke:#000000;stroke-width:0.36;stroke-linecap:butt;stroke-linejoin:miter;stroke-miterlimit:3.25;stroke-dasharray:none;stroke-opacity:1"
         id="path104" /><path
         d="m 52.562,44.91 v -2"
         style="fill:none;stroke:#000000;stroke-width:0.36;stroke-linecap:butt;stroke-linejoin:miter;stroke-miterlimit:3.25;stroke-dasharray:none;stroke-opacity:1"
         id="path106" /><text
         transform="translate(50.760708,52.937222)"
         style="font-variant:normal;font-weight:normal;font-size:6.48px;font-family:Arial;-inkscape-font-specification:ArialMT;writing-mode:lr-tb;fill:#000000;fill-opacity:1;fill-rule:nonzero;stroke:none"
         id="text110"><tspan
           x="0"
           y="0"
           id="tspan108">5</tspan></text><path
         d="M 58.645,44.91 V 43.711"
         style="fill:none;stroke:#000000;stroke-width:0.36;stroke-linecap:butt;stroke-linejoin:miter;stroke-miterlimit:3.25;stroke-dasharray:none;stroke-opacity:1"
         id="path112" /><path
         d="M 64.723,44.91 V 43.711"
         style="fill:none;stroke:#000000;stroke-width:0.36;stroke-linecap:butt;stroke-linejoin:miter;stroke-miterlimit:3.25;stroke-dasharray:none;stroke-opacity:1"
         id="path114" /><path
         d="M 70.805,44.91 V 43.711"
         style="fill:none;stroke:#000000;stroke-width:0.36;stroke-linecap:butt;stroke-linejoin:miter;stroke-miterlimit:3.25;stroke-dasharray:none;stroke-opacity:1"
         id="path116" /><path
         d="M 76.883,44.91 V 43.711"
         style="fill:none;stroke:#000000;stroke-width:0.36;stroke-linecap:butt;stroke-linejoin:miter;stroke-miterlimit:3.25;stroke-dasharray:none;stroke-opacity:1"
         id="path118" /><path
         d="m 82.965,44.91 v -2"
         style="fill:none;stroke:#000000;stroke-width:0.36;stroke-linecap:butt;stroke-linejoin:miter;stroke-miterlimit:3.25;stroke-dasharray:none;stroke-opacity:1"
         id="path120" /><text
         transform="translate(79.361377,52.937222)"
         style="font-variant:normal;font-weight:normal;font-size:6.48px;font-family:Arial;-inkscape-font-specification:ArialMT;writing-mode:lr-tb;fill:#000000;fill-opacity:1;fill-rule:nonzero;stroke:none"
         id="text124"><tspan
           x="0 3.60288"
           y="0"
           sodipodi:role="line"
           id="tspan122">10</tspan></text><path
         d="M 89.047,44.91 V 43.711"
         style="fill:none;stroke:#000000;stroke-width:0.36;stroke-linecap:butt;stroke-linejoin:miter;stroke-miterlimit:3.25;stroke-dasharray:none;stroke-opacity:1"
         id="path126" /><path
         d="M 95.125,44.91 V 43.711"
         style="fill:none;stroke:#000000;stroke-width:0.36;stroke-linecap:butt;stroke-linejoin:miter;stroke-miterlimit:3.25;stroke-dasharray:none;stroke-opacity:1"
         id="path128" /><path
         d="M 101.207,44.91 V 43.711"
         style="fill:none;stroke:#000000;stroke-width:0.36;stroke-linecap:butt;stroke-linejoin:miter;stroke-miterlimit:3.25;stroke-dasharray:none;stroke-opacity:1"
         id="path130" /><path
         d="M 107.289,44.91 V 43.711"
         style="fill:none;stroke:#000000;stroke-width:0.36;stroke-linecap:butt;stroke-linejoin:miter;stroke-miterlimit:3.25;stroke-dasharray:none;stroke-opacity:1"
         id="path132" /><path
         d="m 113.367,44.91 v -2"
         style="fill:none;stroke:#000000;stroke-width:0.36;stroke-linecap:butt;stroke-linejoin:miter;stroke-miterlimit:3.25;stroke-dasharray:none;stroke-opacity:1"
         id="path134" /><text
         transform="translate(109.76398,52.937222)"
         style="font-variant:normal;font-weight:normal;font-size:6.48px;font-family:Arial;-inkscape-font-specification:ArialMT;writing-mode:lr-tb;fill:#000000;fill-opacity:1;fill-rule:nonzero;stroke:none"
         id="text138"><tspan
           x="0 3.60288"
           y="0"
           sodipodi:role="line"
           id="tspan136">15</tspan></text><path
         d="M 119.449,44.91 V 43.711"
         style="fill:none;stroke:#000000;stroke-width:0.36;stroke-linecap:butt;stroke-linejoin:miter;stroke-miterlimit:3.25;stroke-dasharray:none;stroke-opacity:1"
         id="path140" /><path
         d="M 125.527,44.91 V 43.711"
         style="fill:none;stroke:#000000;stroke-width:0.36;stroke-linecap:butt;stroke-linejoin:miter;stroke-miterlimit:3.25;stroke-dasharray:none;stroke-opacity:1"
         id="path142" /><path
         d="M 131.609,44.91 V 43.711"
         style="fill:none;stroke:#000000;stroke-width:0.36;stroke-linecap:butt;stroke-linejoin:miter;stroke-miterlimit:3.25;stroke-dasharray:none;stroke-opacity:1"
         id="path144" /><path
         d="M 137.691,44.91 V 43.711"
         style="fill:none;stroke:#000000;stroke-width:0.36;stroke-linecap:butt;stroke-linejoin:miter;stroke-miterlimit:3.25;stroke-dasharray:none;stroke-opacity:1"
         id="path146" /><path
         d="m 143.77,44.91 v -2"
         style="fill:none;stroke:#000000;stroke-width:0.36;stroke-linecap:butt;stroke-linejoin:miter;stroke-miterlimit:3.25;stroke-dasharray:none;stroke-opacity:1"
         id="path148" /><text
         transform="translate(140.16658,52.937222)"
         style="font-variant:normal;font-weight:normal;font-size:6.48px;font-family:Arial;-inkscape-font-specification:ArialMT;writing-mode:lr-tb;fill:#000000;fill-opacity:1;fill-rule:nonzero;stroke:none"
         id="text152"><tspan
           x="0 3.60288"
           y="0"
           sodipodi:role="line"
           id="tspan150">20</tspan></text><path
         d="m 19.625,44.91 h 126.68"
         style="fill:none;stroke:#000000;stroke-width:0.36;stroke-linecap:butt;stroke-linejoin:miter;stroke-miterlimit:3.25;stroke-dasharray:none;stroke-opacity:1"
         id="path154" /><text
         transform="translate(152.064,47.157534)"
         style="font-variant:normal;font-weight:normal;font-size:6.48px;font-family:Arial;-inkscape-font-specification:ArialMT;writing-mode:lr-tb;fill:#000000;fill-opacity:1;fill-rule:nonzero;stroke:none"
         id="text158"><tspan
           x="0"
           y="0"
           id="tspan156">x</tspan></text><path
         d="m 22.16,97.066 h 1.199"
         style="fill:none;stroke:#000000;stroke-width:0.36;stroke-linecap:butt;stroke-linejoin:miter;stroke-miterlimit:3.25;stroke-dasharray:none;stroke-opacity:1"
         id="path160" /><path
         d="m 22.16,92.324 h 1.199"
         style="fill:none;stroke:#000000;stroke-width:0.36;stroke-linecap:butt;stroke-linejoin:miter;stroke-miterlimit:3.25;stroke-dasharray:none;stroke-opacity:1"
         id="path162" /><path
         d="m 22.16,87.582 h 1.199"
         style="fill:none;stroke:#000000;stroke-width:0.36;stroke-linecap:butt;stroke-linejoin:miter;stroke-miterlimit:3.25;stroke-dasharray:none;stroke-opacity:1"
         id="path164" /><path
         d="m 22.16,82.844 h 2"
         style="fill:none;stroke:#000000;stroke-width:0.36;stroke-linecap:butt;stroke-linejoin:miter;stroke-miterlimit:3.25;stroke-dasharray:none;stroke-opacity:1"
         id="path166" /><text
         transform="translate(0,85.088897)"
         style="font-variant:normal;font-weight:normal;font-size:6.48px;font-family:MathematicaSans;-inkscape-font-specification:MathematicaSans;writing-mode:lr-tb;fill:#000000;fill-opacity:1;fill-rule:nonzero;stroke:none"
         id="text170"><tspan
           x="0"
           y="0"
           id="tspan168">-</tspan></text><text
         transform="translate(3.77784,85.088897)"
         style="font-variant:normal;font-weight:normal;font-size:6.48px;font-family:Arial;-inkscape-font-specification:ArialMT;writing-mode:lr-tb;fill:#000000;fill-opacity:1;fill-rule:nonzero;stroke:none"
         id="text174"><tspan
           x="0 3.60288 5.39784 9.00072 12.6036"
           y="0"
           sodipodi:role="line"
           id="tspan172">0.004</tspan></text><path
         d="m 22.16,78.102 h 1.199"
         style="fill:none;stroke:#000000;stroke-width:0.36;stroke-linecap:butt;stroke-linejoin:miter;stroke-miterlimit:3.25;stroke-dasharray:none;stroke-opacity:1"
         id="path176" /><path
         d="m 22.16,73.359 h 1.199"
         style="fill:none;stroke:#000000;stroke-width:0.36;stroke-linecap:butt;stroke-linejoin:miter;stroke-miterlimit:3.25;stroke-dasharray:none;stroke-opacity:1"
         id="path178" /><path
         d="m 22.16,68.617 h 1.199"
         style="fill:none;stroke:#000000;stroke-width:0.36;stroke-linecap:butt;stroke-linejoin:miter;stroke-miterlimit:3.25;stroke-dasharray:none;stroke-opacity:1"
         id="path180" /><path
         d="m 22.16,63.875 h 2"
         style="fill:none;stroke:#000000;stroke-width:0.36;stroke-linecap:butt;stroke-linejoin:miter;stroke-miterlimit:3.25;stroke-dasharray:none;stroke-opacity:1"
         id="path182" /><text
         transform="translate(0,66.123216)"
         style="font-variant:normal;font-weight:normal;font-size:6.48px;font-family:MathematicaSans;-inkscape-font-specification:MathematicaSans;writing-mode:lr-tb;fill:#000000;fill-opacity:1;fill-rule:nonzero;stroke:none"
         id="text186"><tspan
           x="0"
           y="0"
           id="tspan184">-</tspan></text><text
         transform="translate(3.77784,66.123216)"
         style="font-variant:normal;font-weight:normal;font-size:6.48px;font-family:Arial;-inkscape-font-specification:ArialMT;writing-mode:lr-tb;fill:#000000;fill-opacity:1;fill-rule:nonzero;stroke:none"
         id="text190"><tspan
           x="0 3.60288 5.39784 9.00072 12.6036"
           y="0"
           sodipodi:role="line"
           id="tspan188">0.002</tspan></text><path
         d="m 22.16,59.137 h 1.199"
         style="fill:none;stroke:#000000;stroke-width:0.36;stroke-linecap:butt;stroke-linejoin:miter;stroke-miterlimit:3.25;stroke-dasharray:none;stroke-opacity:1"
         id="path192" /><path
         d="m 22.16,54.395 h 1.199"
         style="fill:none;stroke:#000000;stroke-width:0.36;stroke-linecap:butt;stroke-linejoin:miter;stroke-miterlimit:3.25;stroke-dasharray:none;stroke-opacity:1"
         id="path194" /><path
         d="m 22.16,49.652 h 1.199"
         style="fill:none;stroke:#000000;stroke-width:0.36;stroke-linecap:butt;stroke-linejoin:miter;stroke-miterlimit:3.25;stroke-dasharray:none;stroke-opacity:1"
         id="path196" /><path
         d="m 22.16,44.91 h 2"
         style="fill:none;stroke:#000000;stroke-width:0.36;stroke-linecap:butt;stroke-linejoin:miter;stroke-miterlimit:3.25;stroke-dasharray:none;stroke-opacity:1"
         id="path198" /><path
         d="m 22.16,40.168 h 1.199"
         style="fill:none;stroke:#000000;stroke-width:0.36;stroke-linecap:butt;stroke-linejoin:miter;stroke-miterlimit:3.25;stroke-dasharray:none;stroke-opacity:1"
         id="path200" /><path
         d="m 22.16,35.43 h 1.199"
         style="fill:none;stroke:#000000;stroke-width:0.36;stroke-linecap:butt;stroke-linejoin:miter;stroke-miterlimit:3.25;stroke-dasharray:none;stroke-opacity:1"
         id="path202" /><path
         d="m 22.16,30.688 h 1.199"
         style="fill:none;stroke:#000000;stroke-width:0.36;stroke-linecap:butt;stroke-linejoin:miter;stroke-miterlimit:3.25;stroke-dasharray:none;stroke-opacity:1"
         id="path204" /><path
         d="m 22.16,25.945 h 2"
         style="fill:none;stroke:#000000;stroke-width:0.36;stroke-linecap:butt;stroke-linejoin:miter;stroke-miterlimit:3.25;stroke-dasharray:none;stroke-opacity:1"
         id="path206" /><text
         transform="translate(3.784219,28.191853)"
         style="font-variant:normal;font-weight:normal;font-size:6.48px;font-family:Arial;-inkscape-font-specification:ArialMT;writing-mode:lr-tb;fill:#000000;fill-opacity:1;fill-rule:nonzero;stroke:none"
         id="text210"><tspan
           x="0 3.60288 5.39784 9.00072 12.6036"
           y="0"
           sodipodi:role="line"
           id="tspan208">0.002</tspan></text><path
         d="M 22.16,99.891 V 21.598"
         style="fill:none;stroke:#000000;stroke-width:0.36;stroke-linecap:butt;stroke-linejoin:miter;stroke-miterlimit:3.25;stroke-dasharray:none;stroke-opacity:1"
         id="path212" /><text
         transform="translate(20.540039,15.905578)"
         style="font-variant:normal;font-weight:normal;font-size:6.48px;font-family:Arial;-inkscape-font-specification:ArialMT;writing-mode:lr-tb;fill:#000000;fill-opacity:1;fill-rule:nonzero;stroke:none"
         id="text216"><tspan
           x="0"
           y="0"
           id="tspan214">v</tspan></text></g></g></svg>
