<?xml version="1.0" encoding="UTF-8" standalone="no"?>
<!-- Created with Inkscape (http://www.inkscape.org/) -->

<svg
   version="1.1"
   id="svg2"
   xml:space="preserve"
   width="346.66666"
   height="150.66667"
   viewBox="0 0 346.66666 150.66667"
   sodipodi:docname="BD_transload_W_X.svg"
   inkscape:version="1.1.1 (3bf5ae0d25, 2021-09-20)"
   xmlns:inkscape="http://www.inkscape.org/namespaces/inkscape"
   xmlns:sodipodi="http://sodipodi.sourceforge.net/DTD/sodipodi-0.dtd"
   xmlns="http://www.w3.org/2000/svg"
   xmlns:svg="http://www.w3.org/2000/svg"><defs
     id="defs6"><clipPath
       clipPathUnits="userSpaceOnUse"
       id="clipPath26"><path
         d="m 169,101 h 78 v 11.801 h -78 z"
         id="path24" /></clipPath><clipPath
       clipPathUnits="userSpaceOnUse"
       id="clipPath36"><path
         d="m 168,101 h 80 v 11.801 h -80 z"
         id="path34" /></clipPath><clipPath
       clipPathUnits="userSpaceOnUse"
       id="clipPath238"><path
         d="m 10,21 h 2 v 91.801 h -2 z"
         id="path236" /></clipPath></defs><sodipodi:namedview
     id="namedview4"
     pagecolor="#ffffff"
     bordercolor="#666666"
     borderopacity="1.0"
     inkscape:pageshadow="2"
     inkscape:pageopacity="0.0"
     inkscape:pagecheckerboard="0"
     showgrid="false"
     inkscape:zoom="3.4528847"
     inkscape:cx="173.18852"
     inkscape:cy="75.444164"
     inkscape:window-width="3440"
     inkscape:window-height="1369"
     inkscape:window-x="-8"
     inkscape:window-y="-8"
     inkscape:window-maximized="1"
     inkscape:current-layer="g8" /><g
     id="g8"
     inkscape:groupmode="layer"
     inkscape:label="W_X"
     transform="matrix(1.3333333,0,0,1.3333333,0,7.1e-6)"><g
       id="g10"><path
         d="m 11.168,97.719 1.43,0.004 1.429,0.007 1.43,0.012 1.426,0.016 1.429,0.019 1.43,0.024 1.43,0.027 1.43,0.031 1.429,0.036 1.426,0.035 2.859,0.086 4.289,0.152 1.43,0.059 1.426,0.058 1.43,0.063 2.859,0.132 1.43,0.071 1.429,0.074 1.426,0.074 1.43,0.078 2.859,0.164 2.86,0.172 1.425,0.09 1.43,0.09 1.43,0.094 4.289,0.293 1.43,0.101 1.425,0.102 2.86,0.211 4.289,0.328 1.426,0.113 2.859,0.227 2.859,0.234 1.43,0.121 1.426,0.117 1.429,0.121 1.43,0.125 1.43,0.122 4.289,0.375 1.426,0.128 1.429,0.125 2.86,0.258 1.429,0.133 1.43,0.129 1.426,0.133 7.148,0.664 1.426,0.137 1.43,0.136 1.429,0.133 5.719,0.547 1.426,0.137 1.43,0.14 2.859,0.274 1.43,0.14 1.429,0.137 1.426,0.141 1.43,0.136 2.859,0.282 1.43,0.136 2.859,0.282 1.426,0.14 1.43,0.141 1.429,0.137 4.29,0.422 1.425,0.14 5.719,0.563 1.43,0.136 1.426,0.141"
         style="fill:none;stroke:#5e81b5;stroke-width:1.152;stroke-linecap:square;stroke-linejoin:miter;stroke-miterlimit:3.25;stroke-dasharray:none;stroke-opacity:1"
         id="path12" /><path
         d="m 11.168,97.277 2.859,2.532 1.43,0.679 1.426,0.141 1.429,0.125 1.43,-0.242 1.43,-0.239 1.43,-0.394 1.429,-0.512 1.426,-0.531 1.43,-0.703 1.429,-0.707 1.43,-0.793 1.43,-0.852 1.429,-0.863 1.43,-0.961 1.426,-0.961 1.43,-1.016 1.429,-1.042 1.43,-1.051 2.859,-2.203 1.426,-1.133 1.43,-1.141 1.43,-1.148 1.429,-1.172 1.43,-1.168 1.43,-1.176 1.425,-1.184 1.43,-1.179 1.43,-1.188 1.429,-1.183 1.43,-1.18 2.86,-2.352 1.425,-1.164 1.43,-1.164 2.859,-2.289 1.43,-1.136 1.43,-1.118 1.426,-1.117 1.429,-1.09 1.43,-1.086 1.43,-1.07 1.429,-1.055 1.43,-1.05 1.426,-1.012 1.429,-1.016 1.43,-0.992 2.859,-1.937 2.86,-1.852 1.426,-0.902 1.429,-0.879 1.43,-0.875 1.43,-0.828 1.429,-0.832 1.43,-0.801 1.426,-0.781 1.43,-0.774 1.429,-0.73 1.43,-0.727 1.43,-0.699 1.429,-0.68 1.426,-0.668 2.859,-1.258 1.43,-0.593 1.43,-0.578 1.429,-0.571 1.43,-0.531 1.426,-0.531 1.43,-0.496 1.429,-0.485 1.43,-0.472 2.859,-0.883 1.426,-0.414 1.43,-0.403 1.43,-0.39 2.859,-0.742 2.859,-0.688 1.426,-0.336 1.43,-0.32 1.429,-0.324 1.43,-0.313 1.43,-0.316 1.43,-0.309 1.425,-0.312 1.43,-0.313 1.43,-0.316 2.859,-0.641 1.43,-0.328 1.426,-0.324"
         style="fill:none;stroke:#e19c24;stroke-width:1.152;stroke-linecap:square;stroke-linejoin:miter;stroke-miterlimit:3.25;stroke-dasharray:none;stroke-opacity:1"
         id="path14" /><path
         d="m 155.477,108.125 h 1.894 l 0.113,-0.004 0.129,-0.004 0.145,-0.012 0.16,-0.015 0.18,-0.02 0.199,-0.027 0.215,-0.035 0.234,-0.047 0.254,-0.055 0.273,-0.058 0.289,-0.071 0.301,-0.07 0.313,-0.074 0.324,-0.074 0.336,-0.071 0.34,-0.07 0.347,-0.063 0.348,-0.05 0.352,-0.047 0.355,-0.035 0.363,-0.028 0.368,-0.019 0.375,-0.016 0.382,-0.012 0.399,-0.003 0.41,-0.004 h 0.426 l 0.441,-0.004 h 3.301"
         style="fill:none;stroke:#ffffff;stroke-width:2.88;stroke-linecap:butt;stroke-linejoin:round;stroke-miterlimit:3.25;stroke-dasharray:none;stroke-opacity:0.666667"
         id="path16" /><path
         d="m 155.477,108.125 h 1.894 l 0.113,-0.004 0.129,-0.004 0.145,-0.012 0.16,-0.015 0.18,-0.02 0.199,-0.027 0.215,-0.035 0.234,-0.047 0.254,-0.055 0.273,-0.058 0.289,-0.071 0.301,-0.07 0.313,-0.074 0.324,-0.074 0.336,-0.071 0.34,-0.07 0.347,-0.063 0.348,-0.05 0.352,-0.047 0.355,-0.035 0.363,-0.028 0.368,-0.019 0.375,-0.016 0.382,-0.012 0.399,-0.003 0.41,-0.004 h 0.426 l 0.441,-0.004 h 3.301"
         style="fill:none;stroke:#aaaaaa;stroke-width:0.9;stroke-linecap:square;stroke-linejoin:miter;stroke-miterlimit:3.25;stroke-dasharray:none;stroke-opacity:1"
         id="path18" /></g><g
       id="g20"><g
         id="g22"
         clip-path="url(#clipPath26)"><path
           d="m 169.043,101.738 h 77.758 v 10.801 h -77.758 z"
           style="fill:#ffffff;fill-opacity:0.666667;fill-rule:nonzero;stroke:none"
           id="path28" /></g></g><g
       id="g30"><g
         id="g32"
         clip-path="url(#clipPath36)"><text
           transform="translate(173.19745,108.57163)"
           style="font-variant:normal;font-weight:normal;font-size:6.48px;font-family:Arial;-inkscape-font-specification:ArialMT;writing-mode:lr-tb;fill:#000000;fill-opacity:1;fill-rule:nonzero;stroke:none"
           id="text42"><tspan
             sodipodi:role="line"
             id="tspan40"
             x="0"
             y="0">layer $\left[-45/45/-45/45\right]$</tspan></text></g></g><g
       id="g64"><path
         d="m 155.477,28.969 h 2.136 l 0.145,0.004 h 0.16 l 0.18,0.004 0.199,0.003 0.215,0.008 0.234,0.008 0.254,0.008 0.273,0.012 0.289,0.011 0.301,0.012 0.313,0.012 0.324,0.011 0.336,0.012 0.34,0.012 0.347,0.012 0.348,0.007 0.352,0.008 0.355,0.008 0.363,0.004 0.368,0.004 h 0.375 l 0.382,0.004 h 4.977"
         style="fill:none;stroke:#ffffff;stroke-width:2.88;stroke-linecap:butt;stroke-linejoin:round;stroke-miterlimit:3.25;stroke-dasharray:none;stroke-opacity:0.666667"
         id="path66" /><path
         d="m 155.477,28.969 h 2.136 l 0.145,0.004 h 0.16 l 0.18,0.004 0.199,0.003 0.215,0.008 0.234,0.008 0.254,0.008 0.273,0.012 0.289,0.011 0.301,0.012 0.313,0.012 0.324,0.011 0.336,0.012 0.34,0.012 0.347,0.012 0.348,0.007 0.352,0.008 0.355,0.008 0.363,0.004 0.368,0.004 h 0.375 l 0.382,0.004 h 4.977"
         style="fill:none;stroke:#aaaaaa;stroke-width:0.9;stroke-linecap:square;stroke-linejoin:miter;stroke-miterlimit:3.25;stroke-dasharray:none;stroke-opacity:1"
         id="path68" /><path
         d="m 169.043,23.734 h 82.078 v 10.801 h -82.078 z"
         style="fill:#ffffff;fill-opacity:0.666667;fill-rule:nonzero;stroke:none"
         id="path70" /><path
         d="m 169.043,23.734 h 82.078 v 10.801 h -82.078 z"
         style="fill:none;stroke:#ffffff;stroke-width:0.9;stroke-linecap:square;stroke-linejoin:miter;stroke-miterlimit:3.25;stroke-dasharray:none;stroke-opacity:0.666667"
         id="path72" /><text
         transform="translate(171.57323,30.566511)"
         style="font-variant:normal;font-weight:normal;font-size:6.48px;font-family:Arial;-inkscape-font-specification:ArialMT;writing-mode:lr-tb;fill:#000000;fill-opacity:1;fill-rule:nonzero;stroke:none"
         id="text76"><tspan
           sodipodi:role="line"
           id="tspan74"
           x="0"
           y="0">layer $\left[-30/-45/-30/-45\right]$</tspan></text><path
         d="m 11.168,97.719 v -2"
         style="fill:none;stroke:#000000;stroke-width:0.36;stroke-linecap:butt;stroke-linejoin:miter;stroke-miterlimit:3.25;stroke-dasharray:none;stroke-opacity:1"
         id="path114" /><path
         d="M 18.242,97.719 V 96.52"
         style="fill:none;stroke:#000000;stroke-width:0.36;stroke-linecap:butt;stroke-linejoin:miter;stroke-miterlimit:3.25;stroke-dasharray:none;stroke-opacity:1"
         id="path116" /><path
         d="M 25.316,97.719 V 96.52"
         style="fill:none;stroke:#000000;stroke-width:0.36;stroke-linecap:butt;stroke-linejoin:miter;stroke-miterlimit:3.25;stroke-dasharray:none;stroke-opacity:1"
         id="path118" /><path
         d="M 32.391,97.719 V 96.52"
         style="fill:none;stroke:#000000;stroke-width:0.36;stroke-linecap:butt;stroke-linejoin:miter;stroke-miterlimit:3.25;stroke-dasharray:none;stroke-opacity:1"
         id="path120" /><path
         d="M 39.465,97.719 V 96.52"
         style="fill:none;stroke:#000000;stroke-width:0.36;stroke-linecap:butt;stroke-linejoin:miter;stroke-miterlimit:3.25;stroke-dasharray:none;stroke-opacity:1"
         id="path122" /><path
         d="m 46.539,97.719 v -2"
         style="fill:none;stroke:#000000;stroke-width:0.36;stroke-linecap:butt;stroke-linejoin:miter;stroke-miterlimit:3.25;stroke-dasharray:none;stroke-opacity:1"
         id="path124" /><text
         transform="translate(44.735723,105.74649)"
         style="font-variant:normal;font-weight:normal;font-size:6.48px;font-family:Arial;-inkscape-font-specification:ArialMT;writing-mode:lr-tb;fill:#000000;fill-opacity:1;fill-rule:nonzero;stroke:none"
         id="text128"><tspan
           x="0"
           y="0"
           id="tspan126">5</tspan></text><path
         d="M 53.613,97.719 V 96.52"
         style="fill:none;stroke:#000000;stroke-width:0.36;stroke-linecap:butt;stroke-linejoin:miter;stroke-miterlimit:3.25;stroke-dasharray:none;stroke-opacity:1"
         id="path130" /><path
         d="M 60.684,97.719 V 96.52"
         style="fill:none;stroke:#000000;stroke-width:0.36;stroke-linecap:butt;stroke-linejoin:miter;stroke-miterlimit:3.25;stroke-dasharray:none;stroke-opacity:1"
         id="path132" /><path
         d="M 67.758,97.719 V 96.52"
         style="fill:none;stroke:#000000;stroke-width:0.36;stroke-linecap:butt;stroke-linejoin:miter;stroke-miterlimit:3.25;stroke-dasharray:none;stroke-opacity:1"
         id="path134" /><path
         d="M 74.832,97.719 V 96.52"
         style="fill:none;stroke:#000000;stroke-width:0.36;stroke-linecap:butt;stroke-linejoin:miter;stroke-miterlimit:3.25;stroke-dasharray:none;stroke-opacity:1"
         id="path136" /><path
         d="m 81.906,97.719 v -2"
         style="fill:none;stroke:#000000;stroke-width:0.36;stroke-linecap:butt;stroke-linejoin:miter;stroke-miterlimit:3.25;stroke-dasharray:none;stroke-opacity:1"
         id="path138" /><text
         transform="translate(78.303359,105.74649)"
         style="font-variant:normal;font-weight:normal;font-size:6.48px;font-family:Arial;-inkscape-font-specification:ArialMT;writing-mode:lr-tb;fill:#000000;fill-opacity:1;fill-rule:nonzero;stroke:none"
         id="text142"><tspan
           x="0 3.60288"
           y="0"
           sodipodi:role="line"
           id="tspan140">10</tspan></text><path
         d="M 88.98,97.719 V 96.52"
         style="fill:none;stroke:#000000;stroke-width:0.36;stroke-linecap:butt;stroke-linejoin:miter;stroke-miterlimit:3.25;stroke-dasharray:none;stroke-opacity:1"
         id="path144" /><path
         d="M 96.055,97.719 V 96.52"
         style="fill:none;stroke:#000000;stroke-width:0.36;stroke-linecap:butt;stroke-linejoin:miter;stroke-miterlimit:3.25;stroke-dasharray:none;stroke-opacity:1"
         id="path146" /><path
         d="M 103.129,97.719 V 96.52"
         style="fill:none;stroke:#000000;stroke-width:0.36;stroke-linecap:butt;stroke-linejoin:miter;stroke-miterlimit:3.25;stroke-dasharray:none;stroke-opacity:1"
         id="path148" /><path
         d="M 110.203,97.719 V 96.52"
         style="fill:none;stroke:#000000;stroke-width:0.36;stroke-linecap:butt;stroke-linejoin:miter;stroke-miterlimit:3.25;stroke-dasharray:none;stroke-opacity:1"
         id="path150" /><path
         d="m 117.277,97.719 v -2"
         style="fill:none;stroke:#000000;stroke-width:0.36;stroke-linecap:butt;stroke-linejoin:miter;stroke-miterlimit:3.25;stroke-dasharray:none;stroke-opacity:1"
         id="path152" /><text
         transform="translate(113.67293,105.74649)"
         style="font-variant:normal;font-weight:normal;font-size:6.48px;font-family:Arial;-inkscape-font-specification:ArialMT;writing-mode:lr-tb;fill:#000000;fill-opacity:1;fill-rule:nonzero;stroke:none"
         id="text156"><tspan
           x="0 3.60288"
           y="0"
           sodipodi:role="line"
           id="tspan154">15</tspan></text><path
         d="M 124.352,97.719 V 96.52"
         style="fill:none;stroke:#000000;stroke-width:0.36;stroke-linecap:butt;stroke-linejoin:miter;stroke-miterlimit:3.25;stroke-dasharray:none;stroke-opacity:1"
         id="path158" /><path
         d="M 131.426,97.719 V 96.52"
         style="fill:none;stroke:#000000;stroke-width:0.36;stroke-linecap:butt;stroke-linejoin:miter;stroke-miterlimit:3.25;stroke-dasharray:none;stroke-opacity:1"
         id="path160" /><path
         d="M 138.5,97.719 V 96.52"
         style="fill:none;stroke:#000000;stroke-width:0.36;stroke-linecap:butt;stroke-linejoin:miter;stroke-miterlimit:3.25;stroke-dasharray:none;stroke-opacity:1"
         id="path162" /><path
         d="M 145.574,97.719 V 96.52"
         style="fill:none;stroke:#000000;stroke-width:0.36;stroke-linecap:butt;stroke-linejoin:miter;stroke-miterlimit:3.25;stroke-dasharray:none;stroke-opacity:1"
         id="path164" /><path
         d="m 152.645,97.719 v -2"
         style="fill:none;stroke:#000000;stroke-width:0.36;stroke-linecap:butt;stroke-linejoin:miter;stroke-miterlimit:3.25;stroke-dasharray:none;stroke-opacity:1"
         id="path166" /><text
         transform="translate(149.0425,105.74649)"
         style="font-variant:normal;font-weight:normal;font-size:6.48px;font-family:Arial;-inkscape-font-specification:ArialMT;writing-mode:lr-tb;fill:#000000;fill-opacity:1;fill-rule:nonzero;stroke:none"
         id="text170"><tspan
           x="0 3.60288"
           y="0"
           sodipodi:role="line"
           id="tspan168">20</tspan></text><path
         d="M 8.219,97.719 H 155.594"
         style="fill:none;stroke:#000000;stroke-width:0.36;stroke-linecap:butt;stroke-linejoin:miter;stroke-miterlimit:3.25;stroke-dasharray:none;stroke-opacity:1"
         id="path172" /><text
         transform="translate(161.35383,99.966805)"
         style="font-variant:normal;font-weight:normal;font-size:6.48px;font-family:Arial;-inkscape-font-specification:ArialMT;writing-mode:lr-tb;fill:#000000;fill-opacity:1;fill-rule:nonzero;stroke:none"
         id="text176"><tspan
           x="0"
           y="0"
           id="tspan174">x</tspan></text><path
         d="m 11.168,110.828 h 1.199"
         style="fill:none;stroke:#000000;stroke-width:0.36;stroke-linecap:butt;stroke-linejoin:miter;stroke-miterlimit:3.25;stroke-dasharray:none;stroke-opacity:1"
         id="path178" /><path
         d="m 11.168,106.461 h 1.199"
         style="fill:none;stroke:#000000;stroke-width:0.36;stroke-linecap:butt;stroke-linejoin:miter;stroke-miterlimit:3.25;stroke-dasharray:none;stroke-opacity:1"
         id="path180" /><path
         d="m 11.168,102.09 h 1.199"
         style="fill:none;stroke:#000000;stroke-width:0.36;stroke-linecap:butt;stroke-linejoin:miter;stroke-miterlimit:3.25;stroke-dasharray:none;stroke-opacity:1"
         id="path182" /><path
         d="m 11.168,97.719 h 2"
         style="fill:none;stroke:#000000;stroke-width:0.36;stroke-linecap:butt;stroke-linejoin:miter;stroke-miterlimit:3.25;stroke-dasharray:none;stroke-opacity:1"
         id="path184" /><path
         d="m 11.168,93.352 h 1.199"
         style="fill:none;stroke:#000000;stroke-width:0.36;stroke-linecap:butt;stroke-linejoin:miter;stroke-miterlimit:3.25;stroke-dasharray:none;stroke-opacity:1"
         id="path186" /><path
         d="m 11.168,88.98 h 1.199"
         style="fill:none;stroke:#000000;stroke-width:0.36;stroke-linecap:butt;stroke-linejoin:miter;stroke-miterlimit:3.25;stroke-dasharray:none;stroke-opacity:1"
         id="path188" /><path
         d="m 11.168,84.609 h 1.199"
         style="fill:none;stroke:#000000;stroke-width:0.36;stroke-linecap:butt;stroke-linejoin:miter;stroke-miterlimit:3.25;stroke-dasharray:none;stroke-opacity:1"
         id="path190" /><path
         d="m 11.168,80.242 h 1.199"
         style="fill:none;stroke:#000000;stroke-width:0.36;stroke-linecap:butt;stroke-linejoin:miter;stroke-miterlimit:3.25;stroke-dasharray:none;stroke-opacity:1"
         id="path192" /><path
         d="m 11.168,75.871 h 2"
         style="fill:none;stroke:#000000;stroke-width:0.36;stroke-linecap:butt;stroke-linejoin:miter;stroke-miterlimit:3.25;stroke-dasharray:none;stroke-opacity:1"
         id="path194" /><text
         transform="translate(0,78.117986)"
         style="font-variant:normal;font-weight:normal;font-size:6.48px;font-family:Arial;-inkscape-font-specification:ArialMT;writing-mode:lr-tb;fill:#000000;fill-opacity:1;fill-rule:nonzero;stroke:none"
         id="text198"><tspan
           x="0 3.60288 5.39784"
           y="0"
           sodipodi:role="line"
           id="tspan196">0.1</tspan></text><path
         d="m 11.168,71.5 h 1.199"
         style="fill:none;stroke:#000000;stroke-width:0.36;stroke-linecap:butt;stroke-linejoin:miter;stroke-miterlimit:3.25;stroke-dasharray:none;stroke-opacity:1"
         id="path200" /><path
         d="m 11.168,67.133 h 1.199"
         style="fill:none;stroke:#000000;stroke-width:0.36;stroke-linecap:butt;stroke-linejoin:miter;stroke-miterlimit:3.25;stroke-dasharray:none;stroke-opacity:1"
         id="path202" /><path
         d="m 11.168,62.762 h 1.199"
         style="fill:none;stroke:#000000;stroke-width:0.36;stroke-linecap:butt;stroke-linejoin:miter;stroke-miterlimit:3.25;stroke-dasharray:none;stroke-opacity:1"
         id="path204" /><path
         d="m 11.168,58.391 h 1.199"
         style="fill:none;stroke:#000000;stroke-width:0.36;stroke-linecap:butt;stroke-linejoin:miter;stroke-miterlimit:3.25;stroke-dasharray:none;stroke-opacity:1"
         id="path206" /><path
         d="m 11.168,54.023 h 2"
         style="fill:none;stroke:#000000;stroke-width:0.36;stroke-linecap:butt;stroke-linejoin:miter;stroke-miterlimit:3.25;stroke-dasharray:none;stroke-opacity:1"
         id="path208" /><text
         transform="translate(0,56.269167)"
         style="font-variant:normal;font-weight:normal;font-size:6.48px;font-family:Arial;-inkscape-font-specification:ArialMT;writing-mode:lr-tb;fill:#000000;fill-opacity:1;fill-rule:nonzero;stroke:none"
         id="text212"><tspan
           x="0 3.60288 5.39784"
           y="0"
           sodipodi:role="line"
           id="tspan210">0.2</tspan></text><path
         d="m 11.168,49.652 h 1.199"
         style="fill:none;stroke:#000000;stroke-width:0.36;stroke-linecap:butt;stroke-linejoin:miter;stroke-miterlimit:3.25;stroke-dasharray:none;stroke-opacity:1"
         id="path214" /><path
         d="m 11.168,45.281 h 1.199"
         style="fill:none;stroke:#000000;stroke-width:0.36;stroke-linecap:butt;stroke-linejoin:miter;stroke-miterlimit:3.25;stroke-dasharray:none;stroke-opacity:1"
         id="path216" /><path
         d="m 11.168,40.914 h 1.199"
         style="fill:none;stroke:#000000;stroke-width:0.36;stroke-linecap:butt;stroke-linejoin:miter;stroke-miterlimit:3.25;stroke-dasharray:none;stroke-opacity:1"
         id="path218" /><path
         d="m 11.168,36.543 h 1.199"
         style="fill:none;stroke:#000000;stroke-width:0.36;stroke-linecap:butt;stroke-linejoin:miter;stroke-miterlimit:3.25;stroke-dasharray:none;stroke-opacity:1"
         id="path220" /><path
         d="m 11.168,32.176 h 2"
         style="fill:none;stroke:#000000;stroke-width:0.36;stroke-linecap:butt;stroke-linejoin:miter;stroke-miterlimit:3.25;stroke-dasharray:none;stroke-opacity:1"
         id="path222" /><text
         transform="translate(0,34.420348)"
         style="font-variant:normal;font-weight:normal;font-size:6.48px;font-family:Arial;-inkscape-font-specification:ArialMT;writing-mode:lr-tb;fill:#000000;fill-opacity:1;fill-rule:nonzero;stroke:none"
         id="text226"><tspan
           x="0 3.60288 5.39784"
           y="0"
           sodipodi:role="line"
           id="tspan224">0.3</tspan></text><path
         d="m 11.168,27.805 h 1.199"
         style="fill:none;stroke:#000000;stroke-width:0.36;stroke-linecap:butt;stroke-linejoin:miter;stroke-miterlimit:3.25;stroke-dasharray:none;stroke-opacity:1"
         id="path228" /><path
         d="m 11.168,23.434 h 1.199"
         style="fill:none;stroke:#000000;stroke-width:0.36;stroke-linecap:butt;stroke-linejoin:miter;stroke-miterlimit:3.25;stroke-dasharray:none;stroke-opacity:1"
         id="path230" /></g><g
       id="g232"><g
         id="g234"
         clip-path="url(#clipPath238)"><path
           d="M 11.168,112.68 V 21.598"
           style="fill:none;stroke:#000000;stroke-width:0.36;stroke-linecap:butt;stroke-linejoin:miter;stroke-miterlimit:3.25;stroke-dasharray:none;stroke-opacity:1"
           id="path240" /></g></g><g
       id="g242"><text
         transform="translate(8.828262,15.905578)"
         style="font-variant:normal;font-weight:normal;font-size:6.48px;font-family:Arial;-inkscape-font-specification:ArialMT;writing-mode:lr-tb;fill:#000000;fill-opacity:1;fill-rule:nonzero;stroke:none"
         id="text246"><tspan
           x="0"
           y="0"
           id="tspan244">w</tspan></text></g></g></svg>
