<?xml version="1.0" encoding="UTF-8" standalone="no"?>
<!-- Generator: Adobe Illustrator 25.0.0, SVG Export Plug-In . SVG Version: 6.00 Build 0)  -->

<svg
   version="1.1"
   id="Livello_1"
   inkscape:version="1.1.1 (3bf5ae0d25, 2021-09-20)"
   x="0px"
   y="0px"
   viewBox="0 0 600 600"
   style="enable-background:new 0 0 600 600;"
   xml:space="preserve"
   sodipodi:docname="cyl_tex.svg"
   xmlns:inkscape="http://www.inkscape.org/namespaces/inkscape"
   xmlns:sodipodi="http://sodipodi.sourceforge.net/DTD/sodipodi-0.dtd"
   xmlns:xlink="http://www.w3.org/1999/xlink"
   xmlns="http://www.w3.org/2000/svg"
   xmlns:svg="http://www.w3.org/2000/svg"><defs
   id="defs65"><marker
     style="overflow:visible;"
     id="Arrow1Lend"
     refX="0.0"
     refY="0.0"
     orient="auto"
     inkscape:stockid="Arrow1Lend"
     inkscape:isstock="true"><path
       transform="scale(0.8) rotate(180) translate(12.5,0)"
       style="fill-rule:evenodd;fill:context-stroke;stroke:context-stroke;stroke-width:1.0pt;"
       d="M 0.0,0.0 L 5.0,-5.0 L -12.5,0.0 L 5.0,5.0 L 0.0,0.0 z "
       id="path1273" /></marker><marker
     style="overflow:visible"
     id="Arrow2Lstart"
     refX="0.0"
     refY="0.0"
     orient="auto"
     inkscape:stockid="Arrow2Lstart"
     inkscape:isstock="true"><path
       transform="scale(1.1) translate(1,0)"
       d="M 8.7185878,4.0337352 L -2.2072895,0.016013256 L 8.7185884,-4.0017078 C 6.9730900,-1.6296469 6.9831476,1.6157441 8.7185878,4.0337352 z "
       style="stroke:context-stroke;fill-rule:evenodd;fill:context-stroke;stroke-width:0.62500000;stroke-linejoin:round"
       id="path1288" /></marker><marker
     style="overflow:visible"
     id="Arrow1Lstart"
     refX="0.0"
     refY="0.0"
     orient="auto"
     inkscape:stockid="Arrow1Lstart"
     inkscape:isstock="true"><path
       transform="scale(0.8) translate(12.5,0)"
       style="fill-rule:evenodd;fill:context-stroke;stroke:context-stroke;stroke-width:1.0pt"
       d="M 0.0,0.0 L 5.0,-5.0 L -12.5,0.0 L 5.0,5.0 L 0.0,0.0 z "
       id="path1270" /></marker><marker
     style="overflow:visible;"
     id="Arrow2Lend"
     refX="0.0"
     refY="0.0"
     orient="auto"
     inkscape:stockid="Arrow2Lend"
     inkscape:isstock="true"><path
       transform="scale(1.1) rotate(180) translate(1,0)"
       d="M 8.7185878,4.0337352 L -2.2072895,0.016013256 L 8.7185884,-4.0017078 C 6.9730900,-1.6296469 6.9831476,1.6157441 8.7185878,4.0337352 z "
       style="stroke:context-stroke;fill-rule:evenodd;fill:context-stroke;stroke-width:0.62500000;stroke-linejoin:round;"
       id="path1291" /></marker></defs>
<style
   type="text/css"
   id="style2">
	.st0{enable-background:new    ;}
	.st1{fill:#FFFFFF;}
	.st2{fill:none;stroke:#FFFFFF;stroke-miterlimit:10;}
	.st3{clip-path:url(#SVGID_2_);}
	.st4{fill:none;stroke:#000000;stroke-miterlimit:10;}
	.st5{fill:#B20001;stroke:#B20001;stroke-miterlimit:10;}
	.st6{stroke:#000000;stroke-miterlimit:10;}
	.st7{fill:none;stroke:#000000;stroke-miterlimit:10;stroke-dasharray:4.9424,4.9424;}
	.st8{fill:none;stroke:#000000;stroke-miterlimit:10;stroke-dasharray:5.3592,5.3592;}
	.st9{font-family:'MyriadCAD';}
	.st10{font-size:12px;}
	.st11{font-family:'MyriadPro-Regular';}
</style>
<sodipodi:namedview
   bordercolor="#666666"
   borderopacity="1.0"
   id="namedview47"
   inkscape:current-layer="Livello_1"
   inkscape:cx="478.69428"
   inkscape:cy="393.28259"
   inkscape:pagecheckerboard="0"
   inkscape:pageopacity="0.0"
   inkscape:pageshadow="2"
   inkscape:window-height="1369"
   inkscape:window-maximized="1"
   inkscape:window-width="3440"
   inkscape:window-x="-8"
   inkscape:window-y="-8"
   inkscape:zoom="4.1153615"
   pagecolor="#ffffff"
   showgrid="false">
	</sodipodi:namedview>
<g
   id="g20"
   class="st0">
	<rect
   id="rect4"
   class="st1"
   width="600"
   height="600" />
	<rect
   id="rect6"
   class="st2"
   width="600"
   height="600" />
	<g
   id="g18">
		<g
   id="g15">
			<defs
   id="defs8">
				<rect
   id="SVGID_1_"
   width="600"
   height="600" />
			</defs>
			<clipPath
   id="SVGID_2_">
				<use
   xlink:href="#SVGID_1_"
   style="overflow:visible;"
   id="use10" />
			</clipPath>
			<g
   id="g16"
   class="st3"
   clip-path="url(#SVGID_2_)">
				
					<image
   style="overflow:visible;enable-background:new    ;"
   width="2500"
   height="2500"
   id="image14"
   xlink:href="2AC7BE62.png"
   transform="matrix(0.24 0 0 0.24 0 0)">
				</image>
			</g>
		</g>
	</g>
</g>
<g
   id="g30">
	<g
   id="g28">
		<line
   id="line22"
   class="st4"
   x1="602.9"
   y1="401.3"
   x2="506.1"
   y2="369.9" />
		<g
   id="g26">
			<path
   id="path24"
   d="M601.1,400.8l-3.2,2.7l0.1,0.1l6.3-0.4c2.1,0.2,4.2,0.4,6.3,0.6c-1.8-1.1-3.6-2.1-5.4-3.2l-4.9-4h-0.1     L601.1,400.8z" />
		</g>
	</g>
</g>
<text
   id="text32"
   transform="matrix(1 0 0 1 617.7471 419.0459)"
   class="st9 st10">x</text>
<g
   id="g44">
	<g
   id="g42">
		<line
   id="line36_1_"
   class="st5"
   x1="494.6"
   y1="483.1"
   x2="543.8"
   y2="382.1" />
		<g
   id="g40">
			<path
   id="path38"
   class="st5"
   d="M495.4,481.4l-2.3-3.5L493,478l-0.5,6.3c-0.5,2-1,4.1-1.5,6.1c1.3-1.6,2.6-3.3,3.9-4.9l4.7-4.3     v-0.1L495.4,481.4z" />
		</g>
	</g>
</g>
<circle
   id="circle34"
   class="st6"
   cx="543.3"
   cy="382.1"
   r="1.7" /><circle
   id="circle34-0"
   class="st6"
   cx="489.14291"
   cy="494.48874"
   r="1.7"
   style="stroke:#b20001;stroke-miterlimit:10;stroke-opacity:1;fill:#b20001;fill-opacity:1" />


<text
   id="text32_1_"
   class="st9 st10"
   x="623.81274"
   y="332.24359">y</text>
<text
   class="st11 st10"
   id="text62"
   x="571.3689"
   y="201.76649">z</text>
<path
   style="fill:none;stroke:#000000;stroke-width:0.80000001;stroke-linecap:butt;stroke-linejoin:miter;stroke-opacity:1;marker-start:url(#Arrow1Lstart);stroke-miterlimit:4;stroke-dasharray:0.80000001,1.60000002;marker-end:url(#Arrow1Lend);stroke-dashoffset:0"
   d="m 617.92871,315.40364 -74.12872,66.69637 19.69851,-178.4727"
   id="path1108" /></svg>
