<?xml version="1.0" encoding="UTF-8" standalone="no"?>
<!-- Created with Inkscape (http://www.inkscape.org/) -->

<svg
   version="1.1"
   id="svg2"
   xml:space="preserve"
   width="346.66666"
   height="193.33333"
   viewBox="0 0 346.66666 193.33333"
   sodipodi:docname="grafico_sigma_y.svg"
   inkscape:version="1.1.1 (3bf5ae0d25, 2021-09-20)"
   xmlns:inkscape="http://www.inkscape.org/namespaces/inkscape"
   xmlns:sodipodi="http://sodipodi.sourceforge.net/DTD/sodipodi-0.dtd"
   xmlns="http://www.w3.org/2000/svg"
   xmlns:svg="http://www.w3.org/2000/svg"><defs
     id="defs6" /><sodipodi:namedview
     id="namedview4"
     pagecolor="#ffffff"
     bordercolor="#666666"
     borderopacity="1.0"
     inkscape:pageshadow="2"
     inkscape:pageopacity="0.0"
     inkscape:pagecheckerboard="0"
     showgrid="false"
     inkscape:zoom="2.5435448"
     inkscape:cx="170.62802"
     inkscape:cy="103.59558"
     inkscape:window-width="1920"
     inkscape:window-height="1009"
     inkscape:window-x="3432"
     inkscape:window-y="344"
     inkscape:window-maximized="1"
     inkscape:current-layer="g10" /><g
     id="g8"
     inkscape:groupmode="layer"
     inkscape:label="grafico_sigma_y"
     transform="matrix(1.3333333,0,0,1.3333333,0,1.5e-6)"><g
       id="g10"><path
         d="m 4.5,81.641 h 0.125 l 0.129,-0.004 h 0.254 l 0.508,-0.004 1.019,-0.008 2.035,-0.016 4.41,-0.035 4.122,-0.031 h 0.125 l 0.125,-0.004 h 0.253 l 0.504,-0.004 1.012,-0.008 h 0.125 l 0.125,-0.004 h 0.254 l 0.504,-0.003 h 0.125 l 0.129,-0.004 h 0.25 l 0.508,-0.004 h 0.136 l 0.137,-0.004 h 0.34 l 0.07,-0.188 h 0.203 l 0.071,-0.004 h 0.683 l 0.547,-0.004 h 0.137 l 0.137,-0.003 h 0.273 l 0.551,-0.004 1.094,-0.004 h 0.062 l 0.066,-0.004 h 0.383 l 0.512,-0.004 1.019,-0.004 2.047,-0.012 4.43,-0.027 h 0.543 l 0.543,-0.004 1.09,-0.008 h 0.543 l 0.543,-0.004 h 0.137 l 0.136,-0.004 h 0.27 l 0.547,-0.003 h 0.507 l 0.063,-0.004 h 0.062 l 0.063,-0.133 h 0.062 l 0.067,-0.004 h 0.062 l 0.125,-0.004 0.067,-0.004 h 0.062 l 0.125,-0.004 0.254,-0.008 0.508,-0.011 0.062,-0.004 h 0.067 l 0.125,-0.004 0.762,-0.024 1.011,-0.027 h 0.071 l 0.07,-0.004 0.41,-0.012 1.652,-0.046 2.2,-0.059 4.105,-0.117 h 0.067 l 0.062,-0.004 0.125,-0.004 0.25,-0.004 0.504,-0.016 1.008,-0.027 0.062,-0.004 h 0.063 l 0.125,-0.004 0.254,-0.007 0.504,-0.016 1.003,-0.027 h 0.071 l 0.066,-0.004 0.41,-0.012 h 0.071 l 0.066,-0.004 0.137,-0.004 h 0.066 l 0.071,-0.004 0.136,-0.004 h 0.067 l 0.07,-0.004 h 0.066 l 0.071,-0.089 h 0.066 l 0.07,-0.004 0.137,-0.004 h 0.067 l 0.07,-0.004 h 0.137 l 0.273,-0.008 0.066,-0.004 h 0.067 l 0.957,-0.027 1.094,-0.028 h 0.062 l 0.063,-0.003 0.128,-0.004 0.254,-0.004 0.512,-0.016 1.02,-0.027 2.035,-0.051 4.422,-0.117 0.066,-0.004 h 0.066 l 0.411,-0.012 0.539,-0.015 1.086,-0.028 h 0.066 l 0.07,-0.004 0.133,-0.004 0.274,-0.007 0.543,-0.012 1.082,-0.028 0.066,-0.003 h 0.062 l 0.126,-0.004 0.253,-0.008 h 0.063 l 0.062,-0.004 0.129,-0.004 0.25,-0.004 0.063,-0.004 h 0.066 l 0.063,-0.004 h 0.125 l 0.062,-0.004 0.067,-0.093 0.062,-0.004 h 0.063 l 0.062,-0.004 0.125,-0.004 0.254,-0.004 0.063,-0.004 h 0.066 l 0.125,-0.004 0.254,-0.008 0.504,-0.015 1.011,-0.031 h 0.071 l 0.066,-0.004 0.137,-0.004 0.277,-0.008 0.547,-0.016 1.098,-0.035 2.191,-0.062 4.098,-0.121 4.437,-0.133 4.36,-0.129 4.062,-0.121 4.41,-0.133 4.114,-0.121 4.035,-0.121 4.375,-0.129 4.086,-0.121 4.426,-0.133 4.343,-0.129 4.055,-0.121 4.394,-0.129 0.067,-0.004 h 0.062 l 0.129,-0.004 0.254,-0.008 0.516,-0.015 1.023,-0.032 h 0.067 l 0.062,-0.003 0.387,-0.012 0.512,-0.016 1.027,-0.027 L 139.98,78 h 0.063 l 0.375,-0.012 0.504,-0.015 0.062,-0.004 h 0.063 l 0.125,-0.004 0.254,-0.008 0.5,-0.016 h 0.066 l 0.063,-0.003 0.125,-0.004 h 0.062 l 0.063,-0.004 0.125,-0.004 h 0.125 l 0.062,-0.004 h 0.067 l 0.062,0.324 h 0.063 l 0.062,-0.004 h 0.125 l 0.063,-0.004 0.125,-0.004 0.254,-0.004 0.5,-0.015 h 0.07 l 0.066,-0.004 0.137,-0.004 0.273,-0.004 0.547,-0.015 1.09,-0.028 2.184,-0.058 4.07,-0.11 h 0.141 l 0.41,-0.012 0.554,-0.015 1.102,-0.027 0.07,-0.004 h 0.071 l 0.136,-0.004 0.278,-0.008 0.551,-0.016 1.101,-0.027 0.066,-0.004 h 0.063 l 0.387,-0.012 0.515,-0.011 0.067,-0.004 h 0.062 l 0.387,-0.012 0.516,-0.012 0.062,-0.004 h 0.066 l 0.387,-0.011 h 0.129 l 0.129,-0.004 0.063,-0.004 h 0.066 l 0.062,-0.004 h 0.067 l 0.062,-0.004 0.067,-0.086 0.062,-0.004 h 0.067 l 0.062,-0.004 h 0.067 l 0.128,-0.004 h 0.063 l 0.066,-0.004 0.387,-0.011 h 0.063 l 0.062,-0.004 0.125,-0.004 0.254,-0.004 0.504,-0.016 1.012,-0.027 2.019,-0.059 4.383,-0.121 0.066,-0.004 h 0.063 l 0.129,-0.003 0.254,-0.008 0.511,-0.012 1.024,-0.031 h 0.066 l 0.063,-0.004 0.129,-0.004 0.254,-0.004 0.511,-0.016 1.024,-0.027 0.07,-0.004 h 0.066 l 0.141,-0.004 0.832,-0.023 0.066,-0.004 h 0.071 l 0.14,-0.004 0.274,-0.008 0.555,-0.015 0.07,-0.004 h 0.07 l 0.137,-0.004 0.277,-0.008 0.071,-0.004 h 0.07 l 0.137,-0.004 0.277,-0.008 0.07,-0.004 h 0.071 l 0.066,-0.004 h 0.07 l 0.071,-0.003 h 0.07 l 0.066,-0.004 0.071,3.234 h 0.07 l 0.066,-0.004 H 178 l 0.137,-0.004 h 0.269 l 0.543,-0.004 1.09,-0.004 2.176,-0.011 4.062,-0.024 h 0.137 l 0.137,-0.004 h 0.277 l 0.547,-0.004 1.102,-0.003 h 0.136 l 0.141,-0.004 h 0.273 l 0.551,-0.004 1.102,-0.004 0.062,-0.004 h 0.449 l 0.516,-0.004 h 0.258 l 0.254,-0.004 h 0.578 l 0.066,-0.004 h 0.641 l 0.258,-0.004 h 0.386 l 0.129,-0.004 h 0.254 l 0.067,-0.187 h 0.316 l 0.129,-0.004 h 0.25 l 3.527,-0.027 4.371,-0.036 4.079,-0.031 h 0.285 l 0.285,-0.004 0.57,-0.004 1.137,-0.007 h 0.07 l 0.074,-0.004 h 0.426 l 0.571,-0.008 h 0.285 l 0.281,-0.004 h 0.43 l 0.07,-0.004 h 0.07"
         style="fill:none;stroke:#5e81b5;stroke-width:1.152;stroke-linecap:square;stroke-linejoin:miter;stroke-miterlimit:3.25;stroke-dasharray:none;stroke-opacity:1"
         id="path12" /><path
         d="m 4.5,82.441 0.062,-0.003 h 0.192 l 0.762,-0.012 1.019,-0.016 2.035,-0.035 4.41,-0.066 4.122,-0.063 h 0.062 l 0.063,-0.004 h 0.125 l 0.253,-0.004 0.504,-0.008 1.012,-0.015 h 0.063 l 0.062,-0.004 h 0.125 l 0.254,-0.004 0.504,-0.008 h 0.062 l 0.063,-0.004 h 0.129 l 0.25,-0.004 0.508,-0.007 h 0.066 l 0.07,-0.004 h 0.137 l 0.066,-0.004 h 0.208 l 0.066,-0.004 0.07,-0.371 h 0.067 l 0.07,-0.004 h 0.273 l 0.067,-0.004 h 0.207 l 0.82,-0.012 h 0.274 l 0.273,-0.004 0.551,-0.007 1.094,-0.012 h 0.128 l 0.125,-0.004 h 0.258 l 0.512,-0.008 1.019,-0.012 2.047,-0.019 4.43,-0.051 h 0.137 l 0.136,-0.004 0.27,-0.004 0.543,-0.004 1.09,-0.011 h 0.066 l 0.071,-0.004 h 0.132 l 0.274,-0.004 0.543,-0.004 0.07,-0.004 h 0.203 l 0.27,-0.004 0.547,-0.004 0.062,-0.004 h 0.317 l 0.128,-0.004 h 0.125 l 0.063,1.414 0.062,-0.003 0.067,-0.004 0.062,-0.004 0.125,-0.004 0.067,-0.004 0.187,-0.012 0.254,-0.015 0.508,-0.028 0.062,-0.004 0.067,-0.004 0.125,-0.007 0.254,-0.012 0.508,-0.031 1.011,-0.055 0.141,-0.008 0.41,-0.023 1.652,-0.094 2.2,-0.121 4.105,-0.231 0.067,-0.004 0.187,-0.011 0.25,-0.012 0.504,-0.027 1.008,-0.059 0.125,-0.008 0.125,-0.004 0.254,-0.015 0.504,-0.028 1.003,-0.058 0.071,-0.004 0.066,-0.004 0.137,-0.008 0.273,-0.012 0.071,-0.003 0.066,-0.004 0.137,-0.008 0.066,-0.004 0.071,-0.004 0.136,-0.008 0.067,-0.004 0.07,-0.004 0.066,-0.004 0.071,-0.179 0.066,-0.004 0.07,-0.004 0.137,-0.008 h 0.067 l 0.07,-0.004 0.41,-0.023 0.133,-0.008 0.137,-0.008 0.273,-0.012 0.547,-0.031 1.094,-0.054 0.125,-0.008 0.128,-0.008 0.254,-0.012 0.512,-0.027 1.02,-0.055 2.035,-0.105 4.422,-0.235 4.336,-0.226 4.046,-0.207 4.387,-0.262 4.098,-0.242 4.437,-0.266 4.36,-0.258 4.062,-0.242 4.41,-0.262 4.114,-0.242 4.035,-0.242 4.375,-0.258 4.086,-0.246 4.426,-0.262 4.343,-0.257 4.055,-0.243 4.394,-0.261 0.067,-0.004 0.062,-0.004 0.129,-0.004 0.254,-0.016 0.516,-0.031 1.023,-0.062 0.067,-0.004 0.062,-0.004 0.387,-0.024 0.512,-0.027 1.027,-0.062 0.5,-0.032 0.504,-0.027 0.25,-0.016 0.254,-0.015 0.5,-0.031 0.066,-0.004 0.063,-0.004 0.125,-0.004 0.437,-0.028 0.067,-0.003 0.062,0.441 h 0.063 l 0.25,-0.016 0.125,-0.004 0.254,-0.015 0.5,-0.028 0.07,-0.003 h 0.066 l 0.41,-0.024 0.547,-0.027 1.09,-0.059 2.184,-0.113 4.07,-0.215 0.141,-0.008 0.41,-0.023 0.554,-0.028 1.102,-0.058 0.141,-0.008 0.136,-0.008 0.278,-0.011 0.551,-0.032 1.101,-0.058 0.066,-0.004 h 0.063 l 0.387,-0.024 0.515,-0.027 0.067,-0.004 h 0.062 l 0.387,-0.023 0.516,-0.028 h 0.062 l 0.066,-0.004 0.129,-0.007 0.258,-0.012 0.063,-0.004 0.066,-0.004 0.129,-0.008 0.063,-0.004 0.066,-0.004 0.062,-0.003 h 0.067 l 0.062,-0.004 0.067,-0.18 0.062,-0.004 0.067,-0.004 0.062,-0.004 h 0.067 l 0.128,-0.008 0.063,-0.004 0.066,-0.003 0.387,-0.024 0.063,-0.004 h 0.062 l 0.125,-0.008 0.254,-0.015 0.504,-0.028 1.012,-0.058 2.019,-0.113 4.383,-0.243 0.066,-0.004 0.063,-0.003 0.129,-0.008 0.254,-0.016 0.511,-0.027 1.024,-0.059 0.066,-0.004 0.063,-0.004 0.129,-0.004 0.254,-0.015 0.511,-0.028 1.024,-0.058 0.07,-0.004 0.066,-0.004 0.141,-0.008 0.832,-0.047 0.066,-0.003 0.211,-0.012 0.274,-0.016 0.555,-0.031 0.14,-0.008 0.137,-0.008 0.277,-0.015 0.141,-0.008 0.137,-0.008 0.277,-0.016 0.141,-0.007 0.066,-0.004 0.211,-0.012 0.066,-0.004 0.071,4.781 h 0.136 l 0.141,-0.004 h 0.277 l 0.067,-0.004 h 0.207 l 0.269,-0.003 0.543,-0.004 1.09,-0.016 2.176,-0.023 4.062,-0.043 0.067,-0.004 h 0.207 l 0.277,-0.004 0.547,-0.004 1.102,-0.016 h 0.277 l 0.273,-0.004 0.551,-0.007 1.102,-0.012 h 0.129 l 0.129,-0.004 h 0.253 l 0.516,-0.008 h 0.129 l 0.129,-0.004 h 0.254 l 0.515,-0.008 h 0.258 l 0.258,-0.003 h 0.062 l 0.063,-0.004 h 0.129 l 0.258,-0.004 h 0.258 l 0.062,-0.004 h 0.32 l 0.067,-0.004 h 0.062 l 0.067,-0.371 0.062,-0.004 h 0.192 l 0.062,-0.004 h 0.129 l 0.25,-0.004 3.527,-0.055 4.371,-0.066 4.079,-0.066 h 0.144 l 0.141,-0.004 0.855,-0.012 1.137,-0.02 h 0.144 l 0.141,-0.003 0.856,-0.012 h 0.07 l 0.07,-0.004 h 0.145 l 0.281,-0.004 0.074,-0.004 h 0.211 l 0.07,-0.004 h 0.145 l 0.07,-0.004"
         style="fill:none;stroke:#e19c24;stroke-width:1.152;stroke-linecap:square;stroke-linejoin:miter;stroke-miterlimit:3.25;stroke-dasharray:none;stroke-opacity:1"
         id="path14" /><path
         d="m 4.5,84.84 0.062,-0.004 h 0.063 l 0.129,-0.008 0.254,-0.008 0.508,-0.019 1.019,-0.039 2.035,-0.078 4.41,-0.172 4.122,-0.16 h 0.062 l 0.063,-0.004 0.125,-0.004 0.253,-0.012 0.504,-0.02 1.012,-0.039 h 0.063 l 0.062,-0.003 0.125,-0.004 0.254,-0.012 0.504,-0.016 0.125,-0.008 0.129,-0.003 0.25,-0.008 0.508,-0.02 0.066,-0.004 0.07,-0.004 0.137,-0.003 0.066,-0.004 0.071,-0.004 h 0.066 l 0.071,-0.004 0.066,-0.004 0.07,-0.934 h 0.067 l 0.07,-0.004 h 0.066 l 0.071,-0.004 0.136,-0.003 h 0.067 l 0.07,-0.004 0.137,-0.004 0.273,-0.004 0.547,-0.016 0.07,-0.004 h 0.067 l 0.41,-0.011 0.551,-0.016 1.094,-0.031 h 0.062 l 0.066,-0.004 0.125,-0.004 0.258,-0.008 0.512,-0.012 1.019,-0.027 2.047,-0.059 4.43,-0.125 h 0.066 l 0.071,-0.003 0.136,-0.004 0.27,-0.004 0.543,-0.016 1.09,-0.031 0.066,-0.004 h 0.071 l 0.132,-0.004 0.274,-0.008 0.543,-0.015 h 0.07 l 0.067,-0.004 0.136,-0.004 0.27,-0.008 0.547,-0.016 h 0.125 l 0.129,-0.004 0.062,-0.003 h 0.063 l 0.128,-0.004 0.063,-0.004 h 0.062 l 0.063,6.062 0.062,-0.008 0.067,-0.011 0.187,-0.024 0.067,-0.011 0.062,-0.008 0.125,-0.02 0.762,-0.105 0.062,-0.008 0.067,-0.008 0.125,-0.019 0.762,-0.106 1.011,-0.141 0.071,-0.011 0.07,-0.008 0.41,-0.059 0.551,-0.078 1.101,-0.152 2.2,-0.309 4.105,-0.574 0.067,-0.012 0.187,-0.023 0.25,-0.035 1.512,-0.211 0.062,-0.012 0.188,-0.023 0.254,-0.036 0.504,-0.07 1.003,-0.144 0.071,-0.008 0.066,-0.008 0.41,-0.059 0.071,-0.011 0.066,-0.008 0.137,-0.02 0.066,-0.007 0.071,-0.012 0.136,-0.02 0.067,-0.007 0.07,-0.012 0.066,-0.008 0.071,-0.445 0.066,-0.008 0.07,-0.012 0.137,-0.015 0.067,-0.008 0.07,-0.012 0.137,-0.016 0.273,-0.039 0.133,-0.015 0.137,-0.02 0.82,-0.105 1.094,-0.145 0.125,-0.016 0.128,-0.019 0.254,-0.031 0.512,-0.067 1.02,-0.136 2.035,-0.266 4.422,-0.582 0.066,-0.008 0.066,-0.012 0.137,-0.015 0.274,-0.035 0.539,-0.075 1.086,-0.14 0.066,-0.012 0.07,-0.008 0.133,-0.015 0.274,-0.036 0.543,-0.074 1.082,-0.14 0.066,-0.008 0.062,-0.012 0.126,-0.016 0.253,-0.031 0.063,-0.008 0.062,-0.011 0.129,-0.016 0.313,-0.039 0.066,-0.012 0.25,-0.031 0.067,0.371 0.062,-0.012 0.063,-0.007 0.062,-0.012 0.125,-0.016 0.254,-0.039 0.063,-0.008 0.066,-0.011 0.125,-0.02 0.254,-0.035 0.504,-0.078 1.011,-0.149 0.071,-0.011 0.066,-0.008 0.137,-0.02 0.277,-0.043 0.547,-0.082 1.098,-0.164 2.191,-0.324 4.098,-0.609 4.437,-0.66 4.36,-0.645 4.062,-0.605 4.41,-0.657 4.114,-0.609 4.035,-0.602 4.375,-0.648 4.086,-0.609 4.426,-0.657 4.343,-0.644 4.055,-0.606 4.394,-0.652 0.067,-0.008 0.062,-0.012 0.129,-0.019 0.254,-0.035 0.516,-0.078 1.023,-0.153 0.067,-0.008 0.062,-0.011 0.129,-0.02 0.258,-0.035 0.512,-0.078 1.027,-0.152 0.062,-0.008 0.063,-0.012 0.125,-0.016 0.25,-0.039 0.504,-0.074 0.062,-0.008 0.063,-0.011 0.125,-0.02 0.254,-0.035 0.5,-0.074 0.066,-0.012 0.063,-0.008 0.125,-0.019 0.062,-0.008 0.063,-0.012 0.125,-0.016 0.062,-0.011 0.063,-0.008 0.062,-0.012 0.067,-0.008 0.062,0.793 0.063,-0.007 0.062,-0.012 0.313,-0.039 0.254,-0.035 0.5,-0.063 0.07,-0.012 0.066,-0.007 0.137,-0.02 0.82,-0.105 1.09,-0.145 2.184,-0.285 4.07,-0.539 0.141,-0.016 0.136,-0.019 0.274,-0.035 0.554,-0.075 1.102,-0.144 0.07,-0.008 0.071,-0.012 0.136,-0.015 0.278,-0.039 0.551,-0.071 1.101,-0.144 0.066,-0.008 0.063,-0.012 0.129,-0.015 0.258,-0.036 0.515,-0.066 0.067,-0.008 0.062,-0.008 0.129,-0.019 0.258,-0.031 0.516,-0.071 0.062,-0.008 0.066,-0.007 0.129,-0.016 0.258,-0.035 0.063,-0.008 0.066,-0.008 0.129,-0.019 0.063,-0.008 0.066,-0.008 0.062,-0.008 0.067,-0.008 0.062,-0.011 0.067,-0.442 0.062,-0.011 0.067,-0.008 0.062,-0.008 0.067,-0.008 0.128,-0.019 0.063,-0.008 0.066,-0.012 0.129,-0.016 0.258,-0.039 0.125,-0.015 0.125,-0.02 0.254,-0.035 0.504,-0.07 1.012,-0.141 2.019,-0.281 4.383,-0.613 0.066,-0.012 0.063,-0.008 0.129,-0.019 0.254,-0.036 0.511,-0.07 1.024,-0.144 0.066,-0.008 0.063,-0.008 0.129,-0.02 0.254,-0.035 0.511,-0.07 1.024,-0.145 0.07,-0.007 0.066,-0.012 0.141,-0.02 0.832,-0.117 0.066,-0.008 0.071,-0.011 0.14,-0.02 0.274,-0.039 0.555,-0.074 0.07,-0.012 0.07,-0.008 0.137,-0.019 0.277,-0.039 0.071,-0.012 0.07,-0.008 0.137,-0.019 0.277,-0.039 0.07,-0.012 0.071,-0.008 0.066,-0.012 0.07,-0.007 0.071,-0.012 0.07,-0.008 0.066,-0.008 0.071,9.426 0.07,-0.004 h 0.066 l 0.141,-0.004 0.277,-0.008 h 0.067 l 0.07,-0.004 0.137,-0.003 0.269,-0.008 0.543,-0.016 1.09,-0.027 2.176,-0.063 4.062,-0.113 h 0.067 l 0.07,-0.004 0.137,-0.004 0.277,-0.008 0.547,-0.015 1.102,-0.028 0.07,-0.004 h 0.066 l 0.141,-0.003 0.273,-0.008 1.653,-0.047 0.062,-0.004 h 0.067 l 0.129,-0.004 0.253,-0.008 0.516,-0.011 0.063,-0.004 h 0.066 l 0.129,-0.004 0.254,-0.008 0.515,-0.016 h 0.063 l 0.066,-0.004 0.129,-0.004 0.258,-0.003 0.062,-0.004 h 0.063 l 0.387,-0.012 0.062,-0.004 h 0.067 l 0.129,-0.004 h 0.062 l 0.066,-0.004 0.129,-0.004 h 0.063 l 0.062,-0.004 h 0.067 l 0.062,-0.003 0.067,-0.934 h 0.062 l 0.067,-0.004 0.062,-0.004 h 0.063 l 0.062,-0.004 0.129,-0.004 0.25,-0.011 1.512,-0.059 2.015,-0.074 4.371,-0.172 4.079,-0.156 0.074,-0.004 h 0.07 l 0.141,-0.008 0.285,-0.012 0.57,-0.019 1.137,-0.043 0.07,-0.004 0.074,-0.004 0.141,-0.004 0.856,-0.035 h 0.07 l 0.07,-0.004 0.145,-0.004 0.281,-0.012 0.074,-0.004 0.07,-0.004 0.141,-0.003 0.07,-0.004 h 0.075 l 0.14,-0.008"
         style="fill:none;stroke:#8fb032;stroke-width:1.152;stroke-linecap:square;stroke-linejoin:miter;stroke-miterlimit:3.25;stroke-dasharray:none;stroke-opacity:1"
         id="path16" /><path
         d="m 4.5,88.84 0.062,-0.008 0.063,-0.004 0.129,-0.008 0.762,-0.058 1.019,-0.078 2.035,-0.161 4.41,-0.339 4.122,-0.317 0.062,-0.004 0.063,-0.008 0.125,-0.007 0.253,-0.02 0.504,-0.039 1.012,-0.078 0.063,-0.004 0.062,-0.008 0.125,-0.008 0.254,-0.019 0.504,-0.039 0.125,-0.008 0.129,-0.012 0.25,-0.019 0.508,-0.039 0.066,-0.004 0.07,-0.008 0.137,-0.008 0.066,-0.008 0.071,-0.004 0.066,-0.003 0.071,-0.008 0.066,-0.004 0.07,-1.867 0.067,-0.004 0.07,-0.004 0.066,-0.004 0.071,-0.004 0.136,-0.008 0.067,-0.004 0.07,-0.004 0.957,-0.054 0.07,-0.004 0.067,-0.004 0.41,-0.024 0.551,-0.027 1.094,-0.062 0.062,-0.004 0.066,-0.004 0.125,-0.008 0.258,-0.012 0.512,-0.027 1.019,-0.059 2.047,-0.113 4.43,-0.246 0.066,-0.004 0.071,-0.004 0.136,-0.008 0.27,-0.015 0.543,-0.032 1.09,-0.058 0.066,-0.004 0.071,-0.004 0.132,-0.008 0.274,-0.015 0.543,-0.032 0.07,-0.004 0.067,-0.003 0.136,-0.004 0.27,-0.016 0.547,-0.031 0.125,-0.008 0.129,-0.008 0.062,-0.004 h 0.063 l 0.128,-0.008 0.125,-0.007 0.063,13.808 0.062,-0.019 0.067,-0.02 0.062,-0.015 0.125,-0.036 0.067,-0.019 0.062,-0.016 0.125,-0.035 0.254,-0.074 0.508,-0.141 0.062,-0.015 0.067,-0.02 0.125,-0.035 0.254,-0.07 0.508,-0.145 1.011,-0.281 0.141,-0.039 0.41,-0.117 0.551,-0.153 1.101,-0.308 2.2,-0.614 4.105,-1.152 0.067,-0.016 0.062,-0.019 0.375,-0.106 1.512,-0.422 0.062,-0.019 0.063,-0.016 0.125,-0.035 0.254,-0.07 0.504,-0.141 1.003,-0.281 0.071,-0.02 0.066,-0.019 0.137,-0.039 0.273,-0.074 0.071,-0.02 0.066,-0.019 0.137,-0.04 0.066,-0.019 0.071,-0.02 0.136,-0.039 0.067,-0.015 0.07,-0.02 0.066,-0.019 0.071,-0.891 0.066,-0.019 0.07,-0.016 0.137,-0.039 0.067,-0.016 0.07,-0.019 0.41,-0.106 0.133,-0.039 0.41,-0.105 0.547,-0.145 1.094,-0.285 0.062,-0.02 0.063,-0.015 0.128,-0.035 0.254,-0.067 0.512,-0.133 1.02,-0.269 2.035,-0.535 4.422,-1.164 0.066,-0.016 0.066,-0.019 0.411,-0.106 0.539,-0.144 1.086,-0.286 0.066,-0.015 0.07,-0.02 0.133,-0.035 0.274,-0.07 0.543,-0.145 1.082,-0.285 0.066,-0.016 0.062,-0.015 0.126,-0.035 0.253,-0.067 0.125,-0.031 0.129,-0.035 0.25,-0.067 0.063,-0.015 0.066,-0.016 0.063,-0.019 0.187,-0.047 0.067,0.949 0.125,-0.039 0.062,-0.016 0.125,-0.039 0.254,-0.074 0.063,-0.019 0.066,-0.02 0.125,-0.039 0.254,-0.074 0.504,-0.149 1.011,-0.3 0.071,-0.02 0.066,-0.023 0.137,-0.04 0.277,-0.082 0.547,-0.164 1.098,-0.324 2.191,-0.652 4.098,-1.219 4.437,-1.316 4.36,-1.297 4.062,-1.207 4.41,-1.313 4.114,-1.222 4.035,-1.2 4.375,-1.3 4.086,-1.211 4.426,-1.317 4.343,-1.293 4.055,-1.203 4.394,-1.308 0.067,-0.02 0.062,-0.016 0.129,-0.039 0.254,-0.078 0.516,-0.152 1.023,-0.305 0.067,-0.019 0.062,-0.02 0.129,-0.035 0.258,-0.078 0.512,-0.153 1.027,-0.304 0.062,-0.02 0.063,-0.015 0.125,-0.039 0.25,-0.075 0.504,-0.148 0.25,-0.078 0.254,-0.074 0.5,-0.149 0.066,-0.019 0.063,-0.016 0.25,-0.078 0.125,-0.035 0.187,-0.059 0.067,-0.015 0.062,1.371 0.125,-0.032 0.063,-0.019 0.25,-0.063 0.254,-0.066 0.5,-0.133 0.07,-0.019 0.066,-0.016 0.137,-0.039 0.273,-0.07 0.547,-0.145 1.09,-0.285 2.184,-0.574 4.07,-1.071 0.141,-0.039 0.136,-0.035 0.274,-0.074 0.554,-0.145 1.102,-0.289 0.07,-0.019 0.071,-0.016 0.136,-0.039 0.278,-0.07 0.551,-0.145 1.101,-0.293 0.066,-0.015 0.063,-0.016 0.129,-0.035 0.258,-0.067 0.515,-0.136 0.067,-0.016 0.062,-0.019 0.129,-0.036 0.258,-0.066 0.516,-0.137 0.062,-0.015 0.066,-0.016 0.129,-0.035 0.258,-0.066 0.063,-0.02 0.066,-0.016 0.129,-0.035 0.063,-0.015 0.066,-0.016 0.062,-0.02 0.067,-0.015 0.062,-0.016 0.067,-0.89 0.062,-0.016 0.067,-0.02 0.062,-0.019 0.067,-0.016 0.128,-0.035 0.063,-0.019 0.066,-0.02 0.387,-0.105 0.063,-0.02 0.062,-0.016 0.125,-0.035 0.254,-0.074 0.504,-0.141 1.012,-0.281 2.019,-0.566 4.383,-1.227 0.066,-0.019 0.063,-0.016 0.129,-0.035 0.254,-0.074 0.511,-0.141 1.024,-0.289 0.066,-0.016 0.063,-0.019 0.129,-0.035 0.254,-0.071 0.511,-0.144 1.024,-0.285 0.07,-0.02 0.066,-0.019 0.141,-0.04 0.832,-0.234 0.066,-0.019 0.071,-0.02 0.14,-0.035 0.274,-0.078 0.555,-0.156 0.14,-0.04 0.137,-0.039 0.277,-0.078 0.141,-0.039 0.137,-0.039 0.277,-0.074 0.141,-0.039 0.066,-0.02 0.211,-0.058 0.066,-0.02 0.071,17.172 0.07,-0.004 0.066,-0.004 0.141,-0.008 0.277,-0.015 0.067,-0.004 0.07,-0.004 0.137,-0.008 0.269,-0.015 0.543,-0.028 1.09,-0.062 2.176,-0.121 4.062,-0.227 0.067,-0.004 0.07,-0.004 0.137,-0.008 0.277,-0.011 0.547,-0.031 1.102,-0.063 0.07,-0.004 0.066,-0.004 0.141,-0.008 0.273,-0.015 0.551,-0.032 1.102,-0.058 0.062,-0.004 0.067,-0.004 0.129,-0.008 0.253,-0.015 0.516,-0.028 0.063,-0.004 0.066,-0.003 0.129,-0.008 0.254,-0.012 0.515,-0.031 h 0.063 l 0.066,-0.004 0.387,-0.024 0.125,-0.007 0.129,-0.008 0.258,-0.012 0.062,-0.004 0.067,-0.004 0.129,-0.008 0.062,-0.004 0.066,-0.003 0.129,-0.004 0.125,-0.008 0.067,-0.004 0.062,-0.004 0.067,-1.867 0.062,-0.008 0.067,-0.004 0.125,-0.008 0.062,-0.007 0.129,-0.008 0.25,-0.02 3.527,-0.273 4.371,-0.336 4.079,-0.317 0.074,-0.003 0.07,-0.008 0.141,-0.008 0.285,-0.024 0.57,-0.043 1.137,-0.089 0.07,-0.004 0.074,-0.008 0.141,-0.008 0.285,-0.023 0.571,-0.043 0.07,-0.008 0.07,-0.004 0.145,-0.012 0.281,-0.019 0.074,-0.008 0.07,-0.004 0.141,-0.012 0.07,-0.008 0.075,-0.003 0.07,-0.004 0.07,-0.008"
         style="fill:none;stroke:#eb6235;stroke-width:1.152;stroke-linecap:square;stroke-linejoin:miter;stroke-miterlimit:3.25;stroke-dasharray:none;stroke-opacity:1"
         id="path18" /><path
         d="m 4.5,96.836 0.062,-0.008 0.063,-0.012 0.129,-0.019 0.762,-0.117 1.019,-0.157 2.035,-0.312 4.41,-0.684 4.122,-0.632 0.062,-0.012 0.063,-0.008 0.125,-0.02 0.253,-0.039 0.504,-0.078 1.012,-0.156 0.063,-0.012 0.062,-0.008 0.125,-0.019 0.254,-0.039 0.504,-0.078 0.062,-0.012 0.063,-0.008 0.129,-0.019 0.25,-0.039 0.508,-0.078 0.066,-0.012 0.07,-0.008 0.137,-0.023 0.066,-0.008 0.071,-0.012 0.066,-0.012 0.071,-0.011 0.066,-0.008 0.07,-3.738 0.067,-0.008 0.07,-0.008 0.066,-0.004 0.071,-0.008 0.136,-0.015 0.067,-0.008 0.07,-0.008 0.41,-0.047 0.547,-0.059 0.07,-0.007 0.067,-0.008 0.41,-0.047 0.551,-0.063 1.094,-0.121 0.062,-0.007 0.066,-0.004 0.125,-0.016 0.258,-0.027 0.512,-0.059 1.019,-0.113 2.047,-0.227 4.43,-0.492 0.066,-0.008 0.071,-0.008 0.136,-0.015 0.27,-0.031 0.543,-0.059 1.09,-0.121 0.066,-0.008 0.071,-0.008 0.132,-0.015 0.274,-0.032 0.543,-0.058 0.07,-0.008 0.067,-0.008 0.136,-0.015 0.27,-0.032 0.547,-0.058 0.125,-0.016 0.129,-0.012 0.125,-0.015 0.128,-0.016 0.063,-0.004 0.062,-0.008 0.063,29.297 0.062,-0.035 0.067,-0.035 0.062,-0.035 0.125,-0.074 0.067,-0.036 0.187,-0.105 0.254,-0.141 0.508,-0.285 0.062,-0.035 0.067,-0.035 0.125,-0.07 0.254,-0.145 0.508,-0.281 1.011,-0.571 0.071,-0.039 0.07,-0.035 0.137,-0.078 0.273,-0.152 1.652,-0.926 2.2,-1.231 4.105,-2.3 0.067,-0.035 0.437,-0.247 1.512,-0.843 0.25,-0.141 0.254,-0.144 0.504,-0.282 1.003,-0.562 0.071,-0.039 0.066,-0.035 0.137,-0.079 0.273,-0.152 0.071,-0.039 0.066,-0.039 0.137,-0.074 0.066,-0.039 0.071,-0.039 0.136,-0.075 0.067,-0.039 0.07,-0.039 0.066,-0.039 0.071,-1.781 0.066,-0.035 0.07,-0.035 0.137,-0.071 0.067,-0.039 0.07,-0.035 0.137,-0.07 0.273,-0.145 0.133,-0.07 0.137,-0.074 0.273,-0.141 0.547,-0.289 1.094,-0.574 0.062,-0.035 0.063,-0.032 0.128,-0.066 0.254,-0.137 0.512,-0.265 1.02,-0.539 2.035,-1.071 4.422,-2.324 0.066,-0.039 0.066,-0.035 0.137,-0.07 0.274,-0.145 0.539,-0.285 1.086,-0.57 0.066,-0.036 0.07,-0.035 0.133,-0.07 0.274,-0.145 0.543,-0.285 1.082,-0.57 0.066,-0.031 0.062,-0.035 0.126,-0.067 0.253,-0.133 0.063,-0.031 0.062,-0.035 0.129,-0.066 0.25,-0.133 0.063,-0.035 0.066,-0.032 0.063,-0.035 0.062,-0.031 0.063,-0.035 0.062,-0.032 0.067,2.114 0.125,-0.078 0.062,-0.036 0.125,-0.074 0.254,-0.152 0.063,-0.039 0.066,-0.035 0.125,-0.075 0.254,-0.152 0.504,-0.301 1.011,-0.601 0.071,-0.039 0.066,-0.043 0.137,-0.078 0.277,-0.164 0.547,-0.329 1.098,-0.652 2.191,-1.305 4.098,-2.433 4.437,-2.637 4.36,-2.59 4.062,-2.418 4.41,-2.621 4.114,-2.445 4.035,-2.399 4.375,-2.601 4.086,-2.426 4.426,-2.633 4.343,-2.582 4.055,-2.41 4.394,-2.613 0.067,-0.035 0.062,-0.039 0.129,-0.079 0.254,-0.152 0.516,-0.305 1.023,-0.609 0.067,-0.039 0.062,-0.035 0.129,-0.078 0.258,-0.153 0.512,-0.304 1.027,-0.61 0.062,-0.039 0.063,-0.035 0.375,-0.223 0.504,-0.3 0.062,-0.039 0.063,-0.036 0.125,-0.074 0.254,-0.152 0.5,-0.297 0.066,-0.039 0.063,-0.035 0.125,-0.074 0.062,-0.039 0.063,-0.036 0.125,-0.078 0.062,-0.035 0.063,-0.039 0.062,-0.035 0.067,-0.039 0.062,2.535 0.063,-0.031 0.062,-0.035 0.063,-0.032 0.062,-0.035 0.063,-0.031 0.125,-0.067 0.254,-0.132 0.5,-0.266 0.07,-0.035 0.066,-0.035 0.137,-0.071 0.82,-0.433 1.09,-0.574 2.184,-1.149 4.07,-2.14 0.07,-0.036 0.071,-0.039 0.136,-0.07 0.274,-0.145 0.554,-0.293 1.102,-0.578 0.07,-0.039 0.071,-0.035 0.136,-0.074 0.278,-0.145 0.551,-0.289 1.101,-0.582 0.066,-0.031 0.063,-0.035 0.129,-0.066 0.773,-0.411 0.067,-0.031 0.062,-0.035 0.129,-0.066 0.258,-0.137 0.516,-0.27 0.062,-0.035 0.066,-0.035 0.129,-0.066 0.258,-0.137 0.063,-0.031 0.066,-0.036 0.129,-0.066 0.063,-0.035 0.066,-0.035 0.062,-0.035 0.067,-0.032 0.062,-0.035 0.067,-1.777 0.062,-0.035 0.067,-0.036 0.062,-0.035 0.067,-0.039 0.128,-0.07 0.063,-0.035 0.066,-0.039 0.129,-0.071 0.258,-0.144 0.25,-0.141 0.254,-0.14 0.504,-0.286 1.012,-0.566 2.019,-1.129 4.383,-2.453 0.066,-0.039 0.063,-0.035 0.129,-0.07 0.254,-0.145 0.511,-0.285 1.024,-0.574 0.066,-0.036 0.063,-0.035 0.129,-0.07 0.254,-0.145 0.511,-0.285 1.024,-0.574 0.07,-0.039 0.066,-0.039 0.141,-0.074 0.832,-0.469 0.066,-0.035 0.211,-0.117 0.274,-0.157 0.555,-0.308 0.14,-0.078 0.137,-0.078 0.277,-0.157 0.141,-0.078 0.137,-0.074 0.277,-0.156 0.141,-0.078 0.066,-0.039 0.211,-0.118 0.066,-0.039 0.071,32.664 0.07,-0.007 0.066,-0.008 0.141,-0.016 0.277,-0.031 0.067,-0.008 0.07,-0.008 0.137,-0.015 0.269,-0.028 0.543,-0.062 1.09,-0.121 2.176,-0.243 4.062,-0.449 0.067,-0.008 0.07,-0.007 0.137,-0.016 0.277,-0.031 0.547,-0.063 1.102,-0.121 0.07,-0.008 0.066,-0.007 0.141,-0.016 0.273,-0.031 0.551,-0.059 1.102,-0.125 0.062,-0.004 0.067,-0.008 0.129,-0.015 0.253,-0.028 0.516,-0.058 0.063,-0.008 0.066,-0.008 0.129,-0.012 0.254,-0.027 0.515,-0.058 0.063,-0.008 0.066,-0.008 0.129,-0.012 0.258,-0.031 0.062,-0.008 0.063,-0.004 0.129,-0.015 0.258,-0.028 0.062,-0.008 0.067,-0.007 0.129,-0.016 0.062,-0.004 0.066,-0.008 0.129,-0.015 0.125,-0.016 0.067,-0.004 0.062,-0.008 0.067,-3.738 0.062,-0.008 0.067,-0.012 0.062,-0.007 0.063,-0.012 0.062,-0.008 0.129,-0.019 0.25,-0.039 3.527,-0.547 4.371,-0.672 4.079,-0.633 0.074,-0.008 0.211,-0.035 0.285,-0.043 0.57,-0.09 1.137,-0.176 0.07,-0.007 0.074,-0.012 0.141,-0.024 0.856,-0.128 0.14,-0.024 0.145,-0.023 0.281,-0.043 0.074,-0.012 0.07,-0.012 0.141,-0.019 0.07,-0.012 0.075,-0.012 0.07,-0.011 0.07,-0.008"
         style="fill:none;stroke:#8778b3;stroke-width:1.152;stroke-linecap:square;stroke-linejoin:miter;stroke-miterlimit:3.25;stroke-dasharray:none;stroke-opacity:1"
         id="path20" /><path
         d="m 4.5,104.836 0.062,-0.016 0.063,-0.011 0.129,-0.032 0.762,-0.175 1.019,-0.235 2.035,-0.472 4.41,-1.02 4.122,-0.957 0.062,-0.012 0.063,-0.015 0.125,-0.028 0.253,-0.058 0.504,-0.117 1.012,-0.235 0.125,-0.031 0.125,-0.027 0.254,-0.059 0.504,-0.117 0.062,-0.016 0.063,-0.012 0.129,-0.031 0.25,-0.058 0.508,-0.118 0.066,-0.015 0.07,-0.016 0.137,-0.031 0.066,-0.016 0.071,-0.015 0.066,-0.016 0.071,-0.016 0.066,-0.015 0.07,-5.606 0.067,-0.011 0.07,-0.012 0.066,-0.012 0.071,-0.012 0.136,-0.019 0.067,-0.012 0.07,-0.012 0.41,-0.07 0.547,-0.09 0.07,-0.011 0.067,-0.012 0.41,-0.07 0.551,-0.09 1.094,-0.184 0.062,-0.008 0.066,-0.011 0.125,-0.024 0.258,-0.043 0.512,-0.082 1.019,-0.172 2.047,-0.34 4.43,-0.738 0.066,-0.012 0.071,-0.011 0.136,-0.024 0.27,-0.047 0.543,-0.089 1.09,-0.18 0.066,-0.012 0.071,-0.012 0.132,-0.023 0.274,-0.047 0.543,-0.09 0.07,-0.011 0.067,-0.012 0.136,-0.02 0.27,-0.047 0.547,-0.089 0.125,-0.024 0.129,-0.019 0.062,-0.012 0.063,-0.008 0.128,-0.023 0.063,-0.012 0.062,-0.008 0.063,44.785 0.062,-0.051 0.067,-0.054 0.062,-0.055 0.125,-0.105 0.067,-0.055 0.062,-0.051 0.125,-0.105 0.254,-0.215 0.508,-0.426 0.062,-0.055 0.067,-0.05 0.125,-0.11 0.254,-0.211 0.508,-0.425 1.011,-0.852 0.141,-0.117 0.137,-0.114 0.273,-0.23 0.551,-0.465 1.101,-0.922 2.2,-1.847 4.105,-3.45 0.067,-0.05 0.062,-0.055 0.375,-0.316 0.504,-0.422 1.008,-0.848 0.062,-0.051 0.063,-0.054 0.125,-0.106 0.254,-0.211 0.504,-0.422 1.003,-0.844 0.071,-0.058 0.066,-0.059 0.137,-0.113 0.273,-0.23 0.071,-0.059 0.066,-0.055 0.137,-0.117 0.066,-0.055 0.071,-0.058 0.136,-0.113 0.067,-0.059 0.07,-0.059 0.066,-0.054 0.071,-2.672 0.066,-0.055 0.07,-0.055 0.137,-0.105 0.067,-0.055 0.07,-0.054 0.137,-0.106 0.273,-0.215 0.133,-0.109 0.137,-0.109 0.82,-0.645 1.094,-0.863 0.125,-0.102 0.128,-0.098 0.254,-0.203 0.512,-0.402 1.02,-0.805 2.035,-1.609 4.422,-3.484 0.132,-0.11 0.137,-0.105 0.274,-0.215 0.539,-0.426 1.086,-0.859 0.066,-0.051 0.07,-0.055 0.133,-0.105 0.274,-0.215 0.543,-0.43 1.082,-0.855 0.066,-0.051 0.062,-0.047 0.126,-0.101 0.253,-0.2 0.125,-0.101 0.129,-0.098 0.25,-0.199 0.063,-0.051 0.066,-0.051 0.063,-0.05 0.062,-0.047 0.125,-0.102 0.067,3.274 0.125,-0.11 0.062,-0.058 0.125,-0.114 0.254,-0.222 0.063,-0.059 0.066,-0.055 0.125,-0.113 0.254,-0.226 0.504,-0.45 1.011,-0.902 0.071,-0.063 0.066,-0.062 0.137,-0.121 0.277,-0.242 0.547,-0.492 1.098,-0.977 2.191,-1.957 4.098,-3.652 4.437,-3.957 4.36,-3.883 4.062,-3.625 4.41,-3.93 4.114,-3.672 4.035,-3.594 4.375,-3.902 4.086,-3.644 4.426,-3.946 4.343,-3.875 4.055,-3.613 4.394,-3.918 0.067,-0.059 0.062,-0.058 0.129,-0.114 0.254,-0.23 0.516,-0.457 1.023,-0.914 0.067,-0.055 0.062,-0.058 0.129,-0.114 0.258,-0.23 0.512,-0.457 1.027,-0.914 0.062,-0.055 0.063,-0.058 0.125,-0.11 0.25,-0.226 0.504,-0.45 0.125,-0.109 0.125,-0.113 0.254,-0.223 0.5,-0.449 0.066,-0.055 0.063,-0.058 0.125,-0.114 0.125,-0.109 0.125,-0.113 0.062,-0.055 0.063,-0.059 0.062,-0.054 0.067,-0.055 0.062,3.695 0.063,-0.051 0.062,-0.046 0.125,-0.102 0.063,-0.047 0.125,-0.101 0.254,-0.2 0.5,-0.394 0.07,-0.055 0.066,-0.055 0.137,-0.105 0.273,-0.215 0.547,-0.433 1.09,-0.86 2.184,-1.722 4.07,-3.215 0.141,-0.11 0.136,-0.109 0.274,-0.215 0.554,-0.437 1.102,-0.871 0.141,-0.11 0.136,-0.109 0.278,-0.215 0.551,-0.438 1.101,-0.871 0.066,-0.05 0.063,-0.051 0.902,-0.711 0.067,-0.051 0.062,-0.051 0.903,-0.711 0.062,-0.05 0.066,-0.051 0.387,-0.305 0.063,-0.051 0.066,-0.05 0.129,-0.102 0.063,-0.051 0.066,-0.051 0.062,-0.05 0.067,-0.051 0.062,-0.051 0.067,-2.668 0.062,-0.055 0.067,-0.054 0.062,-0.051 0.067,-0.055 0.128,-0.109 0.063,-0.055 0.066,-0.054 0.129,-0.106 0.258,-0.219 0.063,-0.051 0.062,-0.054 0.125,-0.106 0.254,-0.211 0.504,-0.425 1.012,-0.848 2.019,-1.695 4.383,-3.684 0.066,-0.051 0.063,-0.054 0.129,-0.11 0.254,-0.215 0.511,-0.429 1.024,-0.856 0.066,-0.054 0.063,-0.055 0.129,-0.106 0.254,-0.214 1.535,-1.29 0.07,-0.058 0.066,-0.059 0.141,-0.117 0.277,-0.23 0.555,-0.465 0.066,-0.059 0.211,-0.176 0.274,-0.234 0.555,-0.465 0.07,-0.058 0.07,-0.055 0.137,-0.117 0.277,-0.235 0.141,-0.117 0.137,-0.113 0.277,-0.235 0.141,-0.117 0.066,-0.058 0.07,-0.055 0.141,-0.117 0.066,-0.059 0.071,48.153 0.07,-0.012 0.066,-0.012 0.141,-0.023 0.277,-0.047 0.067,-0.012 0.07,-0.012 0.137,-0.019 0.269,-0.047 0.543,-0.09 1.09,-0.183 2.176,-0.364 4.062,-0.676 0.067,-0.011 0.07,-0.012 0.137,-0.023 0.277,-0.043 0.547,-0.094 1.172,-0.195 0.066,-0.012 0.141,-0.024 0.273,-0.043 0.551,-0.093 1.102,-0.184 0.062,-0.012 0.067,-0.007 0.129,-0.024 0.253,-0.043 0.516,-0.086 0.063,-0.011 0.066,-0.008 0.129,-0.024 0.254,-0.043 0.515,-0.086 0.063,-0.007 0.066,-0.012 0.129,-0.024 0.258,-0.043 0.062,-0.007 0.063,-0.012 0.129,-0.024 0.258,-0.043 0.062,-0.007 0.067,-0.012 0.129,-0.02 0.062,-0.011 0.066,-0.012 0.129,-0.02 0.125,-0.023 0.067,-0.012 0.062,-0.007 0.067,-5.606 0.062,-0.016 0.067,-0.015 0.062,-0.016 0.063,-0.012 0.062,-0.015 0.129,-0.031 0.25,-0.059 0.504,-0.113 1.008,-0.235 2.015,-0.465 4.371,-1.015 4.079,-0.942 0.074,-0.019 0.211,-0.047 0.855,-0.199 1.137,-0.262 0.07,-0.016 0.074,-0.019 0.141,-0.031 0.856,-0.2 0.14,-0.031 0.145,-0.035 0.281,-0.062 0.074,-0.02 0.211,-0.047 0.07,-0.019 0.075,-0.016 0.14,-0.031"
         style="fill:none;stroke:#c56e1a;stroke-width:1.152;stroke-linecap:square;stroke-linejoin:miter;stroke-miterlimit:3.25;stroke-dasharray:none;stroke-opacity:1"
         id="path22" /><path
         d="m 215.973,80.039 h 2.566 l 0.051,0.004 0.058,0.004 0.063,0.012 0.07,0.015 0.078,0.024 0.086,0.031 0.09,0.047 0.106,0.054 0.109,0.071 0.121,0.086 0.133,0.105 0.144,0.121 0.157,0.145 0.168,0.164 0.179,0.191 0.196,0.211 0.211,0.242 0.226,0.27 0.242,0.297 0.258,0.332 0.274,0.363 0.293,0.395 0.308,0.433 0.328,0.469 0.348,0.504 0.359,0.527 0.371,0.559 0.387,0.578 0.395,0.598 0.406,0.613 0.41,0.629 0.422,0.64 0.422,0.645 0.426,0.648 0.425,0.653 0.43,0.644 0.426,0.645 0.426,0.633 0.418,0.621 0.414,0.609 0.41,0.59 0.398,0.566 0.387,0.543 0.375,0.516 0.363,0.484 0.352,0.453 0.332,0.415 0.32,0.382 0.301,0.344 0.293,0.316 0.277,0.282 0.266,0.254 0.254,0.226 0.242,0.203 0.238,0.176 0.223,0.156 0.219,0.133 0.215,0.113 0.203,0.094 0.199,0.078 0.195,0.063 0.192,0.051 0.191,0.039 0.184,0.027 0.187,0.02 0.184,0.015 0.375,0.008 h 3.582"
         style="fill:none;stroke:#ffffff;stroke-width:2.88;stroke-linecap:butt;stroke-linejoin:round;stroke-miterlimit:3.25;stroke-dasharray:none;stroke-opacity:0.666667"
         id="path24" /><path
         d="m 215.973,80.039 h 2.566 l 0.051,0.004 0.058,0.004 0.063,0.012 0.07,0.015 0.078,0.024 0.086,0.031 0.09,0.047 0.106,0.054 0.109,0.071 0.121,0.086 0.133,0.105 0.144,0.121 0.157,0.145 0.168,0.164 0.179,0.191 0.196,0.211 0.211,0.242 0.226,0.27 0.242,0.297 0.258,0.332 0.274,0.363 0.293,0.395 0.308,0.433 0.328,0.469 0.348,0.504 0.359,0.527 0.371,0.559 0.387,0.578 0.395,0.598 0.406,0.613 0.41,0.629 0.422,0.64 0.422,0.645 0.426,0.648 0.425,0.653 0.43,0.644 0.426,0.645 0.426,0.633 0.418,0.621 0.414,0.609 0.41,0.59 0.398,0.566 0.387,0.543 0.375,0.516 0.363,0.484 0.352,0.453 0.332,0.415 0.32,0.382 0.301,0.344 0.293,0.316 0.277,0.282 0.266,0.254 0.254,0.226 0.242,0.203 0.238,0.176 0.223,0.156 0.219,0.133 0.215,0.113 0.203,0.094 0.199,0.078 0.195,0.063 0.192,0.051 0.191,0.039 0.184,0.027 0.187,0.02 0.184,0.015 0.375,0.008 h 3.582"
         style="fill:none;stroke:#aaaaaa;stroke-width:0.9;stroke-linecap:square;stroke-linejoin:miter;stroke-miterlimit:3.25;stroke-dasharray:none;stroke-opacity:1"
         id="path26" /><path
         d="m 239.93,95.738 h 7.922 v 9.359 h -7.922 z"
         style="fill:#ffffff;fill-opacity:0.666667;fill-rule:nonzero;stroke:none"
         id="path28" /><path
         d="m 239.93,95.738 h 7.922 v 9.359 h -7.922 z"
         style="fill:none;stroke:#ffffff;stroke-width:0.9;stroke-linecap:square;stroke-linejoin:miter;stroke-miterlimit:3.25;stroke-dasharray:none;stroke-opacity:0.666667"
         id="path30" /><text
         transform="translate(242.0881,102.66605)"
         style="font-variant:normal;font-weight:normal;font-size:6.48px;font-family:Arial;-inkscape-font-specification:ArialMT;writing-mode:lr-tb;fill:#000000;fill-opacity:1;fill-rule:nonzero;stroke:none"
         id="text34"><tspan
           x="0"
           y="0"
           id="tspan32">1</tspan></text><path
         d="m 215.973,79.238 h 2.519 l 0.059,0.004 h 0.07 l 0.078,0.004 0.09,0.012 0.098,0.015 0.113,0.024 0.129,0.031 0.141,0.043 0.156,0.055 0.179,0.07 0.196,0.086 0.215,0.102 0.238,0.117 0.258,0.14 0.285,0.164 0.312,0.184 0.336,0.207 0.364,0.238 0.394,0.262 0.426,0.289 0.449,0.313 0.469,0.336 0.492,0.351 0.504,0.363 0.523,0.379 0.528,0.387 0.539,0.391 1.086,0.789 0.543,0.386 0.539,0.383 0.527,0.375 0.52,0.36 0.507,0.34 0.489,0.324 0.468,0.304 0.446,0.274 0.418,0.25 0.398,0.222 0.375,0.196 0.352,0.172 0.336,0.152 0.316,0.129 0.301,0.113 0.289,0.09 0.273,0.078 0.266,0.063 0.254,0.05 0.246,0.036 0.242,0.027 0.238,0.02 0.239,0.011 0.234,0.008 0.235,0.004 h 3.66"
         style="fill:none;stroke:#ffffff;stroke-width:2.88;stroke-linecap:butt;stroke-linejoin:round;stroke-miterlimit:3.25;stroke-dasharray:none;stroke-opacity:0.666667"
         id="path36" /><path
         d="m 215.973,79.238 h 2.519 l 0.059,0.004 h 0.07 l 0.078,0.004 0.09,0.012 0.098,0.015 0.113,0.024 0.129,0.031 0.141,0.043 0.156,0.055 0.179,0.07 0.196,0.086 0.215,0.102 0.238,0.117 0.258,0.14 0.285,0.164 0.312,0.184 0.336,0.207 0.364,0.238 0.394,0.262 0.426,0.289 0.449,0.313 0.469,0.336 0.492,0.351 0.504,0.363 0.523,0.379 0.528,0.387 0.539,0.391 1.086,0.789 0.543,0.386 0.539,0.383 0.527,0.375 0.52,0.36 0.507,0.34 0.489,0.324 0.468,0.304 0.446,0.274 0.418,0.25 0.398,0.222 0.375,0.196 0.352,0.172 0.336,0.152 0.316,0.129 0.301,0.113 0.289,0.09 0.273,0.078 0.266,0.063 0.254,0.05 0.246,0.036 0.242,0.027 0.238,0.02 0.239,0.011 0.234,0.008 0.235,0.004 h 3.66"
         style="fill:none;stroke:#aaaaaa;stroke-width:0.9;stroke-linecap:square;stroke-linejoin:miter;stroke-miterlimit:3.25;stroke-dasharray:none;stroke-opacity:1"
         id="path38" /><path
         d="m 239.93,84.281 h 7.922 v 9.359 h -7.922 z"
         style="fill:#ffffff;fill-opacity:0.666667;fill-rule:nonzero;stroke:none"
         id="path40" /><path
         d="m 239.93,84.281 h 7.922 v 9.359 h -7.922 z"
         style="fill:none;stroke:#ffffff;stroke-width:0.9;stroke-linecap:square;stroke-linejoin:miter;stroke-miterlimit:3.25;stroke-dasharray:none;stroke-opacity:0.666667"
         id="path42" /><text
         transform="translate(242.0881,91.207958)"
         style="font-variant:normal;font-weight:normal;font-size:6.48px;font-family:Arial;-inkscape-font-specification:ArialMT;writing-mode:lr-tb;fill:#000000;fill-opacity:1;fill-rule:nonzero;stroke:none"
         id="text46"><tspan
           x="0"
           y="0"
           id="tspan44">2</tspan></text><path
         d="m 215.973,76.84 h 2.785 l 0.105,0.004 h 0.121 l 0.137,0.004 h 0.156 l 0.176,0.007 0.199,0.004 0.223,0.008 0.246,0.008 0.274,0.008 0.3,0.012 0.332,0.015 0.368,0.016 0.398,0.015 0.434,0.02 0.464,0.023 0.5,0.024 0.524,0.023 0.547,0.028 0.566,0.027 0.578,0.031 0.59,0.028 0.594,0.031 0.598,0.027 0.597,0.031 0.59,0.028 0.578,0.027 0.567,0.027 0.55,0.024 0.524,0.023 0.504,0.024 0.468,0.019 0.442,0.016 0.414,0.016 0.39,0.011 0.368,0.012 0.343,0.012 0.329,0.007 0.308,0.004 0.297,0.008 0.285,0.004 h 0.274 l 0.265,0.004 h 0.262 l 0.262,0.004 h 4.125"
         style="fill:none;stroke:#ffffff;stroke-width:2.88;stroke-linecap:butt;stroke-linejoin:round;stroke-miterlimit:3.25;stroke-dasharray:none;stroke-opacity:0.666667"
         id="path48" /><path
         d="m 215.973,76.84 h 2.785 l 0.105,0.004 h 0.121 l 0.137,0.004 h 0.156 l 0.176,0.007 0.199,0.004 0.223,0.008 0.246,0.008 0.274,0.008 0.3,0.012 0.332,0.015 0.368,0.016 0.398,0.015 0.434,0.02 0.464,0.023 0.5,0.024 0.524,0.023 0.547,0.028 0.566,0.027 0.578,0.031 0.59,0.028 0.594,0.031 0.598,0.027 0.597,0.031 0.59,0.028 0.578,0.027 0.567,0.027 0.55,0.024 0.524,0.023 0.504,0.024 0.468,0.019 0.442,0.016 0.414,0.016 0.39,0.011 0.368,0.012 0.343,0.012 0.329,0.007 0.308,0.004 0.297,0.008 0.285,0.004 h 0.274 l 0.265,0.004 h 0.262 l 0.262,0.004 h 4.125"
         style="fill:none;stroke:#aaaaaa;stroke-width:0.9;stroke-linecap:square;stroke-linejoin:miter;stroke-miterlimit:3.25;stroke-dasharray:none;stroke-opacity:1"
         id="path50" /><path
         d="m 239.93,72.824 h 7.922 v 9.359 h -7.922 z"
         style="fill:#ffffff;fill-opacity:0.666667;fill-rule:nonzero;stroke:none"
         id="path52" /><path
         d="m 239.93,72.824 h 7.922 v 9.359 h -7.922 z"
         style="fill:none;stroke:#ffffff;stroke-width:0.9;stroke-linecap:square;stroke-linejoin:miter;stroke-miterlimit:3.25;stroke-dasharray:none;stroke-opacity:0.666667"
         id="path54" /><text
         transform="translate(242.0881,79.749867)"
         style="font-variant:normal;font-weight:normal;font-size:6.48px;font-family:Arial;-inkscape-font-specification:ArialMT;writing-mode:lr-tb;fill:#000000;fill-opacity:1;fill-rule:nonzero;stroke:none"
         id="text58"><tspan
           x="0"
           y="0"
           id="tspan56">5</tspan></text><path
         d="m 215.973,72.84 h 2.648 l 0.078,-0.004 0.09,-0.008 0.098,-0.008 0.113,-0.019 0.129,-0.02 0.141,-0.031 0.156,-0.039 0.179,-0.051 0.196,-0.058 0.215,-0.071 0.238,-0.082 0.258,-0.097 0.285,-0.114 0.312,-0.129 0.336,-0.148 0.364,-0.164 0.394,-0.184 0.426,-0.203 0.449,-0.219 0.469,-0.23 0.492,-0.246 0.504,-0.258 0.523,-0.266 0.528,-0.269 0.539,-0.274 0.543,-0.273 0.543,-0.277 0.543,-0.27 0.539,-0.269 0.527,-0.258 0.52,-0.254 0.507,-0.238 0.489,-0.227 0.468,-0.211 0.446,-0.191 0.418,-0.176 0.398,-0.156 0.375,-0.137 0.352,-0.121 0.336,-0.106 0.316,-0.089 0.301,-0.079 0.289,-0.062 0.273,-0.055 0.266,-0.043 0.254,-0.035 0.246,-0.027 0.242,-0.02 0.238,-0.012 0.239,-0.007 0.234,-0.008 h 3.895"
         style="fill:none;stroke:#ffffff;stroke-width:2.88;stroke-linecap:butt;stroke-linejoin:round;stroke-miterlimit:3.25;stroke-dasharray:none;stroke-opacity:0.666667"
         id="path60" /><path
         d="m 215.973,72.84 h 2.648 l 0.078,-0.004 0.09,-0.008 0.098,-0.008 0.113,-0.019 0.129,-0.02 0.141,-0.031 0.156,-0.039 0.179,-0.051 0.196,-0.058 0.215,-0.071 0.238,-0.082 0.258,-0.097 0.285,-0.114 0.312,-0.129 0.336,-0.148 0.364,-0.164 0.394,-0.184 0.426,-0.203 0.449,-0.219 0.469,-0.23 0.492,-0.246 0.504,-0.258 0.523,-0.266 0.528,-0.269 0.539,-0.274 0.543,-0.273 0.543,-0.277 0.543,-0.27 0.539,-0.269 0.527,-0.258 0.52,-0.254 0.507,-0.238 0.489,-0.227 0.468,-0.211 0.446,-0.191 0.418,-0.176 0.398,-0.156 0.375,-0.137 0.352,-0.121 0.336,-0.106 0.316,-0.089 0.301,-0.079 0.289,-0.062 0.273,-0.055 0.266,-0.043 0.254,-0.035 0.246,-0.027 0.242,-0.02 0.238,-0.012 0.239,-0.007 0.234,-0.008 h 3.895"
         style="fill:none;stroke:#aaaaaa;stroke-width:0.9;stroke-linecap:square;stroke-linejoin:miter;stroke-miterlimit:3.25;stroke-dasharray:none;stroke-opacity:1"
         id="path62" /><path
         d="m 239.93,61.367 h 12.242 v 9.359 H 239.93 Z"
         style="fill:#ffffff;fill-opacity:0.666667;fill-rule:nonzero;stroke:none"
         id="path64" /><path
         d="m 239.93,61.367 h 12.242 v 9.359 H 239.93 Z"
         style="fill:none;stroke:#ffffff;stroke-width:0.9;stroke-linecap:square;stroke-linejoin:miter;stroke-miterlimit:3.25;stroke-dasharray:none;stroke-opacity:0.666667"
         id="path66" /><text
         transform="translate(242.44617,68.291777)"
         style="font-variant:normal;font-weight:normal;font-size:6.48px;font-family:Arial;-inkscape-font-specification:ArialMT;writing-mode:lr-tb;fill:#000000;fill-opacity:1;fill-rule:nonzero;stroke:none"
         id="text70"><tspan
           x="0 3.60288"
           y="0"
           sodipodi:role="line"
           id="tspan68">10</tspan></text><path
         d="m 215.973,64.844 h 2.519 l 0.059,-0.004 h 0.07 l 0.078,-0.004 0.09,-0.012 0.098,-0.015 0.113,-0.024 0.129,-0.035 0.141,-0.047 0.156,-0.058 0.179,-0.075 0.196,-0.086 0.215,-0.109 0.238,-0.125 0.258,-0.148 0.285,-0.172 0.312,-0.196 0.336,-0.218 0.364,-0.246 0.394,-0.278 0.426,-0.308 0.449,-0.329 0.469,-0.351 0.492,-0.371 0.504,-0.387 0.523,-0.398 0.528,-0.41 0.539,-0.411 0.543,-0.418 0.543,-0.414 0.543,-0.41 0.539,-0.402 0.527,-0.395 0.52,-0.379 0.507,-0.363 0.489,-0.34 0.468,-0.316 0.446,-0.293 0.418,-0.262 0.398,-0.234 0.375,-0.207 0.352,-0.184 0.336,-0.16 0.316,-0.137 0.301,-0.117 0.289,-0.098 0.273,-0.078 0.266,-0.066 0.254,-0.055 0.246,-0.039 0.242,-0.027 0.238,-0.02 0.239,-0.015 0.234,-0.008 h 0.235 l 0.238,-0.004 h 3.422"
         style="fill:none;stroke:#ffffff;stroke-width:2.88;stroke-linecap:butt;stroke-linejoin:round;stroke-miterlimit:3.25;stroke-dasharray:none;stroke-opacity:0.666667"
         id="path72" /><path
         d="m 215.973,64.844 h 2.519 l 0.059,-0.004 h 0.07 l 0.078,-0.004 0.09,-0.012 0.098,-0.015 0.113,-0.024 0.129,-0.035 0.141,-0.047 0.156,-0.058 0.179,-0.075 0.196,-0.086 0.215,-0.109 0.238,-0.125 0.258,-0.148 0.285,-0.172 0.312,-0.196 0.336,-0.218 0.364,-0.246 0.394,-0.278 0.426,-0.308 0.449,-0.329 0.469,-0.351 0.492,-0.371 0.504,-0.387 0.523,-0.398 0.528,-0.41 0.539,-0.411 0.543,-0.418 0.543,-0.414 0.543,-0.41 0.539,-0.402 0.527,-0.395 0.52,-0.379 0.507,-0.363 0.489,-0.34 0.468,-0.316 0.446,-0.293 0.418,-0.262 0.398,-0.234 0.375,-0.207 0.352,-0.184 0.336,-0.16 0.316,-0.137 0.301,-0.117 0.289,-0.098 0.273,-0.078 0.266,-0.066 0.254,-0.055 0.246,-0.039 0.242,-0.027 0.238,-0.02 0.239,-0.015 0.234,-0.008 h 0.235 l 0.238,-0.004 h 3.422"
         style="fill:none;stroke:#aaaaaa;stroke-width:0.9;stroke-linecap:square;stroke-linejoin:miter;stroke-miterlimit:3.25;stroke-dasharray:none;stroke-opacity:1"
         id="path74" /><path
         d="m 239.93,49.906 h 12.242 v 9.359 H 239.93 Z"
         style="fill:#ffffff;fill-opacity:0.666667;fill-rule:nonzero;stroke:none"
         id="path76" /><path
         d="m 239.93,49.906 h 12.242 v 9.359 H 239.93 Z"
         style="fill:none;stroke:#ffffff;stroke-width:0.9;stroke-linecap:square;stroke-linejoin:miter;stroke-miterlimit:3.25;stroke-dasharray:none;stroke-opacity:0.666667"
         id="path78" /><text
         transform="translate(242.44617,56.833687)"
         style="font-variant:normal;font-weight:normal;font-size:6.48px;font-family:Arial;-inkscape-font-specification:ArialMT;writing-mode:lr-tb;fill:#000000;fill-opacity:1;fill-rule:nonzero;stroke:none"
         id="text82"><tspan
           x="0 3.60288"
           y="0"
           sodipodi:role="line"
           id="tspan80">20</tspan></text><path
         d="m 215.973,56.844 h 2.554 l 0.063,-0.004 0.066,-0.004 0.074,-0.008 0.086,-0.012 0.094,-0.023 0.106,-0.031 0.117,-0.043 0.129,-0.059 0.144,-0.07 0.156,-0.086 0.176,-0.106 0.192,-0.121 0.211,-0.144 0.226,-0.168 0.25,-0.195 0.266,-0.219 0.293,-0.246 0.312,-0.274 0.336,-0.308 0.364,-0.34 0.386,-0.371 0.406,-0.403 0.43,-0.425 0.442,-0.446 0.46,-0.468 0.473,-0.481 0.481,-0.496 0.488,-0.5 0.496,-0.508 0.496,-0.512 0.5,-0.507 0.5,-0.504 0.492,-0.496 0.489,-0.485 0.476,-0.469 0.469,-0.453 0.453,-0.429 0.441,-0.403 0.422,-0.379 0.399,-0.343 0.383,-0.313 0.359,-0.281 0.34,-0.254 0.324,-0.223 0.309,-0.195 0.293,-0.172 0.281,-0.148 0.265,-0.129 0.258,-0.106 0.246,-0.089 0.239,-0.075 0.23,-0.058 0.227,-0.043 0.218,-0.035 0.219,-0.024 0.219,-0.015 0.43,-0.016 h 3.703"
         style="fill:none;stroke:#ffffff;stroke-width:2.88;stroke-linecap:butt;stroke-linejoin:round;stroke-miterlimit:3.25;stroke-dasharray:none;stroke-opacity:0.666667"
         id="path84" /><path
         d="m 215.973,56.844 h 2.554 l 0.063,-0.004 0.066,-0.004 0.074,-0.008 0.086,-0.012 0.094,-0.023 0.106,-0.031 0.117,-0.043 0.129,-0.059 0.144,-0.07 0.156,-0.086 0.176,-0.106 0.192,-0.121 0.211,-0.144 0.226,-0.168 0.25,-0.195 0.266,-0.219 0.293,-0.246 0.312,-0.274 0.336,-0.308 0.364,-0.34 0.386,-0.371 0.406,-0.403 0.43,-0.425 0.442,-0.446 0.46,-0.468 0.473,-0.481 0.481,-0.496 0.488,-0.5 0.496,-0.508 0.496,-0.512 0.5,-0.507 0.5,-0.504 0.492,-0.496 0.489,-0.485 0.476,-0.469 0.469,-0.453 0.453,-0.429 0.441,-0.403 0.422,-0.379 0.399,-0.343 0.383,-0.313 0.359,-0.281 0.34,-0.254 0.324,-0.223 0.309,-0.195 0.293,-0.172 0.281,-0.148 0.265,-0.129 0.258,-0.106 0.246,-0.089 0.239,-0.075 0.23,-0.058 0.227,-0.043 0.218,-0.035 0.219,-0.024 0.219,-0.015 0.43,-0.016 h 3.703"
         style="fill:none;stroke:#aaaaaa;stroke-width:0.9;stroke-linecap:square;stroke-linejoin:miter;stroke-miterlimit:3.25;stroke-dasharray:none;stroke-opacity:1"
         id="path86" /><path
         d="m 239.93,38.449 h 12.242 v 9.359 H 239.93 Z"
         style="fill:#ffffff;fill-opacity:0.666667;fill-rule:nonzero;stroke:none"
         id="path88" /><path
         d="m 239.93,38.449 h 12.242 v 9.359 H 239.93 Z"
         style="fill:none;stroke:#ffffff;stroke-width:0.9;stroke-linecap:square;stroke-linejoin:miter;stroke-miterlimit:3.25;stroke-dasharray:none;stroke-opacity:0.666667"
         id="path90" /><text
         transform="translate(242.44617,45.375597)"
         style="font-variant:normal;font-weight:normal;font-size:6.48px;font-family:Arial;-inkscape-font-specification:ArialMT;writing-mode:lr-tb;fill:#000000;fill-opacity:1;fill-rule:nonzero;stroke:none"
         id="text94"><tspan
           x="0 3.60288"
           y="0"
           sodipodi:role="line"
           id="tspan92">30</tspan></text><path
         d="M 4.5,79.574 V 78.039"
         style="fill:none;stroke:#000000;stroke-width:0.36;stroke-linecap:butt;stroke-linejoin:miter;stroke-miterlimit:3.25;stroke-dasharray:none;stroke-opacity:1"
         id="path96" /><path
         d="M 13.137,79.574 V 78.039"
         style="fill:none;stroke:#000000;stroke-width:0.36;stroke-linecap:butt;stroke-linejoin:miter;stroke-miterlimit:3.25;stroke-dasharray:none;stroke-opacity:1"
         id="path98" /><path
         d="M 21.777,79.574 V 77.016"
         style="fill:none;stroke:#000000;stroke-width:0.36;stroke-linecap:butt;stroke-linejoin:miter;stroke-miterlimit:3.25;stroke-dasharray:none;stroke-opacity:1"
         id="path100" /><text
         transform="translate(15.380248,87.598893)"
         style="font-variant:normal;font-weight:normal;font-size:6.48px;font-family:MathematicaSans;-inkscape-font-specification:MathematicaSans;writing-mode:lr-tb;fill:#000000;fill-opacity:1;fill-rule:nonzero;stroke:none"
         id="text104"><tspan
           x="0"
           y="0"
           id="tspan102">-</tspan></text><text
         transform="translate(19.158088,87.598893)"
         style="font-variant:normal;font-weight:normal;font-size:6.48px;font-family:Arial;-inkscape-font-specification:ArialMT;writing-mode:lr-tb;fill:#000000;fill-opacity:1;fill-rule:nonzero;stroke:none"
         id="text108"><tspan
           x="0 3.60288 5.39784"
           y="0"
           sodipodi:role="line"
           id="tspan106">1.0</tspan></text><path
         d="M 30.414,79.574 V 78.039"
         style="fill:none;stroke:#000000;stroke-width:0.36;stroke-linecap:butt;stroke-linejoin:miter;stroke-miterlimit:3.25;stroke-dasharray:none;stroke-opacity:1"
         id="path110" /><path
         d="M 39.055,79.574 V 78.039"
         style="fill:none;stroke:#000000;stroke-width:0.36;stroke-linecap:butt;stroke-linejoin:miter;stroke-miterlimit:3.25;stroke-dasharray:none;stroke-opacity:1"
         id="path112" /><path
         d="M 47.691,79.574 V 78.039"
         style="fill:none;stroke:#000000;stroke-width:0.36;stroke-linecap:butt;stroke-linejoin:miter;stroke-miterlimit:3.25;stroke-dasharray:none;stroke-opacity:1"
         id="path114" /><path
         d="M 56.332,79.574 V 78.039"
         style="fill:none;stroke:#000000;stroke-width:0.36;stroke-linecap:butt;stroke-linejoin:miter;stroke-miterlimit:3.25;stroke-dasharray:none;stroke-opacity:1"
         id="path116" /><path
         d="M 64.969,79.574 V 77.016"
         style="fill:none;stroke:#000000;stroke-width:0.36;stroke-linecap:butt;stroke-linejoin:miter;stroke-miterlimit:3.25;stroke-dasharray:none;stroke-opacity:1"
         id="path118" /><text
         transform="translate(58.573048,87.598893)"
         style="font-variant:normal;font-weight:normal;font-size:6.48px;font-family:MathematicaSans;-inkscape-font-specification:MathematicaSans;writing-mode:lr-tb;fill:#000000;fill-opacity:1;fill-rule:nonzero;stroke:none"
         id="text122"><tspan
           x="0"
           y="0"
           id="tspan120">-</tspan></text><text
         transform="translate(62.350888,87.598893)"
         style="font-variant:normal;font-weight:normal;font-size:6.48px;font-family:Arial;-inkscape-font-specification:ArialMT;writing-mode:lr-tb;fill:#000000;fill-opacity:1;fill-rule:nonzero;stroke:none"
         id="text126"><tspan
           x="0 3.60288 5.39784"
           y="0"
           sodipodi:role="line"
           id="tspan124">0.5</tspan></text><path
         d="M 73.609,79.574 V 78.039"
         style="fill:none;stroke:#000000;stroke-width:0.36;stroke-linecap:butt;stroke-linejoin:miter;stroke-miterlimit:3.25;stroke-dasharray:none;stroke-opacity:1"
         id="path128" /><path
         d="M 82.246,79.574 V 78.039"
         style="fill:none;stroke:#000000;stroke-width:0.36;stroke-linecap:butt;stroke-linejoin:miter;stroke-miterlimit:3.25;stroke-dasharray:none;stroke-opacity:1"
         id="path130" /><path
         d="M 90.887,79.574 V 78.039"
         style="fill:none;stroke:#000000;stroke-width:0.36;stroke-linecap:butt;stroke-linejoin:miter;stroke-miterlimit:3.25;stroke-dasharray:none;stroke-opacity:1"
         id="path132" /><path
         d="M 99.523,79.574 V 78.039"
         style="fill:none;stroke:#000000;stroke-width:0.36;stroke-linecap:butt;stroke-linejoin:miter;stroke-miterlimit:3.25;stroke-dasharray:none;stroke-opacity:1"
         id="path134" /><path
         d="M 108.16,79.574 V 77.016"
         style="fill:none;stroke:#000000;stroke-width:0.36;stroke-linecap:butt;stroke-linejoin:miter;stroke-miterlimit:3.25;stroke-dasharray:none;stroke-opacity:1"
         id="path136" /><path
         d="M 116.801,79.574 V 78.039"
         style="fill:none;stroke:#000000;stroke-width:0.36;stroke-linecap:butt;stroke-linejoin:miter;stroke-miterlimit:3.25;stroke-dasharray:none;stroke-opacity:1"
         id="path138" /><path
         d="M 125.438,79.574 V 78.039"
         style="fill:none;stroke:#000000;stroke-width:0.36;stroke-linecap:butt;stroke-linejoin:miter;stroke-miterlimit:3.25;stroke-dasharray:none;stroke-opacity:1"
         id="path140" /><path
         d="M 134.078,79.574 V 78.039"
         style="fill:none;stroke:#000000;stroke-width:0.36;stroke-linecap:butt;stroke-linejoin:miter;stroke-miterlimit:3.25;stroke-dasharray:none;stroke-opacity:1"
         id="path142" /><path
         d="M 142.715,79.574 V 78.039"
         style="fill:none;stroke:#000000;stroke-width:0.36;stroke-linecap:butt;stroke-linejoin:miter;stroke-miterlimit:3.25;stroke-dasharray:none;stroke-opacity:1"
         id="path144" /><path
         d="M 151.355,79.574 V 77.016"
         style="fill:none;stroke:#000000;stroke-width:0.36;stroke-linecap:butt;stroke-linejoin:miter;stroke-miterlimit:3.25;stroke-dasharray:none;stroke-opacity:1"
         id="path146" /><text
         transform="translate(146.85076,87.598893)"
         style="font-variant:normal;font-weight:normal;font-size:6.48px;font-family:Arial;-inkscape-font-specification:ArialMT;writing-mode:lr-tb;fill:#000000;fill-opacity:1;fill-rule:nonzero;stroke:none"
         id="text150"><tspan
           x="0 3.60288 5.39784"
           y="0"
           sodipodi:role="line"
           id="tspan148">0.5</tspan></text><path
         d="M 159.992,79.574 V 78.039"
         style="fill:none;stroke:#000000;stroke-width:0.36;stroke-linecap:butt;stroke-linejoin:miter;stroke-miterlimit:3.25;stroke-dasharray:none;stroke-opacity:1"
         id="path152" /><path
         d="M 168.633,79.574 V 78.039"
         style="fill:none;stroke:#000000;stroke-width:0.36;stroke-linecap:butt;stroke-linejoin:miter;stroke-miterlimit:3.25;stroke-dasharray:none;stroke-opacity:1"
         id="path154" /><path
         d="M 177.27,79.574 V 78.039"
         style="fill:none;stroke:#000000;stroke-width:0.36;stroke-linecap:butt;stroke-linejoin:miter;stroke-miterlimit:3.25;stroke-dasharray:none;stroke-opacity:1"
         id="path156" /><path
         d="M 185.91,79.574 V 78.039"
         style="fill:none;stroke:#000000;stroke-width:0.36;stroke-linecap:butt;stroke-linejoin:miter;stroke-miterlimit:3.25;stroke-dasharray:none;stroke-opacity:1"
         id="path158" /><path
         d="M 194.547,79.574 V 77.016"
         style="fill:none;stroke:#000000;stroke-width:0.36;stroke-linecap:butt;stroke-linejoin:miter;stroke-miterlimit:3.25;stroke-dasharray:none;stroke-opacity:1"
         id="path160" /><text
         transform="translate(190.04356,87.598893)"
         style="font-variant:normal;font-weight:normal;font-size:6.48px;font-family:Arial;-inkscape-font-specification:ArialMT;writing-mode:lr-tb;fill:#000000;fill-opacity:1;fill-rule:nonzero;stroke:none"
         id="text164"><tspan
           x="0 3.60288 5.39784"
           y="0"
           sodipodi:role="line"
           id="tspan162">1.0</tspan></text><path
         d="M 203.188,79.574 V 78.039"
         style="fill:none;stroke:#000000;stroke-width:0.36;stroke-linecap:butt;stroke-linejoin:miter;stroke-miterlimit:3.25;stroke-dasharray:none;stroke-opacity:1"
         id="path166" /><path
         d="M 211.824,79.574 V 78.039"
         style="fill:none;stroke:#000000;stroke-width:0.36;stroke-linecap:butt;stroke-linejoin:miter;stroke-miterlimit:3.25;stroke-dasharray:none;stroke-opacity:1"
         id="path168" /><path
         d="M 0.18,79.574 H 216.145"
         style="fill:none;stroke:#000000;stroke-width:0.36;stroke-linecap:butt;stroke-linejoin:miter;stroke-miterlimit:3.25;stroke-dasharray:none;stroke-opacity:1"
         id="path170" /><path
         d="m 108.16,141.094 h 1.535"
         style="fill:none;stroke:#000000;stroke-width:0.36;stroke-linecap:butt;stroke-linejoin:miter;stroke-miterlimit:3.25;stroke-dasharray:none;stroke-opacity:1"
         id="path172" /><path
         d="m 108.16,136.699 h 1.535"
         style="fill:none;stroke:#000000;stroke-width:0.36;stroke-linecap:butt;stroke-linejoin:miter;stroke-miterlimit:3.25;stroke-dasharray:none;stroke-opacity:1"
         id="path174" /><path
         d="m 108.16,132.305 h 1.535"
         style="fill:none;stroke:#000000;stroke-width:0.36;stroke-linecap:butt;stroke-linejoin:miter;stroke-miterlimit:3.25;stroke-dasharray:none;stroke-opacity:1"
         id="path176" /><path
         d="m 108.16,127.91 h 1.535"
         style="fill:none;stroke:#000000;stroke-width:0.36;stroke-linecap:butt;stroke-linejoin:miter;stroke-miterlimit:3.25;stroke-dasharray:none;stroke-opacity:1"
         id="path178" /><path
         d="m 108.16,123.516 h 2.559"
         style="fill:none;stroke:#000000;stroke-width:0.36;stroke-linecap:butt;stroke-linejoin:miter;stroke-miterlimit:3.25;stroke-dasharray:none;stroke-opacity:1"
         id="path180" /><text
         transform="translate(91.40618,125.76162)"
         style="font-variant:normal;font-weight:normal;font-size:6.48px;font-family:MathematicaSans;-inkscape-font-specification:MathematicaSans;writing-mode:lr-tb;fill:#000000;fill-opacity:1;fill-rule:nonzero;stroke:none"
         id="text184"><tspan
           x="0"
           y="0"
           id="tspan182">-</tspan></text><text
         transform="translate(95.18402,125.76162)"
         style="font-variant:normal;font-weight:normal;font-size:6.48px;font-family:Arial;-inkscape-font-specification:ArialMT;writing-mode:lr-tb;fill:#000000;fill-opacity:1;fill-rule:nonzero;stroke:none"
         id="text188"><tspan
           x="0 3.60288 7.20576"
           y="0"
           sodipodi:role="line"
           id="tspan186">200</tspan></text><path
         d="m 108.16,119.121 h 1.535"
         style="fill:none;stroke:#000000;stroke-width:0.36;stroke-linecap:butt;stroke-linejoin:miter;stroke-miterlimit:3.25;stroke-dasharray:none;stroke-opacity:1"
         id="path190" /><path
         d="m 108.16,114.727 h 1.535"
         style="fill:none;stroke:#000000;stroke-width:0.36;stroke-linecap:butt;stroke-linejoin:miter;stroke-miterlimit:3.25;stroke-dasharray:none;stroke-opacity:1"
         id="path192" /><path
         d="m 108.16,110.332 h 1.535"
         style="fill:none;stroke:#000000;stroke-width:0.36;stroke-linecap:butt;stroke-linejoin:miter;stroke-miterlimit:3.25;stroke-dasharray:none;stroke-opacity:1"
         id="path194" /><path
         d="m 108.16,105.938 h 1.535"
         style="fill:none;stroke:#000000;stroke-width:0.36;stroke-linecap:butt;stroke-linejoin:miter;stroke-miterlimit:3.25;stroke-dasharray:none;stroke-opacity:1"
         id="path196" /><path
         d="m 108.16,101.543 h 2.559"
         style="fill:none;stroke:#000000;stroke-width:0.36;stroke-linecap:butt;stroke-linejoin:miter;stroke-miterlimit:3.25;stroke-dasharray:none;stroke-opacity:1"
         id="path198" /><text
         transform="translate(91.40618,103.79041)"
         style="font-variant:normal;font-weight:normal;font-size:6.48px;font-family:MathematicaSans;-inkscape-font-specification:MathematicaSans;writing-mode:lr-tb;fill:#000000;fill-opacity:1;fill-rule:nonzero;stroke:none"
         id="text202"><tspan
           x="0"
           y="0"
           id="tspan200">-</tspan></text><text
         transform="translate(95.18402,103.79041)"
         style="font-variant:normal;font-weight:normal;font-size:6.48px;font-family:Arial;-inkscape-font-specification:ArialMT;writing-mode:lr-tb;fill:#000000;fill-opacity:1;fill-rule:nonzero;stroke:none"
         id="text206"><tspan
           x="0 3.60288 7.20576"
           y="0"
           sodipodi:role="line"
           id="tspan204">100</tspan></text><path
         d="m 108.16,97.148 h 1.535"
         style="fill:none;stroke:#000000;stroke-width:0.36;stroke-linecap:butt;stroke-linejoin:miter;stroke-miterlimit:3.25;stroke-dasharray:none;stroke-opacity:1"
         id="path208" /><path
         d="m 108.16,92.754 h 1.535"
         style="fill:none;stroke:#000000;stroke-width:0.36;stroke-linecap:butt;stroke-linejoin:miter;stroke-miterlimit:3.25;stroke-dasharray:none;stroke-opacity:1"
         id="path210" /><path
         d="m 108.16,88.359 h 1.535"
         style="fill:none;stroke:#000000;stroke-width:0.36;stroke-linecap:butt;stroke-linejoin:miter;stroke-miterlimit:3.25;stroke-dasharray:none;stroke-opacity:1"
         id="path212" /><path
         d="m 108.16,83.969 h 1.535"
         style="fill:none;stroke:#000000;stroke-width:0.36;stroke-linecap:butt;stroke-linejoin:miter;stroke-miterlimit:3.25;stroke-dasharray:none;stroke-opacity:1"
         id="path214" /><path
         d="m 108.16,79.574 h 2.559"
         style="fill:none;stroke:#000000;stroke-width:0.36;stroke-linecap:butt;stroke-linejoin:miter;stroke-miterlimit:3.25;stroke-dasharray:none;stroke-opacity:1"
         id="path216" /><path
         d="m 108.16,75.18 h 1.535"
         style="fill:none;stroke:#000000;stroke-width:0.36;stroke-linecap:butt;stroke-linejoin:miter;stroke-miterlimit:3.25;stroke-dasharray:none;stroke-opacity:1"
         id="path218" /><path
         d="m 108.16,70.785 h 1.535"
         style="fill:none;stroke:#000000;stroke-width:0.36;stroke-linecap:butt;stroke-linejoin:miter;stroke-miterlimit:3.25;stroke-dasharray:none;stroke-opacity:1"
         id="path220" /><path
         d="m 108.16,66.391 h 1.535"
         style="fill:none;stroke:#000000;stroke-width:0.36;stroke-linecap:butt;stroke-linejoin:miter;stroke-miterlimit:3.25;stroke-dasharray:none;stroke-opacity:1"
         id="path222" /><path
         d="m 108.16,61.996 h 1.535"
         style="fill:none;stroke:#000000;stroke-width:0.36;stroke-linecap:butt;stroke-linejoin:miter;stroke-miterlimit:3.25;stroke-dasharray:none;stroke-opacity:1"
         id="path224" /><path
         d="m 108.16,57.602 h 2.559"
         style="fill:none;stroke:#000000;stroke-width:0.36;stroke-linecap:butt;stroke-linejoin:miter;stroke-miterlimit:3.25;stroke-dasharray:none;stroke-opacity:1"
         id="path226" /><text
         transform="translate(95.190398,59.847996)"
         style="font-variant:normal;font-weight:normal;font-size:6.48px;font-family:Arial;-inkscape-font-specification:ArialMT;writing-mode:lr-tb;fill:#000000;fill-opacity:1;fill-rule:nonzero;stroke:none"
         id="text230"><tspan
           x="0 3.60288 7.20576"
           y="0"
           sodipodi:role="line"
           id="tspan228">100</tspan></text><path
         d="m 108.16,53.207 h 1.535"
         style="fill:none;stroke:#000000;stroke-width:0.36;stroke-linecap:butt;stroke-linejoin:miter;stroke-miterlimit:3.25;stroke-dasharray:none;stroke-opacity:1"
         id="path232" /><path
         d="m 108.16,48.812 h 1.535"
         style="fill:none;stroke:#000000;stroke-width:0.36;stroke-linecap:butt;stroke-linejoin:miter;stroke-miterlimit:3.25;stroke-dasharray:none;stroke-opacity:1"
         id="path234" /><path
         d="m 108.16,44.418 h 1.535"
         style="fill:none;stroke:#000000;stroke-width:0.36;stroke-linecap:butt;stroke-linejoin:miter;stroke-miterlimit:3.25;stroke-dasharray:none;stroke-opacity:1"
         id="path236" /><path
         d="m 108.16,40.023 h 1.535"
         style="fill:none;stroke:#000000;stroke-width:0.36;stroke-linecap:butt;stroke-linejoin:miter;stroke-miterlimit:3.25;stroke-dasharray:none;stroke-opacity:1"
         id="path238" /><path
         d="m 108.16,35.629 h 2.559"
         style="fill:none;stroke:#000000;stroke-width:0.36;stroke-linecap:butt;stroke-linejoin:miter;stroke-miterlimit:3.25;stroke-dasharray:none;stroke-opacity:1"
         id="path240" /><text
         transform="translate(95.190398,37.876787)"
         style="font-variant:normal;font-weight:normal;font-size:6.48px;font-family:Arial;-inkscape-font-specification:ArialMT;writing-mode:lr-tb;fill:#000000;fill-opacity:1;fill-rule:nonzero;stroke:none"
         id="text244"><tspan
           x="0 3.60288 7.20576"
           y="0"
           sodipodi:role="line"
           id="tspan242">200</tspan></text><path
         d="m 108.16,31.234 h 1.535"
         style="fill:none;stroke:#000000;stroke-width:0.36;stroke-linecap:butt;stroke-linejoin:miter;stroke-miterlimit:3.25;stroke-dasharray:none;stroke-opacity:1"
         id="path246" /><path
         d="m 108.16,26.844 h 1.535"
         style="fill:none;stroke:#000000;stroke-width:0.36;stroke-linecap:butt;stroke-linejoin:miter;stroke-miterlimit:3.25;stroke-dasharray:none;stroke-opacity:1"
         id="path248" /><path
         d="m 108.16,22.449 h 1.535"
         style="fill:none;stroke:#000000;stroke-width:0.36;stroke-linecap:butt;stroke-linejoin:miter;stroke-miterlimit:3.25;stroke-dasharray:none;stroke-opacity:1"
         id="path250" /><path
         d="m 108.16,18.055 h 1.535"
         style="fill:none;stroke:#000000;stroke-width:0.36;stroke-linecap:butt;stroke-linejoin:miter;stroke-miterlimit:3.25;stroke-dasharray:none;stroke-opacity:1"
         id="path252" /><path
         d="m 108.16,13.66 h 2.559"
         style="fill:none;stroke:#000000;stroke-width:0.36;stroke-linecap:butt;stroke-linejoin:miter;stroke-miterlimit:3.25;stroke-dasharray:none;stroke-opacity:1"
         id="path254" /><text
         transform="translate(95.190398,15.905578)"
         style="font-variant:normal;font-weight:normal;font-size:6.48px;font-family:Arial;-inkscape-font-specification:ArialMT;writing-mode:lr-tb;fill:#000000;fill-opacity:1;fill-rule:nonzero;stroke:none"
         id="text258"><tspan
           x="0 3.60288 7.20576"
           y="0"
           sodipodi:role="line"
           id="tspan256">300</tspan></text><path
         d="M 108.16,143.832 V 10.359"
         style="fill:none;stroke:#000000;stroke-width:0.36;stroke-linecap:butt;stroke-linejoin:miter;stroke-miterlimit:3.25;stroke-dasharray:none;stroke-opacity:1"
         id="path260" /><text
         transform="translate(103.84847,7.039406)"
         style="font-variant:normal;font-weight:normal;font-size:7.2px;font-family:MathematicaSans;-inkscape-font-specification:MathematicaSans;writing-mode:lr-tb;fill:#000000;fill-opacity:1;fill-rule:nonzero;stroke:none"
         id="text264"><tspan
           x="0"
           y="0"
           id="tspan262">$\sigma_y$</tspan></text><text
         xml:space="preserve"
         style="font-size:12px;line-height:1.25;font-family:sans-serif;stroke-width:0.75"
         x="0.99191123"
         y="88.352524"
         id="text1897"><tspan
           sodipodi:role="line"
           id="tspan1895"
           style="stroke-width:0.75"
           x="0.99191123"
           y="88.352524">$-{h\over 2}$</tspan></text><text
         xml:space="preserve"
         style="font-size:12px;line-height:1.25;font-family:sans-serif;stroke-width:0.75"
         x="208.44579"
         y="89.365013"
         id="text1897-1"><tspan
           sodipodi:role="line"
           id="tspan1895-4"
           style="stroke-width:0.75"
           x="208.44579"
           y="89.365013">$h\over 2$</tspan></text><text
         xml:space="preserve"
         style="font-size:12px;line-height:1.25;font-family:sans-serif;stroke-width:0.75"
         x="164.82903"
         y="-34.204235"
         id="text6780"><tspan
           sodipodi:role="line"
           id="tspan6778"
           style="stroke-width:0.75"
           x="164.82903"
           y="-34.204235" /></text></g></g></svg>
