<?xml version="1.0" encoding="UTF-8" standalone="no"?>
<!-- Created with Inkscape (http://www.inkscape.org/) -->

<svg
   version="1.1"
   id="svg2"
   xml:space="preserve"
   width="346.66666"
   height="197.33333"
   viewBox="0 0 346.66666 197.33333"
   sodipodi:docname="grafico_tau_xy.svg"
   inkscape:version="1.1.1 (3bf5ae0d25, 2021-09-20)"
   xmlns:inkscape="http://www.inkscape.org/namespaces/inkscape"
   xmlns:sodipodi="http://sodipodi.sourceforge.net/DTD/sodipodi-0.dtd"
   xmlns="http://www.w3.org/2000/svg"
   xmlns:svg="http://www.w3.org/2000/svg"><defs
     id="defs6" /><sodipodi:namedview
     id="namedview4"
     pagecolor="#ffffff"
     bordercolor="#666666"
     borderopacity="1.0"
     inkscape:pageshadow="2"
     inkscape:pageopacity="0.0"
     inkscape:pagecheckerboard="0"
     showgrid="false"
     inkscape:zoom="1.7884616"
     inkscape:cx="162.15053"
     inkscape:cy="64.580643"
     inkscape:window-width="1920"
     inkscape:window-height="1009"
     inkscape:window-x="3432"
     inkscape:window-y="344"
     inkscape:window-maximized="1"
     inkscape:current-layer="g10" /><g
     id="g8"
     inkscape:groupmode="layer"
     inkscape:label="grafico_tau_xy"
     transform="matrix(1.3333333,0,0,1.3333333,0,1.6e-6)"><g
       id="g10"><path
         d="M 4.551,79.008 H 4.68 l 0.129,0.004 0.253,0.004 0.516,0.011 1.031,0.016 2.059,0.039 4.461,0.082 4.168,0.078 h 0.129 l 0.125,0.004 0.258,0.004 0.507,0.008 1.024,0.019 h 0.062 l 0.067,0.004 h 0.125 l 0.258,0.004 0.507,0.012 h 0.129 l 0.129,0.004 0.254,0.004 0.512,0.011 h 0.137 l 0.14,0.004 h 0.07 l 0.067,0.004 h 0.141 l 0.066,0.004 0.07,0.172 h 0.141 l 0.066,-0.004 h 0.071 l 0.14,-0.004 h 0.067 l 0.07,-0.004 0.137,-0.004 0.277,-0.004 0.555,-0.011 0.07,-0.004 h 0.07 l 0.137,-0.004 0.277,-0.004 0.555,-0.012 1.105,-0.023 0.067,-0.004 h 0.066 l 0.129,-0.004 0.258,-0.004 0.516,-0.012 1.035,-0.023 2.066,-0.043 4.485,-0.098 H 34.5 l 0.07,-0.004 h 0.137 l 0.277,-0.007 0.547,-0.012 1.102,-0.023 h 0.07 l 0.067,-0.004 0.14,-0.004 0.274,-0.004 0.55,-0.012 h 0.067 l 0.07,-0.004 0.137,-0.004 0.277,-0.004 0.547,-0.011 0.066,-0.004 h 0.063 l 0.129,-0.004 h 0.129 l 0.129,-0.004 h 0.062 l 0.067,-0.004 0.062,0.754 h 0.191 l 0.129,0.004 h 0.258 l 0.254,0.004 0.516,0.004 0.062,0.004 h 0.196 l 0.253,0.003 0.516,0.004 1.024,0.012 h 0.277 l 0.281,0.004 0.555,0.004 3.34,0.035 4.156,0.039 h 0.125 L 51.801,80 h 0.254 l 0.507,0.008 1.02,0.008 h 0.129 l 0.125,0.004 h 0.254 l 0.512,0.007 1.015,0.008 h 0.071 l 0.07,0.004 h 0.137 l 0.277,0.004 h 0.344 l 0.07,0.004 H 56.93 L 57,79.102 57.07,79.098 h 0.067 l 0.14,-0.004 h 0.067 l 0.07,-0.004 h 0.137 l 0.277,-0.008 h 0.07 l 0.071,-0.004 h 0.136 l 0.278,-0.008 0.551,-0.011 1.105,-0.024 h 0.063 l 0.066,-0.004 h 0.129 l 0.258,-0.008 0.515,-0.011 1.032,-0.02 2.062,-0.043 4.469,-0.097 h 0.07 l 0.067,-0.004 h 0.136 l 0.278,-0.008 0.546,-0.012 1.098,-0.023 h 0.137 l 0.41,-0.012 0.551,-0.012 1.097,-0.023 h 0.125 l 0.129,-0.004 0.258,-0.004 0.063,-0.004 h 0.062 l 0.129,-0.004 0.258,-0.004 0.062,-0.004 h 0.129 l 0.063,-0.004 h 0.129 l 0.062,0.762 h 0.192 l 0.128,-0.004 h 0.512 l 0.258,-0.004 0.512,-0.004 1.023,-0.003 h 0.137 l 0.141,-0.004 h 0.277 l 1.664,-0.012 2.219,-0.012 4.144,-0.027 4.489,-0.027 4.41,-0.028 4.109,-0.027 4.461,-0.028 4.16,-0.027 4.082,-0.023 4.43,-0.032 4.129,-0.023 4.48,-0.027 4.395,-0.028 4.101,-0.027 4.446,-0.027 h 0.129 l 0.128,-0.004 h 0.262 l 0.52,-0.004 1.035,-0.008 h 0.519 l 1.559,-0.012 h 0.254 l 0.254,-0.004 0.508,-0.004 h 0.507 l 0.508,-0.003 h 0.129 l 0.129,-0.004 h 0.508 l 0.062,-1.817 h 0.129 l 0.063,-0.004 h 0.125 l 0.129,-0.004 0.254,-0.003 0.507,-0.012 0.071,-0.004 h 0.07 l 0.137,-0.004 0.277,-0.004 1.652,-0.035 2.211,-0.047 4.118,-0.09 h 0.07 l 0.07,-0.004 h 0.141 l 0.277,-0.007 1.676,-0.036 h 0.07 l 0.071,-0.004 h 0.136 l 0.282,-0.007 1.675,-0.035 h 0.063 l 0.066,-0.004 0.129,-0.004 0.262,-0.004 0.519,-0.012 h 0.133 l 0.129,-0.004 0.262,-0.008 0.519,-0.007 0.067,-0.004 h 0.066 l 0.129,-0.004 0.262,-0.004 0.062,-0.004 h 0.067 l 0.132,-0.004 h 0.129 l 0.067,-0.004 h 0.062 l 0.067,-0.004 0.066,4.207 h 0.258 l 0.133,0.004 h 0.258 l 0.261,0.004 h 0.129 l 0.129,0.004 h 0.254 l 0.512,0.008 1.019,0.008 2.047,0.019 4.434,0.043 h 0.066 l 0.063,0.004 h 0.128 l 0.262,0.004 0.516,0.004 1.035,0.008 0.063,0.004 h 0.195 l 0.258,0.003 0.519,0.004 1.035,0.012 h 0.278 l 0.281,0.004 0.562,0.004 0.071,0.004 h 0.207 l 0.281,0.004 0.563,0.004 h 0.07 l 0.07,0.003 h 0.141 l 0.277,0.004 h 0.281 l 0.282,0.004 h 0.14 l 0.071,0.004 h 0.277 l 0.07,-5.129 0.071,-0.004 h 0.07 l 0.14,-0.004 0.282,-0.003 0.066,-0.004 h 0.07 l 0.137,-0.004 0.277,-0.004 0.551,-0.012 1.102,-0.027 2.199,-0.047 4.109,-0.086 0.071,-0.004 h 0.066 l 0.141,-0.004 0.277,-0.004 0.559,-0.011 1.113,-0.028 h 0.137 l 0.14,-0.004 0.278,-0.008 0.558,-0.011 1.114,-0.024 h 0.066 l 0.062,-0.004 h 0.133 l 0.258,-0.007 0.52,-0.012 h 0.128 l 0.133,-0.004 0.258,-0.004 0.52,-0.012 0.066,-0.004 h 0.063 l 0.132,-0.003 0.258,-0.004 0.067,-0.004 h 0.066 l 0.129,-0.004 0.258,-0.004 h 0.066 l 0.067,-0.004 0.128,-0.004 h 0.129 l 0.129,-0.004 h 0.067 l 0.066,-0.004 h 0.129 l 0.066,6.789 h 0.129 l 0.063,0.004 h 0.129 l 0.129,0.004 0.761,0.012 3.059,0.058 4.422,0.079 4.129,0.078 h 0.144 l 0.145,0.004 0.285,0.004 0.578,0.011 1.152,0.024 h 0.141 l 0.145,0.004 0.289,0.003 0.574,0.012 h 0.074 l 0.07,0.004 h 0.145 l 0.289,0.008 h 0.144 L 214,82.84 h 0.07 l 0.071,0.004 h 0.144"
         style="fill:none;stroke:#5e81b5;stroke-width:1.152;stroke-linecap:square;stroke-linejoin:miter;stroke-miterlimit:3.25;stroke-dasharray:none;stroke-opacity:1"
         id="path12" /><path
         d="m 4.551,77.09 h 0.062 l 0.067,0.004 0.129,0.004 0.253,0.007 1.547,0.059 2.059,0.074 4.461,0.164 4.168,0.153 0.062,0.004 h 0.067 l 0.125,0.003 0.258,0.012 0.507,0.02 1.024,0.035 0.062,0.004 h 0.067 l 0.125,0.008 0.258,0.007 0.507,0.02 h 0.067 l 0.062,0.004 0.129,0.004 0.254,0.008 0.512,0.019 0.07,0.004 0.067,0.004 0.14,0.004 0.07,0.004 h 0.067 l 0.07,0.004 h 0.071 l 0.066,0.004 0.07,3.656 0.071,-0.004 h 0.07 l 0.066,-0.004 0.211,-0.012 h 0.067 l 0.07,-0.004 0.137,-0.007 0.832,-0.036 0.07,-0.004 h 0.07 l 0.137,-0.007 0.832,-0.035 1.105,-0.047 0.133,-0.008 0.129,-0.004 0.774,-0.035 1.035,-0.043 2.066,-0.09 4.485,-0.191 0.066,-0.004 0.07,-0.004 0.137,-0.004 0.277,-0.012 0.547,-0.023 1.102,-0.051 h 0.07 l 0.067,-0.004 0.14,-0.008 0.274,-0.012 0.55,-0.023 h 0.067 l 0.07,-0.004 0.137,-0.008 0.277,-0.011 0.547,-0.024 0.066,-0.004 h 0.063 l 0.129,-0.008 h 0.066 l 0.063,-0.003 0.129,-0.004 0.062,-0.004 0.067,-0.004 0.062,-1.438 0.063,0.004 h 0.128 l 0.129,0.004 h 0.067 l 0.062,0.004 h 0.129 l 0.254,0.008 0.516,0.008 h 0.062 l 0.067,0.004 h 0.129 l 0.253,0.007 0.516,0.008 1.024,0.02 0.07,0.004 h 0.07 l 0.137,0.004 0.281,0.003 0.555,0.012 1.113,0.024 2.227,0.043 4.156,0.078 0.062,0.004 h 0.063 l 0.129,0.004 0.254,0.003 0.507,0.012 1.02,0.02 h 0.129 l 0.125,0.004 0.254,0.003 0.512,0.012 1.015,0.02 h 0.141 l 0.137,0.004 0.277,0.007 h 0.137 l 0.14,0.004 h 0.067 l 0.07,0.004 h 0.137 l 0.07,0.004 h 0.137 l 0.07,0.68 h 0.07 l 0.067,-0.004 0.14,-0.008 h 0.067 l 0.07,-0.004 0.137,-0.008 0.277,-0.011 0.07,-0.004 h 0.071 l 0.136,-0.008 0.278,-0.012 0.551,-0.023 1.105,-0.047 0.063,-0.004 h 0.066 l 0.129,-0.008 0.258,-0.008 0.515,-0.023 1.032,-0.043 2.062,-0.09 4.469,-0.191 h 0.07 l 0.067,-0.004 0.136,-0.008 0.278,-0.008 0.546,-0.023 1.098,-0.047 0.07,-0.004 0.067,-0.004 0.137,-0.004 0.273,-0.012 0.551,-0.023 1.097,-0.047 0.125,-0.008 0.129,-0.004 0.258,-0.011 0.063,-0.004 h 0.062 l 0.129,-0.008 0.258,-0.012 h 0.062 l 0.063,-0.004 0.066,-0.004 h 0.063 l 0.066,-0.003 0.063,-0.004 0.062,0.238 h 0.192 l 0.128,-0.004 0.258,-0.004 h 0.125 l 0.129,-0.004 h 0.258 l 0.512,-0.008 1.023,-0.011 0.067,-0.004 h 0.211 l 0.832,-0.012 1.109,-0.012 2.219,-0.031 4.144,-0.051 4.489,-0.054 4.41,-0.059 4.109,-0.051 4.461,-0.054 4.16,-0.051 4.082,-0.055 4.43,-0.055 4.129,-0.05 4.48,-0.059 4.395,-0.055 4.101,-0.05 4.446,-0.055 h 0.066 l 0.063,-0.004 h 0.128 l 0.262,-0.004 0.52,-0.008 1.035,-0.011 h 0.133 l 0.129,-0.004 0.257,-0.004 0.52,-0.004 1.039,-0.016 h 0.254 l 0.762,-0.012 h 0.129 l 0.124,-0.003 h 0.254 l 0.508,-0.008 h 0.129 l 0.129,-0.004 h 0.125 l 0.129,-0.004 h 0.191 l 0.063,-0.004 0.062,-2.336 0.063,-0.004 0.066,-0.004 h 0.063 l 0.125,-0.008 0.129,-0.003 0.254,-0.012 0.507,-0.02 0.141,-0.007 0.137,-0.004 0.277,-0.016 1.652,-0.07 2.211,-0.094 4.118,-0.176 h 0.07 l 0.211,-0.012 0.277,-0.011 1.676,-0.071 0.07,-0.004 h 0.071 l 0.136,-0.007 0.282,-0.012 1.675,-0.07 0.063,-0.004 0.066,-0.004 0.129,-0.004 0.262,-0.012 0.519,-0.023 h 0.067 l 0.066,-0.004 0.129,-0.004 0.262,-0.012 0.519,-0.023 0.067,-0.004 h 0.066 l 0.129,-0.008 0.262,-0.012 h 0.062 l 0.067,-0.004 0.132,-0.003 0.063,-0.004 0.133,-0.008 h 0.062 l 0.067,-0.004 0.066,5.832 H 162 l 0.066,0.004 h 0.063 l 0.133,0.004 h 0.129 l 0.129,0.004 0.261,0.004 0.067,0.003 h 0.062 l 0.129,0.004 0.254,0.004 0.512,0.008 1.019,0.024 2.047,0.039 4.434,0.086 h 0.066 l 0.063,0.003 h 0.128 l 0.262,0.004 0.516,0.012 1.035,0.02 0.063,0.003 h 0.066 l 0.129,0.004 0.258,0.004 0.519,0.008 1.035,0.024 h 0.141 l 0.137,0.003 0.281,0.004 0.562,0.012 0.071,0.004 h 0.07 l 0.137,0.004 0.281,0.004 0.563,0.012 h 0.14 l 0.141,0.003 0.277,0.008 h 0.141 l 0.14,0.004 0.282,0.004 0.07,0.004 h 0.141 l 0.07,0.004 h 0.137 l 0.07,0.004 0.07,-7.321 0.141,-0.007 0.14,-0.004 0.282,-0.012 0.066,-0.004 0.07,-0.004 0.137,-0.004 0.277,-0.011 0.551,-0.024 1.102,-0.051 2.199,-0.093 4.109,-0.176 0.071,-0.004 0.066,-0.004 0.141,-0.004 0.277,-0.012 0.559,-0.023 1.113,-0.051 0.07,-0.004 h 0.067 l 0.14,-0.008 0.278,-0.011 0.558,-0.024 1.114,-0.047 0.066,-0.003 0.062,-0.004 0.133,-0.004 0.258,-0.012 0.52,-0.023 0.066,-0.004 h 0.062 l 0.133,-0.008 0.258,-0.012 0.52,-0.019 0.066,-0.004 0.063,-0.004 0.132,-0.004 0.258,-0.012 0.067,-0.004 h 0.066 l 0.129,-0.008 0.258,-0.011 h 0.066 l 0.067,-0.004 0.128,-0.008 h 0.067 l 0.062,-0.004 0.129,-0.004 0.133,-0.008 0.063,-0.004 h 0.066 l 0.066,10.27 0.063,0.004 h 0.066 l 0.063,0.004 0.066,0.004 h 0.063 l 0.129,0.004 0.253,0.011 0.508,0.02 1.02,0.035 2.039,0.074 4.422,0.164 4.129,0.149 0.07,0.004 0.074,0.004 0.145,0.003 0.285,0.012 0.578,0.02 1.152,0.043 0.071,0.004 h 0.07 l 0.145,0.007 0.289,0.008 0.574,0.024 h 0.074 l 0.07,0.004 0.145,0.003 0.289,0.012 0.07,0.004 0.074,0.004 0.145,0.004 0.07,0.004 h 0.071 l 0.074,0.004 0.07,0.004"
         style="fill:none;stroke:#e19c24;stroke-width:1.152;stroke-linecap:square;stroke-linejoin:miter;stroke-miterlimit:3.25;stroke-dasharray:none;stroke-opacity:1"
         id="path14" /><path
         d="m 4.551,71.332 0.062,0.004 0.067,0.008 0.129,0.011 0.253,0.024 1.547,0.141 2.059,0.187 4.461,0.41 4.168,0.379 0.062,0.008 0.067,0.004 0.125,0.012 0.258,0.023 0.507,0.047 1.024,0.094 0.062,0.007 0.067,0.004 0.125,0.012 0.258,0.023 0.507,0.047 0.067,0.008 0.062,0.004 0.129,0.012 0.254,0.023 0.512,0.047 0.07,0.008 0.067,0.004 0.14,0.015 0.07,0.004 0.067,0.008 0.07,0.004 0.071,0.008 0.066,0.008 0.07,14.097 0.141,-0.015 0.066,-0.004 0.211,-0.024 0.067,-0.007 0.07,-0.008 0.137,-0.016 0.277,-0.027 0.555,-0.063 0.14,-0.015 0.137,-0.012 0.277,-0.031 0.555,-0.059 1.105,-0.121 0.067,-0.008 0.066,-0.004 0.129,-0.015 0.774,-0.082 1.035,-0.114 2.066,-0.222 4.485,-0.485 0.066,-0.004 0.07,-0.007 0.137,-0.016 0.277,-0.031 0.547,-0.059 1.102,-0.117 0.07,-0.008 0.067,-0.008 0.14,-0.015 0.274,-0.028 0.55,-0.062 0.067,-0.004 0.07,-0.008 0.137,-0.016 0.277,-0.031 0.547,-0.058 0.066,-0.008 0.063,-0.004 0.129,-0.016 0.066,-0.007 0.063,-0.004 0.129,-0.016 0.062,-0.008 0.067,-0.008 0.062,-8 h 0.063 l 0.066,0.004 0.062,0.004 0.129,0.008 h 0.067 l 0.062,0.004 0.129,0.008 0.254,0.011 0.516,0.024 0.062,0.004 0.067,0.004 0.129,0.007 0.253,0.012 0.516,0.024 1.024,0.05 0.14,0.008 0.137,0.008 0.281,0.012 0.555,0.027 3.34,0.164 4.156,0.203 h 0.062 l 0.063,0.004 0.129,0.008 0.761,0.035 1.02,0.051 0.063,0.004 0.066,0.004 0.125,0.004 0.254,0.011 0.512,0.028 1.015,0.051 h 0.071 l 0.07,0.003 0.137,0.008 0.277,0.012 0.07,0.004 0.067,0.004 0.14,0.008 0.067,0.003 0.07,0.004 0.137,0.004 0.14,0.008 0.067,0.004 0.07,5.562 0.07,-0.007 0.067,-0.008 0.14,-0.012 0.067,-0.008 0.07,-0.007 0.137,-0.016 0.277,-0.027 0.141,-0.016 0.136,-0.016 0.278,-0.027 0.551,-0.059 1.105,-0.121 0.063,-0.004 0.066,-0.007 0.129,-0.016 3.867,-0.41 4.469,-0.477 0.07,-0.008 0.067,-0.004 0.136,-0.015 0.278,-0.031 0.546,-0.059 1.098,-0.117 0.07,-0.004 0.067,-0.008 0.137,-0.016 0.273,-0.027 0.551,-0.058 1.097,-0.118 0.125,-0.015 0.129,-0.012 0.258,-0.027 0.125,-0.016 0.129,-0.012 0.258,-0.027 0.125,-0.016 0.066,-0.004 0.063,-0.007 0.066,-0.008 0.063,-0.008 0.062,-1.336 0.067,-0.004 h 0.062 l 0.063,-0.004 0.386,-0.011 h 0.063 l 0.062,-0.004 0.387,-0.012 1.535,-0.047 0.067,-0.004 0.07,-0.004 0.141,-0.004 0.832,-0.023 3.328,-0.106 4.144,-0.128 4.489,-0.145 4.41,-0.137 4.109,-0.129 4.461,-0.14 4.16,-0.129 4.082,-0.129 4.43,-0.141 4.129,-0.129 4.48,-0.14 4.395,-0.137 4.101,-0.129 4.446,-0.14 0.066,-0.004 h 0.063 l 0.128,-0.004 0.262,-0.008 0.52,-0.02 1.035,-0.031 h 0.066 l 0.067,-0.004 0.386,-0.012 0.52,-0.015 1.039,-0.035 h 0.062 l 0.063,-0.004 0.129,-0.004 0.762,-0.024 h 0.062 l 0.067,-0.003 0.124,-0.004 0.762,-0.024 h 0.067 l 0.062,-0.004 0.129,-0.004 h 0.063 l 0.062,-0.003 0.129,-0.004 0.062,-0.004 h 0.063 l 0.066,-0.004 h 0.063 l 0.062,-3.914 0.063,-0.008 0.066,-0.008 0.063,-0.004 0.125,-0.015 0.129,-0.012 0.761,-0.082 0.141,-0.016 0.137,-0.015 0.277,-0.028 1.652,-0.176 2.211,-0.234 4.118,-0.441 0.14,-0.016 0.141,-0.012 0.277,-0.031 0.559,-0.059 1.117,-0.121 0.07,-0.004 0.071,-0.007 0.136,-0.016 0.282,-0.031 1.675,-0.176 0.063,-0.008 0.066,-0.008 0.129,-0.015 0.262,-0.028 0.519,-0.054 0.067,-0.008 0.066,-0.004 0.129,-0.016 0.262,-0.027 0.519,-0.055 0.133,-0.015 0.129,-0.012 0.262,-0.027 0.062,-0.008 0.199,-0.024 0.063,-0.003 0.133,-0.016 0.062,-0.008 0.067,-0.004 0.066,10.711 0.063,0.004 0.066,0.004 h 0.066 l 0.063,0.004 0.133,0.008 0.062,0.004 h 0.067 l 0.129,0.007 0.261,0.012 0.067,0.004 0.062,0.004 0.129,0.004 0.254,0.015 0.512,0.024 1.019,0.051 2.047,0.097 4.434,0.219 0.066,0.004 h 0.063 l 0.128,0.008 0.262,0.011 0.516,0.028 1.035,0.051 h 0.063 l 0.066,0.004 0.129,0.007 0.258,0.012 0.519,0.027 1.035,0.047 0.141,0.008 0.137,0.008 0.281,0.012 0.562,0.027 0.141,0.008 0.137,0.008 0.281,0.015 0.563,0.028 h 0.07 l 0.211,0.011 0.277,0.016 h 0.07 l 0.493,0.027 h 0.07 l 0.281,0.016 0.067,0.004 0.07,0.004 0.07,-13.891 0.071,-0.008 0.07,-0.004 0.422,-0.047 0.066,-0.007 0.07,-0.008 0.137,-0.016 0.277,-0.027 0.551,-0.059 1.102,-0.121 2.199,-0.234 4.109,-0.446 0.071,-0.007 0.066,-0.008 0.141,-0.012 0.277,-0.031 0.559,-0.059 1.113,-0.121 0.07,-0.008 0.067,-0.007 0.14,-0.016 0.278,-0.031 0.558,-0.059 1.114,-0.121 0.066,-0.004 0.062,-0.008 0.133,-0.015 0.258,-0.028 0.52,-0.054 0.066,-0.008 0.062,-0.008 0.133,-0.012 0.258,-0.031 0.52,-0.055 0.066,-0.007 0.063,-0.008 0.132,-0.012 0.258,-0.027 0.133,-0.016 0.129,-0.012 0.258,-0.031 0.066,-0.004 0.067,-0.008 0.128,-0.015 0.067,-0.008 0.062,-0.004 0.129,-0.016 0.133,-0.015 0.063,-0.004 0.066,-0.008 0.066,20.719 0.063,0.008 0.066,0.004 0.063,0.007 0.066,0.004 0.063,0.008 0.129,0.012 0.761,0.07 1.02,0.09 2.039,0.187 4.422,0.407 4.129,0.375 0.07,0.007 0.074,0.008 0.145,0.012 0.285,0.027 0.578,0.051 1.152,0.106 0.141,0.015 0.145,0.012 0.289,0.027 0.574,0.051 0.074,0.008 0.07,0.008 0.145,0.011 0.289,0.028 0.07,0.004 0.074,0.007 0.145,0.016 0.07,0.004 0.071,0.008 0.074,0.008 0.07,0.004"
         style="fill:none;stroke:#8fb032;stroke-width:1.152;stroke-linecap:square;stroke-linejoin:miter;stroke-miterlimit:3.25;stroke-dasharray:none;stroke-opacity:1"
         id="path16" /><path
         d="m 4.551,61.738 0.062,0.012 0.067,0.012 0.129,0.023 0.253,0.047 1.547,0.281 2.059,0.375 4.461,0.821 4.168,0.761 0.062,0.012 0.067,0.012 0.125,0.023 0.258,0.047 0.507,0.094 1.024,0.183 0.062,0.012 0.067,0.012 0.125,0.023 0.258,0.047 0.507,0.094 0.067,0.012 0.062,0.011 0.129,0.024 0.254,0.047 0.512,0.093 0.07,0.012 0.067,0.016 0.21,0.035 0.067,0.016 0.141,0.023 0.066,0.012 0.07,31.508 0.141,-0.032 0.066,-0.011 0.211,-0.047 0.067,-0.016 0.07,-0.016 0.137,-0.027 0.277,-0.059 0.555,-0.121 0.14,-0.031 0.137,-0.027 0.277,-0.063 0.555,-0.117 1.105,-0.238 0.067,-0.016 0.066,-0.012 0.129,-0.027 0.258,-0.058 0.516,-0.11 1.035,-0.222 2.066,-0.446 4.485,-0.969 0.066,-0.011 0.07,-0.016 0.137,-0.031 0.277,-0.059 0.547,-0.117 1.102,-0.238 0.07,-0.016 0.067,-0.015 0.14,-0.028 0.274,-0.058 0.55,-0.122 0.067,-0.011 0.07,-0.016 0.137,-0.031 0.277,-0.059 0.547,-0.117 0.066,-0.016 0.063,-0.011 0.129,-0.028 0.066,-0.015 0.063,-0.016 0.129,-0.027 0.062,-0.012 0.067,-0.015 0.062,-18.946 0.063,0.004 0.066,0.008 0.062,0.004 0.129,0.015 0.067,0.004 0.062,0.008 0.129,0.012 0.254,0.023 0.516,0.051 0.062,0.008 0.067,0.004 0.129,0.015 0.253,0.024 0.516,0.051 1.024,0.101 0.07,0.004 0.07,0.008 0.137,0.016 0.281,0.023 0.555,0.055 3.34,0.328 4.156,0.406 0.062,0.004 0.063,0.008 0.129,0.012 0.254,0.023 0.507,0.051 1.02,0.097 0.063,0.008 0.066,0.008 0.125,0.012 0.254,0.023 0.512,0.051 1.015,0.098 0.141,0.015 0.137,0.012 0.277,0.027 0.07,0.008 0.067,0.008 0.14,0.012 0.067,0.007 0.07,0.008 0.137,0.012 0.07,0.008 0.07,0.004 0.067,0.008 0.07,13.703 0.07,-0.012 0.067,-0.016 0.14,-0.031 0.067,-0.012 0.07,-0.015 0.137,-0.032 0.277,-0.058 0.07,-0.012 0.071,-0.015 0.136,-0.032 0.278,-0.058 0.551,-0.118 1.105,-0.234 0.063,-0.016 0.066,-0.011 1.934,-0.41 2.062,-0.442 4.469,-0.949 0.07,-0.016 0.067,-0.015 0.136,-0.028 0.278,-0.058 0.546,-0.117 1.098,-0.235 0.07,-0.015 0.067,-0.016 0.137,-0.027 0.273,-0.059 0.551,-0.117 1.097,-0.235 0.063,-0.011 0.062,-0.016 0.387,-0.082 0.063,-0.012 0.062,-0.015 0.129,-0.024 0.258,-0.054 0.062,-0.016 0.063,-0.012 0.066,-0.015 0.063,-0.012 0.066,-0.016 0.063,-0.011 0.062,-3.965 0.067,-0.008 0.125,-0.008 0.386,-0.023 0.125,-0.008 0.387,-0.024 0.512,-0.031 1.023,-0.066 0.067,-0.004 0.211,-0.012 0.277,-0.019 0.555,-0.036 1.109,-0.066 2.219,-0.141 4.144,-0.261 4.489,-0.282 4.41,-0.277 4.109,-0.258 4.461,-0.281 4.16,-0.262 4.082,-0.254 4.43,-0.277 4.129,-0.262 4.48,-0.281 4.395,-0.277 4.101,-0.258 4.446,-0.277 0.066,-0.004 0.063,-0.004 0.128,-0.008 0.262,-0.016 0.52,-0.035 1.035,-0.062 0.066,-0.008 0.067,-0.004 0.386,-0.023 0.52,-0.032 1.039,-0.066 0.125,-0.008 0.129,-0.008 0.762,-0.047 0.062,-0.003 0.067,-0.004 0.124,-0.008 0.254,-0.016 0.508,-0.035 0.067,-0.004 0.062,-0.004 0.129,-0.008 0.125,-0.007 0.129,-0.008 0.125,-0.008 0.066,-0.004 0.063,-0.004 0.062,-6.543 0.063,-0.012 0.066,-0.011 0.063,-0.016 0.062,-0.012 0.063,-0.015 0.129,-0.028 0.254,-0.054 0.507,-0.106 0.141,-0.031 0.137,-0.027 0.277,-0.059 0.551,-0.121 1.101,-0.234 2.211,-0.469 4.118,-0.875 0.281,-0.063 0.277,-0.058 0.559,-0.117 1.117,-0.239 0.141,-0.031 0.136,-0.027 0.282,-0.063 0.558,-0.117 1.117,-0.238 0.063,-0.012 0.066,-0.016 0.129,-0.027 0.262,-0.055 0.519,-0.113 0.067,-0.012 0.066,-0.015 0.129,-0.028 0.262,-0.054 0.519,-0.11 0.133,-0.031 0.129,-0.027 0.262,-0.055 0.062,-0.012 0.067,-0.015 0.132,-0.028 0.063,-0.015 0.066,-0.012 0.067,-0.016 0.062,-0.011 0.067,-0.016 0.066,18.848 0.063,0.008 0.066,0.003 0.066,0.008 0.063,0.008 0.133,0.012 0.062,0.008 0.067,0.003 0.129,0.012 0.261,0.028 0.067,0.007 0.062,0.004 0.129,0.012 0.254,0.027 0.512,0.051 1.019,0.098 2.047,0.199 4.434,0.434 0.066,0.007 0.063,0.004 0.128,0.012 0.262,0.027 0.516,0.051 1.035,0.102 0.063,0.004 0.066,0.007 0.129,0.012 0.258,0.027 0.519,0.051 1.035,0.098 0.141,0.016 0.137,0.011 0.843,0.082 0.141,0.016 0.137,0.012 0.844,0.082 0.14,0.015 0.141,0.012 0.277,0.027 0.141,0.016 0.14,0.012 0.282,0.027 0.211,0.023 0.07,0.004 0.07,0.008 0.067,0.008 0.07,0.008 0.07,-24.836 0.071,-0.016 0.07,-0.011 0.422,-0.094 0.066,-0.012 0.07,-0.016 0.137,-0.031 0.277,-0.058 0.551,-0.118 1.102,-0.238 2.199,-0.476 4.109,-0.883 0.071,-0.016 0.066,-0.016 0.141,-0.027 0.277,-0.062 0.559,-0.118 1.113,-0.242 0.07,-0.015 0.067,-0.016 0.14,-0.027 0.278,-0.063 0.558,-0.117 1.114,-0.242 0.066,-0.012 0.062,-0.016 0.133,-0.027 0.258,-0.055 0.52,-0.113 0.066,-0.015 0.062,-0.012 0.133,-0.028 0.258,-0.058 0.52,-0.109 0.066,-0.016 0.063,-0.016 0.132,-0.027 0.258,-0.055 0.067,-0.015 0.066,-0.012 0.129,-0.027 0.258,-0.059 0.066,-0.012 0.067,-0.015 0.128,-0.028 0.067,-0.015 0.062,-0.012 0.129,-0.027 0.133,-0.032 0.063,-0.011 0.066,-0.016 0.066,38.133 0.063,0.012 0.066,0.011 0.063,0.012 0.066,0.012 0.063,0.011 0.129,0.024 0.761,0.14 1.02,0.188 2.039,0.371 4.422,0.809 4.129,0.757 0.07,0.012 0.074,0.012 0.145,0.027 0.285,0.055 0.578,0.105 1.152,0.211 0.141,0.024 0.434,0.082 0.574,0.105 0.074,0.012 0.07,0.012 0.434,0.082 0.07,0.011 0.074,0.012 0.145,0.027 0.07,0.012 0.071,0.016 0.074,0.012 0.07,0.011"
         style="fill:none;stroke:#eb6235;stroke-width:1.152;stroke-linecap:square;stroke-linejoin:miter;stroke-miterlimit:3.25;stroke-dasharray:none;stroke-opacity:1"
         id="path18" /><path
         d="m 4.551,42.547 0.062,0.023 0.067,0.024 0.129,0.047 0.253,0.093 0.516,0.192 1.031,0.375 2.059,0.754 4.461,1.633 4.168,1.523 0.062,0.023 0.067,0.024 0.125,0.047 0.258,0.093 0.507,0.188 1.024,0.375 0.062,0.023 0.067,0.024 0.125,0.047 0.258,0.093 0.507,0.188 0.067,0.023 0.062,0.024 0.129,0.043 0.254,0.094 0.512,0.187 0.07,0.027 0.067,0.024 0.14,0.051 0.07,0.027 0.067,0.023 0.07,0.028 0.071,0.023 0.066,0.028 0.07,66.32 0.141,-0.063 0.066,-0.027 0.071,-0.031 0.14,-0.059 0.067,-0.031 0.07,-0.031 0.137,-0.059 0.277,-0.117 0.555,-0.238 0.14,-0.063 0.137,-0.059 0.277,-0.121 0.555,-0.238 1.105,-0.476 0.133,-0.055 0.129,-0.055 0.258,-0.113 0.516,-0.223 1.035,-0.445 2.066,-0.891 4.485,-1.933 0.066,-0.028 0.07,-0.031 0.137,-0.059 0.277,-0.117 0.547,-0.238 1.102,-0.473 0.07,-0.031 0.067,-0.031 0.14,-0.059 0.274,-0.117 0.55,-0.238 0.067,-0.028 0.07,-0.031 0.137,-0.058 0.277,-0.118 0.547,-0.238 0.066,-0.027 0.063,-0.028 0.129,-0.054 0.066,-0.031 0.063,-0.028 0.129,-0.055 0.062,-0.027 0.067,-0.027 0.062,-40.836 0.063,0.012 0.066,0.011 0.062,0.012 0.129,0.027 0.067,0.012 0.062,0.012 0.129,0.023 0.254,0.051 0.516,0.102 0.062,0.011 0.067,0.012 0.129,0.027 0.253,0.051 0.516,0.098 1.024,0.199 0.07,0.016 0.07,0.011 0.137,0.028 0.281,0.054 0.555,0.11 1.113,0.219 2.227,0.433 4.156,0.813 0.125,0.023 0.129,0.023 0.254,0.051 0.507,0.098 1.02,0.199 0.063,0.016 0.066,0.012 0.125,0.023 0.254,0.051 0.512,0.097 1.015,0.2 0.071,0.015 0.07,0.012 0.137,0.027 0.277,0.055 0.07,0.012 0.067,0.015 0.14,0.028 0.067,0.011 0.07,0.012 0.137,0.027 0.07,0.016 0.07,0.012 0.067,0.015 0.07,29.985 0.07,-0.031 0.067,-0.028 0.14,-0.058 0.067,-0.032 0.07,-0.027 0.137,-0.059 0.277,-0.117 0.07,-0.031 0.071,-0.027 0.136,-0.059 0.278,-0.121 0.551,-0.234 1.105,-0.469 0.063,-0.028 0.066,-0.027 0.387,-0.164 0.515,-0.223 1.032,-0.437 2.062,-0.879 4.469,-1.902 0.07,-0.028 0.067,-0.031 0.136,-0.059 0.278,-0.117 0.546,-0.234 1.098,-0.465 0.07,-0.031 0.067,-0.028 0.41,-0.175 0.551,-0.235 1.097,-0.465 0.125,-0.054 0.387,-0.164 0.125,-0.055 0.387,-0.164 0.125,-0.055 0.066,-0.027 0.063,-0.027 0.066,-0.028 0.063,-0.027 0.062,-9.219 0.067,-0.008 0.125,-0.015 0.386,-0.047 0.125,-0.016 0.129,-0.015 0.258,-0.036 0.512,-0.062 1.023,-0.129 0.067,-0.008 0.07,-0.012 0.141,-0.015 1.941,-0.246 2.219,-0.278 4.144,-0.519 4.489,-0.566 4.41,-0.551 4.109,-0.52 4.461,-0.558 4.16,-0.524 4.082,-0.512 4.43,-0.558 4.129,-0.52 4.48,-0.562 4.395,-0.551 4.101,-0.516 4.446,-0.558 0.066,-0.008 0.063,-0.008 0.128,-0.015 0.262,-0.036 0.52,-0.062 1.035,-0.133 0.133,-0.016 0.386,-0.046 1.559,-0.2 0.125,-0.015 0.129,-0.016 0.762,-0.094 0.062,-0.007 0.067,-0.008 0.124,-0.016 0.254,-0.035 0.508,-0.063 0.067,-0.007 0.062,-0.008 0.129,-0.016 0.125,-0.015 0.129,-0.016 0.125,-0.016 0.066,-0.011 0.063,-0.008 0.062,-11.793 0.063,-0.028 0.066,-0.027 0.188,-0.082 0.129,-0.055 0.254,-0.105 0.507,-0.219 0.071,-0.027 0.07,-0.031 0.137,-0.059 0.277,-0.117 1.652,-0.703 2.211,-0.942 4.118,-1.754 0.07,-0.031 0.07,-0.027 0.141,-0.059 0.277,-0.121 0.559,-0.238 1.117,-0.473 0.07,-0.031 0.071,-0.027 0.136,-0.063 0.282,-0.117 1.675,-0.715 0.063,-0.027 0.066,-0.028 0.129,-0.054 0.262,-0.11 0.519,-0.222 0.133,-0.055 0.129,-0.059 0.262,-0.109 0.519,-0.223 0.133,-0.054 0.129,-0.055 0.262,-0.113 0.062,-0.028 0.199,-0.082 0.063,-0.027 0.133,-0.055 0.062,-0.031 0.067,-0.027 0.066,35.121 0.063,0.011 0.066,0.012 0.066,0.016 0.063,0.012 0.133,0.023 0.062,0.016 0.067,0.011 0.129,0.024 0.261,0.051 0.067,0.015 0.062,0.012 0.129,0.023 0.254,0.051 0.512,0.098 1.019,0.203 2.047,0.398 4.434,0.864 0.066,0.015 0.063,0.012 0.128,0.023 0.262,0.051 0.516,0.102 1.035,0.203 0.063,0.012 0.066,0.011 0.129,0.028 0.258,0.05 0.519,0.098 1.035,0.203 0.071,0.016 0.07,0.012 0.137,0.027 0.843,0.164 0.071,0.016 0.07,0.011 0.137,0.028 0.844,0.164 0.07,0.015 0.07,0.012 0.141,0.027 0.277,0.055 0.07,0.016 0.071,0.011 0.422,0.082 0.07,0.016 0.07,0.012 0.071,0.015 0.07,0.012 0.07,0.016 0.067,0.012 0.07,0.015 0.07,-46.726 0.071,-0.032 0.07,-0.027 0.14,-0.063 0.282,-0.121 0.066,-0.027 0.07,-0.031 0.137,-0.059 0.277,-0.121 0.551,-0.234 1.102,-0.477 2.199,-0.949 4.109,-1.77 0.071,-0.027 0.066,-0.031 0.141,-0.059 0.277,-0.121 0.559,-0.242 1.113,-0.477 0.07,-0.031 0.067,-0.031 0.14,-0.059 0.278,-0.121 0.558,-0.238 1.114,-0.481 0.066,-0.027 0.062,-0.027 0.133,-0.059 0.258,-0.109 0.52,-0.227 0.066,-0.027 0.062,-0.027 0.133,-0.055 0.258,-0.113 0.52,-0.223 0.066,-0.031 0.063,-0.028 0.132,-0.054 0.258,-0.114 0.133,-0.054 0.129,-0.055 0.258,-0.113 0.133,-0.055 0.128,-0.059 0.067,-0.027 0.062,-0.027 0.129,-0.055 0.067,-0.031 0.066,-0.028 0.063,-0.027 0.066,-0.027 0.066,72.957 0.063,0.023 0.066,0.024 0.063,0.023 0.066,0.024 0.063,0.023 0.129,0.047 0.761,0.281 1.02,0.371 2.039,0.746 4.422,1.621 4.129,1.508 0.07,0.028 0.074,0.027 0.145,0.051 0.285,0.105 0.578,0.211 1.152,0.422 0.141,0.055 0.145,0.05 0.289,0.106 0.574,0.211 0.074,0.027 0.07,0.024 0.145,0.054 0.289,0.106 0.07,0.027 0.074,0.024 0.145,0.054 0.07,0.028 0.071,0.023 0.074,0.027 0.07,0.028"
         style="fill:none;stroke:#8778b3;stroke-width:1.152;stroke-linecap:square;stroke-linejoin:miter;stroke-miterlimit:3.25;stroke-dasharray:none;stroke-opacity:1"
         id="path20" /><path
         d="m 4.551,23.359 0.062,0.036 0.067,0.035 0.129,0.07 0.253,0.141 0.516,0.281 1.031,0.566 2.059,1.129 4.461,2.453 4.168,2.285 0.062,0.036 0.067,0.035 0.125,0.07 0.258,0.141 0.507,0.281 1.024,0.559 0.062,0.035 0.067,0.035 0.125,0.07 0.258,0.141 0.507,0.281 0.067,0.035 0.062,0.035 0.129,0.071 0.254,0.14 0.512,0.278 0.07,0.039 0.067,0.039 0.14,0.074 0.07,0.039 0.067,0.039 0.07,0.035 0.071,0.039 0.066,0.039 0.07,101.133 0.071,-0.043 0.07,-0.047 0.066,-0.043 0.071,-0.046 0.14,-0.09 0.067,-0.043 0.07,-0.047 0.137,-0.09 0.277,-0.176 0.555,-0.359 0.07,-0.043 0.07,-0.047 0.137,-0.09 0.277,-0.18 0.555,-0.355 1.105,-0.719 0.067,-0.039 0.066,-0.043 0.129,-0.082 0.774,-0.504 1.035,-0.668 2.066,-1.336 4.485,-2.898 0.066,-0.043 0.07,-0.047 0.137,-0.086 0.277,-0.18 0.547,-0.355 1.102,-0.711 0.07,-0.043 0.067,-0.047 0.14,-0.086 0.274,-0.179 0.55,-0.356 0.067,-0.043 0.07,-0.047 0.137,-0.086 0.277,-0.179 0.547,-0.356 0.066,-0.043 0.063,-0.039 0.129,-0.082 0.066,-0.043 0.063,-0.043 0.129,-0.082 0.062,-0.039 0.067,-0.043 0.062,-62.726 0.063,0.015 0.066,0.02 0.062,0.019 0.129,0.039 0.067,0.016 0.062,0.019 0.129,0.04 0.254,0.074 0.516,0.152 0.062,0.016 0.067,0.019 0.129,0.039 0.253,0.075 0.516,0.148 1.024,0.301 0.07,0.023 0.07,0.02 0.137,0.039 0.281,0.082 0.555,0.164 1.113,0.324 2.227,0.652 4.156,1.219 0.062,0.016 0.063,0.019 0.129,0.039 0.761,0.223 1.02,0.297 0.063,0.019 0.066,0.02 0.125,0.035 0.254,0.074 0.512,0.153 1.015,0.297 0.141,0.039 0.137,0.043 0.277,0.078 0.07,0.023 0.067,0.02 0.14,0.039 0.067,0.019 0.07,0.02 0.137,0.043 0.14,0.039 0.067,0.019 0.07,46.266 0.07,-0.043 0.067,-0.043 0.14,-0.09 0.067,-0.043 0.07,-0.043 0.137,-0.09 0.277,-0.175 0.07,-0.043 0.071,-0.047 0.136,-0.086 0.278,-0.176 0.551,-0.355 1.105,-0.703 0.063,-0.043 0.066,-0.039 0.129,-0.083 0.258,-0.167 1.547,-0.985 2.062,-1.32 4.469,-2.852 0.07,-0.047 0.067,-0.043 0.136,-0.086 0.278,-0.175 0.546,-0.352 1.098,-0.699 0.07,-0.043 0.067,-0.047 0.137,-0.086 0.273,-0.176 0.551,-0.351 1.097,-0.699 0.063,-0.039 0.062,-0.043 0.387,-0.247 0.125,-0.078 0.387,-0.246 0.062,-0.043 0.063,-0.039 0.066,-0.043 0.063,-0.039 0.066,-0.039 0.063,-0.043 0.062,-14.473 0.067,-0.011 0.125,-0.024 0.128,-0.023 0.258,-0.051 0.125,-0.023 0.387,-0.071 1.535,-0.293 0.067,-0.011 0.07,-0.012 0.141,-0.027 0.277,-0.051 1.664,-0.317 2.219,-0.418 4.144,-0.781 4.489,-0.844 4.41,-0.832 4.109,-0.773 4.461,-0.844 4.16,-0.781 4.082,-0.77 4.43,-0.836 4.129,-0.777 4.48,-0.844 4.395,-0.832 4.101,-0.769 4.446,-0.84 0.066,-0.012 0.063,-0.011 0.128,-0.024 0.262,-0.051 0.52,-0.097 1.035,-0.196 0.133,-0.023 0.129,-0.027 0.257,-0.047 1.559,-0.293 0.125,-0.024 0.129,-0.027 0.762,-0.141 0.062,-0.011 0.067,-0.012 0.124,-0.027 0.762,-0.141 0.067,-0.012 0.062,-0.015 0.129,-0.024 0.125,-0.023 0.129,-0.024 0.125,-0.023 0.066,-0.012 0.063,-0.012 0.062,-17.05 0.063,-0.039 0.066,-0.04 0.063,-0.042 0.125,-0.079 0.129,-0.082 0.254,-0.164 0.507,-0.324 0.071,-0.043 0.07,-0.047 0.137,-0.086 0.277,-0.175 0.551,-0.352 1.101,-0.707 2.211,-1.41 4.118,-2.629 0.07,-0.047 0.07,-0.043 0.141,-0.09 0.277,-0.18 1.676,-1.066 0.07,-0.047 0.071,-0.043 0.136,-0.09 0.282,-0.179 1.675,-1.067 0.063,-0.043 0.066,-0.043 0.129,-0.082 0.262,-0.168 0.519,-0.332 0.067,-0.043 0.066,-0.039 0.129,-0.086 0.262,-0.164 0.519,-0.332 0.133,-0.086 0.129,-0.082 0.262,-0.168 0.062,-0.039 0.067,-0.043 0.132,-0.082 0.063,-0.043 0.066,-0.039 0.067,-0.043 0.062,-0.043 0.067,-0.039 0.066,51.387 0.063,0.02 0.132,0.039 0.063,0.019 0.133,0.039 0.062,0.02 0.067,0.015 0.129,0.039 0.261,0.079 0.067,0.019 0.062,0.016 0.129,0.039 0.254,0.074 0.512,0.148 1.019,0.301 2.047,0.598 4.434,1.301 0.066,0.015 0.063,0.02 0.128,0.039 0.262,0.074 0.516,0.152 1.035,0.305 0.063,0.02 0.066,0.015 0.387,0.117 0.519,0.149 1.035,0.305 0.141,0.039 0.137,0.043 0.843,0.246 0.141,0.039 0.137,0.043 0.844,0.246 0.14,0.039 0.141,0.043 0.277,0.082 0.141,0.039 0.14,0.043 0.282,0.082 0.07,0.019 0.07,0.024 0.211,0.058 0.067,0.024 0.07,0.019 0.07,-68.617 0.071,-0.047 0.07,-0.043 0.14,-0.093 0.282,-0.18 0.066,-0.043 0.07,-0.047 0.137,-0.086 0.277,-0.179 1.653,-1.067 2.199,-1.426 4.109,-2.652 0.071,-0.047 0.066,-0.043 0.141,-0.09 0.277,-0.179 0.559,-0.364 1.113,-0.718 0.07,-0.043 0.067,-0.047 0.14,-0.09 0.278,-0.18 0.558,-0.359 1.114,-0.719 0.066,-0.043 0.062,-0.043 0.133,-0.082 0.258,-0.168 0.52,-0.336 0.066,-0.043 0.062,-0.043 0.133,-0.082 0.258,-0.168 0.52,-0.336 0.066,-0.043 0.063,-0.043 0.132,-0.082 0.258,-0.168 0.133,-0.086 0.129,-0.082 0.258,-0.168 0.133,-0.086 0.128,-0.082 0.067,-0.042 0.062,-0.043 0.129,-0.083 0.133,-0.085 0.063,-0.043 0.066,-0.039 0.066,107.781 0.063,0.035 0.066,0.035 0.063,0.039 0.066,0.031 0.063,0.036 0.129,0.07 0.761,0.422 3.059,1.676 4.422,2.429 4.129,2.266 0.07,0.039 0.074,0.039 0.145,0.078 0.285,0.16 0.578,0.317 1.152,0.632 0.141,0.079 0.145,0.078 0.289,0.16 0.574,0.312 0.074,0.043 0.07,0.039 0.434,0.235 0.07,0.043 0.074,0.039 0.145,0.078 0.141,0.078 0.074,0.039 0.07,0.039"
         style="fill:none;stroke:#c56e1a;stroke-width:1.152;stroke-linecap:square;stroke-linejoin:miter;stroke-miterlimit:3.25;stroke-dasharray:none;stroke-opacity:1"
         id="path22" /><path
         d="m 218.48,82.844 h 2.68 l 0.078,-0.008 0.09,-0.008 0.098,-0.019 0.109,-0.024 0.121,-0.035 0.133,-0.051 0.149,-0.058 0.164,-0.079 0.179,-0.089 0.199,-0.114 0.215,-0.132 0.235,-0.153 0.254,-0.176 0.273,-0.203 0.297,-0.23 0.32,-0.258 0.344,-0.289 0.371,-0.316 0.387,-0.344 0.406,-0.367 0.422,-0.387 0.437,-0.402 0.446,-0.414 0.457,-0.426 0.461,-0.43 0.468,-0.43 0.465,-0.433 0.469,-0.426 0.465,-0.422 0.457,-0.406 0.449,-0.395 0.438,-0.379 0.425,-0.355 0.411,-0.328 0.39,-0.305 0.375,-0.273 0.352,-0.242 0.336,-0.219 0.32,-0.188 0.305,-0.168 0.293,-0.14 0.281,-0.121 0.266,-0.102 0.261,-0.086 0.25,-0.066 0.246,-0.055 0.243,-0.043 0.234,-0.027 0.234,-0.024 0.235,-0.011 0.234,-0.008 0.234,-0.004 h 3.661"
         style="fill:none;stroke:#ffffff;stroke-width:2.88;stroke-linecap:butt;stroke-linejoin:round;stroke-miterlimit:3.25;stroke-dasharray:none;stroke-opacity:0.666667"
         id="path24" /><path
         d="m 218.48,82.844 h 2.68 l 0.078,-0.008 0.09,-0.008 0.098,-0.019 0.109,-0.024 0.121,-0.035 0.133,-0.051 0.149,-0.058 0.164,-0.079 0.179,-0.089 0.199,-0.114 0.215,-0.132 0.235,-0.153 0.254,-0.176 0.273,-0.203 0.297,-0.23 0.32,-0.258 0.344,-0.289 0.371,-0.316 0.387,-0.344 0.406,-0.367 0.422,-0.387 0.437,-0.402 0.446,-0.414 0.457,-0.426 0.461,-0.43 0.468,-0.43 0.465,-0.433 0.469,-0.426 0.465,-0.422 0.457,-0.406 0.449,-0.395 0.438,-0.379 0.425,-0.355 0.411,-0.328 0.39,-0.305 0.375,-0.273 0.352,-0.242 0.336,-0.219 0.32,-0.188 0.305,-0.168 0.293,-0.14 0.281,-0.121 0.266,-0.102 0.261,-0.086 0.25,-0.066 0.246,-0.055 0.243,-0.043 0.234,-0.027 0.234,-0.024 0.235,-0.011 0.234,-0.008 0.234,-0.004 h 3.661"
         style="fill:none;stroke:#aaaaaa;stroke-width:0.9;stroke-linecap:square;stroke-linejoin:miter;stroke-miterlimit:3.25;stroke-dasharray:none;stroke-opacity:1"
         id="path26" /><path
         d="m 240.602,67.492 h 7.922 v 9.363 h -7.922 z"
         style="fill:#ffffff;fill-opacity:0.666667;fill-rule:nonzero;stroke:none"
         id="path28" /><path
         d="m 240.602,67.492 h 7.922 v 9.363 h -7.922 z"
         style="fill:none;stroke:#ffffff;stroke-width:0.9;stroke-linecap:square;stroke-linejoin:miter;stroke-miterlimit:3.25;stroke-dasharray:none;stroke-opacity:0.666667"
         id="path30" /><text
         transform="translate(242.76027,74.420612)"
         style="font-variant:normal;font-weight:normal;font-size:6.48px;font-family:Arial;-inkscape-font-specification:ArialMT;writing-mode:lr-tb;fill:#000000;fill-opacity:1;fill-rule:nonzero;stroke:none"
         id="text34"><tspan
           x="0"
           y="0"
           id="tspan32">1</tspan></text><path
         d="m 218.48,84.766 h 2.629 l 0.086,-0.004 h 0.223 l 0.137,-0.004 0.152,-0.004 0.176,-0.008 0.195,-0.008 0.223,-0.011 0.246,-0.012 0.277,-0.016 0.305,-0.019 0.34,-0.024 0.371,-0.027 0.406,-0.031 0.442,-0.036 0.476,-0.039 0.5,-0.043 0.527,-0.046 0.547,-0.047 0.559,-0.047 0.57,-0.051 0.578,-0.051 0.575,-0.047 0.574,-0.05 0.562,-0.047 0.555,-0.043 0.535,-0.043 0.512,-0.039 0.484,-0.035 0.457,-0.032 0.43,-0.027 0.402,-0.023 0.379,-0.02 0.36,-0.016 0.339,-0.015 0.329,-0.012 0.312,-0.008 0.305,-0.004 0.293,-0.004 0.578,-0.007 h 4.176"
         style="fill:none;stroke:#ffffff;stroke-width:2.88;stroke-linecap:butt;stroke-linejoin:round;stroke-miterlimit:3.25;stroke-dasharray:none;stroke-opacity:0.666667"
         id="path36" /><path
         d="m 218.48,84.766 h 2.629 l 0.086,-0.004 h 0.223 l 0.137,-0.004 0.152,-0.004 0.176,-0.008 0.195,-0.008 0.223,-0.011 0.246,-0.012 0.277,-0.016 0.305,-0.019 0.34,-0.024 0.371,-0.027 0.406,-0.031 0.442,-0.036 0.476,-0.039 0.5,-0.043 0.527,-0.046 0.547,-0.047 0.559,-0.047 0.57,-0.051 0.578,-0.051 0.575,-0.047 0.574,-0.05 0.562,-0.047 0.555,-0.043 0.535,-0.043 0.512,-0.039 0.484,-0.035 0.457,-0.032 0.43,-0.027 0.402,-0.023 0.379,-0.02 0.36,-0.016 0.339,-0.015 0.329,-0.012 0.312,-0.008 0.305,-0.004 0.293,-0.004 0.578,-0.007 h 4.176"
         style="fill:none;stroke:#aaaaaa;stroke-width:0.9;stroke-linecap:square;stroke-linejoin:miter;stroke-miterlimit:3.25;stroke-dasharray:none;stroke-opacity:1"
         id="path38" /><path
         d="m 240.602,79.086 h 7.922 v 9.359 h -7.922 z"
         style="fill:#ffffff;fill-opacity:0.666667;fill-rule:nonzero;stroke:none"
         id="path40" /><path
         d="m 240.602,79.086 h 7.922 v 9.359 h -7.922 z"
         style="fill:none;stroke:#ffffff;stroke-width:0.9;stroke-linecap:square;stroke-linejoin:miter;stroke-miterlimit:3.25;stroke-dasharray:none;stroke-opacity:0.666667"
         id="path42" /><text
         transform="translate(242.76027,86.011953)"
         style="font-variant:normal;font-weight:normal;font-size:6.48px;font-family:Arial;-inkscape-font-specification:ArialMT;writing-mode:lr-tb;fill:#000000;fill-opacity:1;fill-rule:nonzero;stroke:none"
         id="text46"><tspan
           x="0"
           y="0"
           id="tspan44">2</tspan></text><path
         d="m 218.48,90.52 h 2.629 l 0.086,0.003 0.106,0.004 0.117,0.008 0.137,0.016 0.152,0.019 0.176,0.032 0.195,0.043 0.223,0.05 0.246,0.063 0.277,0.082 0.305,0.094 0.34,0.113 0.371,0.129 0.406,0.152 0.442,0.172 0.476,0.188 0.5,0.207 0.527,0.218 0.547,0.227 0.559,0.238 0.57,0.238 0.578,0.243 0.575,0.242 0.574,0.234 0.562,0.231 0.555,0.218 0.535,0.204 0.512,0.191 0.484,0.172 0.457,0.152 0.43,0.129 0.402,0.113 0.379,0.094 0.36,0.078 0.339,0.067 0.329,0.05 0.312,0.039 0.305,0.032 0.293,0.023 0.578,0.024 0.289,0.003 h 3.887"
         style="fill:none;stroke:#ffffff;stroke-width:2.88;stroke-linecap:butt;stroke-linejoin:round;stroke-miterlimit:3.25;stroke-dasharray:none;stroke-opacity:0.666667"
         id="path48" /><path
         d="m 218.48,90.52 h 2.629 l 0.086,0.003 0.106,0.004 0.117,0.008 0.137,0.016 0.152,0.019 0.176,0.032 0.195,0.043 0.223,0.05 0.246,0.063 0.277,0.082 0.305,0.094 0.34,0.113 0.371,0.129 0.406,0.152 0.442,0.172 0.476,0.188 0.5,0.207 0.527,0.218 0.547,0.227 0.559,0.238 0.57,0.238 0.578,0.243 0.575,0.242 0.574,0.234 0.562,0.231 0.555,0.218 0.535,0.204 0.512,0.191 0.484,0.172 0.457,0.152 0.43,0.129 0.402,0.113 0.379,0.094 0.36,0.078 0.339,0.067 0.329,0.05 0.312,0.039 0.305,0.032 0.293,0.023 0.578,0.024 0.289,0.003 h 3.887"
         style="fill:none;stroke:#aaaaaa;stroke-width:0.9;stroke-linecap:square;stroke-linejoin:miter;stroke-miterlimit:3.25;stroke-dasharray:none;stroke-opacity:1"
         id="path50" /><path
         d="m 240.602,90.676 h 7.922 v 9.359 h -7.922 z"
         style="fill:#ffffff;fill-opacity:0.666667;fill-rule:nonzero;stroke:none"
         id="path52" /><path
         d="m 240.602,90.676 h 7.922 v 9.359 h -7.922 z"
         style="fill:none;stroke:#ffffff;stroke-width:0.9;stroke-linecap:square;stroke-linejoin:miter;stroke-miterlimit:3.25;stroke-dasharray:none;stroke-opacity:0.666667"
         id="path54" /><text
         transform="translate(242.76027,97.603294)"
         style="font-variant:normal;font-weight:normal;font-size:6.48px;font-family:Arial;-inkscape-font-specification:ArialMT;writing-mode:lr-tb;fill:#000000;fill-opacity:1;fill-rule:nonzero;stroke:none"
         id="text58"><tspan
           x="0"
           y="0"
           id="tspan56">5</tspan></text><path
         d="m 218.48,100.113 h 2.571 l 0.074,0.004 h 0.078 l 0.094,0.008 0.105,0.008 0.118,0.019 0.128,0.024 0.149,0.035 0.168,0.043 0.183,0.055 0.204,0.07 0.222,0.082 0.246,0.101 0.274,0.118 0.293,0.136 0.324,0.161 0.348,0.179 0.379,0.203 0.406,0.223 0.429,0.246 0.454,0.262 0.472,0.277 0.485,0.289 0.496,0.297 0.508,0.301 0.511,0.305 0.512,0.3 0.516,0.301 0.507,0.297 0.5,0.285 0.493,0.274 0.476,0.261 0.461,0.243 0.438,0.222 0.418,0.196 0.39,0.175 0.371,0.157 0.356,0.132 0.332,0.118 0.32,0.097 0.301,0.078 0.293,0.071 0.281,0.05 0.274,0.043 0.265,0.032 0.262,0.023 0.258,0.016 0.254,0.011 0.257,0.004 0.262,0.004 h 3.606"
         style="fill:none;stroke:#ffffff;stroke-width:2.88;stroke-linecap:butt;stroke-linejoin:round;stroke-miterlimit:3.25;stroke-dasharray:none;stroke-opacity:0.666667"
         id="path60" /><path
         d="m 218.48,100.113 h 2.571 l 0.074,0.004 h 0.078 l 0.094,0.008 0.105,0.008 0.118,0.019 0.128,0.024 0.149,0.035 0.168,0.043 0.183,0.055 0.204,0.07 0.222,0.082 0.246,0.101 0.274,0.118 0.293,0.136 0.324,0.161 0.348,0.179 0.379,0.203 0.406,0.223 0.429,0.246 0.454,0.262 0.472,0.277 0.485,0.289 0.496,0.297 0.508,0.301 0.511,0.305 0.512,0.3 0.516,0.301 0.507,0.297 0.5,0.285 0.493,0.274 0.476,0.261 0.461,0.243 0.438,0.222 0.418,0.196 0.39,0.175 0.371,0.157 0.356,0.132 0.332,0.118 0.32,0.097 0.301,0.078 0.293,0.071 0.281,0.05 0.274,0.043 0.265,0.032 0.262,0.023 0.258,0.016 0.254,0.011 0.257,0.004 0.262,0.004 h 3.606"
         style="fill:none;stroke:#aaaaaa;stroke-width:0.9;stroke-linecap:square;stroke-linejoin:miter;stroke-miterlimit:3.25;stroke-dasharray:none;stroke-opacity:1"
         id="path62" /><path
         d="m 240.602,102.27 h 12.242 v 9.359 h -12.242 z"
         style="fill:#ffffff;fill-opacity:0.666667;fill-rule:nonzero;stroke:none"
         id="path64" /><path
         d="m 240.602,102.27 h 12.242 v 9.359 h -12.242 z"
         style="fill:none;stroke:#ffffff;stroke-width:0.9;stroke-linecap:square;stroke-linejoin:miter;stroke-miterlimit:3.25;stroke-dasharray:none;stroke-opacity:0.666667"
         id="path66" /><text
         transform="translate(243.11833,109.19464)"
         style="font-variant:normal;font-weight:normal;font-size:6.48px;font-family:Arial;-inkscape-font-specification:ArialMT;writing-mode:lr-tb;fill:#000000;fill-opacity:1;fill-rule:nonzero;stroke:none"
         id="text70"><tspan
           x="0 3.60288"
           y="0"
           sodipodi:role="line"
           id="tspan68">10</tspan></text><path
         d="m 218.48,119.305 h 22.122"
         style="fill:none;stroke:#ffffff;stroke-width:2.88;stroke-linecap:butt;stroke-linejoin:round;stroke-miterlimit:3.25;stroke-dasharray:none;stroke-opacity:0.666667"
         id="path72" /><path
         d="m 218.48,119.305 h 22.122"
         style="fill:none;stroke:#aaaaaa;stroke-width:0.9;stroke-linecap:square;stroke-linejoin:miter;stroke-miterlimit:3.25;stroke-dasharray:none;stroke-opacity:1"
         id="path74" /><path
         d="m 240.602,114.625 h 12.242 v 9.359 h -12.242 z"
         style="fill:#ffffff;fill-opacity:0.666667;fill-rule:nonzero;stroke:none"
         id="path76" /><path
         d="m 240.602,114.625 h 12.242 v 9.359 h -12.242 z"
         style="fill:none;stroke:#ffffff;stroke-width:0.9;stroke-linecap:square;stroke-linejoin:miter;stroke-miterlimit:3.25;stroke-dasharray:none;stroke-opacity:0.666667"
         id="path78" /><text
         transform="translate(243.11833,121.55079)"
         style="font-variant:normal;font-weight:normal;font-size:6.48px;font-family:Arial;-inkscape-font-specification:ArialMT;writing-mode:lr-tb;fill:#000000;fill-opacity:1;fill-rule:nonzero;stroke:none"
         id="text82"><tspan
           x="0 3.60288"
           y="0"
           sodipodi:role="line"
           id="tspan80">20</tspan></text><path
         d="m 218.48,138.492 h 22.122"
         style="fill:none;stroke:#ffffff;stroke-width:2.88;stroke-linecap:butt;stroke-linejoin:round;stroke-miterlimit:3.25;stroke-dasharray:none;stroke-opacity:0.666667"
         id="path84" /><path
         d="m 218.48,138.492 h 22.122"
         style="fill:none;stroke:#aaaaaa;stroke-width:0.9;stroke-linecap:square;stroke-linejoin:miter;stroke-miterlimit:3.25;stroke-dasharray:none;stroke-opacity:1"
         id="path86" /><path
         d="m 240.602,133.812 h 12.242 v 9.359 h -12.242 z"
         style="fill:#ffffff;fill-opacity:0.666667;fill-rule:nonzero;stroke:none"
         id="path88" /><path
         d="m 240.602,133.812 h 12.242 v 9.359 h -12.242 z"
         style="fill:none;stroke:#ffffff;stroke-width:0.9;stroke-linecap:square;stroke-linejoin:miter;stroke-miterlimit:3.25;stroke-dasharray:none;stroke-opacity:0.666667"
         id="path90" /><text
         transform="translate(243.11833,140.73993)"
         style="font-variant:normal;font-weight:normal;font-size:6.48px;font-family:Arial;-inkscape-font-specification:ArialMT;writing-mode:lr-tb;fill:#000000;fill-opacity:1;fill-rule:nonzero;stroke:none"
         id="text94"><tspan
           x="0 3.60288"
           y="0"
           sodipodi:role="line"
           id="tspan92">30</tspan></text><path
         d="M 4.551,79.273 V 77.719"
         style="fill:none;stroke:#000000;stroke-width:0.36;stroke-linecap:butt;stroke-linejoin:miter;stroke-miterlimit:3.25;stroke-dasharray:none;stroke-opacity:1"
         id="path96" /><path
         d="M 13.289,79.273 V 77.719"
         style="fill:none;stroke:#000000;stroke-width:0.36;stroke-linecap:butt;stroke-linejoin:miter;stroke-miterlimit:3.25;stroke-dasharray:none;stroke-opacity:1"
         id="path98" /><path
         d="M 22.027,79.273 V 76.684"
         style="fill:none;stroke:#000000;stroke-width:0.36;stroke-linecap:butt;stroke-linejoin:miter;stroke-miterlimit:3.25;stroke-dasharray:none;stroke-opacity:1"
         id="path100" /><text
         transform="translate(15.631401,87.298815)"
         style="font-variant:normal;font-weight:normal;font-size:6.48px;font-family:MathematicaSans;-inkscape-font-specification:MathematicaSans;writing-mode:lr-tb;fill:#000000;fill-opacity:1;fill-rule:nonzero;stroke:none"
         id="text104"><tspan
           x="0"
           y="0"
           id="tspan102">-</tspan></text><text
         transform="translate(19.409241,87.298815)"
         style="font-variant:normal;font-weight:normal;font-size:6.48px;font-family:Arial;-inkscape-font-specification:ArialMT;writing-mode:lr-tb;fill:#000000;fill-opacity:1;fill-rule:nonzero;stroke:none"
         id="text108"><tspan
           x="0 3.60288 5.39784"
           y="0"
           sodipodi:role="line"
           id="tspan106">1.0</tspan></text><path
         d="M 30.766,79.273 V 77.719"
         style="fill:none;stroke:#000000;stroke-width:0.36;stroke-linecap:butt;stroke-linejoin:miter;stroke-miterlimit:3.25;stroke-dasharray:none;stroke-opacity:1"
         id="path110" /><path
         d="M 39.504,79.273 V 77.719"
         style="fill:none;stroke:#000000;stroke-width:0.36;stroke-linecap:butt;stroke-linejoin:miter;stroke-miterlimit:3.25;stroke-dasharray:none;stroke-opacity:1"
         id="path112" /><path
         d="M 48.246,79.273 V 77.719"
         style="fill:none;stroke:#000000;stroke-width:0.36;stroke-linecap:butt;stroke-linejoin:miter;stroke-miterlimit:3.25;stroke-dasharray:none;stroke-opacity:1"
         id="path114" /><path
         d="M 56.984,79.273 V 77.719"
         style="fill:none;stroke:#000000;stroke-width:0.36;stroke-linecap:butt;stroke-linejoin:miter;stroke-miterlimit:3.25;stroke-dasharray:none;stroke-opacity:1"
         id="path116" /><path
         d="M 65.723,79.273 V 76.684"
         style="fill:none;stroke:#000000;stroke-width:0.36;stroke-linecap:butt;stroke-linejoin:miter;stroke-miterlimit:3.25;stroke-dasharray:none;stroke-opacity:1"
         id="path118" /><text
         transform="translate(59.326508,87.298815)"
         style="font-variant:normal;font-weight:normal;font-size:6.48px;font-family:MathematicaSans;-inkscape-font-specification:MathematicaSans;writing-mode:lr-tb;fill:#000000;fill-opacity:1;fill-rule:nonzero;stroke:none"
         id="text122"><tspan
           x="0"
           y="0"
           id="tspan120">-</tspan></text><text
         transform="translate(63.104348,87.298815)"
         style="font-variant:normal;font-weight:normal;font-size:6.48px;font-family:Arial;-inkscape-font-specification:ArialMT;writing-mode:lr-tb;fill:#000000;fill-opacity:1;fill-rule:nonzero;stroke:none"
         id="text126"><tspan
           x="0 3.60288 5.39784"
           y="0"
           sodipodi:role="line"
           id="tspan124">0.5</tspan></text><path
         d="M 74.461,79.273 V 77.719"
         style="fill:none;stroke:#000000;stroke-width:0.36;stroke-linecap:butt;stroke-linejoin:miter;stroke-miterlimit:3.25;stroke-dasharray:none;stroke-opacity:1"
         id="path128" /><path
         d="M 83.199,79.273 V 77.719"
         style="fill:none;stroke:#000000;stroke-width:0.36;stroke-linecap:butt;stroke-linejoin:miter;stroke-miterlimit:3.25;stroke-dasharray:none;stroke-opacity:1"
         id="path130" /><path
         d="M 91.941,79.273 V 77.719"
         style="fill:none;stroke:#000000;stroke-width:0.36;stroke-linecap:butt;stroke-linejoin:miter;stroke-miterlimit:3.25;stroke-dasharray:none;stroke-opacity:1"
         id="path132" /><path
         d="M 100.68,79.273 V 77.719"
         style="fill:none;stroke:#000000;stroke-width:0.36;stroke-linecap:butt;stroke-linejoin:miter;stroke-miterlimit:3.25;stroke-dasharray:none;stroke-opacity:1"
         id="path134" /><path
         d="M 109.418,79.273 V 76.684"
         style="fill:none;stroke:#000000;stroke-width:0.36;stroke-linecap:butt;stroke-linejoin:miter;stroke-miterlimit:3.25;stroke-dasharray:none;stroke-opacity:1"
         id="path136" /><path
         d="M 118.156,79.273 V 77.719"
         style="fill:none;stroke:#000000;stroke-width:0.36;stroke-linecap:butt;stroke-linejoin:miter;stroke-miterlimit:3.25;stroke-dasharray:none;stroke-opacity:1"
         id="path138" /><path
         d="M 126.895,79.273 V 77.719"
         style="fill:none;stroke:#000000;stroke-width:0.36;stroke-linecap:butt;stroke-linejoin:miter;stroke-miterlimit:3.25;stroke-dasharray:none;stroke-opacity:1"
         id="path140" /><path
         d="M 135.637,79.273 V 77.719"
         style="fill:none;stroke:#000000;stroke-width:0.36;stroke-linecap:butt;stroke-linejoin:miter;stroke-miterlimit:3.25;stroke-dasharray:none;stroke-opacity:1"
         id="path142" /><path
         d="M 144.375,79.273 V 77.719"
         style="fill:none;stroke:#000000;stroke-width:0.36;stroke-linecap:butt;stroke-linejoin:miter;stroke-miterlimit:3.25;stroke-dasharray:none;stroke-opacity:1"
         id="path144" /><path
         d="M 153.113,79.273 V 76.684"
         style="fill:none;stroke:#000000;stroke-width:0.36;stroke-linecap:butt;stroke-linejoin:miter;stroke-miterlimit:3.25;stroke-dasharray:none;stroke-opacity:1"
         id="path146" /><text
         transform="translate(148.60883,87.298815)"
         style="font-variant:normal;font-weight:normal;font-size:6.48px;font-family:Arial;-inkscape-font-specification:ArialMT;writing-mode:lr-tb;fill:#000000;fill-opacity:1;fill-rule:nonzero;stroke:none"
         id="text150"><tspan
           x="0 3.60288 5.39784"
           y="0"
           sodipodi:role="line"
           id="tspan148">0.5</tspan></text><path
         d="M 161.852,79.273 V 77.719"
         style="fill:none;stroke:#000000;stroke-width:0.36;stroke-linecap:butt;stroke-linejoin:miter;stroke-miterlimit:3.25;stroke-dasharray:none;stroke-opacity:1"
         id="path152" /><path
         d="M 170.59,79.273 V 77.719"
         style="fill:none;stroke:#000000;stroke-width:0.36;stroke-linecap:butt;stroke-linejoin:miter;stroke-miterlimit:3.25;stroke-dasharray:none;stroke-opacity:1"
         id="path154" /><path
         d="M 179.328,79.273 V 77.719"
         style="fill:none;stroke:#000000;stroke-width:0.36;stroke-linecap:butt;stroke-linejoin:miter;stroke-miterlimit:3.25;stroke-dasharray:none;stroke-opacity:1"
         id="path156" /><path
         d="M 188.07,79.273 V 77.719"
         style="fill:none;stroke:#000000;stroke-width:0.36;stroke-linecap:butt;stroke-linejoin:miter;stroke-miterlimit:3.25;stroke-dasharray:none;stroke-opacity:1"
         id="path158" /><path
         d="M 196.809,79.273 V 76.684"
         style="fill:none;stroke:#000000;stroke-width:0.36;stroke-linecap:butt;stroke-linejoin:miter;stroke-miterlimit:3.25;stroke-dasharray:none;stroke-opacity:1"
         id="path160" /><text
         transform="translate(192.30394,87.298815)"
         style="font-variant:normal;font-weight:normal;font-size:6.48px;font-family:Arial;-inkscape-font-specification:ArialMT;writing-mode:lr-tb;fill:#000000;fill-opacity:1;fill-rule:nonzero;stroke:none"
         id="text164"><tspan
           x="0 3.60288 5.39784"
           y="0"
           sodipodi:role="line"
           id="tspan162">1.0</tspan></text><path
         d="M 205.547,79.273 V 77.719"
         style="fill:none;stroke:#000000;stroke-width:0.36;stroke-linecap:butt;stroke-linejoin:miter;stroke-miterlimit:3.25;stroke-dasharray:none;stroke-opacity:1"
         id="path166" /><path
         d="M 214.285,79.273 V 77.719"
         style="fill:none;stroke:#000000;stroke-width:0.36;stroke-linecap:butt;stroke-linejoin:miter;stroke-miterlimit:3.25;stroke-dasharray:none;stroke-opacity:1"
         id="path168" /><path
         d="M 0.18,79.273 H 218.656"
         style="fill:none;stroke:#000000;stroke-width:0.36;stroke-linecap:butt;stroke-linejoin:miter;stroke-miterlimit:3.25;stroke-dasharray:none;stroke-opacity:1"
         id="path170" /><path
         d="m 109.418,143.645 h 2.59"
         style="fill:none;stroke:#000000;stroke-width:0.36;stroke-linecap:butt;stroke-linejoin:miter;stroke-miterlimit:3.25;stroke-dasharray:none;stroke-opacity:1"
         id="path172" /><text
         transform="translate(92.661947,145.8901)"
         style="font-variant:normal;font-weight:normal;font-size:6.48px;font-family:MathematicaSans;-inkscape-font-specification:MathematicaSans;writing-mode:lr-tb;fill:#000000;fill-opacity:1;fill-rule:nonzero;stroke:none"
         id="text176"><tspan
           x="0"
           y="0"
           id="tspan174">-</tspan></text><text
         transform="translate(96.439787,145.8901)"
         style="font-variant:normal;font-weight:normal;font-size:6.48px;font-family:Arial;-inkscape-font-specification:ArialMT;writing-mode:lr-tb;fill:#000000;fill-opacity:1;fill-rule:nonzero;stroke:none"
         id="text180"><tspan
           x="0 3.60288 7.20576"
           y="0"
           sodipodi:role="line"
           id="tspan178">150</tspan></text><path
         d="m 109.418,139.352 h 1.555"
         style="fill:none;stroke:#000000;stroke-width:0.36;stroke-linecap:butt;stroke-linejoin:miter;stroke-miterlimit:3.25;stroke-dasharray:none;stroke-opacity:1"
         id="path182" /><path
         d="m 109.418,135.062 h 1.555"
         style="fill:none;stroke:#000000;stroke-width:0.36;stroke-linecap:butt;stroke-linejoin:miter;stroke-miterlimit:3.25;stroke-dasharray:none;stroke-opacity:1"
         id="path184" /><path
         d="m 109.418,130.77 h 1.555"
         style="fill:none;stroke:#000000;stroke-width:0.36;stroke-linecap:butt;stroke-linejoin:miter;stroke-miterlimit:3.25;stroke-dasharray:none;stroke-opacity:1"
         id="path186" /><path
         d="m 109.418,126.477 h 1.555"
         style="fill:none;stroke:#000000;stroke-width:0.36;stroke-linecap:butt;stroke-linejoin:miter;stroke-miterlimit:3.25;stroke-dasharray:none;stroke-opacity:1"
         id="path188" /><path
         d="m 109.418,122.188 h 2.59"
         style="fill:none;stroke:#000000;stroke-width:0.36;stroke-linecap:butt;stroke-linejoin:miter;stroke-miterlimit:3.25;stroke-dasharray:none;stroke-opacity:1"
         id="path190" /><text
         transform="translate(92.661947,124.43311)"
         style="font-variant:normal;font-weight:normal;font-size:6.48px;font-family:MathematicaSans;-inkscape-font-specification:MathematicaSans;writing-mode:lr-tb;fill:#000000;fill-opacity:1;fill-rule:nonzero;stroke:none"
         id="text194"><tspan
           x="0"
           y="0"
           id="tspan192">-</tspan></text><text
         transform="translate(96.439787,124.43311)"
         style="font-variant:normal;font-weight:normal;font-size:6.48px;font-family:Arial;-inkscape-font-specification:ArialMT;writing-mode:lr-tb;fill:#000000;fill-opacity:1;fill-rule:nonzero;stroke:none"
         id="text198"><tspan
           x="0 3.60288 7.20576"
           y="0"
           sodipodi:role="line"
           id="tspan196">100</tspan></text><path
         d="m 109.418,117.895 h 1.555"
         style="fill:none;stroke:#000000;stroke-width:0.36;stroke-linecap:butt;stroke-linejoin:miter;stroke-miterlimit:3.25;stroke-dasharray:none;stroke-opacity:1"
         id="path200" /><path
         d="m 109.418,113.605 h 1.555"
         style="fill:none;stroke:#000000;stroke-width:0.36;stroke-linecap:butt;stroke-linejoin:miter;stroke-miterlimit:3.25;stroke-dasharray:none;stroke-opacity:1"
         id="path202" /><path
         d="m 109.418,109.312 h 1.555"
         style="fill:none;stroke:#000000;stroke-width:0.36;stroke-linecap:butt;stroke-linejoin:miter;stroke-miterlimit:3.25;stroke-dasharray:none;stroke-opacity:1"
         id="path204" /><path
         d="m 109.418,105.02 h 1.555"
         style="fill:none;stroke:#000000;stroke-width:0.36;stroke-linecap:butt;stroke-linejoin:miter;stroke-miterlimit:3.25;stroke-dasharray:none;stroke-opacity:1"
         id="path206" /><path
         d="m 109.418,100.73 h 2.59"
         style="fill:none;stroke:#000000;stroke-width:0.36;stroke-linecap:butt;stroke-linejoin:miter;stroke-miterlimit:3.25;stroke-dasharray:none;stroke-opacity:1"
         id="path208" /><text
         transform="translate(96.265815,102.97612)"
         style="font-variant:normal;font-weight:normal;font-size:6.48px;font-family:MathematicaSans;-inkscape-font-specification:MathematicaSans;writing-mode:lr-tb;fill:#000000;fill-opacity:1;fill-rule:nonzero;stroke:none"
         id="text212"><tspan
           x="0"
           y="0"
           id="tspan210">-</tspan></text><text
         transform="translate(100.04366,102.97612)"
         style="font-variant:normal;font-weight:normal;font-size:6.48px;font-family:Arial;-inkscape-font-specification:ArialMT;writing-mode:lr-tb;fill:#000000;fill-opacity:1;fill-rule:nonzero;stroke:none"
         id="text216"><tspan
           x="0 3.60288"
           y="0"
           sodipodi:role="line"
           id="tspan214">50</tspan></text><path
         d="m 109.418,96.438 h 1.555"
         style="fill:none;stroke:#000000;stroke-width:0.36;stroke-linecap:butt;stroke-linejoin:miter;stroke-miterlimit:3.25;stroke-dasharray:none;stroke-opacity:1"
         id="path218" /><path
         d="m 109.418,92.148 h 1.555"
         style="fill:none;stroke:#000000;stroke-width:0.36;stroke-linecap:butt;stroke-linejoin:miter;stroke-miterlimit:3.25;stroke-dasharray:none;stroke-opacity:1"
         id="path220" /><path
         d="m 109.418,87.855 h 1.555"
         style="fill:none;stroke:#000000;stroke-width:0.36;stroke-linecap:butt;stroke-linejoin:miter;stroke-miterlimit:3.25;stroke-dasharray:none;stroke-opacity:1"
         id="path222" /><path
         d="m 109.418,83.562 h 1.555"
         style="fill:none;stroke:#000000;stroke-width:0.36;stroke-linecap:butt;stroke-linejoin:miter;stroke-miterlimit:3.25;stroke-dasharray:none;stroke-opacity:1"
         id="path224" /><path
         d="m 109.418,79.273 h 2.59"
         style="fill:none;stroke:#000000;stroke-width:0.36;stroke-linecap:butt;stroke-linejoin:miter;stroke-miterlimit:3.25;stroke-dasharray:none;stroke-opacity:1"
         id="path226" /><path
         d="m 109.418,74.98 h 1.555"
         style="fill:none;stroke:#000000;stroke-width:0.36;stroke-linecap:butt;stroke-linejoin:miter;stroke-miterlimit:3.25;stroke-dasharray:none;stroke-opacity:1"
         id="path228" /><path
         d="m 109.418,70.691 h 1.555"
         style="fill:none;stroke:#000000;stroke-width:0.36;stroke-linecap:butt;stroke-linejoin:miter;stroke-miterlimit:3.25;stroke-dasharray:none;stroke-opacity:1"
         id="path230" /><path
         d="m 109.418,66.398 h 1.555"
         style="fill:none;stroke:#000000;stroke-width:0.36;stroke-linecap:butt;stroke-linejoin:miter;stroke-miterlimit:3.25;stroke-dasharray:none;stroke-opacity:1"
         id="path232" /><path
         d="m 109.418,62.105 h 1.555"
         style="fill:none;stroke:#000000;stroke-width:0.36;stroke-linecap:butt;stroke-linejoin:miter;stroke-miterlimit:3.25;stroke-dasharray:none;stroke-opacity:1"
         id="path234" /><path
         d="m 109.418,57.816 h 2.59"
         style="fill:none;stroke:#000000;stroke-width:0.36;stroke-linecap:butt;stroke-linejoin:miter;stroke-miterlimit:3.25;stroke-dasharray:none;stroke-opacity:1"
         id="path236" /><text
         transform="translate(100.05003,60.062137)"
         style="font-variant:normal;font-weight:normal;font-size:6.48px;font-family:Arial;-inkscape-font-specification:ArialMT;writing-mode:lr-tb;fill:#000000;fill-opacity:1;fill-rule:nonzero;stroke:none"
         id="text240"><tspan
           x="0 3.60288"
           y="0"
           sodipodi:role="line"
           id="tspan238">50</tspan></text><path
         d="m 109.418,53.523 h 1.555"
         style="fill:none;stroke:#000000;stroke-width:0.36;stroke-linecap:butt;stroke-linejoin:miter;stroke-miterlimit:3.25;stroke-dasharray:none;stroke-opacity:1"
         id="path242" /><path
         d="m 109.418,49.234 h 1.555"
         style="fill:none;stroke:#000000;stroke-width:0.36;stroke-linecap:butt;stroke-linejoin:miter;stroke-miterlimit:3.25;stroke-dasharray:none;stroke-opacity:1"
         id="path244" /><path
         d="m 109.418,44.941 h 1.555"
         style="fill:none;stroke:#000000;stroke-width:0.36;stroke-linecap:butt;stroke-linejoin:miter;stroke-miterlimit:3.25;stroke-dasharray:none;stroke-opacity:1"
         id="path246" /><path
         d="m 109.418,40.648 h 1.555"
         style="fill:none;stroke:#000000;stroke-width:0.36;stroke-linecap:butt;stroke-linejoin:miter;stroke-miterlimit:3.25;stroke-dasharray:none;stroke-opacity:1"
         id="path248" /><path
         d="m 109.418,36.359 h 2.59"
         style="fill:none;stroke:#000000;stroke-width:0.36;stroke-linecap:butt;stroke-linejoin:miter;stroke-miterlimit:3.25;stroke-dasharray:none;stroke-opacity:1"
         id="path250" /><text
         transform="translate(96.446166,38.605146)"
         style="font-variant:normal;font-weight:normal;font-size:6.48px;font-family:Arial;-inkscape-font-specification:ArialMT;writing-mode:lr-tb;fill:#000000;fill-opacity:1;fill-rule:nonzero;stroke:none"
         id="text254"><tspan
           x="0 3.60288 7.20576"
           y="0"
           sodipodi:role="line"
           id="tspan252">100</tspan></text><path
         d="m 109.418,32.066 h 1.555"
         style="fill:none;stroke:#000000;stroke-width:0.36;stroke-linecap:butt;stroke-linejoin:miter;stroke-miterlimit:3.25;stroke-dasharray:none;stroke-opacity:1"
         id="path256" /><path
         d="m 109.418,27.777 h 1.555"
         style="fill:none;stroke:#000000;stroke-width:0.36;stroke-linecap:butt;stroke-linejoin:miter;stroke-miterlimit:3.25;stroke-dasharray:none;stroke-opacity:1"
         id="path258" /><path
         d="m 109.418,23.484 h 1.555"
         style="fill:none;stroke:#000000;stroke-width:0.36;stroke-linecap:butt;stroke-linejoin:miter;stroke-miterlimit:3.25;stroke-dasharray:none;stroke-opacity:1"
         id="path260" /><path
         d="m 109.418,19.191 h 1.555"
         style="fill:none;stroke:#000000;stroke-width:0.36;stroke-linecap:butt;stroke-linejoin:miter;stroke-miterlimit:3.25;stroke-dasharray:none;stroke-opacity:1"
         id="path262" /><path
         d="m 109.418,14.902 h 2.59"
         style="fill:none;stroke:#000000;stroke-width:0.36;stroke-linecap:butt;stroke-linejoin:miter;stroke-miterlimit:3.25;stroke-dasharray:none;stroke-opacity:1"
         id="path264" /><text
         transform="translate(96.446166,17.148155)"
         style="font-variant:normal;font-weight:normal;font-size:6.48px;font-family:Arial;-inkscape-font-specification:ArialMT;writing-mode:lr-tb;fill:#000000;fill-opacity:1;fill-rule:nonzero;stroke:none"
         id="text268"><tspan
           x="0 3.60288 7.20576"
           y="0"
           sodipodi:role="line"
           id="tspan266">150</tspan></text><path
         d="m 109.418,10.609 h 1.555"
         style="fill:none;stroke:#000000;stroke-width:0.36;stroke-linecap:butt;stroke-linejoin:miter;stroke-miterlimit:3.25;stroke-dasharray:none;stroke-opacity:1"
         id="path270" /><path
         d="M 109.418,145.246 V 10.219"
         style="fill:none;stroke:#000000;stroke-width:0.36;stroke-linecap:butt;stroke-linejoin:miter;stroke-miterlimit:3.25;stroke-dasharray:none;stroke-opacity:1"
         id="path272" /><text
         transform="translate(103.93016,7.039406)"
         style="font-variant:normal;font-weight:normal;font-size:7.2px;font-family:MathematicaSans;-inkscape-font-specification:MathematicaSans;writing-mode:lr-tb;fill:#000000;fill-opacity:1;fill-rule:nonzero;stroke:none"
         id="text276"><tspan
           x="0"
           y="0"
           id="tspan274">$\tau_{xy}$</tspan></text><text
         transform="translate(107.12938,7.039406)"
         style="font-variant:normal;font-weight:normal;font-size:7.776px;font-family:Arial;-inkscape-font-specification:ArialMT;writing-mode:lr-tb;fill:#000000;fill-opacity:1;fill-rule:nonzero;stroke:none"
         id="text280"><tspan
           sodipodi:role="line"
           id="tspan278"
           x="0"
           y="0" /></text><text
         xml:space="preserve"
         style="font-size:12px;line-height:1.25;font-family:sans-serif;stroke-width:0.75"
         x="3.4141591"
         y="91.117836"
         id="text1897"><tspan
           sodipodi:role="line"
           id="tspan1895"
           style="stroke-width:0.75"
           x="3.4141591"
           y="91.117836">$-{h\over 2}$</tspan></text><text
         xml:space="preserve"
         style="font-size:12px;line-height:1.25;font-family:sans-serif;stroke-width:0.75"
         x="210.86803"
         y="92.130325"
         id="text1897-1"><tspan
           sodipodi:role="line"
           id="tspan1895-4"
           style="stroke-width:0.75"
           x="210.86803"
           y="92.130325">$h\over 2$</tspan></text></g></g></svg>
