<?xml version="1.0" encoding="UTF-8" standalone="no"?>
<!-- Created with Inkscape (http://www.inkscape.org/) -->

<svg
   version="1.1"
   id="svg2"
   xml:space="preserve"
   width="346.66666"
   height="193.33333"
   viewBox="0 0 346.66666 193.33333"
   sodipodi:docname="grafico_sigma_x.svg"
   inkscape:version="1.1.1 (3bf5ae0d25, 2021-09-20)"
   xmlns:inkscape="http://www.inkscape.org/namespaces/inkscape"
   xmlns:sodipodi="http://sodipodi.sourceforge.net/DTD/sodipodi-0.dtd"
   xmlns="http://www.w3.org/2000/svg"
   xmlns:svg="http://www.w3.org/2000/svg"><defs
     id="defs6" /><sodipodi:namedview
     id="namedview4"
     pagecolor="#ffffff"
     bordercolor="#666666"
     borderopacity="1.0"
     inkscape:pageshadow="2"
     inkscape:pageopacity="0.0"
     inkscape:pagecheckerboard="0"
     showgrid="false"
     inkscape:zoom="1.7985578"
     inkscape:cx="237.96845"
     inkscape:cy="110.92221"
     inkscape:window-width="1920"
     inkscape:window-height="1009"
     inkscape:window-x="3432"
     inkscape:window-y="344"
     inkscape:window-maximized="1"
     inkscape:current-layer="g10" /><g
     id="g8"
     inkscape:groupmode="layer"
     inkscape:label="grafico_sigma_x"
     transform="matrix(1.3333333,0,0,1.3333333,0,1.5e-6)"><g
       id="g10"><path
         d="M 4.551,80.453 H 4.617 L 4.68,80.449 h 0.129 l 0.257,-0.004 0.516,-0.011 1.027,-0.02 2.063,-0.039 4.465,-0.082 4.168,-0.078 h 0.129 l 0.125,-0.004 0.257,-0.004 0.508,-0.012 1.024,-0.019 h 0.129 l 0.125,-0.004 0.257,-0.004 0.512,-0.012 h 0.125 l 0.129,-0.004 0.254,-0.004 0.512,-0.007 0.07,-0.004 h 0.07 l 0.137,-0.004 h 0.141 l 0.066,-0.004 h 0.141 l 0.07,0.059 0.066,-0.004 h 0.141 l 0.07,-0.004 H 22.5 l 0.07,-0.004 h 0.071 l 0.136,-0.004 0.278,-0.004 0.554,-0.012 h 0.071 l 0.066,-0.004 h 0.141 l 0.277,-0.007 0.555,-0.008 1.105,-0.024 h 0.067 l 0.062,-0.004 h 0.133 l 0.258,-0.004 0.515,-0.011 3.106,-0.059 4.484,-0.09 h 0.137 l 0.137,-0.004 0.277,-0.003 0.547,-0.012 1.101,-0.02 0.071,-0.004 h 0.066 l 0.141,-0.004 0.273,-0.003 0.551,-0.012 h 0.07 l 0.067,-0.004 h 0.136 l 0.278,-0.008 0.551,-0.008 0.062,-0.004 h 0.066 l 0.125,-0.004 h 0.129 l 0.129,-0.003 h 0.067 l 0.062,-0.004 0.063,0.043 h 0.195 l 0.129,-0.004 h 0.125 l 0.129,-0.004 h 0.258 l 0.511,-0.008 h 0.129 l 0.129,-0.004 0.258,-0.004 0.512,-0.004 1.027,-0.011 0.07,-0.004 h 0.207 l 0.282,-0.004 0.554,-0.008 1.114,-0.012 2.226,-0.027 4.156,-0.051 0.067,-0.004 h 0.191 l 0.762,-0.012 1.019,-0.011 h 0.254 l 0.254,-0.004 0.512,-0.008 1.02,-0.012 h 0.136 l 0.137,-0.004 0.277,-0.003 h 0.137 l 0.141,-0.004 h 0.136 L 56.75,79.68 h 0.207 l 0.066,0.027 h 0.071 l 0.07,-0.004 h 0.207 l 0.067,-0.004 h 0.14 l 0.277,-0.004 h 0.137 l 0.137,-0.004 0.832,-0.011 1.105,-0.012 h 0.063 l 0.066,-0.004 h 0.129 l 0.258,-0.004 0.516,-0.004 1.031,-0.015 2.062,-0.028 4.473,-0.054 h 0.066 l 0.071,-0.004 h 0.137 l 0.273,-0.004 0.551,-0.008 1.097,-0.012 0.067,-0.004 h 0.207 l 0.273,-0.004 0.551,-0.007 1.098,-0.012 0.062,-0.004 h 0.192 l 0.257,-0.004 h 0.063 l 0.066,-0.004 h 0.125 l 0.258,-0.004 h 0.192 l 0.062,-0.004 h 0.129 l 0.066,0.028 h 0.192 l 0.125,-0.004 h 0.32 l 0.066,-0.004 h 0.125 l 0.258,-0.004 0.512,-0.004 1.023,-0.012 0.071,-0.004 h 0.207 l 0.832,-0.011 1.113,-0.012 2.219,-0.027 4.144,-0.047 4.493,-0.051 4.41,-0.055 4.113,-0.047 4.461,-0.05 4.164,-0.047 4.086,-0.051 4.426,-0.051 4.136,-0.047 4.477,-0.054 4.398,-0.051 4.102,-0.047 4.449,-0.051 h 0.067 l 0.066,-0.004 h 0.129 l 0.258,-0.004 0.519,-0.003 1.039,-0.012 0.063,-0.004 h 0.195 l 0.262,-0.004 0.519,-0.004 1.036,-0.016 h 0.257 l 0.762,-0.011 h 0.254 l 0.762,-0.012 h 0.258 l 0.062,-0.004 h 0.316 l 0.067,-0.004 h 0.062 l 0.063,-0.105 h 0.062 l 0.067,-0.004 h 0.191 l 0.125,-0.004 h 0.254 l 0.512,-0.008 h 0.066 l 0.07,-0.004 h 0.137 l 0.278,-0.004 0.55,-0.008 1.106,-0.011 2.207,-0.031 4.121,-0.051 h 0.141 l 0.14,-0.004 0.278,-0.004 0.558,-0.008 1.117,-0.012 h 0.071 l 0.07,-0.003 h 0.141 l 0.277,-0.004 1.676,-0.024 h 0.261 l 0.262,-0.004 0.52,-0.008 h 0.132 l 0.129,-0.003 0.262,-0.004 0.52,-0.004 0.066,-0.004 h 0.195 l 0.262,-0.004 h 0.129 l 0.133,-0.004 h 0.129 l 0.066,-0.004 h 0.129 l 0.066,0.027 h 0.129 l 0.067,-0.003 h 0.258 l 0.066,-0.004 h 0.133 l 0.258,-0.004 h 0.128 l 0.129,-0.004 h 0.254 l 0.512,-0.008 1.023,-0.012 2.043,-0.027 4.438,-0.051 0.066,-0.004 h 0.192 l 0.261,-0.004 0.516,-0.007 1.035,-0.012 h 0.129 l 0.129,-0.004 0.262,-0.004 0.515,-0.004 1.036,-0.012 0.07,-0.004 h 0.211 l 0.281,-0.003 0.559,-0.008 h 0.14 l 0.141,-0.004 0.281,-0.004 0.563,-0.004 0.07,-0.004 h 0.207 l 0.281,-0.004 h 0.071 l 0.07,-0.004 h 0.14 l 0.282,-0.004 h 0.14 l 0.071,-0.003 h 0.277 l 0.07,-1.043 0.071,-0.004 h 0.07 l 0.141,-0.004 0.281,-0.004 h 0.07 l 0.067,-0.004 h 0.136 l 0.278,-0.008 0.55,-0.012 1.102,-0.019 2.203,-0.043 4.109,-0.078 0.071,-0.004 h 0.066 l 0.141,-0.004 0.277,-0.004 0.559,-0.012 1.113,-0.019 0.07,-0.004 h 0.071 l 0.136,-0.004 0.282,-0.004 0.554,-0.012 1.114,-0.019 0.066,-0.004 h 0.066 l 0.129,-0.004 0.262,-0.004 0.52,-0.008 0.062,-0.004 h 0.066 l 0.129,-0.004 0.262,-0.003 0.52,-0.012 h 0.129 l 0.132,-0.004 0.258,-0.004 0.067,-0.004 h 0.195 l 0.258,-0.008 h 0.129 l 0.132,-0.004 h 0.063 l 0.066,-0.004 h 0.129 l 0.067,-0.003 h 0.128 l 0.067,-0.004 0.066,0.058 h 0.192 l 0.066,-0.004 h 0.063 l 0.129,-0.004 0.761,-0.011 3.059,-0.059 4.426,-0.082 4.129,-0.078 h 0.144 l 0.434,-0.012 0.574,-0.008 1.152,-0.023 h 0.074 l 0.071,-0.004 h 0.144 l 0.289,-0.008 0.575,-0.008 0.074,-0.003 h 0.07 l 0.145,-0.004 0.289,-0.004 h 0.07 l 0.07,-0.004 h 0.145 l 0.074,-0.004 h 0.145 l 0.07,-0.004"
         style="fill:none;stroke:#5e81b5;stroke-width:1.152;stroke-linecap:square;stroke-linejoin:miter;stroke-miterlimit:3.25;stroke-dasharray:none;stroke-opacity:1"
         id="path12" /><path
         d="M 4.551,82.41 4.617,82.406 H 4.68 l 0.129,-0.008 0.257,-0.007 0.516,-0.02 1.027,-0.039 2.063,-0.074 4.465,-0.168 4.168,-0.156 h 0.062 l 0.067,-0.004 0.125,-0.004 0.257,-0.012 0.508,-0.019 1.024,-0.036 0.062,-0.004 0.067,-0.003 0.125,-0.004 0.257,-0.008 0.512,-0.02 0.063,-0.004 h 0.062 l 0.129,-0.007 0.254,-0.008 0.512,-0.02 0.07,-0.004 h 0.07 l 0.137,-0.007 h 0.07 l 0.071,-0.004 0.066,-0.004 h 0.07 l 0.071,-0.004 0.07,0.117 h 0.066 l 0.211,-0.012 0.137,-0.004 0.07,-0.004 h 0.071 l 0.136,-0.007 0.278,-0.008 0.554,-0.024 0.071,-0.004 h 0.066 l 0.141,-0.007 0.277,-0.008 0.555,-0.024 1.105,-0.043 h 0.067 l 0.062,-0.003 0.133,-0.004 0.258,-0.012 0.515,-0.02 1.036,-0.039 2.07,-0.082 4.484,-0.172 0.067,-0.003 0.07,-0.004 0.137,-0.004 0.277,-0.012 0.547,-0.02 1.101,-0.043 0.071,-0.003 h 0.066 l 0.141,-0.008 0.273,-0.008 0.551,-0.023 0.07,-0.004 h 0.067 l 0.136,-0.008 0.278,-0.008 0.551,-0.023 h 0.062 l 0.066,-0.004 0.125,-0.004 0.067,-0.004 0.062,-0.004 0.129,-0.004 h 0.067 l 0.062,-0.004 0.063,-0.461 h 0.129 l 0.066,-0.004 0.129,-0.004 h 0.125 l 0.387,-0.011 0.511,-0.012 h 0.067 l 0.062,-0.004 0.129,-0.004 0.258,-0.004 0.512,-0.011 1.027,-0.028 h 0.07 l 0.071,-0.004 0.136,-0.004 0.282,-0.004 0.554,-0.015 3.34,-0.082 4.156,-0.102 h 0.129 l 0.129,-0.004 0.254,-0.007 0.508,-0.012 1.019,-0.024 0.063,-0.004 h 0.066 l 0.125,-0.003 0.254,-0.004 0.512,-0.016 1.02,-0.023 h 0.066 l 0.07,-0.004 0.137,-0.004 0.277,-0.004 0.071,-0.004 h 0.066 l 0.141,-0.004 0.07,-0.004 h 0.066 l 0.141,-0.004 h 0.066 l 0.071,-0.004 h 0.07 l 0.066,0.055 0.071,-0.004 h 0.07 l 0.137,-0.004 0.07,-0.004 h 0.067 l 0.14,-0.004 0.277,-0.007 h 0.067 l 0.07,-0.004 h 0.137 l 0.832,-0.024 1.105,-0.027 0.063,-0.004 h 0.066 l 0.129,-0.004 0.258,-0.004 0.516,-0.015 1.031,-0.028 2.062,-0.051 4.473,-0.113 4.391,-0.113 4.093,-0.106 4.442,-0.105 4.144,-0.094 4.493,-0.105 4.41,-0.102 4.113,-0.098 4.461,-0.101 4.164,-0.098 4.086,-0.097 4.426,-0.102 4.136,-0.098 4.477,-0.101 4.398,-0.106 4.102,-0.093 4.449,-0.106 h 0.133 l 0.387,-0.012 1.558,-0.035 h 0.063 l 0.066,-0.004 0.129,-0.004 0.262,-0.003 0.519,-0.012 1.036,-0.024 0.066,-0.004 h 0.062 l 0.129,-0.003 0.254,-0.004 0.508,-0.012 0.063,-0.004 h 0.062 l 0.129,-0.004 0.254,-0.004 0.508,-0.012 0.066,-0.003 h 0.063 l 0.129,-0.004 h 0.062 l 0.063,-0.004 0.128,-0.004 h 0.125 l 0.067,-0.004 h 0.062 l 0.063,-0.145 0.062,-0.003 h 0.067 l 0.062,-0.004 h 0.129 l 0.125,-0.004 0.254,-0.008 0.512,-0.012 0.066,-0.004 h 0.07 l 0.137,-0.004 0.278,-0.007 0.55,-0.012 1.106,-0.031 2.207,-0.055 4.121,-0.106 h 0.07 l 0.071,-0.003 0.14,-0.004 0.278,-0.004 0.558,-0.016 1.117,-0.027 0.071,-0.004 h 0.07 l 0.141,-0.004 0.277,-0.008 0.558,-0.016 1.118,-0.027 h 0.066 l 0.066,-0.004 0.129,-0.004 0.262,-0.004 0.52,-0.015 h 0.066 l 0.066,-0.004 h 0.129 l 0.262,-0.008 0.52,-0.016 h 0.132 l 0.129,-0.003 0.262,-0.008 h 0.063 l 0.066,-0.004 0.133,-0.004 h 0.062 l 0.067,-0.004 h 0.129 l 0.066,-0.004 0.066,0.055 h 0.063 l 0.066,-0.004 h 0.129 l 0.133,-0.004 0.063,-0.004 h 0.066 l 0.133,-0.004 0.258,-0.008 h 0.128 l 0.129,-0.004 0.254,-0.007 1.535,-0.035 2.043,-0.051 4.438,-0.11 h 0.066 l 0.063,-0.004 h 0.129 l 0.261,-0.007 0.516,-0.012 1.035,-0.027 h 0.067 l 0.062,-0.004 h 0.129 l 0.262,-0.008 0.515,-0.012 1.036,-0.027 h 0.07 l 0.07,-0.004 h 0.141 l 0.281,-0.008 0.559,-0.016 h 0.07 l 0.07,-0.003 h 0.141 l 0.844,-0.024 h 0.07 l 0.066,-0.004 h 0.141 l 0.281,-0.008 0.071,-0.004 h 0.07 l 0.422,-0.011 h 0.07 l 0.07,-0.004 h 0.141 l 0.066,-0.004 h 0.071 l 0.07,-0.004 0.07,-1.543 h 0.071 l 0.211,-0.012 0.281,-0.007 0.07,-0.004 0.067,-0.004 0.136,-0.004 0.278,-0.012 0.55,-0.019 3.305,-0.129 4.109,-0.16 h 0.071 l 0.066,-0.004 0.141,-0.004 0.277,-0.012 0.559,-0.023 1.113,-0.043 h 0.07 l 0.071,-0.004 0.136,-0.004 0.282,-0.012 0.554,-0.023 1.114,-0.043 h 0.066 l 0.066,-0.004 0.129,-0.004 0.262,-0.012 0.52,-0.019 0.062,-0.004 h 0.066 l 0.129,-0.008 0.262,-0.008 0.52,-0.019 0.066,-0.004 0.063,-0.004 0.132,-0.004 0.258,-0.008 0.067,-0.004 0.062,-0.004 0.133,-0.004 0.258,-0.011 h 0.066 l 0.063,-0.004 0.132,-0.004 0.063,-0.004 h 0.066 l 0.129,-0.008 h 0.067 l 0.066,-0.004 0.062,-0.004 h 0.067 l 0.066,0.117 0.063,-0.004 h 0.066 l 0.063,-0.003 0.066,-0.004 h 0.063 l 0.129,-0.008 0.253,-0.008 0.508,-0.019 1.02,-0.04 2.039,-0.074 4.426,-0.164 4.129,-0.156 h 0.074 l 0.07,-0.004 0.145,-0.004 0.289,-0.012 0.574,-0.023 1.152,-0.043 h 0.074 l 0.071,-0.004 0.144,-0.004 0.289,-0.012 0.575,-0.023 h 0.074 l 0.07,-0.004 0.145,-0.004 0.289,-0.012 0.14,-0.007 0.145,-0.004 0.074,-0.004 h 0.07 l 0.075,-0.004 0.07,-0.004"
         style="fill:none;stroke:#e19c24;stroke-width:1.152;stroke-linecap:square;stroke-linejoin:miter;stroke-miterlimit:3.25;stroke-dasharray:none;stroke-opacity:1"
         id="path14" /><path
         d="M 4.551,88.281 4.617,88.273 4.68,88.27 4.809,88.258 5.066,88.23 l 0.516,-0.046 1.027,-0.098 2.063,-0.191 4.465,-0.415 4.168,-0.39 0.062,-0.004 0.067,-0.008 0.125,-0.012 0.257,-0.023 0.508,-0.047 1.024,-0.098 0.062,-0.003 0.067,-0.008 0.125,-0.012 0.257,-0.023 0.512,-0.047 0.063,-0.004 0.062,-0.008 0.129,-0.012 0.254,-0.023 0.512,-0.047 0.14,-0.016 0.137,-0.011 0.07,-0.008 0.071,-0.004 0.066,-0.008 0.07,-0.008 0.071,-0.004 0.07,0.293 0.066,-0.007 0.071,-0.008 0.07,-0.004 0.07,-0.008 0.137,-0.012 0.141,-0.015 0.136,-0.012 0.832,-0.082 0.071,-0.008 0.066,-0.004 0.141,-0.015 0.277,-0.028 0.555,-0.051 1.105,-0.109 0.067,-0.004 0.062,-0.008 0.133,-0.011 0.258,-0.024 0.515,-0.051 1.036,-0.101 2.07,-0.199 4.484,-0.434 0.067,-0.008 0.07,-0.008 0.137,-0.011 0.277,-0.028 0.547,-0.05 1.101,-0.11 0.071,-0.004 0.066,-0.008 0.141,-0.011 0.273,-0.028 0.551,-0.054 0.07,-0.008 0.067,-0.004 0.136,-0.016 0.278,-0.023 0.551,-0.055 0.062,-0.008 0.066,-0.004 0.125,-0.011 0.067,-0.008 0.062,-0.008 0.129,-0.012 0.067,-0.003 0.062,-0.008 0.063,-1.961 0.066,-0.004 0.063,-0.004 0.066,-0.004 0.129,-0.008 0.125,-0.008 0.387,-0.023 0.511,-0.031 0.067,-0.004 0.062,-0.004 0.387,-0.023 0.512,-0.032 1.027,-0.062 0.141,-0.008 0.136,-0.008 0.282,-0.016 0.554,-0.035 1.114,-0.07 2.226,-0.133 4.156,-0.254 0.067,-0.004 0.062,-0.004 0.129,-0.007 0.762,-0.047 1.019,-0.063 0.063,-0.004 0.066,-0.003 0.125,-0.008 0.254,-0.016 0.512,-0.031 1.02,-0.063 0.066,-0.004 0.07,-0.004 0.137,-0.007 0.277,-0.016 0.071,-0.008 0.066,-0.004 0.211,-0.011 0.066,-0.004 0.141,-0.008 0.066,-0.004 0.141,-0.008 0.066,0.137 0.071,-0.008 0.07,-0.004 0.137,-0.008 0.07,-0.004 0.067,-0.003 0.14,-0.008 0.277,-0.02 0.067,-0.004 0.07,-0.004 0.137,-0.007 0.277,-0.02 0.555,-0.035 1.105,-0.07 0.063,-0.004 0.066,-0.004 0.387,-0.024 0.516,-0.035 1.031,-0.066 2.062,-0.129 4.473,-0.285 0.066,-0.004 0.071,-0.004 0.137,-0.012 0.273,-0.015 0.551,-0.036 1.097,-0.07 0.067,-0.004 0.07,-0.004 0.137,-0.008 0.273,-0.019 0.551,-0.035 1.098,-0.071 0.062,-0.003 0.067,-0.004 0.125,-0.008 0.257,-0.016 0.063,-0.004 0.066,-0.004 0.125,-0.007 0.258,-0.016 0.063,-0.004 0.066,-0.004 0.063,-0.008 0.062,-0.004 0.066,-0.003 0.063,-0.004 0.066,-0.125 0.125,-0.008 0.067,-0.004 0.125,-0.008 0.258,-0.012 0.062,-0.004 0.066,-0.003 0.125,-0.008 0.258,-0.016 0.512,-0.031 1.023,-0.059 0.141,-0.008 0.137,-0.007 0.277,-0.016 0.555,-0.035 1.113,-0.063 2.219,-0.129 4.144,-0.242 4.493,-0.261 4.41,-0.258 4.113,-0.239 4.461,-0.257 4.164,-0.246 4.086,-0.235 4.426,-0.258 4.136,-0.242 4.477,-0.262 4.398,-0.253 4.102,-0.243 4.449,-0.257 0.133,-0.008 0.387,-0.024 0.519,-0.027 1.039,-0.063 0.063,-0.003 0.066,-0.004 0.129,-0.008 0.262,-0.016 0.519,-0.027 1.036,-0.063 0.066,-0.004 0.062,-0.003 0.129,-0.008 0.254,-0.012 0.508,-0.031 0.125,-0.008 0.129,-0.008 0.254,-0.015 0.508,-0.028 0.066,-0.004 0.063,-0.004 0.129,-0.007 0.125,-0.008 0.128,-0.008 0.125,-0.008 0.067,-0.004 h 0.062 l 0.063,-0.265 0.062,-0.004 0.067,-0.004 0.125,-0.008 0.066,-0.004 0.125,-0.008 0.254,-0.015 0.512,-0.032 0.066,-0.004 0.07,-0.003 0.137,-0.012 0.278,-0.016 0.55,-0.035 1.106,-0.07 2.207,-0.141 4.121,-0.262 0.07,-0.007 0.211,-0.012 0.278,-0.016 0.558,-0.039 1.117,-0.07 0.282,-0.016 0.277,-0.019 1.676,-0.106 0.132,-0.008 0.129,-0.007 0.262,-0.02 0.52,-0.031 0.132,-0.008 0.129,-0.008 0.262,-0.019 0.52,-0.032 0.132,-0.007 0.129,-0.008 0.262,-0.02 0.063,-0.004 0.199,-0.011 0.062,-0.004 0.133,-0.008 0.063,-0.004 0.066,-0.004 0.066,0.137 0.063,-0.004 0.133,-0.008 0.062,-0.004 0.133,-0.008 0.063,-0.007 0.199,-0.012 0.258,-0.016 0.066,-0.004 0.062,-0.004 0.129,-0.007 0.254,-0.016 1.535,-0.094 2.043,-0.121 4.438,-0.273 0.066,-0.004 0.063,-0.004 0.129,-0.008 0.261,-0.016 0.516,-0.031 1.035,-0.062 0.067,-0.004 0.062,-0.004 0.129,-0.008 0.262,-0.016 0.515,-0.031 1.036,-0.062 0.07,-0.008 0.492,-0.027 0.559,-0.036 0.281,-0.015 0.281,-0.02 0.563,-0.031 0.07,-0.008 0.066,-0.004 0.563,-0.031 0.14,-0.012 0.563,-0.031 0.066,-0.004 0.071,-0.008 0.07,-0.004 0.07,-3.043 0.141,-0.015 0.141,-0.012 0.281,-0.027 0.07,-0.008 0.067,-0.004 0.136,-0.016 0.278,-0.027 0.55,-0.051 1.102,-0.105 2.203,-0.215 4.109,-0.398 0.071,-0.004 0.066,-0.008 0.141,-0.016 0.277,-0.023 0.559,-0.055 1.113,-0.109 0.07,-0.008 0.071,-0.004 0.136,-0.016 0.282,-0.027 0.554,-0.051 1.114,-0.109 0.066,-0.008 0.066,-0.004 0.129,-0.012 0.262,-0.027 0.52,-0.051 0.062,-0.004 0.066,-0.007 0.129,-0.012 0.262,-0.027 0.52,-0.047 0.066,-0.008 0.063,-0.008 0.132,-0.012 0.258,-0.023 0.067,-0.008 0.062,-0.008 0.133,-0.011 0.258,-0.024 0.066,-0.008 0.063,-0.004 0.132,-0.015 0.063,-0.004 0.066,-0.008 0.129,-0.012 0.067,-0.008 0.066,-0.003 0.062,-0.008 0.067,-0.008 0.066,0.297 0.063,-0.008 0.066,-0.004 0.063,-0.008 0.066,-0.004 0.063,-0.007 0.129,-0.012 0.761,-0.07 1.02,-0.098 2.039,-0.188 4.426,-0.414 4.129,-0.382 0.074,-0.008 0.07,-0.008 0.145,-0.012 0.289,-0.027 0.574,-0.055 1.152,-0.105 0.074,-0.008 0.071,-0.008 0.144,-0.012 0.289,-0.027 0.575,-0.055 0.074,-0.008 0.07,-0.003 0.145,-0.016 0.289,-0.027 0.07,-0.004 0.07,-0.008 0.145,-0.016 0.074,-0.004 0.07,-0.007 0.075,-0.008 0.07,-0.004"
         style="fill:none;stroke:#8fb032;stroke-width:1.152;stroke-linecap:square;stroke-linejoin:miter;stroke-miterlimit:3.25;stroke-dasharray:none;stroke-opacity:1"
         id="path16" /><path
         d="m 4.551,98.062 0.066,-0.011 0.063,-0.012 0.386,-0.07 0.516,-0.098 1.027,-0.191 2.063,-0.383 4.465,-0.836 4.168,-0.777 0.062,-0.012 0.067,-0.012 0.125,-0.023 0.257,-0.047 0.508,-0.094 1.024,-0.191 0.062,-0.012 0.067,-0.012 0.125,-0.023 0.257,-0.051 0.512,-0.094 0.125,-0.023 0.129,-0.024 0.254,-0.046 0.512,-0.098 0.14,-0.024 0.137,-0.027 0.07,-0.012 0.071,-0.015 0.066,-0.012 0.07,-0.012 0.071,-0.015 0.07,0.59 0.066,-0.016 0.071,-0.012 0.07,-0.015 0.07,-0.012 0.137,-0.028 0.07,-0.011 0.071,-0.016 0.136,-0.027 0.278,-0.051 0.554,-0.109 0.071,-0.012 0.066,-0.016 0.141,-0.023 0.832,-0.164 1.105,-0.211 0.067,-0.016 0.062,-0.011 0.133,-0.024 0.773,-0.152 3.106,-0.598 4.484,-0.867 0.067,-0.016 0.07,-0.011 0.137,-0.028 0.277,-0.054 0.547,-0.106 1.101,-0.211 0.071,-0.016 0.066,-0.011 0.141,-0.028 0.273,-0.054 0.551,-0.106 0.07,-0.011 0.067,-0.016 0.136,-0.024 0.278,-0.054 0.551,-0.106 0.062,-0.011 0.066,-0.016 0.125,-0.023 0.067,-0.012 0.062,-0.012 0.129,-0.027 0.067,-0.012 0.062,-0.012 0.063,-4.461 0.066,-0.007 0.063,-0.008 0.066,-0.008 0.129,-0.016 0.125,-0.015 0.387,-0.047 0.511,-0.063 0.067,-0.007 0.062,-0.008 0.387,-0.047 0.512,-0.063 1.027,-0.125 0.07,-0.011 0.071,-0.008 0.136,-0.016 0.282,-0.035 0.554,-0.066 1.114,-0.137 2.226,-0.27 4.156,-0.507 0.067,-0.008 0.062,-0.008 0.129,-0.016 0.762,-0.093 1.019,-0.125 0.063,-0.008 0.066,-0.008 0.125,-0.016 0.254,-0.031 0.512,-0.062 1.02,-0.125 0.066,-0.008 0.07,-0.008 0.137,-0.016 0.277,-0.035 0.071,-0.008 0.066,-0.007 0.141,-0.016 0.07,-0.012 0.066,-0.008 0.141,-0.015 0.066,-0.008 0.071,-0.008 0.07,-0.012 0.066,0.274 0.141,-0.016 0.137,-0.019 0.07,-0.008 0.067,-0.008 0.14,-0.019 0.277,-0.036 0.067,-0.007 0.07,-0.008 0.137,-0.02 0.832,-0.105 1.105,-0.141 0.063,-0.008 0.066,-0.008 0.129,-0.015 0.258,-0.035 0.516,-0.067 1.031,-0.129 2.062,-0.261 4.473,-0.571 0.066,-0.007 0.071,-0.012 0.137,-0.016 0.273,-0.035 0.551,-0.07 1.097,-0.141 0.067,-0.008 0.07,-0.007 0.137,-0.02 0.273,-0.035 0.551,-0.071 1.098,-0.136 0.062,-0.008 0.067,-0.008 0.125,-0.019 0.257,-0.032 0.063,-0.007 0.066,-0.008 0.125,-0.016 0.258,-0.035 0.063,-0.008 0.066,-0.008 0.125,-0.015 0.066,-0.008 0.063,-0.008 0.066,-0.32 0.125,-0.016 0.067,-0.008 0.125,-0.015 0.258,-0.028 0.062,-0.007 0.066,-0.008 0.125,-0.016 0.258,-0.027 0.512,-0.063 1.023,-0.117 0.141,-0.016 0.137,-0.019 0.832,-0.094 1.113,-0.129 2.219,-0.261 4.144,-0.481 4.493,-0.523 4.41,-0.516 4.113,-0.477 4.461,-0.519 4.164,-0.484 4.086,-0.477 4.426,-0.516 4.136,-0.48 4.477,-0.524 4.398,-0.511 4.102,-0.477 4.449,-0.519 0.133,-0.016 0.387,-0.047 0.519,-0.058 1.039,-0.122 0.063,-0.007 0.066,-0.008 0.129,-0.016 0.262,-0.027 0.519,-0.063 1.036,-0.121 0.066,-0.008 0.062,-0.007 0.129,-0.012 0.254,-0.031 0.508,-0.059 0.125,-0.016 0.129,-0.015 0.254,-0.027 0.508,-0.063 0.066,-0.004 0.063,-0.008 0.129,-0.015 0.125,-0.016 0.128,-0.016 0.063,-0.007 0.062,-0.004 0.067,-0.008 0.062,-0.008 0.063,-0.457 0.062,-0.008 0.067,-0.008 0.125,-0.015 0.066,-0.008 0.125,-0.016 0.254,-0.035 0.512,-0.062 0.066,-0.012 0.07,-0.008 0.137,-0.015 0.278,-0.036 0.55,-0.07 1.106,-0.141 2.207,-0.281 4.121,-0.527 0.141,-0.016 0.14,-0.019 0.278,-0.035 1.675,-0.211 0.071,-0.012 0.07,-0.008 0.141,-0.019 0.277,-0.036 1.676,-0.211 0.066,-0.007 0.066,-0.012 0.129,-0.016 0.262,-0.031 0.52,-0.066 0.066,-0.008 0.066,-0.012 0.129,-0.016 0.262,-0.031 0.52,-0.066 0.066,-0.008 0.066,-0.012 0.129,-0.015 0.262,-0.032 0.063,-0.007 0.066,-0.012 0.133,-0.016 0.062,-0.008 0.133,-0.015 0.063,-0.008 0.066,-0.008 0.066,0.27 0.063,-0.008 0.133,-0.016 0.062,-0.008 0.133,-0.015 0.063,-0.008 0.199,-0.023 0.258,-0.032 0.066,-0.007 0.062,-0.008 0.129,-0.016 0.254,-0.031 1.535,-0.188 2.043,-0.25 4.438,-0.539 0.066,-0.008 0.063,-0.007 0.129,-0.016 0.261,-0.035 0.516,-0.063 1.035,-0.125 0.067,-0.007 0.062,-0.008 0.129,-0.016 0.262,-0.031 0.515,-0.063 1.036,-0.129 0.281,-0.031 0.281,-0.035 0.559,-0.07 0.281,-0.032 0.844,-0.105 0.07,-0.008 0.066,-0.008 0.141,-0.019 0.352,-0.039 0.07,-0.012 0.14,-0.016 0.282,-0.035 0.211,-0.023 0.07,-0.012 0.066,-0.008 0.141,-0.015 0.07,-5.547 0.071,-0.016 0.07,-0.011 0.422,-0.083 0.07,-0.011 0.067,-0.016 0.136,-0.027 0.278,-0.051 0.55,-0.105 1.102,-0.215 2.203,-0.426 4.109,-0.793 0.071,-0.016 0.066,-0.011 0.141,-0.028 0.277,-0.054 0.559,-0.11 1.113,-0.215 0.07,-0.011 0.071,-0.016 0.136,-0.027 0.282,-0.051 0.554,-0.11 1.114,-0.214 0.132,-0.024 0.129,-0.027 0.262,-0.051 0.52,-0.101 0.062,-0.012 0.066,-0.012 0.129,-0.023 0.262,-0.051 0.52,-0.102 0.066,-0.011 0.063,-0.012 0.132,-0.027 0.258,-0.051 0.067,-0.012 0.062,-0.012 0.133,-0.027 0.258,-0.051 0.066,-0.012 0.063,-0.011 0.132,-0.024 0.063,-0.015 0.066,-0.012 0.129,-0.023 0.067,-0.012 0.066,-0.016 0.062,-0.012 0.067,-0.011 0.066,0.586 0.063,-0.012 0.066,-0.012 0.063,-0.011 0.066,-0.012 0.063,-0.012 0.129,-0.023 0.253,-0.047 0.508,-0.098 1.02,-0.187 2.039,-0.383 4.426,-0.824 4.129,-0.77 0.074,-0.012 0.07,-0.015 0.145,-0.028 0.289,-0.05 0.574,-0.11 1.152,-0.215 0.074,-0.011 0.071,-0.016 0.433,-0.082 0.575,-0.105 0.074,-0.012 0.07,-0.016 0.434,-0.082 0.14,-0.023 0.145,-0.028 0.074,-0.015 0.07,-0.012 0.075,-0.016 0.07,-0.011"
         style="fill:none;stroke:#eb6235;stroke-width:1.152;stroke-linecap:square;stroke-linejoin:miter;stroke-miterlimit:3.25;stroke-dasharray:none;stroke-opacity:1"
         id="path18" /><path
         d="m 4.551,117.629 0.066,-0.024 0.063,-0.023 0.129,-0.047 0.257,-0.097 0.516,-0.192 1.027,-0.383 2.063,-0.769 4.465,-1.664 4.168,-1.555 0.062,-0.027 0.067,-0.024 0.125,-0.047 0.257,-0.093 0.508,-0.192 1.024,-0.383 0.062,-0.023 0.067,-0.024 0.125,-0.046 0.257,-0.094 0.512,-0.192 0.125,-0.046 0.129,-0.051 0.254,-0.094 0.512,-0.191 0.07,-0.024 0.07,-0.027 0.137,-0.051 0.07,-0.027 0.071,-0.024 0.066,-0.027 0.07,-0.027 0.071,-0.024 0.07,1.172 0.066,-0.027 0.071,-0.024 0.14,-0.054 0.137,-0.055 0.141,-0.055 0.136,-0.051 0.278,-0.109 0.554,-0.215 0.071,-0.023 0.066,-0.028 0.141,-0.054 0.277,-0.106 0.555,-0.215 1.105,-0.429 0.067,-0.024 0.062,-0.027 0.133,-0.051 0.258,-0.097 0.515,-0.2 1.036,-0.402 2.07,-0.801 4.484,-1.734 0.067,-0.028 0.07,-0.023 0.137,-0.055 0.277,-0.105 0.547,-0.215 1.101,-0.426 0.071,-0.023 0.066,-0.028 0.141,-0.054 0.273,-0.106 0.551,-0.215 0.07,-0.023 0.067,-0.027 0.136,-0.055 0.278,-0.105 0.551,-0.215 0.062,-0.024 0.066,-0.023 0.125,-0.051 0.067,-0.023 0.062,-0.028 0.129,-0.047 0.067,-0.027 0.062,-0.023 0.063,-9.465 0.066,-0.016 0.063,-0.016 0.066,-0.015 0.129,-0.031 0.125,-0.032 0.387,-0.093 0.511,-0.125 0.067,-0.016 0.062,-0.016 0.129,-0.031 0.258,-0.066 0.512,-0.125 1.027,-0.25 0.141,-0.032 0.136,-0.035 0.282,-0.066 0.554,-0.137 1.114,-0.273 2.226,-0.543 4.156,-1.012 0.067,-0.016 0.062,-0.015 0.129,-0.031 0.762,-0.188 1.019,-0.25 0.063,-0.016 0.066,-0.015 0.125,-0.031 0.254,-0.059 0.512,-0.125 1.02,-0.25 0.066,-0.016 0.07,-0.019 0.137,-0.031 0.277,-0.067 0.071,-0.019 0.066,-0.016 0.141,-0.035 0.07,-0.016 0.066,-0.015 0.141,-0.036 0.066,-0.015 0.071,-0.02 0.07,-0.015 0.066,0.543 0.071,-0.016 0.07,-0.02 0.137,-0.035 0.07,-0.015 0.067,-0.02 0.14,-0.035 0.277,-0.07 0.067,-0.016 0.07,-0.019 0.137,-0.036 0.832,-0.211 1.105,-0.281 0.063,-0.015 0.066,-0.016 0.129,-0.035 0.258,-0.063 0.516,-0.133 1.031,-0.261 2.062,-0.528 4.473,-1.136 0.066,-0.02 0.071,-0.015 0.41,-0.106 0.551,-0.141 1.097,-0.277 0.067,-0.019 0.07,-0.016 0.41,-0.106 0.551,-0.14 1.098,-0.278 0.062,-0.019 0.067,-0.016 0.125,-0.031 0.257,-0.066 0.063,-0.016 0.066,-0.016 0.125,-0.035 0.258,-0.062 0.063,-0.016 0.066,-0.019 0.125,-0.032 0.066,-0.015 0.063,-0.016 0.066,-0.707 0.125,-0.031 0.067,-0.016 0.125,-0.027 0.258,-0.063 0.062,-0.015 0.066,-0.012 0.125,-0.031 0.258,-0.059 0.512,-0.121 1.023,-0.238 0.141,-0.031 0.137,-0.032 0.277,-0.066 0.555,-0.129 1.113,-0.258 2.219,-0.519 4.144,-0.965 4.493,-1.047 4.41,-1.027 4.113,-0.957 4.461,-1.04 4.164,-0.968 4.086,-0.953 4.426,-1.032 4.136,-0.961 4.477,-1.043 4.398,-1.027 4.102,-0.953 4.449,-1.035 0.133,-0.031 0.129,-0.032 0.258,-0.058 1.558,-0.364 0.063,-0.015 0.066,-0.016 0.129,-0.031 0.262,-0.059 0.519,-0.121 1.036,-0.242 0.066,-0.016 0.062,-0.015 0.129,-0.028 0.254,-0.058 0.508,-0.121 0.063,-0.012 0.062,-0.016 0.129,-0.031 0.762,-0.176 0.066,-0.015 0.063,-0.016 0.129,-0.027 0.125,-0.031 0.128,-0.032 0.063,-0.011 0.062,-0.016 0.067,-0.016 0.062,-0.015 0.063,-0.844 0.062,-0.016 0.067,-0.015 0.125,-0.032 0.066,-0.019 0.125,-0.031 0.254,-0.063 0.512,-0.133 0.066,-0.015 0.07,-0.02 0.137,-0.035 0.278,-0.07 0.55,-0.141 1.106,-0.281 2.207,-0.563 4.121,-1.046 0.07,-0.02 0.071,-0.016 0.14,-0.035 0.278,-0.074 0.558,-0.141 1.117,-0.285 0.071,-0.015 0.07,-0.02 0.141,-0.035 0.277,-0.07 0.558,-0.145 1.118,-0.281 0.066,-0.02 0.066,-0.015 0.129,-0.032 0.262,-0.066 0.52,-0.133 0.066,-0.019 0.066,-0.016 0.129,-0.031 0.262,-0.067 0.52,-0.132 0.066,-0.02 0.066,-0.016 0.129,-0.031 0.262,-0.066 0.063,-0.02 0.199,-0.047 0.062,-0.019 0.133,-0.031 0.063,-0.016 0.066,-0.02 0.066,0.547 0.063,-0.015 0.133,-0.032 0.062,-0.015 0.133,-0.035 0.063,-0.016 0.199,-0.047 0.258,-0.062 0.066,-0.016 0.062,-0.016 0.129,-0.031 0.254,-0.062 1.535,-0.375 2.043,-0.5 4.438,-1.082 0.066,-0.016 0.063,-0.016 0.129,-0.031 0.261,-0.062 0.516,-0.125 1.035,-0.254 0.067,-0.016 0.062,-0.016 0.129,-0.031 0.262,-0.062 0.515,-0.129 1.036,-0.25 0.07,-0.02 0.07,-0.015 0.141,-0.036 0.281,-0.066 0.559,-0.137 0.07,-0.019 0.07,-0.016 0.141,-0.035 0.281,-0.066 0.563,-0.137 0.07,-0.02 0.066,-0.015 0.141,-0.035 0.281,-0.067 0.071,-0.019 0.07,-0.016 0.14,-0.035 0.282,-0.067 0.07,-0.019 0.07,-0.016 0.071,-0.019 0.07,-0.016 0.066,-0.015 0.071,-0.02 0.07,-0.016 0.07,-10.55 0.633,-0.246 0.067,-0.028 0.136,-0.051 0.278,-0.109 0.55,-0.211 3.305,-1.277 4.109,-1.59 0.071,-0.027 0.066,-0.028 0.141,-0.055 0.277,-0.105 0.559,-0.215 1.113,-0.433 0.07,-0.028 0.071,-0.023 0.136,-0.055 0.282,-0.109 0.554,-0.215 1.114,-0.43 0.066,-0.027 0.066,-0.024 0.129,-0.05 0.262,-0.102 0.52,-0.199 0.062,-0.027 0.066,-0.024 0.129,-0.051 0.262,-0.101 0.52,-0.199 0.066,-0.028 0.063,-0.023 0.132,-0.051 0.258,-0.102 0.067,-0.023 0.062,-0.027 0.133,-0.047 0.258,-0.102 0.066,-0.027 0.063,-0.024 0.132,-0.05 0.063,-0.024 0.066,-0.027 0.129,-0.051 0.133,-0.047 0.062,-0.027 0.067,-0.024 0.066,1.176 0.063,-0.023 0.066,-0.028 0.063,-0.023 0.066,-0.023 0.063,-0.024 0.129,-0.047 0.253,-0.097 0.508,-0.188 1.02,-0.383 2.039,-0.758 4.426,-1.652 4.129,-1.539 0.074,-0.027 0.07,-0.028 0.145,-0.054 0.289,-0.106 0.574,-0.215 1.152,-0.429 0.074,-0.028 0.071,-0.027 0.144,-0.055 0.289,-0.105 0.575,-0.215 0.074,-0.027 0.07,-0.028 0.145,-0.054 0.289,-0.106 0.14,-0.055 0.145,-0.054 0.074,-0.028 0.07,-0.023 0.075,-0.027 0.07,-0.028"
         style="fill:none;stroke:#8778b3;stroke-width:1.152;stroke-linecap:square;stroke-linejoin:miter;stroke-miterlimit:3.25;stroke-dasharray:none;stroke-opacity:1"
         id="path20" /><path
         d="m 4.551,137.195 0.066,-0.035 0.063,-0.035 0.129,-0.07 0.773,-0.434 1.027,-0.574 2.063,-1.152 4.465,-2.5 4.168,-2.333 0.062,-0.035 0.067,-0.035 0.125,-0.074 0.257,-0.141 0.508,-0.289 1.024,-0.57 0.062,-0.035 0.067,-0.035 0.125,-0.075 0.257,-0.14 0.512,-0.285 0.063,-0.036 0.062,-0.039 0.129,-0.07 0.254,-0.141 0.512,-0.289 0.07,-0.039 0.07,-0.035 0.137,-0.078 0.141,-0.078 0.066,-0.039 0.141,-0.078 0.07,1.762 0.066,-0.04 0.071,-0.043 0.14,-0.078 0.137,-0.082 0.141,-0.078 0.136,-0.082 0.832,-0.48 0.071,-0.043 0.066,-0.039 0.141,-0.082 0.832,-0.481 1.105,-0.644 0.067,-0.036 0.062,-0.039 0.133,-0.074 0.258,-0.148 0.515,-0.301 1.036,-0.602 2.07,-1.199 4.484,-2.601 0.067,-0.039 0.07,-0.043 0.137,-0.079 0.277,-0.16 0.547,-0.32 1.101,-0.637 0.071,-0.039 0.066,-0.039 0.141,-0.082 0.273,-0.16 0.551,-0.316 0.07,-0.043 0.067,-0.039 0.136,-0.079 0.278,-0.16 0.551,-0.32 0.062,-0.035 0.066,-0.039 0.125,-0.075 0.067,-0.039 0.062,-0.035 0.129,-0.074 0.067,-0.039 0.062,-0.035 0.063,-14.469 0.066,-0.023 0.063,-0.024 0.066,-0.023 0.129,-0.047 0.125,-0.047 0.129,-0.047 0.258,-0.098 0.511,-0.187 0.067,-0.023 0.062,-0.024 0.387,-0.14 0.512,-0.188 1.027,-0.375 0.07,-0.023 0.071,-0.028 0.136,-0.051 0.282,-0.101 0.554,-0.203 1.114,-0.41 2.226,-0.813 4.156,-1.523 0.067,-0.024 0.062,-0.019 0.129,-0.047 0.762,-0.281 1.019,-0.372 0.063,-0.023 0.066,-0.023 0.125,-0.047 0.254,-0.094 0.512,-0.188 1.02,-0.371 0.066,-0.027 0.07,-0.023 0.137,-0.051 0.277,-0.102 0.071,-0.027 0.066,-0.024 0.141,-0.05 0.07,-0.024 0.066,-0.027 0.141,-0.051 0.066,-0.023 0.071,-0.028 0.07,-0.023 0.066,0.816 0.141,-0.054 0.137,-0.051 0.07,-0.027 0.067,-0.028 0.14,-0.051 0.277,-0.105 0.067,-0.027 0.07,-0.028 0.137,-0.051 0.832,-0.316 1.105,-0.426 0.063,-0.023 0.066,-0.024 0.129,-0.05 0.774,-0.293 3.093,-1.184 4.473,-1.707 0.066,-0.027 0.071,-0.028 0.137,-0.05 0.273,-0.106 0.551,-0.211 1.097,-0.418 0.067,-0.027 0.07,-0.024 0.137,-0.054 0.273,-0.106 0.551,-0.207 1.098,-0.422 0.062,-0.023 0.067,-0.024 0.125,-0.05 0.257,-0.098 0.063,-0.023 0.066,-0.024 0.125,-0.051 0.258,-0.097 0.063,-0.024 0.066,-0.023 0.063,-0.028 0.062,-0.023 0.066,-0.023 0.063,-0.024 0.066,-1.098 0.063,-0.019 0.062,-0.023 0.067,-0.024 0.125,-0.043 0.258,-0.09 0.062,-0.023 0.066,-0.024 0.125,-0.043 0.258,-0.089 0.512,-0.18 1.023,-0.356 0.071,-0.027 0.07,-0.023 0.137,-0.047 0.832,-0.293 1.113,-0.387 2.219,-0.777 4.144,-1.446 4.493,-1.57 4.41,-1.539 4.113,-1.437 4.461,-1.559 4.164,-1.457 4.086,-1.426 4.426,-1.547 4.136,-1.445 4.477,-1.566 4.398,-1.536 4.102,-1.433 4.449,-1.555 0.067,-0.019 0.066,-0.024 0.129,-0.047 0.258,-0.09 0.519,-0.183 1.039,-0.36 0.063,-0.023 0.066,-0.023 0.129,-0.047 0.262,-0.09 0.519,-0.18 1.036,-0.363 0.066,-0.024 0.062,-0.019 0.129,-0.047 0.254,-0.09 0.508,-0.176 0.063,-0.023 0.062,-0.02 0.129,-0.046 0.254,-0.09 0.508,-0.176 0.066,-0.023 0.063,-0.024 0.129,-0.043 0.062,-0.023 0.063,-0.02 0.128,-0.047 0.063,-0.019 0.062,-0.024 0.067,-0.023 0.062,-0.02 0.063,-1.234 0.062,-0.023 0.067,-0.024 0.125,-0.047 0.066,-0.027 0.125,-0.047 0.254,-0.098 0.512,-0.195 0.066,-0.027 0.07,-0.024 0.137,-0.054 0.278,-0.106 0.55,-0.211 1.106,-0.422 2.207,-0.843 4.121,-1.575 0.07,-0.027 0.071,-0.023 0.14,-0.055 0.278,-0.106 0.558,-0.214 1.117,-0.426 0.141,-0.055 0.141,-0.051 0.277,-0.109 0.558,-0.211 1.118,-0.43 0.132,-0.047 0.129,-0.05 0.262,-0.102 0.52,-0.199 0.132,-0.047 0.129,-0.051 0.262,-0.101 0.52,-0.2 0.132,-0.046 0.129,-0.051 0.262,-0.102 0.063,-0.023 0.066,-0.024 0.133,-0.05 0.062,-0.024 0.067,-0.027 0.066,-0.024 0.063,-0.027 0.066,-0.023 0.066,0.816 0.063,-0.024 0.133,-0.046 0.062,-0.024 0.133,-0.047 0.063,-0.023 0.066,-0.027 0.133,-0.047 0.258,-0.094 0.066,-0.024 0.062,-0.023 0.129,-0.047 0.254,-0.094 1.535,-0.562 2.043,-0.746 4.438,-1.625 0.066,-0.024 0.063,-0.023 0.129,-0.047 0.261,-0.094 0.516,-0.191 1.035,-0.379 0.067,-0.023 0.062,-0.024 0.129,-0.047 0.262,-0.093 0.515,-0.192 1.036,-0.379 0.07,-0.023 0.07,-0.028 0.422,-0.152 0.559,-0.207 0.07,-0.023 0.07,-0.028 0.422,-0.152 0.563,-0.207 0.07,-0.027 0.066,-0.024 0.141,-0.051 0.281,-0.105 0.071,-0.024 0.07,-0.027 0.422,-0.152 0.07,-0.028 0.07,-0.023 0.071,-0.027 0.07,-0.024 0.066,-0.027 0.071,-0.024 0.07,-0.027 0.07,-15.559 0.071,-0.039 0.07,-0.043 0.141,-0.078 0.281,-0.164 0.07,-0.039 0.067,-0.043 0.136,-0.078 0.278,-0.16 0.55,-0.32 1.102,-0.637 2.203,-1.277 4.109,-2.387 0.071,-0.039 0.066,-0.039 0.141,-0.082 0.277,-0.161 0.559,-0.324 1.113,-0.644 0.07,-0.043 0.071,-0.039 0.136,-0.082 0.282,-0.16 0.554,-0.325 1.114,-0.644 0.132,-0.078 0.129,-0.075 0.262,-0.152 0.52,-0.301 0.062,-0.035 0.066,-0.039 0.129,-0.074 0.262,-0.152 0.52,-0.301 0.066,-0.039 0.063,-0.039 0.132,-0.075 0.258,-0.152 0.067,-0.035 0.062,-0.039 0.133,-0.074 0.258,-0.153 0.066,-0.035 0.063,-0.039 0.132,-0.074 0.063,-0.039 0.066,-0.039 0.129,-0.074 0.067,-0.04 0.066,-0.035 0.062,-0.039 0.067,-0.039 0.066,1.766 0.063,-0.035 0.066,-0.036 0.063,-0.039 0.066,-0.035 0.063,-0.035 0.129,-0.07 0.253,-0.145 0.508,-0.285 3.059,-1.711 4.426,-2.476 4.129,-2.309 0.074,-0.039 0.07,-0.043 0.145,-0.078 0.289,-0.164 0.574,-0.321 1.152,-0.644 0.074,-0.043 0.071,-0.039 0.144,-0.078 0.289,-0.164 0.575,-0.321 0.074,-0.043 0.07,-0.039 0.145,-0.078 0.289,-0.164 0.14,-0.078 0.145,-0.082 0.074,-0.039 0.07,-0.043 0.075,-0.039 0.07,-0.039"
         style="fill:none;stroke:#c56e1a;stroke-width:1.152;stroke-linecap:square;stroke-linejoin:miter;stroke-miterlimit:3.25;stroke-dasharray:none;stroke-opacity:1"
         id="path22" /><path
         d="m 218.574,76.539 h 2.614 l 0.07,0.004 0.078,0.004 0.086,0.012 0.098,0.015 0.109,0.028 0.121,0.035 0.137,0.047 0.148,0.058 0.16,0.074 0.18,0.094 0.199,0.11 0.211,0.128 0.235,0.153 0.253,0.176 0.274,0.199 0.297,0.226 0.316,0.258 0.344,0.285 0.363,0.313 0.387,0.34 0.406,0.363 0.418,0.379 0.434,0.398 0.445,0.41 0.453,0.418 0.922,0.852 0.465,0.43 0.465,0.422 0.461,0.414 0.453,0.402 0.445,0.391 0.438,0.371 0.421,0.351 0.411,0.328 0.39,0.301 0.371,0.27 0.352,0.242 0.332,0.211 0.32,0.187 0.305,0.164 0.289,0.141 0.281,0.121 0.266,0.102 0.262,0.082 0.25,0.066 0.246,0.055 0.238,0.039 0.238,0.031 0.235,0.023 0.23,0.012 0.234,0.008 0.239,0.004 h 3.656"
         style="fill:none;stroke:#ffffff;stroke-width:2.88;stroke-linecap:butt;stroke-linejoin:round;stroke-miterlimit:3.25;stroke-dasharray:none;stroke-opacity:0.666667"
         id="path24" /><path
         d="m 218.574,76.539 h 2.614 l 0.07,0.004 0.078,0.004 0.086,0.012 0.098,0.015 0.109,0.028 0.121,0.035 0.137,0.047 0.148,0.058 0.16,0.074 0.18,0.094 0.199,0.11 0.211,0.128 0.235,0.153 0.253,0.176 0.274,0.199 0.297,0.226 0.316,0.258 0.344,0.285 0.363,0.313 0.387,0.34 0.406,0.363 0.418,0.379 0.434,0.398 0.445,0.41 0.453,0.418 0.922,0.852 0.465,0.43 0.465,0.422 0.461,0.414 0.453,0.402 0.445,0.391 0.438,0.371 0.421,0.351 0.411,0.328 0.39,0.301 0.371,0.27 0.352,0.242 0.332,0.211 0.32,0.187 0.305,0.164 0.289,0.141 0.281,0.121 0.266,0.102 0.262,0.082 0.25,0.066 0.246,0.055 0.238,0.039 0.238,0.031 0.235,0.023 0.23,0.012 0.234,0.008 0.239,0.004 h 3.656"
         style="fill:none;stroke:#aaaaaa;stroke-width:0.9;stroke-linecap:square;stroke-linejoin:miter;stroke-miterlimit:3.25;stroke-dasharray:none;stroke-opacity:1"
         id="path26" /><path
         d="m 240.625,82.406 h 7.922 v 9.359 h -7.922 z"
         style="fill:#ffffff;fill-opacity:0.666667;fill-rule:nonzero;stroke:none"
         id="path28" /><path
         d="m 240.625,82.406 h 7.922 v 9.359 h -7.922 z"
         style="fill:none;stroke:#ffffff;stroke-width:0.9;stroke-linecap:square;stroke-linejoin:miter;stroke-miterlimit:3.25;stroke-dasharray:none;stroke-opacity:0.666667"
         id="path30" /><text
         transform="translate(242.78481,89.332435)"
         style="font-variant:normal;font-weight:normal;font-size:6.48px;font-family:Arial;-inkscape-font-specification:ArialMT;writing-mode:lr-tb;fill:#000000;fill-opacity:1;fill-rule:nonzero;stroke:none"
         id="text34"><tspan
           x="0"
           y="0"
           id="tspan32">1</tspan></text><path
         d="m 218.574,74.582 h 2.719 l 0.102,0.004 h 0.121 l 0.132,0.004 0.157,0.004 0.172,0.004 0.199,0.007 0.219,0.012 0.246,0.012 0.277,0.016 0.305,0.015 0.332,0.02 0.371,0.027 0.402,0.027 0.442,0.032 0.472,0.035 0.5,0.039 0.524,0.043 0.543,0.043 0.554,0.043 0.567,0.047 0.574,0.043 0.57,0.046 0.571,0.043 0.562,0.043 0.547,0.039 0.531,0.04 0.512,0.035 0.484,0.035 0.453,0.027 0.426,0.024 0.402,0.023 0.379,0.016 0.356,0.015 0.34,0.012 0.328,0.008 0.312,0.008 0.301,0.007 0.297,0.004 0.289,0.004 h 4.461"
         style="fill:none;stroke:#ffffff;stroke-width:2.88;stroke-linecap:butt;stroke-linejoin:round;stroke-miterlimit:3.25;stroke-dasharray:none;stroke-opacity:0.666667"
         id="path36" /><path
         d="m 218.574,74.582 h 2.719 l 0.102,0.004 h 0.121 l 0.132,0.004 0.157,0.004 0.172,0.004 0.199,0.007 0.219,0.012 0.246,0.012 0.277,0.016 0.305,0.015 0.332,0.02 0.371,0.027 0.402,0.027 0.442,0.032 0.472,0.035 0.5,0.039 0.524,0.043 0.543,0.043 0.554,0.043 0.567,0.047 0.574,0.043 0.57,0.046 0.571,0.043 0.562,0.043 0.547,0.039 0.531,0.04 0.512,0.035 0.484,0.035 0.453,0.027 0.426,0.024 0.402,0.023 0.379,0.016 0.356,0.015 0.34,0.012 0.328,0.008 0.312,0.008 0.301,0.007 0.297,0.004 0.289,0.004 h 4.461"
         style="fill:none;stroke:#aaaaaa;stroke-width:0.9;stroke-linecap:square;stroke-linejoin:miter;stroke-miterlimit:3.25;stroke-dasharray:none;stroke-opacity:1"
         id="path38" /><path
         d="m 240.625,70.809 h 7.922 v 9.359 h -7.922 z"
         style="fill:#ffffff;fill-opacity:0.666667;fill-rule:nonzero;stroke:none"
         id="path40" /><path
         d="m 240.625,70.809 h 7.922 v 9.359 h -7.922 z"
         style="fill:none;stroke:#ffffff;stroke-width:0.9;stroke-linecap:square;stroke-linejoin:miter;stroke-miterlimit:3.25;stroke-dasharray:none;stroke-opacity:0.666667"
         id="path42" /><text
         transform="translate(242.78481,77.736046)"
         style="font-variant:normal;font-weight:normal;font-size:6.48px;font-family:Arial;-inkscape-font-specification:ArialMT;writing-mode:lr-tb;fill:#000000;fill-opacity:1;fill-rule:nonzero;stroke:none"
         id="text46"><tspan
           x="0"
           y="0"
           id="tspan44">2</tspan></text><path
         d="m 218.574,68.715 h 2.551 l 0.078,-0.004 h 0.09 l 0.102,-0.004 0.121,-0.008 0.132,-0.015 0.157,-0.024 0.172,-0.027 0.199,-0.043 0.219,-0.051 0.246,-0.062 0.277,-0.082 0.305,-0.094 0.332,-0.11 0.371,-0.132 0.402,-0.149 0.442,-0.172 0.472,-0.187 0.5,-0.207 0.524,-0.219 0.543,-0.227 0.554,-0.234 0.567,-0.242 0.574,-0.238 0.57,-0.243 0.571,-0.234 0.562,-0.227 0.547,-0.218 0.531,-0.203 0.512,-0.192 0.484,-0.172 0.453,-0.148 0.426,-0.129 0.402,-0.113 0.379,-0.094 0.356,-0.078 0.34,-0.067 0.328,-0.05 0.312,-0.039 0.301,-0.032 0.297,-0.023 0.578,-0.024 0.285,-0.003 h 3.887"
         style="fill:none;stroke:#ffffff;stroke-width:2.88;stroke-linecap:butt;stroke-linejoin:round;stroke-miterlimit:3.25;stroke-dasharray:none;stroke-opacity:0.666667"
         id="path48" /><path
         d="m 218.574,68.715 h 2.551 l 0.078,-0.004 h 0.09 l 0.102,-0.004 0.121,-0.008 0.132,-0.015 0.157,-0.024 0.172,-0.027 0.199,-0.043 0.219,-0.051 0.246,-0.062 0.277,-0.082 0.305,-0.094 0.332,-0.11 0.371,-0.132 0.402,-0.149 0.442,-0.172 0.472,-0.187 0.5,-0.207 0.524,-0.219 0.543,-0.227 0.554,-0.234 0.567,-0.242 0.574,-0.238 0.57,-0.243 0.571,-0.234 0.562,-0.227 0.547,-0.218 0.531,-0.203 0.512,-0.192 0.484,-0.172 0.453,-0.148 0.426,-0.129 0.402,-0.113 0.379,-0.094 0.356,-0.078 0.34,-0.067 0.328,-0.05 0.312,-0.039 0.301,-0.032 0.297,-0.023 0.578,-0.024 0.285,-0.003 h 3.887"
         style="fill:none;stroke:#aaaaaa;stroke-width:0.9;stroke-linecap:square;stroke-linejoin:miter;stroke-miterlimit:3.25;stroke-dasharray:none;stroke-opacity:1"
         id="path50" /><path
         d="m 240.625,59.215 h 7.922 v 9.359 h -7.922 z"
         style="fill:#ffffff;fill-opacity:0.666667;fill-rule:nonzero;stroke:none"
         id="path52" /><path
         d="m 240.625,59.215 h 7.922 v 9.359 h -7.922 z"
         style="fill:none;stroke:#ffffff;stroke-width:0.9;stroke-linecap:square;stroke-linejoin:miter;stroke-miterlimit:3.25;stroke-dasharray:none;stroke-opacity:0.666667"
         id="path54" /><text
         transform="translate(242.78481,66.139657)"
         style="font-variant:normal;font-weight:normal;font-size:6.48px;font-family:Arial;-inkscape-font-specification:ArialMT;writing-mode:lr-tb;fill:#000000;fill-opacity:1;fill-rule:nonzero;stroke:none"
         id="text58"><tspan
           x="0"
           y="0"
           id="tspan56">5</tspan></text><path
         d="m 218.574,58.93 h 2.645 l 0.082,-0.004 0.094,-0.004 0.101,-0.012 0.117,-0.015 0.133,-0.024 0.149,-0.031 0.164,-0.043 0.183,-0.055 0.203,-0.066 0.223,-0.082 0.246,-0.098 0.27,-0.117 0.293,-0.133 0.32,-0.152 0.348,-0.176 0.375,-0.195 0.406,-0.219 0.426,-0.238 0.453,-0.254 0.465,-0.27 0.484,-0.277 0.492,-0.289 0.504,-0.293 0.508,-0.293 0.512,-0.297 0.511,-0.293 0.504,-0.285 0.496,-0.277 0.489,-0.266 0.476,-0.254 0.457,-0.234 0.438,-0.215 0.414,-0.192 0.39,-0.172 0.371,-0.148 0.348,-0.133 0.336,-0.109 0.316,-0.094 0.301,-0.082 0.293,-0.062 0.281,-0.055 0.27,-0.039 0.266,-0.031 0.261,-0.024 0.258,-0.016 0.258,-0.007 0.254,-0.004 0.262,-0.004 h 3.605"
         style="fill:none;stroke:#ffffff;stroke-width:2.88;stroke-linecap:butt;stroke-linejoin:round;stroke-miterlimit:3.25;stroke-dasharray:none;stroke-opacity:0.666667"
         id="path60" /><path
         d="m 218.574,58.93 h 2.645 l 0.082,-0.004 0.094,-0.004 0.101,-0.012 0.117,-0.015 0.133,-0.024 0.149,-0.031 0.164,-0.043 0.183,-0.055 0.203,-0.066 0.223,-0.082 0.246,-0.098 0.27,-0.117 0.293,-0.133 0.32,-0.152 0.348,-0.176 0.375,-0.195 0.406,-0.219 0.426,-0.238 0.453,-0.254 0.465,-0.27 0.484,-0.277 0.492,-0.289 0.504,-0.293 0.508,-0.293 0.512,-0.297 0.511,-0.293 0.504,-0.285 0.496,-0.277 0.489,-0.266 0.476,-0.254 0.457,-0.234 0.438,-0.215 0.414,-0.192 0.39,-0.172 0.371,-0.148 0.348,-0.133 0.336,-0.109 0.316,-0.094 0.301,-0.082 0.293,-0.062 0.281,-0.055 0.27,-0.039 0.266,-0.031 0.261,-0.024 0.258,-0.016 0.258,-0.007 0.254,-0.004 0.262,-0.004 h 3.605"
         style="fill:none;stroke:#aaaaaa;stroke-width:0.9;stroke-linecap:square;stroke-linejoin:miter;stroke-miterlimit:3.25;stroke-dasharray:none;stroke-opacity:1"
         id="path62" /><path
         d="m 240.625,47.617 h 12.242 v 9.359 h -12.242 z"
         style="fill:#ffffff;fill-opacity:0.666667;fill-rule:nonzero;stroke:none"
         id="path64" /><path
         d="m 240.625,47.617 h 12.242 v 9.359 h -12.242 z"
         style="fill:none;stroke:#ffffff;stroke-width:0.9;stroke-linecap:square;stroke-linejoin:miter;stroke-miterlimit:3.25;stroke-dasharray:none;stroke-opacity:0.666667"
         id="path66" /><text
         transform="translate(243.14288,54.543268)"
         style="font-variant:normal;font-weight:normal;font-size:6.48px;font-family:Arial;-inkscape-font-specification:ArialMT;writing-mode:lr-tb;fill:#000000;fill-opacity:1;fill-rule:nonzero;stroke:none"
         id="text70"><tspan
           x="0 3.60288"
           y="0"
           sodipodi:role="line"
           id="tspan68">10</tspan></text><path
         d="m 218.574,39.363 h 22.051"
         style="fill:none;stroke:#ffffff;stroke-width:2.88;stroke-linecap:butt;stroke-linejoin:round;stroke-miterlimit:3.25;stroke-dasharray:none;stroke-opacity:0.666667"
         id="path72" /><path
         d="m 218.574,39.363 h 22.051"
         style="fill:none;stroke:#aaaaaa;stroke-width:0.9;stroke-linecap:square;stroke-linejoin:miter;stroke-miterlimit:3.25;stroke-dasharray:none;stroke-opacity:1"
         id="path74" /><path
         d="m 240.625,34.684 h 12.242 v 9.359 h -12.242 z"
         style="fill:#ffffff;fill-opacity:0.666667;fill-rule:nonzero;stroke:none"
         id="path76" /><path
         d="m 240.625,34.684 h 12.242 v 9.359 h -12.242 z"
         style="fill:none;stroke:#ffffff;stroke-width:0.9;stroke-linecap:square;stroke-linejoin:miter;stroke-miterlimit:3.25;stroke-dasharray:none;stroke-opacity:0.666667"
         id="path78" /><text
         transform="translate(243.14288,41.609164)"
         style="font-variant:normal;font-weight:normal;font-size:6.48px;font-family:Arial;-inkscape-font-specification:ArialMT;writing-mode:lr-tb;fill:#000000;fill-opacity:1;fill-rule:nonzero;stroke:none"
         id="text82"><tspan
           x="0 3.60288"
           y="0"
           sodipodi:role="line"
           id="tspan80">20</tspan></text><path
         d="m 218.574,19.797 h 22.051"
         style="fill:none;stroke:#ffffff;stroke-width:2.88;stroke-linecap:butt;stroke-linejoin:round;stroke-miterlimit:3.25;stroke-dasharray:none;stroke-opacity:0.666667"
         id="path84" /><path
         d="m 218.574,19.797 h 22.051"
         style="fill:none;stroke:#aaaaaa;stroke-width:0.9;stroke-linecap:square;stroke-linejoin:miter;stroke-miterlimit:3.25;stroke-dasharray:none;stroke-opacity:1"
         id="path86" /><path
         d="m 240.625,15.117 h 12.242 v 9.359 h -12.242 z"
         style="fill:#ffffff;fill-opacity:0.666667;fill-rule:nonzero;stroke:none"
         id="path88" /><path
         d="m 240.625,15.117 h 12.242 v 9.359 h -12.242 z"
         style="fill:none;stroke:#ffffff;stroke-width:0.9;stroke-linecap:square;stroke-linejoin:miter;stroke-miterlimit:3.25;stroke-dasharray:none;stroke-opacity:0.666667"
         id="path90" /><text
         transform="translate(243.14288,22.042269)"
         style="font-variant:normal;font-weight:normal;font-size:6.48px;font-family:Arial;-inkscape-font-specification:ArialMT;writing-mode:lr-tb;fill:#000000;fill-opacity:1;fill-rule:nonzero;stroke:none"
         id="text94"><tspan
           x="0 3.60288"
           y="0"
           sodipodi:role="line"
           id="tspan92">30</tspan></text><path
         d="m 4.551,79.488 v -1.55"
         style="fill:none;stroke:#000000;stroke-width:0.36;stroke-linecap:butt;stroke-linejoin:miter;stroke-miterlimit:3.25;stroke-dasharray:none;stroke-opacity:1"
         id="path96" /><path
         d="m 13.293,79.488 v -1.55"
         style="fill:none;stroke:#000000;stroke-width:0.36;stroke-linecap:butt;stroke-linejoin:miter;stroke-miterlimit:3.25;stroke-dasharray:none;stroke-opacity:1"
         id="path98" /><path
         d="M 22.035,79.488 V 76.902"
         style="fill:none;stroke:#000000;stroke-width:0.36;stroke-linecap:butt;stroke-linejoin:miter;stroke-miterlimit:3.25;stroke-dasharray:none;stroke-opacity:1"
         id="path100" /><text
         transform="translate(15.640916,87.516021)"
         style="font-variant:normal;font-weight:normal;font-size:6.48px;font-family:MathematicaSans;-inkscape-font-specification:MathematicaSans;writing-mode:lr-tb;fill:#000000;fill-opacity:1;fill-rule:nonzero;stroke:none"
         id="text104"><tspan
           x="0"
           y="0"
           id="tspan102">-</tspan></text><text
         transform="translate(19.418756,87.516021)"
         style="font-variant:normal;font-weight:normal;font-size:6.48px;font-family:Arial;-inkscape-font-specification:ArialMT;writing-mode:lr-tb;fill:#000000;fill-opacity:1;fill-rule:nonzero;stroke:none"
         id="text108"><tspan
           x="0 3.60288 5.39784"
           y="0"
           sodipodi:role="line"
           id="tspan106">1.0</tspan></text><path
         d="m 30.781,79.488 v -1.55"
         style="fill:none;stroke:#000000;stroke-width:0.36;stroke-linecap:butt;stroke-linejoin:miter;stroke-miterlimit:3.25;stroke-dasharray:none;stroke-opacity:1"
         id="path110" /><path
         d="m 39.523,79.488 v -1.55"
         style="fill:none;stroke:#000000;stroke-width:0.36;stroke-linecap:butt;stroke-linejoin:miter;stroke-miterlimit:3.25;stroke-dasharray:none;stroke-opacity:1"
         id="path112" /><path
         d="m 48.266,79.488 v -1.55"
         style="fill:none;stroke:#000000;stroke-width:0.36;stroke-linecap:butt;stroke-linejoin:miter;stroke-miterlimit:3.25;stroke-dasharray:none;stroke-opacity:1"
         id="path114" /><path
         d="m 57.008,79.488 v -1.55"
         style="fill:none;stroke:#000000;stroke-width:0.36;stroke-linecap:butt;stroke-linejoin:miter;stroke-miterlimit:3.25;stroke-dasharray:none;stroke-opacity:1"
         id="path116" /><path
         d="M 65.75,79.488 V 76.902"
         style="fill:none;stroke:#000000;stroke-width:0.36;stroke-linecap:butt;stroke-linejoin:miter;stroke-miterlimit:3.25;stroke-dasharray:none;stroke-opacity:1"
         id="path118" /><text
         transform="translate(59.355053,87.516021)"
         style="font-variant:normal;font-weight:normal;font-size:6.48px;font-family:MathematicaSans;-inkscape-font-specification:MathematicaSans;writing-mode:lr-tb;fill:#000000;fill-opacity:1;fill-rule:nonzero;stroke:none"
         id="text122"><tspan
           x="0"
           y="0"
           id="tspan120">-</tspan></text><text
         transform="translate(63.132893,87.516021)"
         style="font-variant:normal;font-weight:normal;font-size:6.48px;font-family:Arial;-inkscape-font-specification:ArialMT;writing-mode:lr-tb;fill:#000000;fill-opacity:1;fill-rule:nonzero;stroke:none"
         id="text126"><tspan
           x="0 3.60288 5.39784"
           y="0"
           sodipodi:role="line"
           id="tspan124">0.5</tspan></text><path
         d="m 74.492,79.488 v -1.55"
         style="fill:none;stroke:#000000;stroke-width:0.36;stroke-linecap:butt;stroke-linejoin:miter;stroke-miterlimit:3.25;stroke-dasharray:none;stroke-opacity:1"
         id="path128" /><path
         d="m 83.238,79.488 v -1.55"
         style="fill:none;stroke:#000000;stroke-width:0.36;stroke-linecap:butt;stroke-linejoin:miter;stroke-miterlimit:3.25;stroke-dasharray:none;stroke-opacity:1"
         id="path130" /><path
         d="m 91.98,79.488 v -1.55"
         style="fill:none;stroke:#000000;stroke-width:0.36;stroke-linecap:butt;stroke-linejoin:miter;stroke-miterlimit:3.25;stroke-dasharray:none;stroke-opacity:1"
         id="path132" /><path
         d="m 100.723,79.488 v -1.55"
         style="fill:none;stroke:#000000;stroke-width:0.36;stroke-linecap:butt;stroke-linejoin:miter;stroke-miterlimit:3.25;stroke-dasharray:none;stroke-opacity:1"
         id="path134" /><path
         d="M 109.465,79.488 V 76.902"
         style="fill:none;stroke:#000000;stroke-width:0.36;stroke-linecap:butt;stroke-linejoin:miter;stroke-miterlimit:3.25;stroke-dasharray:none;stroke-opacity:1"
         id="path136" /><path
         d="m 118.207,79.488 v -1.55"
         style="fill:none;stroke:#000000;stroke-width:0.36;stroke-linecap:butt;stroke-linejoin:miter;stroke-miterlimit:3.25;stroke-dasharray:none;stroke-opacity:1"
         id="path138" /><path
         d="m 126.949,79.488 v -1.55"
         style="fill:none;stroke:#000000;stroke-width:0.36;stroke-linecap:butt;stroke-linejoin:miter;stroke-miterlimit:3.25;stroke-dasharray:none;stroke-opacity:1"
         id="path140" /><path
         d="m 135.695,79.488 v -1.55"
         style="fill:none;stroke:#000000;stroke-width:0.36;stroke-linecap:butt;stroke-linejoin:miter;stroke-miterlimit:3.25;stroke-dasharray:none;stroke-opacity:1"
         id="path142" /><path
         d="m 144.438,79.488 v -1.55"
         style="fill:none;stroke:#000000;stroke-width:0.36;stroke-linecap:butt;stroke-linejoin:miter;stroke-miterlimit:3.25;stroke-dasharray:none;stroke-opacity:1"
         id="path144" /><path
         d="M 153.18,79.488 V 76.902"
         style="fill:none;stroke:#000000;stroke-width:0.36;stroke-linecap:butt;stroke-linejoin:miter;stroke-miterlimit:3.25;stroke-dasharray:none;stroke-opacity:1"
         id="path146" /><text
         transform="translate(148.67544,87.516021)"
         style="font-variant:normal;font-weight:normal;font-size:6.48px;font-family:Arial;-inkscape-font-specification:ArialMT;writing-mode:lr-tb;fill:#000000;fill-opacity:1;fill-rule:nonzero;stroke:none"
         id="text150"><tspan
           x="0 3.60288 5.39784"
           y="0"
           sodipodi:role="line"
           id="tspan148">0.5</tspan></text><path
         d="m 161.922,79.488 v -1.55"
         style="fill:none;stroke:#000000;stroke-width:0.36;stroke-linecap:butt;stroke-linejoin:miter;stroke-miterlimit:3.25;stroke-dasharray:none;stroke-opacity:1"
         id="path152" /><path
         d="m 170.664,79.488 v -1.55"
         style="fill:none;stroke:#000000;stroke-width:0.36;stroke-linecap:butt;stroke-linejoin:miter;stroke-miterlimit:3.25;stroke-dasharray:none;stroke-opacity:1"
         id="path154" /><path
         d="m 179.406,79.488 v -1.55"
         style="fill:none;stroke:#000000;stroke-width:0.36;stroke-linecap:butt;stroke-linejoin:miter;stroke-miterlimit:3.25;stroke-dasharray:none;stroke-opacity:1"
         id="path156" /><path
         d="m 188.152,79.488 v -1.55"
         style="fill:none;stroke:#000000;stroke-width:0.36;stroke-linecap:butt;stroke-linejoin:miter;stroke-miterlimit:3.25;stroke-dasharray:none;stroke-opacity:1"
         id="path158" /><path
         d="M 196.895,79.488 V 76.902"
         style="fill:none;stroke:#000000;stroke-width:0.36;stroke-linecap:butt;stroke-linejoin:miter;stroke-miterlimit:3.25;stroke-dasharray:none;stroke-opacity:1"
         id="path160" /><text
         transform="translate(192.38957,87.516021)"
         style="font-variant:normal;font-weight:normal;font-size:6.48px;font-family:Arial;-inkscape-font-specification:ArialMT;writing-mode:lr-tb;fill:#000000;fill-opacity:1;fill-rule:nonzero;stroke:none"
         id="text164"><tspan
           x="0 3.60288 5.39784"
           y="0"
           sodipodi:role="line"
           id="tspan162">1.0</tspan></text><path
         d="m 205.637,79.488 v -1.55"
         style="fill:none;stroke:#000000;stroke-width:0.36;stroke-linecap:butt;stroke-linejoin:miter;stroke-miterlimit:3.25;stroke-dasharray:none;stroke-opacity:1"
         id="path166" /><path
         d="m 214.379,79.488 v -1.55"
         style="fill:none;stroke:#000000;stroke-width:0.36;stroke-linecap:butt;stroke-linejoin:miter;stroke-miterlimit:3.25;stroke-dasharray:none;stroke-opacity:1"
         id="path168" /><path
         d="M 0.18,79.488 H 218.75"
         style="fill:none;stroke:#000000;stroke-width:0.36;stroke-linecap:butt;stroke-linejoin:miter;stroke-miterlimit:3.25;stroke-dasharray:none;stroke-opacity:1"
         id="path170" /><path
         d="m 109.465,143.195 h 1.555"
         style="fill:none;stroke:#000000;stroke-width:0.36;stroke-linecap:butt;stroke-linejoin:miter;stroke-miterlimit:3.25;stroke-dasharray:none;stroke-opacity:1"
         id="path172" /><path
         d="m 109.465,136.117 h 1.555"
         style="fill:none;stroke:#000000;stroke-width:0.36;stroke-linecap:butt;stroke-linejoin:miter;stroke-miterlimit:3.25;stroke-dasharray:none;stroke-opacity:1"
         id="path174" /><path
         d="m 109.465,129.039 h 1.555"
         style="fill:none;stroke:#000000;stroke-width:0.36;stroke-linecap:butt;stroke-linejoin:miter;stroke-miterlimit:3.25;stroke-dasharray:none;stroke-opacity:1"
         id="path176" /><path
         d="m 109.465,121.961 h 1.555"
         style="fill:none;stroke:#000000;stroke-width:0.36;stroke-linecap:butt;stroke-linejoin:miter;stroke-miterlimit:3.25;stroke-dasharray:none;stroke-opacity:1"
         id="path178" /><path
         d="m 109.465,114.883 h 2.59"
         style="fill:none;stroke:#000000;stroke-width:0.36;stroke-linecap:butt;stroke-linejoin:miter;stroke-miterlimit:3.25;stroke-dasharray:none;stroke-opacity:1"
         id="path180" /><text
         transform="translate(92.709522,117.12821)"
         style="font-variant:normal;font-weight:normal;font-size:6.48px;font-family:MathematicaSans;-inkscape-font-specification:MathematicaSans;writing-mode:lr-tb;fill:#000000;fill-opacity:1;fill-rule:nonzero;stroke:none"
         id="text184"><tspan
           x="0"
           y="0"
           id="tspan182">-</tspan></text><text
         transform="translate(96.487362,117.12821)"
         style="font-variant:normal;font-weight:normal;font-size:6.48px;font-family:Arial;-inkscape-font-specification:ArialMT;writing-mode:lr-tb;fill:#000000;fill-opacity:1;fill-rule:nonzero;stroke:none"
         id="text188"><tspan
           x="0 3.60288 7.20576"
           y="0"
           sodipodi:role="line"
           id="tspan186">500</tspan></text><path
         d="m 109.465,107.805 h 1.555"
         style="fill:none;stroke:#000000;stroke-width:0.36;stroke-linecap:butt;stroke-linejoin:miter;stroke-miterlimit:3.25;stroke-dasharray:none;stroke-opacity:1"
         id="path190" /><path
         d="m 109.465,100.727 h 1.555"
         style="fill:none;stroke:#000000;stroke-width:0.36;stroke-linecap:butt;stroke-linejoin:miter;stroke-miterlimit:3.25;stroke-dasharray:none;stroke-opacity:1"
         id="path192" /><path
         d="m 109.465,93.648 h 1.555"
         style="fill:none;stroke:#000000;stroke-width:0.36;stroke-linecap:butt;stroke-linejoin:miter;stroke-miterlimit:3.25;stroke-dasharray:none;stroke-opacity:1"
         id="path194" /><path
         d="m 109.465,86.566 h 1.555"
         style="fill:none;stroke:#000000;stroke-width:0.36;stroke-linecap:butt;stroke-linejoin:miter;stroke-miterlimit:3.25;stroke-dasharray:none;stroke-opacity:1"
         id="path196" /><path
         d="m 109.465,79.488 h 2.59"
         style="fill:none;stroke:#000000;stroke-width:0.36;stroke-linecap:butt;stroke-linejoin:miter;stroke-miterlimit:3.25;stroke-dasharray:none;stroke-opacity:1"
         id="path198" /><path
         d="m 109.465,72.41 h 1.555"
         style="fill:none;stroke:#000000;stroke-width:0.36;stroke-linecap:butt;stroke-linejoin:miter;stroke-miterlimit:3.25;stroke-dasharray:none;stroke-opacity:1"
         id="path200" /><path
         d="m 109.465,65.332 h 1.555"
         style="fill:none;stroke:#000000;stroke-width:0.36;stroke-linecap:butt;stroke-linejoin:miter;stroke-miterlimit:3.25;stroke-dasharray:none;stroke-opacity:1"
         id="path202" /><path
         d="m 109.465,58.254 h 1.555"
         style="fill:none;stroke:#000000;stroke-width:0.36;stroke-linecap:butt;stroke-linejoin:miter;stroke-miterlimit:3.25;stroke-dasharray:none;stroke-opacity:1"
         id="path204" /><path
         d="m 109.465,51.176 h 1.555"
         style="fill:none;stroke:#000000;stroke-width:0.36;stroke-linecap:butt;stroke-linejoin:miter;stroke-miterlimit:3.25;stroke-dasharray:none;stroke-opacity:1"
         id="path206" /><path
         d="m 109.465,44.098 h 2.59"
         style="fill:none;stroke:#000000;stroke-width:0.36;stroke-linecap:butt;stroke-linejoin:miter;stroke-miterlimit:3.25;stroke-dasharray:none;stroke-opacity:1"
         id="path208" /><text
         transform="translate(96.493741,46.344456)"
         style="font-variant:normal;font-weight:normal;font-size:6.48px;font-family:Arial;-inkscape-font-specification:ArialMT;writing-mode:lr-tb;fill:#000000;fill-opacity:1;fill-rule:nonzero;stroke:none"
         id="text212"><tspan
           x="0 3.60288 7.20576"
           y="0"
           sodipodi:role="line"
           id="tspan210">500</tspan></text><path
         d="m 109.465,37.02 h 1.555"
         style="fill:none;stroke:#000000;stroke-width:0.36;stroke-linecap:butt;stroke-linejoin:miter;stroke-miterlimit:3.25;stroke-dasharray:none;stroke-opacity:1"
         id="path214" /><path
         d="m 109.465,29.941 h 1.555"
         style="fill:none;stroke:#000000;stroke-width:0.36;stroke-linecap:butt;stroke-linejoin:miter;stroke-miterlimit:3.25;stroke-dasharray:none;stroke-opacity:1"
         id="path216" /><path
         d="m 109.465,22.863 h 1.555"
         style="fill:none;stroke:#000000;stroke-width:0.36;stroke-linecap:butt;stroke-linejoin:miter;stroke-miterlimit:3.25;stroke-dasharray:none;stroke-opacity:1"
         id="path218" /><path
         d="m 109.465,15.785 h 1.555"
         style="fill:none;stroke:#000000;stroke-width:0.36;stroke-linecap:butt;stroke-linejoin:miter;stroke-miterlimit:3.25;stroke-dasharray:none;stroke-opacity:1"
         id="path220" /><path
         d="M 109.465,143.953 V 8.867"
         style="fill:none;stroke:#000000;stroke-width:0.36;stroke-linecap:butt;stroke-linejoin:miter;stroke-miterlimit:3.25;stroke-dasharray:none;stroke-opacity:1"
         id="path222" /><text
         transform="translate(105.15181,7.039406)"
         style="font-variant:normal;font-weight:normal;font-size:7.2px;font-family:MathematicaSans;-inkscape-font-specification:MathematicaSans;writing-mode:lr-tb;fill:#000000;fill-opacity:1;fill-rule:nonzero;stroke:none"
         id="text226"><tspan
           x="0"
           y="0"
           id="tspan224">$\sigma_x$</tspan></text><text
         xml:space="preserve"
         style="font-size:12px;line-height:1.25;font-family:sans-serif;stroke-width:0.75"
         x="0.95755291"
         y="88.53849"
         id="text1897"><tspan
           sodipodi:role="line"
           id="tspan1895"
           style="stroke-width:0.75"
           x="0.95755291"
           y="88.53849">$-{h\over 2}$</tspan></text><text
         xml:space="preserve"
         style="font-size:12px;line-height:1.25;font-family:sans-serif;stroke-width:0.75"
         x="208.41142"
         y="89.55098"
         id="text1897-1"><tspan
           sodipodi:role="line"
           id="tspan1895-4"
           style="stroke-width:0.75"
           x="208.41142"
           y="89.55098">$h\over 2$</tspan></text></g></g></svg>
