<?xml version="1.0" encoding="UTF-8" standalone="no"?>
<!-- Created with Inkscape (http://www.inkscape.org/) -->

<svg
   version="1.1"
   id="svg2"
   xml:space="preserve"
   width="346.66666"
   height="210.66667"
   viewBox="0 0 346.66666 210.66667"
   sodipodi:docname="last_layer_W_Y.svg"
   inkscape:version="1.1.1 (3bf5ae0d25, 2021-09-20)"
   xmlns:inkscape="http://www.inkscape.org/namespaces/inkscape"
   xmlns:sodipodi="http://sodipodi.sourceforge.net/DTD/sodipodi-0.dtd"
   xmlns="http://www.w3.org/2000/svg"
   xmlns:svg="http://www.w3.org/2000/svg"><defs
     id="defs6" /><sodipodi:namedview
     id="namedview4"
     pagecolor="#ffffff"
     bordercolor="#666666"
     borderopacity="1.0"
     inkscape:pageshadow="2"
     inkscape:pageopacity="0.0"
     inkscape:pagecheckerboard="0"
     showgrid="false"
     inkscape:zoom="3.4528847"
     inkscape:cx="173.18852"
     inkscape:cy="105.27429"
     inkscape:window-width="3440"
     inkscape:window-height="1369"
     inkscape:window-x="-8"
     inkscape:window-y="-8"
     inkscape:window-maximized="1"
     inkscape:current-layer="g10" /><g
     id="g8"
     inkscape:groupmode="layer"
     inkscape:label="W_Y"
     transform="matrix(1.3333333,0,0,1.3333333,0,8.6e-6)"><g
       id="g10"><path
         d="m 9.547,36.281 h 6.332 l 2.109,0.004 h 6.328 l 2.11,0.004 h 6.332 l 2.109,0.004 h 6.328 l 2.11,0.004 h 6.332 l 2.109,0.004 h 6.328 l 2.11,0.004 h 6.332 l 2.109,0.004 h 8.437 l 2.11,0.003 h 6.332 l 2.109,0.004 h 6.328 l 2.11,0.004 h 6.332 l 2.109,0.004 h 6.328 l 2.114,0.004 h 6.328 l 2.109,0.004 h 6.328 l 2.113,0.004 h 6.329 l 2.109,0.004 h 8.441 l 2.11,0.004 h 6.328 l 2.109,0.004 h 6.332 l 2.11,0.004 h 6.328 l 2.109,0.003 h 6.332 l 2.11,0.004 h 6.328 l 2.109,0.004 h 8.442 l 2.109,0.004 h 6.328 l 2.109,0.004 h 6.332 l 2.11,0.004"
         style="fill:none;stroke:#5e81b5;stroke-width:1.152;stroke-linecap:square;stroke-linejoin:miter;stroke-miterlimit:3.25;stroke-dasharray:none;stroke-opacity:1"
         id="path12" /><path
         d="m 9.547,40.082 2.109,0.004 h 2.114 l 2.109,0.004 h 2.109 l 2.11,0.004 h 2.109 l 2.109,0.004 h 4.219 l 2.113,0.004 h 2.11 l 2.109,0.003 h 2.11 l 2.109,0.004 h 2.109 l 2.11,0.004 h 2.109 l 2.113,0.004 h 2.11 l 2.109,0.004 h 2.109 l 2.11,0.004 h 2.109 l 2.11,0.004 h 2.109 l 2.113,0.004 h 2.11 l 2.109,0.004 h 2.109 l 2.11,0.004 h 2.109 l 2.109,0.004 h 2.11 l 2.113,0.003 h 2.11 l 2.109,0.004 h 2.109 l 2.11,0.004 h 2.109 l 2.109,0.004 h 2.11 l 2.113,0.004 h 2.109 l 2.11,0.004 h 4.219 l 2.109,0.004 h 2.109 l 2.114,0.004 h 2.109 l 2.109,0.004 h 2.11 l 2.109,0.004 h 2.109 l 2.11,0.004 h 2.109 l 2.113,0.003 h 2.11 l 2.109,0.004 h 2.11 l 2.109,0.004 h 2.109 l 2.11,0.004 h 2.109 l 2.113,0.004 h 2.11 l 2.109,0.004 h 2.11 l 2.109,0.004 h 2.109 l 2.11,0.004 h 2.109 l 2.113,0.004 h 4.219 l 2.109,0.004 h 2.11 l 2.109,0.003 h 2.11 l 2.109,0.004 h 2.113 l 2.11,0.004 h 2.109 l 2.109,0.004 h 2.11 l 2.109,0.004 h 2.109 l 2.11,0.004 h 2.113 l 2.11,0.004 h 2.109 l 2.109,0.004 h 2.11 l 2.109,0.004 h 4.219 l 2.113,0.004 h 2.109 l 2.11,0.004"
         style="fill:none;stroke:#e19c24;stroke-width:1.152;stroke-linecap:square;stroke-linejoin:miter;stroke-miterlimit:3.25;stroke-dasharray:none;stroke-opacity:1"
         id="path14" /><path
         d="m 9.547,51.488 2.109,0.008 2.114,0.004 6.328,0.012 2.109,0.008 6.328,0.011 2.113,0.004 2.11,0.008 6.328,0.012 2.109,0.007 4.219,0.008 2.113,0.004 2.11,0.004 2.109,0.008 8.438,0.016 2.109,0.007 2.113,0.004 4.219,0.008 2.109,0.008 8.438,0.016 2.113,0.007 8.438,0.016 2.109,0.008 4.219,0.008 2.113,0.004 2.109,0.007 8.438,0.016 2.109,0.008 2.114,0.004 6.328,0.011 2.109,0.008 6.328,0.012 2.113,0.008 8.438,0.015 2.109,0.008 4.219,0.008 2.113,0.004 2.11,0.004 2.109,0.008 8.438,0.015 2.109,0.008 2.113,0.004 6.328,0.012 2.11,0.007 6.328,0.012 2.113,0.004 2.11,0.008 8.437,0.016 2.109,0.007 2.11,0.004 2.113,0.004 6.328,0.012 2.11,0.008 6.328,0.011 2.113,0.004 2.109,0.008 2.11,0.004"
         style="fill:none;stroke:#8fb032;stroke-width:1.152;stroke-linecap:square;stroke-linejoin:miter;stroke-miterlimit:3.25;stroke-dasharray:none;stroke-opacity:1"
         id="path16" /><path
         d="m 9.547,70.5 2.109,0.012 2.114,0.008 2.109,0.011 4.219,0.016 2.109,0.012 2.109,0.007 2.11,0.012 2.109,0.008 2.113,0.012 4.219,0.015 2.11,0.012 2.109,0.008 2.109,0.012 2.11,0.007 2.109,0.012 2.113,0.008 2.11,0.008 2.109,0.011 2.109,0.008 2.11,0.012 2.109,0.008 2.11,0.011 2.109,0.008 2.113,0.012 4.219,0.016 2.109,0.011 2.11,0.008 2.109,0.012 2.109,0.008 2.11,0.011 2.113,0.008 2.11,0.008 2.109,0.012 2.109,0.008 2.11,0.011 2.109,0.008 2.109,0.012 2.11,0.008 2.113,0.007 2.109,0.012 2.11,0.008 2.109,0.012 2.11,0.008 2.109,0.011 2.109,0.008 2.114,0.008 2.109,0.012 2.109,0.007 2.11,0.012 4.218,0.016 2.11,0.011 2.109,0.008 2.113,0.012 2.11,0.008 2.109,0.011 4.219,0.016 2.109,0.012 2.11,0.008 2.109,0.011 2.113,0.008 2.11,0.008 2.109,0.012 2.11,0.008 2.109,0.011 4.219,0.016 2.109,0.012 2.113,0.007 2.11,0.012 4.218,0.016 2.11,0.011 2.109,0.008 2.11,0.012 2.109,0.008 2.113,0.008 2.11,0.011 2.109,0.008 2.109,0.012 4.219,0.015 2.109,0.012 2.11,0.008 2.113,0.008 2.11,0.012 2.109,0.007 2.109,0.012 4.219,0.016 2.109,0.011 2.11,0.008 2.113,0.008 2.109,0.012 2.11,0.008"
         style="fill:none;stroke:#eb6235;stroke-width:1.152;stroke-linecap:square;stroke-linejoin:miter;stroke-miterlimit:3.25;stroke-dasharray:none;stroke-opacity:1"
         id="path18" /><path
         d="m 9.547,108.523 2.109,0.02 2.114,0.019 8.437,0.079 2.109,0.015 4.219,0.039 2.113,0.02 6.329,0.058 2.109,0.016 6.328,0.059 2.113,0.019 4.219,0.039 2.109,0.016 8.438,0.078 2.113,0.02 2.11,0.019 2.109,0.016 10.547,0.097 2.113,0.02 2.11,0.016 12.656,0.117 2.113,0.015 12.656,0.118 2.114,0.015 10.546,0.098 2.11,0.015 2.109,0.02 2.113,0.019 6.329,0.059 2.109,0.016 6.328,0.058 2.113,0.02 2.11,0.019 2.109,0.016 8.438,0.078 2.109,0.016 2.113,0.019 6.328,0.059 2.11,0.015 6.328,0.059 2.113,0.016 8.438,0.078 2.109,0.015 4.219,0.04 2.113,0.019 2.11,0.016 6.328,0.058 2.109,0.016 4.219,0.039 2.113,0.019 2.109,0.016 2.11,0.02"
         style="fill:none;stroke:#8778b3;stroke-width:1.152;stroke-linecap:square;stroke-linejoin:miter;stroke-miterlimit:3.25;stroke-dasharray:none;stroke-opacity:1"
         id="path20" /><path
         d="m 9.547,146.547 2.109,0.031 2.114,0.027 2.109,0.028 2.109,0.031 6.328,0.082 2.11,0.031 2.109,0.028 2.113,0.027 2.11,0.031 6.328,0.082 2.109,0.032 4.219,0.054 2.113,0.031 6.328,0.083 2.11,0.031 4.219,0.054 2.109,0.032 2.113,0.027 4.219,0.055 2.109,0.031 4.219,0.055 2.109,0.031 2.11,0.027 2.113,0.028 2.11,0.031 6.328,0.082 2.109,0.031 4.219,0.055 2.113,0.031 6.328,0.082 2.11,0.031 4.218,0.055 2.114,0.027 2.109,0.032 4.219,0.054 2.109,0.032 6.328,0.082 2.113,0.031 6.329,0.082 2.109,0.031 6.328,0.082 2.113,0.028 2.11,0.031 6.328,0.082 2.109,0.031 4.219,0.055 2.113,0.027 2.11,0.027 2.109,0.032 10.547,0.136 2.113,0.032 12.656,0.164 2.11,0.031 2.113,0.027 12.656,0.164 2.11,0.032 2.113,0.027 4.219,0.055"
         style="fill:none;stroke:#c56e1a;stroke-width:1.152;stroke-linecap:square;stroke-linejoin:miter;stroke-miterlimit:3.25;stroke-dasharray:none;stroke-opacity:1"
         id="path22" /><path
         d="m 222.602,36.375 h 2.566 l 0.094,-0.004 0.105,-0.004 0.121,-0.008 0.137,-0.015 0.156,-0.024 0.172,-0.039 0.195,-0.047 0.215,-0.066 0.235,-0.082 0.261,-0.106 0.282,-0.125 0.312,-0.148 0.336,-0.176 0.363,-0.203 0.391,-0.226 0.41,-0.247 0.43,-0.265 0.437,-0.274 0.453,-0.281 0.457,-0.281 0.461,-0.285 0.461,-0.278 0.453,-0.265 0.45,-0.254 0.433,-0.234 0.418,-0.211 0.403,-0.184 0.382,-0.156 0.368,-0.133 0.351,-0.113 0.34,-0.09 0.332,-0.071 0.324,-0.054 0.317,-0.039 0.316,-0.032 0.316,-0.015 0.317,-0.012 0.32,-0.004 0.328,-0.004 h 3.524"
         style="fill:none;stroke:#ffffff;stroke-width:2.88;stroke-linecap:butt;stroke-linejoin:round;stroke-miterlimit:3.25;stroke-dasharray:none;stroke-opacity:0.666667"
         id="path24" /><path
         d="m 222.602,36.375 h 2.566 l 0.094,-0.004 0.105,-0.004 0.121,-0.008 0.137,-0.015 0.156,-0.024 0.172,-0.039 0.195,-0.047 0.215,-0.066 0.235,-0.082 0.261,-0.106 0.282,-0.125 0.312,-0.148 0.336,-0.176 0.363,-0.203 0.391,-0.226 0.41,-0.247 0.43,-0.265 0.437,-0.274 0.453,-0.281 0.457,-0.281 0.461,-0.285 0.461,-0.278 0.453,-0.265 0.45,-0.254 0.433,-0.234 0.418,-0.211 0.403,-0.184 0.382,-0.156 0.368,-0.133 0.351,-0.113 0.34,-0.09 0.332,-0.071 0.324,-0.054 0.317,-0.039 0.316,-0.032 0.316,-0.015 0.317,-0.012 0.32,-0.004 0.328,-0.004 h 3.524"
         style="fill:none;stroke:#aaaaaa;stroke-width:0.9;stroke-linecap:square;stroke-linejoin:miter;stroke-miterlimit:3.25;stroke-dasharray:none;stroke-opacity:1"
         id="path26" /><path
         d="m 241.344,26.641 h 7.918 V 36 h -7.918 z"
         style="fill:#ffffff;fill-opacity:0.666667;fill-rule:nonzero;stroke:none"
         id="path28" /><path
         d="m 241.344,26.641 h 7.918 V 36 h -7.918 z"
         style="fill:none;stroke:#ffffff;stroke-width:0.9;stroke-linecap:square;stroke-linejoin:miter;stroke-miterlimit:3.25;stroke-dasharray:none;stroke-opacity:0.666667"
         id="path30" /><text
         transform="translate(243.49995,33.567365)"
         style="font-variant:normal;font-weight:normal;font-size:6.48px;font-family:Arial;-inkscape-font-specification:ArialMT;writing-mode:lr-tb;fill:#000000;fill-opacity:1;fill-rule:nonzero;stroke:none"
         id="text34"><tspan
           x="0"
           y="0"
           id="tspan32">1</tspan></text><path
         d="m 222.602,40.27 h 2.718 l 0.133,0.003 0.152,0.008 0.176,0.016 0.199,0.023 0.227,0.032 0.254,0.039 0.281,0.054 0.317,0.071 0.347,0.086 0.383,0.101 0.418,0.117 0.453,0.137 0.473,0.148 0.5,0.161 0.512,0.164 0.519,0.164 0.527,0.168 0.524,0.16 0.519,0.156 0.508,0.145 0.488,0.132 0.465,0.114 0.442,0.097 0.422,0.079 0.402,0.062 0.387,0.051 0.371,0.039 0.367,0.027 0.363,0.02 0.36,0.011 0.363,0.008 h 0.367 l 0.375,0.004 h 3.43"
         style="fill:none;stroke:#ffffff;stroke-width:2.88;stroke-linecap:butt;stroke-linejoin:round;stroke-miterlimit:3.25;stroke-dasharray:none;stroke-opacity:0.666667"
         id="path36" /><path
         d="m 222.602,40.27 h 2.718 l 0.133,0.003 0.152,0.008 0.176,0.016 0.199,0.023 0.227,0.032 0.254,0.039 0.281,0.054 0.317,0.071 0.347,0.086 0.383,0.101 0.418,0.117 0.453,0.137 0.473,0.148 0.5,0.161 0.512,0.164 0.519,0.164 0.527,0.168 0.524,0.16 0.519,0.156 0.508,0.145 0.488,0.132 0.465,0.114 0.442,0.097 0.422,0.079 0.402,0.062 0.387,0.051 0.371,0.039 0.367,0.027 0.363,0.02 0.36,0.011 0.363,0.008 h 0.367 l 0.375,0.004 h 3.43"
         style="fill:none;stroke:#aaaaaa;stroke-width:0.9;stroke-linecap:square;stroke-linejoin:miter;stroke-miterlimit:3.25;stroke-dasharray:none;stroke-opacity:1"
         id="path38" /><path
         d="m 241.344,38.188 h 7.918 v 9.359 h -7.918 z"
         style="fill:#ffffff;fill-opacity:0.666667;fill-rule:nonzero;stroke:none"
         id="path40" /><path
         d="m 241.344,38.188 h 7.918 v 9.359 h -7.918 z"
         style="fill:none;stroke:#ffffff;stroke-width:0.9;stroke-linecap:square;stroke-linejoin:miter;stroke-miterlimit:3.25;stroke-dasharray:none;stroke-opacity:0.666667"
         id="path42" /><text
         transform="translate(243.49995,45.112137)"
         style="font-variant:normal;font-weight:normal;font-size:6.48px;font-family:Arial;-inkscape-font-specification:ArialMT;writing-mode:lr-tb;fill:#000000;fill-opacity:1;fill-rule:nonzero;stroke:none"
         id="text46"><tspan
           x="0"
           y="0"
           id="tspan44">2</tspan></text><path
         d="m 222.602,51.957 h 2.718 l 0.133,0.004 0.152,0.008 0.176,0.011 0.199,0.024 0.227,0.027 0.254,0.039 0.281,0.055 0.317,0.063 0.347,0.082 0.383,0.097 0.418,0.113 0.453,0.129 0.473,0.141 0.5,0.148 0.512,0.157 0.519,0.156 0.527,0.156 0.524,0.153 0.519,0.148 0.508,0.137 0.488,0.125 0.465,0.105 0.442,0.094 0.422,0.074 0.402,0.059 0.387,0.047 0.371,0.039 0.367,0.023 0.363,0.02 0.36,0.011 0.363,0.008 h 4.172"
         style="fill:none;stroke:#ffffff;stroke-width:2.88;stroke-linecap:butt;stroke-linejoin:round;stroke-miterlimit:3.25;stroke-dasharray:none;stroke-opacity:0.666667"
         id="path48" /><path
         d="m 222.602,51.957 h 2.718 l 0.133,0.004 0.152,0.008 0.176,0.011 0.199,0.024 0.227,0.027 0.254,0.039 0.281,0.055 0.317,0.063 0.347,0.082 0.383,0.097 0.418,0.113 0.453,0.129 0.473,0.141 0.5,0.148 0.512,0.157 0.519,0.156 0.527,0.156 0.524,0.153 0.519,0.148 0.508,0.137 0.488,0.125 0.465,0.105 0.442,0.094 0.422,0.074 0.402,0.059 0.387,0.047 0.371,0.039 0.367,0.023 0.363,0.02 0.36,0.011 0.363,0.008 h 4.172"
         style="fill:none;stroke:#aaaaaa;stroke-width:0.9;stroke-linecap:square;stroke-linejoin:miter;stroke-miterlimit:3.25;stroke-dasharray:none;stroke-opacity:1"
         id="path50" /><path
         d="m 241.344,49.73 h 7.918 v 9.363 h -7.918 z"
         style="fill:#ffffff;fill-opacity:0.666667;fill-rule:nonzero;stroke:none"
         id="path52" /><path
         d="m 241.344,49.73 h 7.918 v 9.363 h -7.918 z"
         style="fill:none;stroke:#ffffff;stroke-width:0.9;stroke-linecap:square;stroke-linejoin:miter;stroke-miterlimit:3.25;stroke-dasharray:none;stroke-opacity:0.666667"
         id="path54" /><text
         transform="translate(243.49995,56.658496)"
         style="font-variant:normal;font-weight:normal;font-size:6.48px;font-family:Arial;-inkscape-font-specification:ArialMT;writing-mode:lr-tb;fill:#000000;fill-opacity:1;fill-rule:nonzero;stroke:none"
         id="text58"><tspan
           x="0"
           y="0"
           id="tspan56">5</tspan></text><path
         d="m 222.602,71.434 h 18.742"
         style="fill:none;stroke:#ffffff;stroke-width:2.88;stroke-linecap:butt;stroke-linejoin:round;stroke-miterlimit:3.25;stroke-dasharray:none;stroke-opacity:0.666667"
         id="path60" /><path
         d="m 222.602,71.434 h 18.742"
         style="fill:none;stroke:#aaaaaa;stroke-width:0.9;stroke-linecap:square;stroke-linejoin:miter;stroke-miterlimit:3.25;stroke-dasharray:none;stroke-opacity:1"
         id="path62" /><path
         d="m 241.344,66.754 h 12.238 v 9.359 h -12.238 z"
         style="fill:#ffffff;fill-opacity:0.666667;fill-rule:nonzero;stroke:none"
         id="path64" /><path
         d="m 241.344,66.754 h 12.238 v 9.359 h -12.238 z"
         style="fill:none;stroke:#ffffff;stroke-width:0.9;stroke-linecap:square;stroke-linejoin:miter;stroke-miterlimit:3.25;stroke-dasharray:none;stroke-opacity:0.666667"
         id="path66" /><text
         transform="translate(243.85802,73.68143)"
         style="font-variant:normal;font-weight:normal;font-size:6.48px;font-family:Arial;-inkscape-font-specification:ArialMT;writing-mode:lr-tb;fill:#000000;fill-opacity:1;fill-rule:nonzero;stroke:none"
         id="text70"><tspan
           x="0 3.60288"
           y="0"
           sodipodi:role="line"
           id="tspan68">10</tspan></text><path
         d="m 222.602,110.391 h 18.742"
         style="fill:none;stroke:#ffffff;stroke-width:2.88;stroke-linecap:butt;stroke-linejoin:round;stroke-miterlimit:3.25;stroke-dasharray:none;stroke-opacity:0.666667"
         id="path72" /><path
         d="m 222.602,110.391 h 18.742"
         style="fill:none;stroke:#aaaaaa;stroke-width:0.9;stroke-linecap:square;stroke-linejoin:miter;stroke-miterlimit:3.25;stroke-dasharray:none;stroke-opacity:1"
         id="path74" /><path
         d="m 241.344,105.711 h 12.238 v 9.359 h -12.238 z"
         style="fill:#ffffff;fill-opacity:0.666667;fill-rule:nonzero;stroke:none"
         id="path76" /><path
         d="m 241.344,105.711 h 12.238 v 9.359 h -12.238 z"
         style="fill:none;stroke:#ffffff;stroke-width:0.9;stroke-linecap:square;stroke-linejoin:miter;stroke-miterlimit:3.25;stroke-dasharray:none;stroke-opacity:0.666667"
         id="path78" /><text
         transform="translate(243.85802,112.63721)"
         style="font-variant:normal;font-weight:normal;font-size:6.48px;font-family:Arial;-inkscape-font-specification:ArialMT;writing-mode:lr-tb;fill:#000000;fill-opacity:1;fill-rule:nonzero;stroke:none"
         id="text82"><tspan
           x="0 3.60288"
           y="0"
           sodipodi:role="line"
           id="tspan80">20</tspan></text><path
         d="m 222.602,149.348 h 3.859 l 0.281,-0.004 h 1.047 l 0.418,-0.004 h 0.926 l 0.5,-0.004 h 0.512 l 0.519,-0.004 h 0.527 l 0.524,-0.004 h 1.027 l 0.488,-0.004 h 0.907 l 0.422,-0.004 h 6.785"
         style="fill:none;stroke:#ffffff;stroke-width:2.88;stroke-linecap:butt;stroke-linejoin:round;stroke-miterlimit:3.25;stroke-dasharray:none;stroke-opacity:0.666667"
         id="path84" /><path
         d="m 222.602,149.348 h 3.859 l 0.281,-0.004 h 1.047 l 0.418,-0.004 h 0.926 l 0.5,-0.004 h 0.512 l 0.519,-0.004 h 0.527 l 0.524,-0.004 h 1.027 l 0.488,-0.004 h 0.907 l 0.422,-0.004 h 6.785"
         style="fill:none;stroke:#aaaaaa;stroke-width:0.9;stroke-linecap:square;stroke-linejoin:miter;stroke-miterlimit:3.25;stroke-dasharray:none;stroke-opacity:1"
         id="path86" /><path
         d="m 241.344,144.641 h 12.238 V 154 h -12.238 z"
         style="fill:#ffffff;fill-opacity:0.666667;fill-rule:nonzero;stroke:none"
         id="path88" /><path
         d="m 241.344,144.641 h 12.238 V 154 h -12.238 z"
         style="fill:none;stroke:#ffffff;stroke-width:0.9;stroke-linecap:square;stroke-linejoin:miter;stroke-miterlimit:3.25;stroke-dasharray:none;stroke-opacity:0.666667"
         id="path90" /><text
         transform="translate(243.85802,151.56632)"
         style="font-variant:normal;font-weight:normal;font-size:6.48px;font-family:Arial;-inkscape-font-specification:ArialMT;writing-mode:lr-tb;fill:#000000;fill-opacity:1;fill-rule:nonzero;stroke:none"
         id="text94"><tspan
           x="0 3.60288"
           y="0"
           sodipodi:role="line"
           id="tspan92">30</tspan></text><path
         d="M 9.547,32.477 V 29.895"
         style="fill:none;stroke:#000000;stroke-width:0.36;stroke-linecap:butt;stroke-linejoin:miter;stroke-miterlimit:3.25;stroke-dasharray:none;stroke-opacity:1"
         id="path96" /><path
         d="M 19.992,32.477 V 30.93"
         style="fill:none;stroke:#000000;stroke-width:0.36;stroke-linecap:butt;stroke-linejoin:miter;stroke-miterlimit:3.25;stroke-dasharray:none;stroke-opacity:1"
         id="path98" /><path
         d="M 30.438,32.477 V 30.93"
         style="fill:none;stroke:#000000;stroke-width:0.36;stroke-linecap:butt;stroke-linejoin:miter;stroke-miterlimit:3.25;stroke-dasharray:none;stroke-opacity:1"
         id="path100" /><path
         d="M 40.879,32.477 V 30.93"
         style="fill:none;stroke:#000000;stroke-width:0.36;stroke-linecap:butt;stroke-linejoin:miter;stroke-miterlimit:3.25;stroke-dasharray:none;stroke-opacity:1"
         id="path102" /><path
         d="M 51.324,32.477 V 29.895"
         style="fill:none;stroke:#000000;stroke-width:0.36;stroke-linecap:butt;stroke-linejoin:miter;stroke-miterlimit:3.25;stroke-dasharray:none;stroke-opacity:1"
         id="path104" /><text
         transform="translate(49.521556,40.503965)"
         style="font-variant:normal;font-weight:normal;font-size:6.48px;font-family:Arial;-inkscape-font-specification:ArialMT;writing-mode:lr-tb;fill:#000000;fill-opacity:1;fill-rule:nonzero;stroke:none"
         id="text108"><tspan
           x="0"
           y="0"
           id="tspan106">2</tspan></text><path
         d="M 61.766,32.477 V 30.93"
         style="fill:none;stroke:#000000;stroke-width:0.36;stroke-linecap:butt;stroke-linejoin:miter;stroke-miterlimit:3.25;stroke-dasharray:none;stroke-opacity:1"
         id="path110" /><path
         d="M 72.211,32.477 V 30.93"
         style="fill:none;stroke:#000000;stroke-width:0.36;stroke-linecap:butt;stroke-linejoin:miter;stroke-miterlimit:3.25;stroke-dasharray:none;stroke-opacity:1"
         id="path112" /><path
         d="M 82.656,32.477 V 30.93"
         style="fill:none;stroke:#000000;stroke-width:0.36;stroke-linecap:butt;stroke-linejoin:miter;stroke-miterlimit:3.25;stroke-dasharray:none;stroke-opacity:1"
         id="path114" /><path
         d="M 93.098,32.477 V 29.895"
         style="fill:none;stroke:#000000;stroke-width:0.36;stroke-linecap:butt;stroke-linejoin:miter;stroke-miterlimit:3.25;stroke-dasharray:none;stroke-opacity:1"
         id="path116" /><text
         transform="translate(91.29696,40.503965)"
         style="font-variant:normal;font-weight:normal;font-size:6.48px;font-family:Arial;-inkscape-font-specification:ArialMT;writing-mode:lr-tb;fill:#000000;fill-opacity:1;fill-rule:nonzero;stroke:none"
         id="text120"><tspan
           x="0"
           y="0"
           id="tspan118">4</tspan></text><path
         d="M 103.543,32.477 V 30.93"
         style="fill:none;stroke:#000000;stroke-width:0.36;stroke-linecap:butt;stroke-linejoin:miter;stroke-miterlimit:3.25;stroke-dasharray:none;stroke-opacity:1"
         id="path122" /><path
         d="M 113.988,32.477 V 30.93"
         style="fill:none;stroke:#000000;stroke-width:0.36;stroke-linecap:butt;stroke-linejoin:miter;stroke-miterlimit:3.25;stroke-dasharray:none;stroke-opacity:1"
         id="path124" /><path
         d="M 124.43,32.477 V 30.93"
         style="fill:none;stroke:#000000;stroke-width:0.36;stroke-linecap:butt;stroke-linejoin:miter;stroke-miterlimit:3.25;stroke-dasharray:none;stroke-opacity:1"
         id="path126" /><path
         d="M 134.875,32.477 V 29.895"
         style="fill:none;stroke:#000000;stroke-width:0.36;stroke-linecap:butt;stroke-linejoin:miter;stroke-miterlimit:3.25;stroke-dasharray:none;stroke-opacity:1"
         id="path128" /><text
         transform="translate(133.07236,40.503965)"
         style="font-variant:normal;font-weight:normal;font-size:6.48px;font-family:Arial;-inkscape-font-specification:ArialMT;writing-mode:lr-tb;fill:#000000;fill-opacity:1;fill-rule:nonzero;stroke:none"
         id="text132"><tspan
           x="0"
           y="0"
           id="tspan130">6</tspan></text><path
         d="M 145.316,32.477 V 30.93"
         style="fill:none;stroke:#000000;stroke-width:0.36;stroke-linecap:butt;stroke-linejoin:miter;stroke-miterlimit:3.25;stroke-dasharray:none;stroke-opacity:1"
         id="path134" /><path
         d="M 155.762,32.477 V 30.93"
         style="fill:none;stroke:#000000;stroke-width:0.36;stroke-linecap:butt;stroke-linejoin:miter;stroke-miterlimit:3.25;stroke-dasharray:none;stroke-opacity:1"
         id="path136" /><path
         d="M 166.207,32.477 V 30.93"
         style="fill:none;stroke:#000000;stroke-width:0.36;stroke-linecap:butt;stroke-linejoin:miter;stroke-miterlimit:3.25;stroke-dasharray:none;stroke-opacity:1"
         id="path138" /><path
         d="M 176.648,32.477 V 29.895"
         style="fill:none;stroke:#000000;stroke-width:0.36;stroke-linecap:butt;stroke-linejoin:miter;stroke-miterlimit:3.25;stroke-dasharray:none;stroke-opacity:1"
         id="path140" /><text
         transform="translate(174.84777,40.503965)"
         style="font-variant:normal;font-weight:normal;font-size:6.48px;font-family:Arial;-inkscape-font-specification:ArialMT;writing-mode:lr-tb;fill:#000000;fill-opacity:1;fill-rule:nonzero;stroke:none"
         id="text144"><tspan
           x="0"
           y="0"
           id="tspan142">8</tspan></text><path
         d="M 187.094,32.477 V 30.93"
         style="fill:none;stroke:#000000;stroke-width:0.36;stroke-linecap:butt;stroke-linejoin:miter;stroke-miterlimit:3.25;stroke-dasharray:none;stroke-opacity:1"
         id="path146" /><path
         d="M 197.539,32.477 V 30.93"
         style="fill:none;stroke:#000000;stroke-width:0.36;stroke-linecap:butt;stroke-linejoin:miter;stroke-miterlimit:3.25;stroke-dasharray:none;stroke-opacity:1"
         id="path148" /><path
         d="M 207.98,32.477 V 30.93"
         style="fill:none;stroke:#000000;stroke-width:0.36;stroke-linecap:butt;stroke-linejoin:miter;stroke-miterlimit:3.25;stroke-dasharray:none;stroke-opacity:1"
         id="path150" /><path
         d="M 218.426,32.477 V 29.895"
         style="fill:none;stroke:#000000;stroke-width:0.36;stroke-linecap:butt;stroke-linejoin:miter;stroke-miterlimit:3.25;stroke-dasharray:none;stroke-opacity:1"
         id="path152" /><text
         transform="translate(214.82124,40.503965)"
         style="font-variant:normal;font-weight:normal;font-size:6.48px;font-family:Arial;-inkscape-font-specification:ArialMT;writing-mode:lr-tb;fill:#000000;fill-opacity:1;fill-rule:nonzero;stroke:none"
         id="text156"><tspan
           x="0 3.60288"
           y="0"
           sodipodi:role="line"
           id="tspan154">10</tspan></text><path
         d="M 5.195,32.477 H 222.777"
         style="fill:none;stroke:#000000;stroke-width:0.36;stroke-linecap:butt;stroke-linejoin:miter;stroke-miterlimit:3.25;stroke-dasharray:none;stroke-opacity:1"
         id="path158" /><text
         transform="translate(228.53671,34.724277)"
         style="font-variant:normal;font-weight:normal;font-size:6.48px;font-family:Arial;-inkscape-font-specification:ArialMT;writing-mode:lr-tb;fill:#000000;fill-opacity:1;fill-rule:nonzero;stroke:none"
         id="text162"><tspan
           x="0"
           y="0"
           id="tspan160">y</tspan></text><path
         d="m 9.547,154 h 2.586"
         style="fill:none;stroke:#000000;stroke-width:0.36;stroke-linecap:butt;stroke-linejoin:miter;stroke-miterlimit:3.25;stroke-dasharray:none;stroke-opacity:1"
         id="path164" /><text
         style="font-variant:normal;font-weight:normal;font-size:6.48px;font-family:MathematicaSans;-inkscape-font-specification:MathematicaSans;writing-mode:lr-tb;fill:#000000;fill-opacity:1;fill-rule:nonzero;stroke:none"
         id="text168"
         x="-4.3441939"
         y="156.02866"><tspan
           x="-4.3441939"
           y="156.02866"
           id="tspan166">-</tspan></text><text
         style="font-variant:normal;font-weight:normal;font-size:6.48px;font-family:Arial;-inkscape-font-specification:ArialMT;writing-mode:lr-tb;fill:#000000;fill-opacity:1;fill-rule:nonzero;stroke:none"
         id="text172"
         x="-0.5663538"
         y="156.02866"><tspan
           x="-0.5663538"
           y="156.02866"
           id="tspan170">4</tspan></text><path
         d="m 9.547,147.922 h 1.551"
         style="fill:none;stroke:#000000;stroke-width:0.36;stroke-linecap:butt;stroke-linejoin:miter;stroke-miterlimit:3.25;stroke-dasharray:none;stroke-opacity:1"
         id="path174" /><path
         d="m 9.547,141.848 h 1.551"
         style="fill:none;stroke:#000000;stroke-width:0.36;stroke-linecap:butt;stroke-linejoin:miter;stroke-miterlimit:3.25;stroke-dasharray:none;stroke-opacity:1"
         id="path176" /><path
         d="m 9.547,135.77 h 1.551"
         style="fill:none;stroke:#000000;stroke-width:0.36;stroke-linecap:butt;stroke-linejoin:miter;stroke-miterlimit:3.25;stroke-dasharray:none;stroke-opacity:1"
         id="path178" /><path
         d="m 9.547,129.695 h 1.551"
         style="fill:none;stroke:#000000;stroke-width:0.36;stroke-linecap:butt;stroke-linejoin:miter;stroke-miterlimit:3.25;stroke-dasharray:none;stroke-opacity:1"
         id="path180" /><path
         d="m 9.547,123.617 h 2.586"
         style="fill:none;stroke:#000000;stroke-width:0.36;stroke-linecap:butt;stroke-linejoin:miter;stroke-miterlimit:3.25;stroke-dasharray:none;stroke-opacity:1"
         id="path182" /><text
         style="font-variant:normal;font-weight:normal;font-size:6.48px;font-family:MathematicaSans;-inkscape-font-specification:MathematicaSans;writing-mode:lr-tb;fill:#000000;fill-opacity:1;fill-rule:nonzero;stroke:none"
         id="text186"
         x="-4.3441939"
         y="125.64826"><tspan
           x="-4.3441939"
           y="125.64826"
           id="tspan184">-</tspan></text><text
         style="font-variant:normal;font-weight:normal;font-size:6.48px;font-family:Arial;-inkscape-font-specification:ArialMT;writing-mode:lr-tb;fill:#000000;fill-opacity:1;fill-rule:nonzero;stroke:none"
         id="text190"
         x="-0.5663538"
         y="125.64826"><tspan
           x="-0.5663538"
           y="125.64826"
           id="tspan188">3</tspan></text><path
         d="m 9.547,117.543 h 1.551"
         style="fill:none;stroke:#000000;stroke-width:0.36;stroke-linecap:butt;stroke-linejoin:miter;stroke-miterlimit:3.25;stroke-dasharray:none;stroke-opacity:1"
         id="path192" /><path
         d="m 9.547,111.469 h 1.551"
         style="fill:none;stroke:#000000;stroke-width:0.36;stroke-linecap:butt;stroke-linejoin:miter;stroke-miterlimit:3.25;stroke-dasharray:none;stroke-opacity:1"
         id="path194" /><path
         d="m 9.547,105.391 h 1.551"
         style="fill:none;stroke:#000000;stroke-width:0.36;stroke-linecap:butt;stroke-linejoin:miter;stroke-miterlimit:3.25;stroke-dasharray:none;stroke-opacity:1"
         id="path196" /><path
         d="m 9.547,99.316 h 1.551"
         style="fill:none;stroke:#000000;stroke-width:0.36;stroke-linecap:butt;stroke-linejoin:miter;stroke-miterlimit:3.25;stroke-dasharray:none;stroke-opacity:1"
         id="path198" /><path
         d="m 9.547,93.238 h 2.586"
         style="fill:none;stroke:#000000;stroke-width:0.36;stroke-linecap:butt;stroke-linejoin:miter;stroke-miterlimit:3.25;stroke-dasharray:none;stroke-opacity:1"
         id="path200" /><text
         style="font-variant:normal;font-weight:normal;font-size:6.48px;font-family:MathematicaSans;-inkscape-font-specification:MathematicaSans;writing-mode:lr-tb;fill:#000000;fill-opacity:1;fill-rule:nonzero;stroke:none"
         id="text204"
         x="-4.3441939"
         y="95.267868"><tspan
           x="-4.3441939"
           y="95.267868"
           id="tspan202">-</tspan></text><text
         style="font-variant:normal;font-weight:normal;font-size:6.48px;font-family:Arial;-inkscape-font-specification:ArialMT;writing-mode:lr-tb;fill:#000000;fill-opacity:1;fill-rule:nonzero;stroke:none"
         id="text208"
         x="-0.5663538"
         y="95.267868"><tspan
           x="-0.5663538"
           y="95.267868"
           id="tspan206">2</tspan></text><path
         d="m 9.547,87.164 h 1.551"
         style="fill:none;stroke:#000000;stroke-width:0.36;stroke-linecap:butt;stroke-linejoin:miter;stroke-miterlimit:3.25;stroke-dasharray:none;stroke-opacity:1"
         id="path210" /><path
         d="m 9.547,81.086 h 1.551"
         style="fill:none;stroke:#000000;stroke-width:0.36;stroke-linecap:butt;stroke-linejoin:miter;stroke-miterlimit:3.25;stroke-dasharray:none;stroke-opacity:1"
         id="path212" /><path
         d="m 9.547,75.012 h 1.551"
         style="fill:none;stroke:#000000;stroke-width:0.36;stroke-linecap:butt;stroke-linejoin:miter;stroke-miterlimit:3.25;stroke-dasharray:none;stroke-opacity:1"
         id="path214" /><path
         d="m 9.547,68.934 h 1.551"
         style="fill:none;stroke:#000000;stroke-width:0.36;stroke-linecap:butt;stroke-linejoin:miter;stroke-miterlimit:3.25;stroke-dasharray:none;stroke-opacity:1"
         id="path216" /><path
         d="m 9.547,62.859 h 2.586"
         style="fill:none;stroke:#000000;stroke-width:0.36;stroke-linecap:butt;stroke-linejoin:miter;stroke-miterlimit:3.25;stroke-dasharray:none;stroke-opacity:1"
         id="path218" /><text
         style="font-variant:normal;font-weight:normal;font-size:6.48px;font-family:MathematicaSans;-inkscape-font-specification:MathematicaSans;writing-mode:lr-tb;fill:#000000;fill-opacity:1;fill-rule:nonzero;stroke:none"
         id="text222"
         x="-4.3441939"
         y="64.887466"><tspan
           x="-4.3441939"
           y="64.887466"
           id="tspan220">-</tspan></text><text
         style="font-variant:normal;font-weight:normal;font-size:6.48px;font-family:Arial;-inkscape-font-specification:ArialMT;writing-mode:lr-tb;fill:#000000;fill-opacity:1;fill-rule:nonzero;stroke:none"
         id="text226"
         x="-0.5663538"
         y="64.887466"><tspan
           x="-0.5663538"
           y="64.887466"
           id="tspan224">1</tspan></text><path
         d="m 9.547,56.781 h 1.551"
         style="fill:none;stroke:#000000;stroke-width:0.36;stroke-linecap:butt;stroke-linejoin:miter;stroke-miterlimit:3.25;stroke-dasharray:none;stroke-opacity:1"
         id="path228" /><path
         d="m 9.547,50.707 h 1.551"
         style="fill:none;stroke:#000000;stroke-width:0.36;stroke-linecap:butt;stroke-linejoin:miter;stroke-miterlimit:3.25;stroke-dasharray:none;stroke-opacity:1"
         id="path230" /><path
         d="m 9.547,44.629 h 1.551"
         style="fill:none;stroke:#000000;stroke-width:0.36;stroke-linecap:butt;stroke-linejoin:miter;stroke-miterlimit:3.25;stroke-dasharray:none;stroke-opacity:1"
         id="path232" /><path
         d="m 9.547,38.555 h 1.551"
         style="fill:none;stroke:#000000;stroke-width:0.36;stroke-linecap:butt;stroke-linejoin:miter;stroke-miterlimit:3.25;stroke-dasharray:none;stroke-opacity:1"
         id="path234" /><path
         d="m 9.547,32.477 h 2.586"
         style="fill:none;stroke:#000000;stroke-width:0.36;stroke-linecap:butt;stroke-linejoin:miter;stroke-miterlimit:3.25;stroke-dasharray:none;stroke-opacity:1"
         id="path236" /><path
         d="m 9.547,26.402 h 1.551"
         style="fill:none;stroke:#000000;stroke-width:0.36;stroke-linecap:butt;stroke-linejoin:miter;stroke-miterlimit:3.25;stroke-dasharray:none;stroke-opacity:1"
         id="path238" /><path
         d="M 9.547,156.07 V 21.598"
         style="fill:none;stroke:#000000;stroke-width:0.36;stroke-linecap:butt;stroke-linejoin:miter;stroke-miterlimit:3.25;stroke-dasharray:none;stroke-opacity:1"
         id="path240" /><text
         transform="translate(7.208262,15.905578)"
         style="font-variant:normal;font-weight:normal;font-size:6.48px;font-family:Arial;-inkscape-font-specification:ArialMT;writing-mode:lr-tb;fill:#000000;fill-opacity:1;fill-rule:nonzero;stroke:none"
         id="text244"><tspan
           x="0"
           y="0"
           id="tspan242">w</tspan></text></g></g></svg>
