<?xml version="1.0" encoding="UTF-8" standalone="no"?>
<!-- Created with Inkscape (http://www.inkscape.org/) -->

<svg
   version="1.1"
   id="svg2"
   xml:space="preserve"
   width="346.66666"
   height="194.66667"
   viewBox="0 0 346.66666 194.66667"
   sodipodi:docname="last_layer_V_X.svg"
   inkscape:version="1.1.1 (3bf5ae0d25, 2021-09-20)"
   xmlns:inkscape="http://www.inkscape.org/namespaces/inkscape"
   xmlns:sodipodi="http://sodipodi.sourceforge.net/DTD/sodipodi-0.dtd"
   xmlns="http://www.w3.org/2000/svg"
   xmlns:svg="http://www.w3.org/2000/svg"><defs
     id="defs6" /><sodipodi:namedview
     id="namedview4"
     pagecolor="#ffffff"
     bordercolor="#666666"
     borderopacity="1.0"
     inkscape:pageshadow="2"
     inkscape:pageopacity="0.0"
     inkscape:pagecheckerboard="0"
     showgrid="false"
     inkscape:zoom="3.4500001"
     inkscape:cx="57.391303"
     inkscape:cy="120.43478"
     inkscape:window-width="1920"
     inkscape:window-height="1009"
     inkscape:window-x="3432"
     inkscape:window-y="344"
     inkscape:window-maximized="1"
     inkscape:current-layer="g10" /><g
     id="g8"
     inkscape:groupmode="layer"
     inkscape:label="V_X"
     transform="matrix(1.3333333,0,0,1.3333333,0,8.2e-6)"><g
       id="g10"><path
         d="m 39.953,135.766 0.715,-3.774 1.887,-8.945 1.883,-8.781 3.773,-14.578 1.887,-6.458 1.882,-5.96 1.887,-5.793 1.887,-4.868 1.883,-4.863 1.886,-4.246 1.887,-3.949 1.887,-3.793 1.883,-3.168 1.886,-3.168 1.887,-2.684 1.883,-2.504 1.887,-2.367 1.886,-1.937 1.883,-1.942 1.887,-1.574 1.887,-1.465 1.886,-1.344 1.883,-1.07 1.887,-1.066 1.887,-0.801 1.882,-0.742 1.887,-0.649 1.887,-0.48 1.887,-0.477 1.882,-0.297 1.887,-0.269 1.887,-0.207 1.883,-0.113 1.886,-0.11 1.887,-0.004 1.883,0.008 1.887,0.043 3.773,0.18 1.883,0.144 1.887,0.141 1.886,0.16 1.883,0.176 1.887,0.176 1.887,0.191 1.886,0.188 1.883,0.191 3.773,0.383 1.883,0.179 1.887,0.184 1.887,0.176 1.883,0.168 1.886,0.164 1.887,0.152 1.887,0.149 1.883,0.136 1.886,0.133 1.887,0.129 1.883,0.109 1.887,0.114 1.886,0.097 1.887,0.09 1.883,0.09 1.886,0.078 1.887,0.074 1.883,0.063 1.887,0.062 1.886,0.055 1.883,0.051 1.887,0.047 3.773,0.078 1.883,0.035 1.887,0.027 1.887,0.032 1.882,0.023 3.774,0.047 1.887,0.019 1.882,0.02 1.887,0.02 1.887,0.015 1.883,0.02 1.886,0.015 1.887,0.02 1.883,0.016 1.887,0.019 1.886,0.016 1.887,0.019 1.883,0.016"
         style="fill:none;stroke:#5e81b5;stroke-width:1.152;stroke-linecap:square;stroke-linejoin:miter;stroke-miterlimit:3.25;stroke-dasharray:none;stroke-opacity:1"
         id="path12" /><path
         d="m 39.953,135.766 0.715,-3.774 1.887,-8.945 1.883,-8.781 3.773,-14.578 1.887,-6.458 1.882,-5.96 1.887,-5.793 1.887,-4.868 1.883,-4.863 1.886,-4.246 1.887,-3.949 1.887,-3.793 1.883,-3.168 1.886,-3.168 1.887,-2.684 1.883,-2.504 1.887,-2.367 1.886,-1.937 1.883,-1.942 1.887,-1.574 1.887,-1.465 1.886,-1.344 1.883,-1.07 1.887,-1.066 1.887,-0.801 1.882,-0.742 1.887,-0.649 1.887,-0.48 1.887,-0.477 1.882,-0.297 1.887,-0.269 1.887,-0.207 1.883,-0.113 1.886,-0.11 1.887,-0.004 1.883,0.008 1.887,0.043 3.773,0.18 1.883,0.144 1.887,0.141 1.886,0.16 1.883,0.176 1.887,0.176 1.887,0.191 1.886,0.188 1.883,0.191 3.773,0.383 1.883,0.179 1.887,0.184 1.887,0.176 1.883,0.168 1.886,0.164 1.887,0.152 1.887,0.149 1.883,0.136 1.886,0.133 1.887,0.129 1.883,0.109 1.887,0.114 1.886,0.097 1.887,0.09 1.883,0.09 1.886,0.078 1.887,0.074 1.883,0.063 1.887,0.062 1.886,0.055 1.883,0.051 1.887,0.047 3.773,0.078 1.883,0.035 1.887,0.027 1.887,0.032 1.882,0.023 3.774,0.047 1.887,0.019 1.882,0.02 1.887,0.02 1.887,0.015 1.883,0.02 1.886,0.015 1.887,0.02 1.883,0.016 1.887,0.019 1.886,0.016 1.887,0.019 1.883,0.016"
         style="fill:none;stroke:#e19c24;stroke-width:1.152;stroke-linecap:square;stroke-linejoin:miter;stroke-miterlimit:3.25;stroke-dasharray:none;stroke-opacity:1"
         id="path14" /><path
         d="m 39.953,135.766 0.715,-3.774 1.887,-8.945 1.883,-8.781 3.773,-14.578 1.887,-6.458 1.882,-5.96 1.887,-5.793 1.887,-4.868 1.883,-4.863 1.886,-4.246 1.887,-3.949 1.887,-3.793 1.883,-3.168 1.886,-3.168 1.887,-2.684 1.883,-2.504 1.887,-2.367 1.886,-1.937 1.883,-1.942 1.887,-1.574 1.887,-1.465 1.886,-1.344 1.883,-1.07 1.887,-1.066 1.887,-0.801 1.882,-0.742 1.887,-0.649 1.887,-0.48 1.887,-0.477 1.882,-0.297 1.887,-0.269 1.887,-0.207 1.883,-0.113 1.886,-0.11 1.887,-0.004 1.883,0.008 1.887,0.043 3.773,0.18 1.883,0.144 1.887,0.141 1.886,0.16 1.883,0.176 1.887,0.176 1.887,0.191 1.886,0.188 1.883,0.191 3.773,0.383 1.883,0.179 1.887,0.184 1.887,0.176 1.883,0.168 1.886,0.164 1.887,0.152 1.887,0.149 1.883,0.136 1.886,0.133 1.887,0.129 1.883,0.109 1.887,0.114 1.886,0.097 1.887,0.09 1.883,0.09 1.886,0.078 1.887,0.074 1.883,0.063 1.887,0.062 1.886,0.055 1.883,0.051 1.887,0.047 3.773,0.078 1.883,0.035 1.887,0.027 1.887,0.032 1.882,0.023 3.774,0.047 1.887,0.019 1.882,0.02 1.887,0.02 1.887,0.015 1.883,0.02 1.886,0.015 1.887,0.02 1.883,0.016 1.887,0.019 1.886,0.016 1.887,0.019 1.883,0.016"
         style="fill:none;stroke:#8fb032;stroke-width:1.152;stroke-linecap:square;stroke-linejoin:miter;stroke-miterlimit:3.25;stroke-dasharray:none;stroke-opacity:1"
         id="path16" /><path
         d="m 39.953,135.766 0.715,-3.774 1.887,-8.945 1.883,-8.781 3.773,-14.578 1.887,-6.458 1.882,-5.96 1.887,-5.793 1.887,-4.868 1.883,-4.863 1.886,-4.246 1.887,-3.949 1.887,-3.793 1.883,-3.168 1.886,-3.168 1.887,-2.684 1.883,-2.504 1.887,-2.367 1.886,-1.937 1.883,-1.942 1.887,-1.574 1.887,-1.465 1.886,-1.344 1.883,-1.07 1.887,-1.066 1.887,-0.801 1.882,-0.742 1.887,-0.649 1.887,-0.48 1.887,-0.477 1.882,-0.297 1.887,-0.269 1.887,-0.207 1.883,-0.113 1.886,-0.11 1.887,-0.004 1.883,0.008 1.887,0.043 3.773,0.18 1.883,0.144 1.887,0.141 1.886,0.16 1.883,0.176 1.887,0.176 1.887,0.191 1.886,0.188 1.883,0.191 3.773,0.383 1.883,0.179 1.887,0.184 1.887,0.176 1.883,0.168 1.886,0.164 1.887,0.152 1.887,0.149 1.883,0.136 1.886,0.133 1.887,0.129 1.883,0.109 1.887,0.114 1.886,0.097 1.887,0.09 1.883,0.09 1.886,0.078 1.887,0.074 1.883,0.063 1.887,0.062 1.886,0.055 1.883,0.051 1.887,0.047 3.773,0.078 1.883,0.035 1.887,0.027 1.887,0.032 1.882,0.023 3.774,0.047 1.887,0.019 1.882,0.02 1.887,0.02 1.887,0.015 1.883,0.02 1.886,0.015 1.887,0.02 1.883,0.016 1.887,0.019 1.886,0.016 1.887,0.019 1.883,0.016"
         style="fill:none;stroke:#eb6235;stroke-width:1.152;stroke-linecap:square;stroke-linejoin:miter;stroke-miterlimit:3.25;stroke-dasharray:none;stroke-opacity:1"
         id="path18" /><path
         d="m 39.953,135.766 0.715,-3.774 1.887,-8.945 1.883,-8.781 3.773,-14.578 1.887,-6.458 1.882,-5.96 1.887,-5.793 1.887,-4.868 1.883,-4.863 1.886,-4.246 1.887,-3.949 1.887,-3.793 1.883,-3.168 1.886,-3.168 1.887,-2.684 1.883,-2.504 1.887,-2.367 1.886,-1.937 1.883,-1.942 1.887,-1.574 1.887,-1.465 1.886,-1.344 1.883,-1.07 1.887,-1.066 1.887,-0.801 1.882,-0.742 1.887,-0.649 1.887,-0.48 1.887,-0.477 1.882,-0.297 1.887,-0.269 1.887,-0.207 1.883,-0.113 1.886,-0.11 1.887,-0.004 1.883,0.008 1.887,0.043 3.773,0.18 1.883,0.144 1.887,0.141 1.886,0.16 1.883,0.176 1.887,0.176 1.887,0.191 1.886,0.188 1.883,0.191 3.773,0.383 1.883,0.179 1.887,0.184 1.887,0.176 1.883,0.168 1.886,0.164 1.887,0.152 1.887,0.149 1.883,0.136 1.886,0.133 1.887,0.129 1.883,0.109 1.887,0.114 1.886,0.097 1.887,0.09 1.883,0.09 1.886,0.078 1.887,0.074 1.883,0.063 1.887,0.062 1.886,0.055 1.883,0.051 1.887,0.047 3.773,0.078 1.883,0.035 1.887,0.027 1.887,0.032 1.882,0.023 3.774,0.047 1.887,0.019 1.882,0.02 1.887,0.02 1.887,0.015 1.883,0.02 1.886,0.015 1.887,0.02 1.883,0.016 1.887,0.019 1.886,0.016 1.887,0.019 1.883,0.016"
         style="fill:none;stroke:#8778b3;stroke-width:1.152;stroke-linecap:square;stroke-linejoin:miter;stroke-miterlimit:3.25;stroke-dasharray:none;stroke-opacity:1"
         id="path20" /><path
         d="m 39.953,135.766 0.715,-3.774 1.887,-8.945 1.883,-8.781 3.773,-14.578 1.887,-6.458 1.882,-5.96 1.887,-5.793 1.887,-4.868 1.883,-4.863 1.886,-4.246 1.887,-3.949 1.887,-3.793 1.883,-3.168 1.886,-3.168 1.887,-2.684 1.883,-2.504 1.887,-2.367 1.886,-1.937 1.883,-1.942 1.887,-1.574 1.887,-1.465 1.886,-1.344 1.883,-1.07 1.887,-1.066 1.887,-0.801 1.882,-0.742 1.887,-0.649 1.887,-0.48 1.887,-0.477 1.882,-0.297 1.887,-0.269 1.887,-0.207 1.883,-0.113 1.886,-0.11 1.887,-0.004 1.883,0.008 1.887,0.043 3.773,0.18 1.883,0.144 1.887,0.141 1.886,0.16 1.883,0.176 1.887,0.176 1.887,0.191 1.886,0.188 1.883,0.191 3.773,0.383 1.883,0.179 1.887,0.184 1.887,0.176 1.883,0.168 1.886,0.164 1.887,0.152 1.887,0.149 1.883,0.136 1.886,0.133 1.887,0.129 1.883,0.109 1.887,0.114 1.886,0.097 1.887,0.09 1.883,0.09 1.886,0.078 1.887,0.074 1.883,0.063 1.887,0.062 1.886,0.055 1.883,0.051 1.887,0.047 3.773,0.078 1.883,0.035 1.887,0.027 1.887,0.032 1.882,0.023 3.774,0.047 1.887,0.019 1.882,0.02 1.887,0.02 1.887,0.015 1.883,0.02 1.886,0.015 1.887,0.02 1.883,0.016 1.887,0.019 1.886,0.016 1.887,0.019 1.883,0.016"
         style="fill:none;stroke:#c56e1a;stroke-width:1.152;stroke-linecap:square;stroke-linejoin:miter;stroke-miterlimit:3.25;stroke-dasharray:none;stroke-opacity:1"
         id="path22" /><path
         d="m 215.988,36.258 h 2.293 l 0.028,0.004 h 0.027 l 0.027,0.008 0.032,0.007 0.031,0.016 0.035,0.019 0.035,0.028 0.039,0.035 0.039,0.043 0.043,0.055 0.047,0.062 0.047,0.074 0.047,0.086 0.054,0.102 0.055,0.117 0.059,0.129 0.062,0.145 0.067,0.164 0.066,0.183 0.07,0.199 0.075,0.223 0.082,0.242 0.082,0.266 0.086,0.285 0.089,0.312 0.094,0.336 0.098,0.36 0.101,0.39 0.11,0.414 0.109,0.446 0.117,0.476 0.121,0.504 0.125,0.539 0.129,0.567 0.137,0.605 0.141,0.637 0.144,0.672 0.153,0.711 0.156,0.746 0.16,0.781 0.168,0.824 0.176,0.86 0.176,0.89 0.183,0.926 0.188,0.953 0.191,0.981 0.195,1.011 0.2,1.032 0.203,1.054 0.207,1.078 0.207,1.094 0.215,1.113 0.211,1.126 0.218,1.14 0.219,1.149 0.219,1.16 0.222,1.168 0.223,1.172 0.445,2.351 0.454,2.352 0.222,1.168 0.227,1.164 0.222,1.152 0.223,1.148 0.223,1.133 0.222,1.117 0.219,1.106 0.215,1.086 0.215,1.066 0.215,1.043 0.211,1.024 0.207,0.992 0.203,0.969 0.203,0.941 0.195,0.906 0.196,0.879 0.187,0.84 0.187,0.801 0.18,0.765 0.176,0.731 0.172,0.687 0.168,0.657 0.16,0.621 0.16,0.586 0.156,0.55 0.153,0.524 0.148,0.488 0.145,0.461 0.14,0.43 0.141,0.402 0.137,0.375 0.132,0.348 0.129,0.324 0.129,0.301 0.125,0.273 0.125,0.254 0.121,0.231 0.118,0.211 0.117,0.191 0.117,0.172 0.113,0.156 0.114,0.141 0.113,0.121 0.109,0.105 0.11,0.094 0.109,0.082 0.109,0.07 0.106,0.059 0.109,0.047 0.106,0.039 0.105,0.031 0.109,0.024 0.106,0.015 0.109,0.012 0.106,0.008 0.218,0.008 h 3.465"
         style="fill:none;stroke:#ffffff;stroke-width:2.88;stroke-linecap:butt;stroke-linejoin:round;stroke-miterlimit:3.25;stroke-dasharray:none;stroke-opacity:0.666667"
         id="path24" /><path
         d="m 215.988,36.258 h 2.293 l 0.028,0.004 h 0.027 l 0.027,0.008 0.032,0.007 0.031,0.016 0.035,0.019 0.035,0.028 0.039,0.035 0.039,0.043 0.043,0.055 0.047,0.062 0.047,0.074 0.047,0.086 0.054,0.102 0.055,0.117 0.059,0.129 0.062,0.145 0.067,0.164 0.066,0.183 0.07,0.199 0.075,0.223 0.082,0.242 0.082,0.266 0.086,0.285 0.089,0.312 0.094,0.336 0.098,0.36 0.101,0.39 0.11,0.414 0.109,0.446 0.117,0.476 0.121,0.504 0.125,0.539 0.129,0.567 0.137,0.605 0.141,0.637 0.144,0.672 0.153,0.711 0.156,0.746 0.16,0.781 0.168,0.824 0.176,0.86 0.176,0.89 0.183,0.926 0.188,0.953 0.191,0.981 0.195,1.011 0.2,1.032 0.203,1.054 0.207,1.078 0.207,1.094 0.215,1.113 0.211,1.126 0.218,1.14 0.219,1.149 0.219,1.16 0.222,1.168 0.223,1.172 0.445,2.351 0.454,2.352 0.222,1.168 0.227,1.164 0.222,1.152 0.223,1.148 0.223,1.133 0.222,1.117 0.219,1.106 0.215,1.086 0.215,1.066 0.215,1.043 0.211,1.024 0.207,0.992 0.203,0.969 0.203,0.941 0.195,0.906 0.196,0.879 0.187,0.84 0.187,0.801 0.18,0.765 0.176,0.731 0.172,0.687 0.168,0.657 0.16,0.621 0.16,0.586 0.156,0.55 0.153,0.524 0.148,0.488 0.145,0.461 0.14,0.43 0.141,0.402 0.137,0.375 0.132,0.348 0.129,0.324 0.129,0.301 0.125,0.273 0.125,0.254 0.121,0.231 0.118,0.211 0.117,0.191 0.117,0.172 0.113,0.156 0.114,0.141 0.113,0.121 0.109,0.105 0.11,0.094 0.109,0.082 0.109,0.07 0.106,0.059 0.109,0.047 0.106,0.039 0.105,0.031 0.109,0.024 0.106,0.015 0.109,0.012 0.106,0.008 0.218,0.008 h 3.465"
         style="fill:none;stroke:#aaaaaa;stroke-width:0.9;stroke-linecap:square;stroke-linejoin:miter;stroke-miterlimit:3.25;stroke-dasharray:none;stroke-opacity:1"
         id="path26" /><path
         d="m 238.277,95.129 h 7.922 v 9.359 h -7.922 z"
         style="fill:#ffffff;fill-opacity:0.666667;fill-rule:nonzero;stroke:none"
         id="path28" /><path
         d="m 238.277,95.129 h 7.922 v 9.359 h -7.922 z"
         style="fill:none;stroke:#ffffff;stroke-width:0.9;stroke-linecap:square;stroke-linejoin:miter;stroke-miterlimit:3.25;stroke-dasharray:none;stroke-opacity:0.666667"
         id="path30" /><text
         transform="translate(240.43578,102.05454)"
         style="font-variant:normal;font-weight:normal;font-size:6.48px;font-family:Arial;-inkscape-font-specification:ArialMT;writing-mode:lr-tb;fill:#000000;fill-opacity:1;fill-rule:nonzero;stroke:none"
         id="text34"><tspan
           x="0"
           y="0"
           id="tspan32">1</tspan></text><path
         d="m 215.988,36.258 h 2.285 l 0.028,0.004 h 0.031 l 0.031,0.004 0.071,0.023 0.035,0.02 0.039,0.027 0.043,0.031 0.047,0.043 0.047,0.051 0.05,0.062 0.055,0.075 0.055,0.09 0.062,0.097 0.063,0.117 0.07,0.133 0.07,0.145 0.075,0.168 0.078,0.183 0.086,0.203 0.086,0.227 0.093,0.246 0.098,0.27 0.102,0.293 0.105,0.316 0.113,0.344 0.117,0.371 0.122,0.398 0.128,0.426 0.133,0.457 0.137,0.488 0.148,0.52 0.149,0.551 0.16,0.586 0.164,0.621 0.168,0.656 0.176,0.695 0.183,0.727 0.192,0.765 0.195,0.797 0.199,0.824 0.207,0.856 0.211,0.883 0.215,0.902 0.223,0.93 0.222,0.945 0.227,0.965 0.23,0.984 0.235,0.996 0.238,1.008 0.238,1.02 0.239,1.027 0.242,1.031 0.242,1.039 0.492,2.079 0.242,1.035 0.247,1.035 0.246,1.027 0.242,1.02 0.242,1.011 0.242,1 0.242,0.985 0.239,0.969 0.234,0.949 0.234,0.93 0.231,0.91 0.226,0.886 0.223,0.86 0.219,0.828 0.215,0.801 0.211,0.769 0.203,0.738 0.203,0.7 0.191,0.66 0.192,0.629 0.183,0.59 0.18,0.558 0.176,0.524 0.168,0.492 0.168,0.461 0.16,0.433 0.156,0.403 0.156,0.375 0.149,0.347 0.148,0.325 0.145,0.296 0.14,0.274 0.137,0.25 0.133,0.226 0.133,0.207 0.133,0.188 0.125,0.172 0.128,0.148 0.122,0.133 0.125,0.121 0.121,0.102 0.117,0.09 0.121,0.078 0.117,0.062 0.117,0.055 0.118,0.043 0.117,0.035 0.117,0.027 0.117,0.02 0.113,0.016 0.118,0.007 0.121,0.004 0.117,0.004 h 3.519"
         style="fill:none;stroke:#ffffff;stroke-width:2.88;stroke-linecap:butt;stroke-linejoin:round;stroke-miterlimit:3.25;stroke-dasharray:none;stroke-opacity:0.666667"
         id="path36" /><path
         d="m 215.988,36.258 h 2.285 l 0.028,0.004 h 0.031 l 0.031,0.004 0.071,0.023 0.035,0.02 0.039,0.027 0.043,0.031 0.047,0.043 0.047,0.051 0.05,0.062 0.055,0.075 0.055,0.09 0.062,0.097 0.063,0.117 0.07,0.133 0.07,0.145 0.075,0.168 0.078,0.183 0.086,0.203 0.086,0.227 0.093,0.246 0.098,0.27 0.102,0.293 0.105,0.316 0.113,0.344 0.117,0.371 0.122,0.398 0.128,0.426 0.133,0.457 0.137,0.488 0.148,0.52 0.149,0.551 0.16,0.586 0.164,0.621 0.168,0.656 0.176,0.695 0.183,0.727 0.192,0.765 0.195,0.797 0.199,0.824 0.207,0.856 0.211,0.883 0.215,0.902 0.223,0.93 0.222,0.945 0.227,0.965 0.23,0.984 0.235,0.996 0.238,1.008 0.238,1.02 0.239,1.027 0.242,1.031 0.242,1.039 0.492,2.079 0.242,1.035 0.247,1.035 0.246,1.027 0.242,1.02 0.242,1.011 0.242,1 0.242,0.985 0.239,0.969 0.234,0.949 0.234,0.93 0.231,0.91 0.226,0.886 0.223,0.86 0.219,0.828 0.215,0.801 0.211,0.769 0.203,0.738 0.203,0.7 0.191,0.66 0.192,0.629 0.183,0.59 0.18,0.558 0.176,0.524 0.168,0.492 0.168,0.461 0.16,0.433 0.156,0.403 0.156,0.375 0.149,0.347 0.148,0.325 0.145,0.296 0.14,0.274 0.137,0.25 0.133,0.226 0.133,0.207 0.133,0.188 0.125,0.172 0.128,0.148 0.122,0.133 0.125,0.121 0.121,0.102 0.117,0.09 0.121,0.078 0.117,0.062 0.117,0.055 0.118,0.043 0.117,0.035 0.117,0.027 0.117,0.02 0.113,0.016 0.118,0.007 0.121,0.004 0.117,0.004 h 3.519"
         style="fill:none;stroke:#aaaaaa;stroke-width:0.9;stroke-linecap:square;stroke-linejoin:miter;stroke-miterlimit:3.25;stroke-dasharray:none;stroke-opacity:1"
         id="path38" /><path
         d="m 238.277,83.105 h 7.922 v 9.363 h -7.922 z"
         style="fill:#ffffff;fill-opacity:0.666667;fill-rule:nonzero;stroke:none"
         id="path40" /><path
         d="m 238.277,83.105 h 7.922 v 9.363 h -7.922 z"
         style="fill:none;stroke:#ffffff;stroke-width:0.9;stroke-linecap:square;stroke-linejoin:miter;stroke-miterlimit:3.25;stroke-dasharray:none;stroke-opacity:0.666667"
         id="path42" /><text
         transform="translate(240.43578,90.033441)"
         style="font-variant:normal;font-weight:normal;font-size:6.48px;font-family:Arial;-inkscape-font-specification:ArialMT;writing-mode:lr-tb;fill:#000000;fill-opacity:1;fill-rule:nonzero;stroke:none"
         id="text46"><tspan
           x="0"
           y="0"
           id="tspan44">2</tspan></text><path
         d="m 215.988,36.258 h 2.301 l 0.031,0.004 0.039,0.004 0.036,0.007 0.043,0.012 0.042,0.016 0.047,0.027 0.051,0.035 0.055,0.043 0.058,0.055 0.063,0.066 0.07,0.078 0.071,0.094 0.074,0.11 0.082,0.125 0.086,0.144 0.093,0.164 0.098,0.184 0.106,0.207 0.109,0.226 0.113,0.254 0.125,0.278 0.129,0.304 0.137,0.332 0.144,0.36 0.153,0.39 0.156,0.422 0.168,0.453 0.176,0.489 0.183,0.523 0.192,0.555 0.203,0.597 0.207,0.633 0.219,0.672 0.226,0.703 0.235,0.735 0.242,0.761 0.246,0.789 0.254,0.813 0.258,0.836 0.261,0.855 0.27,0.871 0.273,0.887 0.274,0.899 0.277,0.906 0.281,0.914 0.282,0.918 0.855,2.765 0.285,0.915 0.281,0.906 0.286,0.898 0.281,0.887 0.277,0.871 0.274,0.852 0.273,0.836 0.27,0.816 0.265,0.789 0.258,0.762 0.254,0.734 0.25,0.703 0.238,0.672 0.238,0.633 0.227,0.594 0.219,0.558 0.215,0.524 0.207,0.488 0.199,0.453 0.195,0.422 0.192,0.391 0.183,0.359 0.176,0.332 0.176,0.305 0.168,0.277 0.164,0.254 0.164,0.226 0.156,0.208 0.152,0.183 0.153,0.164 0.148,0.141 0.145,0.129 0.14,0.109 0.145,0.094 0.137,0.078 0.14,0.066 0.137,0.055 0.133,0.043 0.137,0.035 0.136,0.024 0.133,0.019 0.137,0.012 0.136,0.008 0.137,0.004 h 3.578"
         style="fill:none;stroke:#ffffff;stroke-width:2.88;stroke-linecap:butt;stroke-linejoin:round;stroke-miterlimit:3.25;stroke-dasharray:none;stroke-opacity:0.666667"
         id="path48" /><path
         d="m 215.988,36.258 h 2.301 l 0.031,0.004 0.039,0.004 0.036,0.007 0.043,0.012 0.042,0.016 0.047,0.027 0.051,0.035 0.055,0.043 0.058,0.055 0.063,0.066 0.07,0.078 0.071,0.094 0.074,0.11 0.082,0.125 0.086,0.144 0.093,0.164 0.098,0.184 0.106,0.207 0.109,0.226 0.113,0.254 0.125,0.278 0.129,0.304 0.137,0.332 0.144,0.36 0.153,0.39 0.156,0.422 0.168,0.453 0.176,0.489 0.183,0.523 0.192,0.555 0.203,0.597 0.207,0.633 0.219,0.672 0.226,0.703 0.235,0.735 0.242,0.761 0.246,0.789 0.254,0.813 0.258,0.836 0.261,0.855 0.27,0.871 0.273,0.887 0.274,0.899 0.277,0.906 0.281,0.914 0.282,0.918 0.855,2.765 0.285,0.915 0.281,0.906 0.286,0.898 0.281,0.887 0.277,0.871 0.274,0.852 0.273,0.836 0.27,0.816 0.265,0.789 0.258,0.762 0.254,0.734 0.25,0.703 0.238,0.672 0.238,0.633 0.227,0.594 0.219,0.558 0.215,0.524 0.207,0.488 0.199,0.453 0.195,0.422 0.192,0.391 0.183,0.359 0.176,0.332 0.176,0.305 0.168,0.277 0.164,0.254 0.164,0.226 0.156,0.208 0.152,0.183 0.153,0.164 0.148,0.141 0.145,0.129 0.14,0.109 0.145,0.094 0.137,0.078 0.14,0.066 0.137,0.055 0.133,0.043 0.137,0.035 0.136,0.024 0.133,0.019 0.137,0.012 0.136,0.008 0.137,0.004 h 3.578"
         style="fill:none;stroke:#aaaaaa;stroke-width:0.9;stroke-linecap:square;stroke-linejoin:miter;stroke-miterlimit:3.25;stroke-dasharray:none;stroke-opacity:1"
         id="path50" /><path
         d="m 238.277,70.922 h 7.922 v 9.359 h -7.922 z"
         style="fill:#ffffff;fill-opacity:0.666667;fill-rule:nonzero;stroke:none"
         id="path52" /><path
         d="m 238.277,70.922 h 7.922 v 9.359 h -7.922 z"
         style="fill:none;stroke:#ffffff;stroke-width:0.9;stroke-linecap:square;stroke-linejoin:miter;stroke-miterlimit:3.25;stroke-dasharray:none;stroke-opacity:0.666667"
         id="path54" /><text
         transform="translate(240.43578,77.849493)"
         style="font-variant:normal;font-weight:normal;font-size:6.48px;font-family:Arial;-inkscape-font-specification:ArialMT;writing-mode:lr-tb;fill:#000000;fill-opacity:1;fill-rule:nonzero;stroke:none"
         id="text58"><tspan
           x="0"
           y="0"
           id="tspan56">5</tspan></text><path
         d="m 215.988,36.258 h 2.293 l 0.024,0.004 h 0.023 l 0.055,0.015 0.027,0.012 0.031,0.02 0.032,0.027 0.035,0.031 0.035,0.039 0.035,0.047 0.043,0.059 0.039,0.07 0.043,0.082 0.047,0.09 0.047,0.105 0.051,0.121 0.054,0.137 0.055,0.149 0.059,0.168 0.058,0.187 0.063,0.203 0.066,0.223 0.07,0.242 0.075,0.266 0.074,0.285 0.078,0.312 0.082,0.332 0.086,0.36 0.09,0.383 0.094,0.41 0.093,0.437 0.102,0.465 0.105,0.496 0.106,0.524 0.113,0.554 0.117,0.586 0.117,0.621 0.125,0.653 0.129,0.687 0.133,0.723 0.137,0.762 0.144,0.796 0.149,0.832 0.148,0.872 0.157,0.91 0.164,0.945 0.164,0.977 0.168,1.011 0.172,1.039 0.175,1.071 0.18,1.093 0.184,1.118 0.187,1.144 0.188,1.16 0.191,1.184 0.195,1.199 0.196,1.219 0.195,1.23 0.199,1.243 0.203,1.253 0.203,1.262 0.204,1.27 0.207,1.273 0.203,1.277 0.207,1.282 0.414,2.554 0.207,1.274 0.207,1.269 0.207,1.262 0.207,1.254 0.203,1.242 0.207,1.231 0.203,1.218 0.199,1.2 0.2,1.183 0.199,1.16 0.199,1.145 0.191,1.117 0.196,1.098 0.187,1.066 0.188,1.039 0.183,1.012 0.18,0.976 0.18,0.946 0.172,0.91 0.171,0.871 0.165,0.836 0.164,0.793 0.156,0.762 0.156,0.722 0.152,0.688 0.149,0.652 0.144,0.621 0.141,0.586 0.141,0.555 0.136,0.527 0.133,0.492 0.129,0.465 0.129,0.438 0.125,0.41 0.121,0.387 0.121,0.355 0.117,0.332 0.118,0.313 0.117,0.285 0.109,0.265 0.113,0.243 0.11,0.222 0.105,0.203 0.11,0.188 0.105,0.168 0.102,0.148 0.101,0.137 0.106,0.121 0.097,0.106 0.102,0.093 0.102,0.078 0.097,0.071 0.098,0.058 0.101,0.047 0.098,0.039 0.098,0.035 0.097,0.024 0.098,0.019 0.102,0.012 0.097,0.008 0.102,0.008 h 0.097 l 0.102,0.004 h 3.402"
         style="fill:none;stroke:#ffffff;stroke-width:2.88;stroke-linecap:butt;stroke-linejoin:round;stroke-miterlimit:3.25;stroke-dasharray:none;stroke-opacity:0.666667"
         id="path60" /><path
         d="m 215.988,36.258 h 2.293 l 0.024,0.004 h 0.023 l 0.055,0.015 0.027,0.012 0.031,0.02 0.032,0.027 0.035,0.031 0.035,0.039 0.035,0.047 0.043,0.059 0.039,0.07 0.043,0.082 0.047,0.09 0.047,0.105 0.051,0.121 0.054,0.137 0.055,0.149 0.059,0.168 0.058,0.187 0.063,0.203 0.066,0.223 0.07,0.242 0.075,0.266 0.074,0.285 0.078,0.312 0.082,0.332 0.086,0.36 0.09,0.383 0.094,0.41 0.093,0.437 0.102,0.465 0.105,0.496 0.106,0.524 0.113,0.554 0.117,0.586 0.117,0.621 0.125,0.653 0.129,0.687 0.133,0.723 0.137,0.762 0.144,0.796 0.149,0.832 0.148,0.872 0.157,0.91 0.164,0.945 0.164,0.977 0.168,1.011 0.172,1.039 0.175,1.071 0.18,1.093 0.184,1.118 0.187,1.144 0.188,1.16 0.191,1.184 0.195,1.199 0.196,1.219 0.195,1.23 0.199,1.243 0.203,1.253 0.203,1.262 0.204,1.27 0.207,1.273 0.203,1.277 0.207,1.282 0.414,2.554 0.207,1.274 0.207,1.269 0.207,1.262 0.207,1.254 0.203,1.242 0.207,1.231 0.203,1.218 0.199,1.2 0.2,1.183 0.199,1.16 0.199,1.145 0.191,1.117 0.196,1.098 0.187,1.066 0.188,1.039 0.183,1.012 0.18,0.976 0.18,0.946 0.172,0.91 0.171,0.871 0.165,0.836 0.164,0.793 0.156,0.762 0.156,0.722 0.152,0.688 0.149,0.652 0.144,0.621 0.141,0.586 0.141,0.555 0.136,0.527 0.133,0.492 0.129,0.465 0.129,0.438 0.125,0.41 0.121,0.387 0.121,0.355 0.117,0.332 0.118,0.313 0.117,0.285 0.109,0.265 0.113,0.243 0.11,0.222 0.105,0.203 0.11,0.188 0.105,0.168 0.102,0.148 0.101,0.137 0.106,0.121 0.097,0.106 0.102,0.093 0.102,0.078 0.097,0.071 0.098,0.058 0.101,0.047 0.098,0.039 0.098,0.035 0.097,0.024 0.098,0.019 0.102,0.012 0.097,0.008 0.102,0.008 h 0.097 l 0.102,0.004 h 3.402"
         style="fill:none;stroke:#aaaaaa;stroke-width:0.9;stroke-linecap:square;stroke-linejoin:miter;stroke-miterlimit:3.25;stroke-dasharray:none;stroke-opacity:1"
         id="path62" /><path
         d="m 238.277,106.668 h 12.242 v 9.359 h -12.242 z"
         style="fill:#ffffff;fill-opacity:0.666667;fill-rule:nonzero;stroke:none"
         id="path64" /><path
         d="m 238.277,106.668 h 12.242 v 9.359 h -12.242 z"
         style="fill:none;stroke:#ffffff;stroke-width:0.9;stroke-linecap:square;stroke-linejoin:miter;stroke-miterlimit:3.25;stroke-dasharray:none;stroke-opacity:0.666667"
         id="path66" /><text
         transform="translate(240.79385,113.59324)"
         style="font-variant:normal;font-weight:normal;font-size:6.48px;font-family:Arial;-inkscape-font-specification:ArialMT;writing-mode:lr-tb;fill:#000000;fill-opacity:1;fill-rule:nonzero;stroke:none"
         id="text70"><tspan
           x="0 3.60288"
           y="0"
           sodipodi:role="line"
           id="tspan68">10</tspan></text><path
         d="m 215.988,36.258 h 2.305 l 0.086,0.008 0.047,0.007 0.051,0.016 0.058,0.02 0.059,0.031 0.07,0.039 0.07,0.047 0.078,0.066 0.086,0.074 0.09,0.094 0.098,0.106 0.105,0.129 0.114,0.144 0.125,0.168 0.129,0.188 0.14,0.214 0.149,0.235 0.16,0.265 0.168,0.293 0.179,0.321 0.188,0.351 0.203,0.383 0.211,0.418 0.227,0.449 0.238,0.488 0.246,0.524 0.262,0.559 0.273,0.589 0.281,0.621 0.293,0.645 0.301,0.672 0.309,0.691 0.312,0.707 0.321,0.727 0.328,0.734 0.328,0.746 0.332,0.754 0.672,1.516 0.34,0.758 0.335,0.754 0.336,0.746 0.336,0.734 0.332,0.727 0.329,0.707 0.32,0.691 0.32,0.668 0.313,0.648 0.304,0.622 0.297,0.589 0.289,0.559 0.281,0.523 0.266,0.489 0.262,0.449 0.25,0.418 0.238,0.383 0.234,0.351 0.223,0.321 0.215,0.293 0.211,0.261 0.203,0.239 0.195,0.214 0.192,0.188 0.187,0.168 0.18,0.144 0.176,0.125 0.176,0.11 0.168,0.094 0.167,0.074 0.165,0.062 0.164,0.051 0.16,0.039 0.16,0.031 0.16,0.02 0.16,0.015 0.164,0.008 0.16,0.004 h 0.164 l 0.165,0.004 h 3.3"
         style="fill:none;stroke:#ffffff;stroke-width:2.88;stroke-linecap:butt;stroke-linejoin:round;stroke-miterlimit:3.25;stroke-dasharray:none;stroke-opacity:0.666667"
         id="path72" /><path
         d="m 215.988,36.258 h 2.305 l 0.086,0.008 0.047,0.007 0.051,0.016 0.058,0.02 0.059,0.031 0.07,0.039 0.07,0.047 0.078,0.066 0.086,0.074 0.09,0.094 0.098,0.106 0.105,0.129 0.114,0.144 0.125,0.168 0.129,0.188 0.14,0.214 0.149,0.235 0.16,0.265 0.168,0.293 0.179,0.321 0.188,0.351 0.203,0.383 0.211,0.418 0.227,0.449 0.238,0.488 0.246,0.524 0.262,0.559 0.273,0.589 0.281,0.621 0.293,0.645 0.301,0.672 0.309,0.691 0.312,0.707 0.321,0.727 0.328,0.734 0.328,0.746 0.332,0.754 0.672,1.516 0.34,0.758 0.335,0.754 0.336,0.746 0.336,0.734 0.332,0.727 0.329,0.707 0.32,0.691 0.32,0.668 0.313,0.648 0.304,0.622 0.297,0.589 0.289,0.559 0.281,0.523 0.266,0.489 0.262,0.449 0.25,0.418 0.238,0.383 0.234,0.351 0.223,0.321 0.215,0.293 0.211,0.261 0.203,0.239 0.195,0.214 0.192,0.188 0.187,0.168 0.18,0.144 0.176,0.125 0.176,0.11 0.168,0.094 0.167,0.074 0.165,0.062 0.164,0.051 0.16,0.039 0.16,0.031 0.16,0.02 0.16,0.015 0.164,0.008 0.16,0.004 h 0.164 l 0.165,0.004 h 3.3"
         style="fill:none;stroke:#aaaaaa;stroke-width:0.9;stroke-linecap:square;stroke-linejoin:miter;stroke-miterlimit:3.25;stroke-dasharray:none;stroke-opacity:1"
         id="path74" /><path
         d="m 238.277,58.895 h 12.242 v 9.363 h -12.242 z"
         style="fill:#ffffff;fill-opacity:0.666667;fill-rule:nonzero;stroke:none"
         id="path76" /><path
         d="m 238.277,58.895 h 12.242 v 9.363 h -12.242 z"
         style="fill:none;stroke:#ffffff;stroke-width:0.9;stroke-linecap:square;stroke-linejoin:miter;stroke-miterlimit:3.25;stroke-dasharray:none;stroke-opacity:0.666667"
         id="path78" /><text
         transform="translate(240.79385,65.822789)"
         style="font-variant:normal;font-weight:normal;font-size:6.48px;font-family:Arial;-inkscape-font-specification:ArialMT;writing-mode:lr-tb;fill:#000000;fill-opacity:1;fill-rule:nonzero;stroke:none"
         id="text82"><tspan
           x="0 3.60288"
           y="0"
           sodipodi:role="line"
           id="tspan80">20</tspan></text><path
         d="m 215.988,36.258 h 2.332 l 0.055,0.004 0.059,0.008 0.062,0.011 0.074,0.016 0.082,0.027 0.086,0.035 0.098,0.047 0.109,0.059 0.117,0.074 0.133,0.086 0.141,0.109 0.156,0.125 0.168,0.145 0.18,0.164 0.199,0.191 0.211,0.215 0.23,0.242 0.247,0.266 0.261,0.301 0.285,0.328 0.301,0.359 0.317,0.395 0.339,0.422 0.352,0.445 0.363,0.469 0.379,0.488 0.387,0.504 0.398,0.519 0.407,0.528 0.41,0.535 0.414,0.543 0.414,0.539 0.418,0.543 0.418,0.531 0.414,0.528 0.41,0.519 0.402,0.5 0.399,0.484 0.387,0.469 0.378,0.442 0.364,0.414 0.351,0.39 0.34,0.356 0.32,0.324 0.305,0.293 0.293,0.262 0.281,0.238 0.27,0.211 0.258,0.184 0.246,0.164 0.238,0.14 0.231,0.121 0.226,0.106 0.215,0.086 0.215,0.07 0.207,0.055 0.203,0.047 0.199,0.031 0.199,0.027 0.2,0.016 0.199,0.012 0.398,0.007 h 3.539"
         style="fill:none;stroke:#ffffff;stroke-width:2.88;stroke-linecap:butt;stroke-linejoin:round;stroke-miterlimit:3.25;stroke-dasharray:none;stroke-opacity:0.666667"
         id="path84" /><path
         d="m 215.988,36.258 h 2.332 l 0.055,0.004 0.059,0.008 0.062,0.011 0.074,0.016 0.082,0.027 0.086,0.035 0.098,0.047 0.109,0.059 0.117,0.074 0.133,0.086 0.141,0.109 0.156,0.125 0.168,0.145 0.18,0.164 0.199,0.191 0.211,0.215 0.23,0.242 0.247,0.266 0.261,0.301 0.285,0.328 0.301,0.359 0.317,0.395 0.339,0.422 0.352,0.445 0.363,0.469 0.379,0.488 0.387,0.504 0.398,0.519 0.407,0.528 0.41,0.535 0.414,0.543 0.414,0.539 0.418,0.543 0.418,0.531 0.414,0.528 0.41,0.519 0.402,0.5 0.399,0.484 0.387,0.469 0.378,0.442 0.364,0.414 0.351,0.39 0.34,0.356 0.32,0.324 0.305,0.293 0.293,0.262 0.281,0.238 0.27,0.211 0.258,0.184 0.246,0.164 0.238,0.14 0.231,0.121 0.226,0.106 0.215,0.086 0.215,0.07 0.207,0.055 0.203,0.047 0.199,0.031 0.199,0.027 0.2,0.016 0.199,0.012 0.398,0.007 h 3.539"
         style="fill:none;stroke:#aaaaaa;stroke-width:0.9;stroke-linecap:square;stroke-linejoin:miter;stroke-miterlimit:3.25;stroke-dasharray:none;stroke-opacity:1"
         id="path86" /><path
         d="m 238.277,47.348 h 12.242 v 9.359 h -12.242 z"
         style="fill:#ffffff;fill-opacity:0.666667;fill-rule:nonzero;stroke:none"
         id="path88" /><path
         d="m 238.277,47.348 h 12.242 v 9.359 h -12.242 z"
         style="fill:none;stroke:#ffffff;stroke-width:0.9;stroke-linecap:square;stroke-linejoin:miter;stroke-miterlimit:3.25;stroke-dasharray:none;stroke-opacity:0.666667"
         id="path90" /><text
         transform="translate(240.79385,54.272485)"
         style="font-variant:normal;font-weight:normal;font-size:6.48px;font-family:Arial;-inkscape-font-specification:ArialMT;writing-mode:lr-tb;fill:#000000;fill-opacity:1;fill-rule:nonzero;stroke:none"
         id="text94"><tspan
           x="0 3.60288"
           y="0"
           sodipodi:role="line"
           id="tspan92">30</tspan></text><path
         d="m 25.582,135.766 v -2.309"
         style="fill:none;stroke:#000000;stroke-width:0.36;stroke-linecap:butt;stroke-linejoin:miter;stroke-miterlimit:3.25;stroke-dasharray:none;stroke-opacity:1"
         id="path96" /><path
         d="m 34.918,135.766 v -1.387"
         style="fill:none;stroke:#000000;stroke-width:0.36;stroke-linecap:butt;stroke-linejoin:miter;stroke-miterlimit:3.25;stroke-dasharray:none;stroke-opacity:1"
         id="path98" /><path
         d="m 44.25,135.766 v -1.387"
         style="fill:none;stroke:#000000;stroke-width:0.36;stroke-linecap:butt;stroke-linejoin:miter;stroke-miterlimit:3.25;stroke-dasharray:none;stroke-opacity:1"
         id="path100" /><path
         d="m 53.586,135.766 v -1.387"
         style="fill:none;stroke:#000000;stroke-width:0.36;stroke-linecap:butt;stroke-linejoin:miter;stroke-miterlimit:3.25;stroke-dasharray:none;stroke-opacity:1"
         id="path102" /><path
         d="m 62.918,135.766 v -1.387"
         style="fill:none;stroke:#000000;stroke-width:0.36;stroke-linecap:butt;stroke-linejoin:miter;stroke-miterlimit:3.25;stroke-dasharray:none;stroke-opacity:1"
         id="path104" /><path
         d="m 72.25,135.766 v -2.309"
         style="fill:none;stroke:#000000;stroke-width:0.36;stroke-linecap:butt;stroke-linejoin:miter;stroke-miterlimit:3.25;stroke-dasharray:none;stroke-opacity:1"
         id="path106" /><text
         transform="translate(70.449485,143.79249)"
         style="font-variant:normal;font-weight:normal;font-size:6.48px;font-family:Arial;-inkscape-font-specification:ArialMT;writing-mode:lr-tb;fill:#000000;fill-opacity:1;fill-rule:nonzero;stroke:none"
         id="text110"><tspan
           x="0"
           y="0"
           id="tspan108">5</tspan></text><path
         d="m 81.586,135.766 v -1.387"
         style="fill:none;stroke:#000000;stroke-width:0.36;stroke-linecap:butt;stroke-linejoin:miter;stroke-miterlimit:3.25;stroke-dasharray:none;stroke-opacity:1"
         id="path112" /><path
         d="m 90.918,135.766 v -1.387"
         style="fill:none;stroke:#000000;stroke-width:0.36;stroke-linecap:butt;stroke-linejoin:miter;stroke-miterlimit:3.25;stroke-dasharray:none;stroke-opacity:1"
         id="path114" /><path
         d="m 100.254,135.766 v -1.387"
         style="fill:none;stroke:#000000;stroke-width:0.36;stroke-linecap:butt;stroke-linejoin:miter;stroke-miterlimit:3.25;stroke-dasharray:none;stroke-opacity:1"
         id="path116" /><path
         d="m 109.586,135.766 v -1.387"
         style="fill:none;stroke:#000000;stroke-width:0.36;stroke-linecap:butt;stroke-linejoin:miter;stroke-miterlimit:3.25;stroke-dasharray:none;stroke-opacity:1"
         id="path118" /><path
         d="m 118.918,135.766 v -2.309"
         style="fill:none;stroke:#000000;stroke-width:0.36;stroke-linecap:butt;stroke-linejoin:miter;stroke-miterlimit:3.25;stroke-dasharray:none;stroke-opacity:1"
         id="path120" /><text
         transform="translate(115.31542,143.79249)"
         style="font-variant:normal;font-weight:normal;font-size:6.48px;font-family:Arial;-inkscape-font-specification:ArialMT;writing-mode:lr-tb;fill:#000000;fill-opacity:1;fill-rule:nonzero;stroke:none"
         id="text124"><tspan
           x="0 3.60288"
           y="0"
           sodipodi:role="line"
           id="tspan122">10</tspan></text><path
         d="m 128.254,135.766 v -1.387"
         style="fill:none;stroke:#000000;stroke-width:0.36;stroke-linecap:butt;stroke-linejoin:miter;stroke-miterlimit:3.25;stroke-dasharray:none;stroke-opacity:1"
         id="path126" /><path
         d="m 137.586,135.766 v -1.387"
         style="fill:none;stroke:#000000;stroke-width:0.36;stroke-linecap:butt;stroke-linejoin:miter;stroke-miterlimit:3.25;stroke-dasharray:none;stroke-opacity:1"
         id="path128" /><path
         d="m 146.922,135.766 v -1.387"
         style="fill:none;stroke:#000000;stroke-width:0.36;stroke-linecap:butt;stroke-linejoin:miter;stroke-miterlimit:3.25;stroke-dasharray:none;stroke-opacity:1"
         id="path130" /><path
         d="m 156.254,135.766 v -1.387"
         style="fill:none;stroke:#000000;stroke-width:0.36;stroke-linecap:butt;stroke-linejoin:miter;stroke-miterlimit:3.25;stroke-dasharray:none;stroke-opacity:1"
         id="path132" /><path
         d="m 165.586,135.766 v -2.309"
         style="fill:none;stroke:#000000;stroke-width:0.36;stroke-linecap:butt;stroke-linejoin:miter;stroke-miterlimit:3.25;stroke-dasharray:none;stroke-opacity:1"
         id="path134" /><text
         transform="translate(161.98328,143.79249)"
         style="font-variant:normal;font-weight:normal;font-size:6.48px;font-family:Arial;-inkscape-font-specification:ArialMT;writing-mode:lr-tb;fill:#000000;fill-opacity:1;fill-rule:nonzero;stroke:none"
         id="text138"><tspan
           x="0 3.60288"
           y="0"
           sodipodi:role="line"
           id="tspan136">15</tspan></text><path
         d="m 174.922,135.766 v -1.387"
         style="fill:none;stroke:#000000;stroke-width:0.36;stroke-linecap:butt;stroke-linejoin:miter;stroke-miterlimit:3.25;stroke-dasharray:none;stroke-opacity:1"
         id="path140" /><path
         d="m 184.254,135.766 v -1.387"
         style="fill:none;stroke:#000000;stroke-width:0.36;stroke-linecap:butt;stroke-linejoin:miter;stroke-miterlimit:3.25;stroke-dasharray:none;stroke-opacity:1"
         id="path142" /><path
         d="m 193.586,135.766 v -1.387"
         style="fill:none;stroke:#000000;stroke-width:0.36;stroke-linecap:butt;stroke-linejoin:miter;stroke-miterlimit:3.25;stroke-dasharray:none;stroke-opacity:1"
         id="path144" /><path
         d="m 202.922,135.766 v -1.387"
         style="fill:none;stroke:#000000;stroke-width:0.36;stroke-linecap:butt;stroke-linejoin:miter;stroke-miterlimit:3.25;stroke-dasharray:none;stroke-opacity:1"
         id="path146" /><path
         d="m 212.254,135.766 v -2.309"
         style="fill:none;stroke:#000000;stroke-width:0.36;stroke-linecap:butt;stroke-linejoin:miter;stroke-miterlimit:3.25;stroke-dasharray:none;stroke-opacity:1"
         id="path148" /><text
         transform="translate(208.65114,143.79249)"
         style="font-variant:normal;font-weight:normal;font-size:6.48px;font-family:Arial;-inkscape-font-specification:ArialMT;writing-mode:lr-tb;fill:#000000;fill-opacity:1;fill-rule:nonzero;stroke:none"
         id="text152"><tspan
           x="0 3.60288"
           y="0"
           sodipodi:role="line"
           id="tspan150">20</tspan></text><path
         d="m 21.695,135.766 h 194.45"
         style="fill:none;stroke:#000000;stroke-width:0.36;stroke-linecap:butt;stroke-linejoin:miter;stroke-miterlimit:3.25;stroke-dasharray:none;stroke-opacity:1"
         id="path154" /><text
         transform="translate(221.904,138.01281)"
         style="font-variant:normal;font-weight:normal;font-size:6.48px;font-family:Arial;-inkscape-font-specification:ArialMT;writing-mode:lr-tb;fill:#000000;fill-opacity:1;fill-rule:nonzero;stroke:none"
         id="text158"><tspan
           x="0"
           y="0"
           id="tspan156">x</tspan></text><path
         d="m 25.582,140.895 h 1.387"
         style="fill:none;stroke:#000000;stroke-width:0.36;stroke-linecap:butt;stroke-linejoin:miter;stroke-miterlimit:3.25;stroke-dasharray:none;stroke-opacity:1"
         id="path160" /><path
         d="m 25.582,136.234 h 1.387"
         style="fill:none;stroke:#000000;stroke-width:0.36;stroke-linecap:butt;stroke-linejoin:miter;stroke-miterlimit:3.25;stroke-dasharray:none;stroke-opacity:1"
         id="path162" /><path
         d="m 25.582,131.57 h 1.387"
         style="fill:none;stroke:#000000;stroke-width:0.36;stroke-linecap:butt;stroke-linejoin:miter;stroke-miterlimit:3.25;stroke-dasharray:none;stroke-opacity:1"
         id="path164" /><path
         d="m 25.582,126.906 h 1.387"
         style="fill:none;stroke:#000000;stroke-width:0.36;stroke-linecap:butt;stroke-linejoin:miter;stroke-miterlimit:3.25;stroke-dasharray:none;stroke-opacity:1"
         id="path166" /><path
         d="m 25.582,122.242 h 2.313"
         style="fill:none;stroke:#000000;stroke-width:0.36;stroke-linecap:butt;stroke-linejoin:miter;stroke-miterlimit:3.25;stroke-dasharray:none;stroke-opacity:1"
         id="path168" /><text
         style="font-variant:normal;font-weight:normal;font-size:6.48px;font-family:Arial;-inkscape-font-specification:ArialMT;writing-mode:lr-tb;fill:#000000;fill-opacity:1;fill-rule:nonzero;stroke:none"
         id="text172"
         x="-6.0869575"
         y="124.27313"><tspan
           x="-6.0869575 -2.484076 -0.6891169 2.9137635 6.516643 10.119524 13.722404"
           y="124.27313"
           sodipodi:role="line"
           id="tspan170">0.00030</tspan></text><path
         d="m 25.582,117.582 h 1.387"
         style="fill:none;stroke:#000000;stroke-width:0.36;stroke-linecap:butt;stroke-linejoin:miter;stroke-miterlimit:3.25;stroke-dasharray:none;stroke-opacity:1"
         id="path174" /><path
         d="m 25.582,112.918 h 1.387"
         style="fill:none;stroke:#000000;stroke-width:0.36;stroke-linecap:butt;stroke-linejoin:miter;stroke-miterlimit:3.25;stroke-dasharray:none;stroke-opacity:1"
         id="path176" /><path
         d="m 25.582,108.254 h 1.387"
         style="fill:none;stroke:#000000;stroke-width:0.36;stroke-linecap:butt;stroke-linejoin:miter;stroke-miterlimit:3.25;stroke-dasharray:none;stroke-opacity:1"
         id="path178" /><path
         d="m 25.582,103.594 h 1.387"
         style="fill:none;stroke:#000000;stroke-width:0.36;stroke-linecap:butt;stroke-linejoin:miter;stroke-miterlimit:3.25;stroke-dasharray:none;stroke-opacity:1"
         id="path180" /><path
         d="m 25.582,98.93 h 2.313"
         style="fill:none;stroke:#000000;stroke-width:0.36;stroke-linecap:butt;stroke-linejoin:miter;stroke-miterlimit:3.25;stroke-dasharray:none;stroke-opacity:1"
         id="path182" /><text
         style="font-variant:normal;font-weight:normal;font-size:6.48px;font-family:Arial;-inkscape-font-specification:ArialMT;writing-mode:lr-tb;fill:#000000;fill-opacity:1;fill-rule:nonzero;stroke:none"
         id="text186"
         x="-6.0869575"
         y="100.95866"><tspan
           x="-6.0869575 -2.484076 -0.6891169 2.9137635 6.516643 10.119524 13.722404"
           y="100.95866"
           sodipodi:role="line"
           id="tspan184">0.00035</tspan></text><path
         d="m 25.582,94.266 h 1.387"
         style="fill:none;stroke:#000000;stroke-width:0.36;stroke-linecap:butt;stroke-linejoin:miter;stroke-miterlimit:3.25;stroke-dasharray:none;stroke-opacity:1"
         id="path188" /><path
         d="m 25.582,89.605 h 1.387"
         style="fill:none;stroke:#000000;stroke-width:0.36;stroke-linecap:butt;stroke-linejoin:miter;stroke-miterlimit:3.25;stroke-dasharray:none;stroke-opacity:1"
         id="path190" /><path
         d="m 25.582,84.941 h 1.387"
         style="fill:none;stroke:#000000;stroke-width:0.36;stroke-linecap:butt;stroke-linejoin:miter;stroke-miterlimit:3.25;stroke-dasharray:none;stroke-opacity:1"
         id="path192" /><path
         d="m 25.582,80.277 h 1.387"
         style="fill:none;stroke:#000000;stroke-width:0.36;stroke-linecap:butt;stroke-linejoin:miter;stroke-miterlimit:3.25;stroke-dasharray:none;stroke-opacity:1"
         id="path194" /><path
         d="m 25.582,75.613 h 2.313"
         style="fill:none;stroke:#000000;stroke-width:0.36;stroke-linecap:butt;stroke-linejoin:miter;stroke-miterlimit:3.25;stroke-dasharray:none;stroke-opacity:1"
         id="path196" /><text
         style="font-variant:normal;font-weight:normal;font-size:6.48px;font-family:Arial;-inkscape-font-specification:ArialMT;writing-mode:lr-tb;fill:#000000;fill-opacity:1;fill-rule:nonzero;stroke:none"
         id="text200"
         x="-6.0869575"
         y="77.644196"><tspan
           x="-6.0869575 -2.484076 -0.6891169 2.9137635 6.516643 10.119524 13.722404"
           y="77.644196"
           sodipodi:role="line"
           id="tspan198">0.00040</tspan></text><path
         d="m 25.582,70.953 h 1.387"
         style="fill:none;stroke:#000000;stroke-width:0.36;stroke-linecap:butt;stroke-linejoin:miter;stroke-miterlimit:3.25;stroke-dasharray:none;stroke-opacity:1"
         id="path202" /><path
         d="m 25.582,66.289 h 1.387"
         style="fill:none;stroke:#000000;stroke-width:0.36;stroke-linecap:butt;stroke-linejoin:miter;stroke-miterlimit:3.25;stroke-dasharray:none;stroke-opacity:1"
         id="path204" /><path
         d="m 25.582,61.625 h 1.387"
         style="fill:none;stroke:#000000;stroke-width:0.36;stroke-linecap:butt;stroke-linejoin:miter;stroke-miterlimit:3.25;stroke-dasharray:none;stroke-opacity:1"
         id="path206" /><path
         d="m 25.582,56.965 h 1.387"
         style="fill:none;stroke:#000000;stroke-width:0.36;stroke-linecap:butt;stroke-linejoin:miter;stroke-miterlimit:3.25;stroke-dasharray:none;stroke-opacity:1"
         id="path208" /><path
         d="m 25.582,52.301 h 2.313"
         style="fill:none;stroke:#000000;stroke-width:0.36;stroke-linecap:butt;stroke-linejoin:miter;stroke-miterlimit:3.25;stroke-dasharray:none;stroke-opacity:1"
         id="path210" /><text
         style="font-variant:normal;font-weight:normal;font-size:6.48px;font-family:Arial;-inkscape-font-specification:ArialMT;writing-mode:lr-tb;fill:#000000;fill-opacity:1;fill-rule:nonzero;stroke:none"
         id="text214"
         x="-6.0869575"
         y="54.329727"><tspan
           x="-6.0869575 -2.484076 -0.6891169 2.9137635 6.516643 10.119524 13.722404"
           y="54.329727"
           sodipodi:role="line"
           id="tspan212">0.00045</tspan></text><path
         d="m 25.582,47.637 h 1.387"
         style="fill:none;stroke:#000000;stroke-width:0.36;stroke-linecap:butt;stroke-linejoin:miter;stroke-miterlimit:3.25;stroke-dasharray:none;stroke-opacity:1"
         id="path216" /><path
         d="m 25.582,42.977 h 1.387"
         style="fill:none;stroke:#000000;stroke-width:0.36;stroke-linecap:butt;stroke-linejoin:miter;stroke-miterlimit:3.25;stroke-dasharray:none;stroke-opacity:1"
         id="path218" /><path
         d="m 25.582,38.312 h 1.387"
         style="fill:none;stroke:#000000;stroke-width:0.36;stroke-linecap:butt;stroke-linejoin:miter;stroke-miterlimit:3.25;stroke-dasharray:none;stroke-opacity:1"
         id="path220" /><path
         d="m 25.582,33.648 h 1.387"
         style="fill:none;stroke:#000000;stroke-width:0.36;stroke-linecap:butt;stroke-linejoin:miter;stroke-miterlimit:3.25;stroke-dasharray:none;stroke-opacity:1"
         id="path222" /><path
         d="m 25.582,28.984 h 2.313"
         style="fill:none;stroke:#000000;stroke-width:0.36;stroke-linecap:butt;stroke-linejoin:miter;stroke-miterlimit:3.25;stroke-dasharray:none;stroke-opacity:1"
         id="path224" /><text
         style="font-variant:normal;font-weight:normal;font-size:6.48px;font-family:Arial;-inkscape-font-specification:ArialMT;writing-mode:lr-tb;fill:#000000;fill-opacity:1;fill-rule:nonzero;stroke:none"
         id="text228"
         x="-6.0869575"
         y="31.015259"><tspan
           x="-6.0869575 -2.484076 -0.6891169 2.9137635 6.516643 10.119524 13.722404"
           y="31.015259"
           sodipodi:role="line"
           id="tspan226">0.00050</tspan></text><path
         d="m 25.582,24.324 h 1.387"
         style="fill:none;stroke:#000000;stroke-width:0.36;stroke-linecap:butt;stroke-linejoin:miter;stroke-miterlimit:3.25;stroke-dasharray:none;stroke-opacity:1"
         id="path230" /><path
         d="M 25.582,141.773 V 21.598"
         style="fill:none;stroke:#000000;stroke-width:0.36;stroke-linecap:butt;stroke-linejoin:miter;stroke-miterlimit:3.25;stroke-dasharray:none;stroke-opacity:1"
         id="path232" /><text
         transform="translate(23.963555,15.905578)"
         style="font-variant:normal;font-weight:normal;font-size:6.48px;font-family:Arial;-inkscape-font-specification:ArialMT;writing-mode:lr-tb;fill:#000000;fill-opacity:1;fill-rule:nonzero;stroke:none"
         id="text236"><tspan
           x="0"
           y="0"
           id="tspan234">v</tspan></text></g></g></svg>
