<?xml version="1.0" encoding="UTF-8" standalone="no"?>
<!-- Created with Inkscape (http://www.inkscape.org/) -->

<svg
   version="1.1"
   id="svg2"
   xml:space="preserve"
   width="346.66666"
   height="209.33333"
   viewBox="0 0 346.66666 209.33333"
   sodipodi:docname="last_layer_W_X.svg"
   inkscape:version="1.1.1 (3bf5ae0d25, 2021-09-20)"
   xmlns:inkscape="http://www.inkscape.org/namespaces/inkscape"
   xmlns:sodipodi="http://sodipodi.sourceforge.net/DTD/sodipodi-0.dtd"
   xmlns="http://www.w3.org/2000/svg"
   xmlns:svg="http://www.w3.org/2000/svg"><defs
     id="defs6"><clipPath
       clipPathUnits="userSpaceOnUse"
       id="clipPath232"><path
         d="m 9,21 h 1 V 156.238 H 9 Z"
         id="path230" /></clipPath></defs><sodipodi:namedview
     id="namedview4"
     pagecolor="#ffffff"
     bordercolor="#666666"
     borderopacity="1.0"
     inkscape:pageshadow="2"
     inkscape:pageopacity="0.0"
     inkscape:pagecheckerboard="0"
     showgrid="false"
     inkscape:zoom="3.4528847"
     inkscape:cx="173.18852"
     inkscape:cy="104.69507"
     inkscape:window-width="3440"
     inkscape:window-height="1369"
     inkscape:window-x="-8"
     inkscape:window-y="-8"
     inkscape:window-maximized="1"
     inkscape:current-layer="g10" /><g
     id="g8"
     inkscape:groupmode="layer"
     inkscape:label="W_X"
     transform="matrix(1.3333333,0,0,1.3333333,0,1.9e-6)"><g
       id="g10"><path
         d="m 9.547,32.5 h 4.223 l 2.109,0.004 2.109,0.008 2.11,0.004 2.109,0.007 2.109,0.012 2.11,0.008 2.109,0.012 2.113,0.011 6.329,0.047 8.437,0.078 2.113,0.024 4.219,0.047 8.438,0.109 2.109,0.031 2.113,0.032 6.328,0.093 8.438,0.141 2.113,0.039 2.11,0.035 6.328,0.117 2.109,0.043 2.109,0.039 2.11,0.043 2.113,0.039 6.328,0.129 2.11,0.047 2.109,0.043 2.109,0.047 2.11,0.043 2.113,0.047 10.547,0.234 2.109,0.051 2.11,0.047 2.113,0.051 2.109,0.047 4.219,0.101 2.109,0.047 8.438,0.203 2.113,0.051 4.219,0.101 2.109,0.055 6.328,0.153 2.11,0.054 2.113,0.051 2.109,0.051 2.11,0.054 2.109,0.051 2.11,0.055 2.109,0.051 2.109,0.054 2.11,0.051 2.113,0.055 2.109,0.051 2.11,0.054 2.109,0.051 2.109,0.055 2.11,0.051 4.219,0.109 2.113,0.051 2.109,0.054 2.11,0.051 4.218,0.11 2.11,0.05 2.109,0.055 2.109,0.051 2.114,0.055"
         style="fill:none;stroke:#5e81b5;stroke-width:1.152;stroke-linecap:square;stroke-linejoin:miter;stroke-miterlimit:3.25;stroke-dasharray:none;stroke-opacity:1"
         id="path12" /><path
         d="m 9.547,32.496 2.109,0.004 2.114,0.004 2.109,0.008 2.109,0.011 2.11,0.008 2.109,0.02 2.109,0.015 4.219,0.047 2.113,0.024 2.11,0.031 2.109,0.027 4.219,0.071 4.219,0.078 2.109,0.043 2.113,0.047 4.219,0.093 2.109,0.055 2.11,0.051 2.109,0.055 4.219,0.117 2.113,0.062 2.11,0.059 6.328,0.199 4.218,0.141 2.11,0.074 2.113,0.07 2.11,0.078 2.109,0.074 2.109,0.079 2.11,0.082 2.109,0.078 4.219,0.164 2.113,0.086 6.328,0.258 2.11,0.089 2.109,0.086 2.109,0.094 2.11,0.09 2.113,0.094 2.109,0.09 4.219,0.187 2.109,0.098 2.11,0.093 4.219,0.196 2.113,0.097 4.219,0.196 2.109,0.101 2.109,0.098 8.438,0.406 2.113,0.102 4.219,0.203 2.109,0.105 4.219,0.204 4.219,0.21 2.113,0.102 14.766,0.738 2.113,0.106 14.766,0.738 2.113,0.109 10.547,0.528 2.109,0.109 2.109,0.106 2.114,0.105"
         style="fill:none;stroke:#e19c24;stroke-width:1.152;stroke-linecap:square;stroke-linejoin:miter;stroke-miterlimit:3.25;stroke-dasharray:none;stroke-opacity:1"
         id="path14" /><path
         d="m 9.547,32.496 2.109,0.008 2.114,0.008 2.109,0.019 2.109,0.028 2.11,0.023 4.218,0.086 2.11,0.055 2.109,0.058 2.113,0.063 4.219,0.148 2.11,0.086 2.109,0.09 2.109,0.094 2.11,0.101 2.109,0.106 2.113,0.113 2.11,0.117 2.109,0.121 2.109,0.133 2.11,0.129 4.219,0.281 2.109,0.149 2.113,0.152 2.11,0.156 2.109,0.16 4.219,0.336 2.109,0.172 2.109,0.176 2.11,0.184 2.113,0.183 2.11,0.188 2.109,0.191 2.109,0.195 4.219,0.399 4.219,0.414 2.113,0.207 4.219,0.43 2.109,0.218 4.219,0.446 4.219,0.453 2.113,0.23 2.109,0.231 4.219,0.469 4.219,0.476 4.219,0.484 2.113,0.247 6.328,0.738 2.109,0.25 2.11,0.254 2.109,0.25 4.219,0.508 2.113,0.253 2.11,0.258 2.109,0.254 4.219,0.516 2.109,0.262 2.109,0.257 2.11,0.262 2.113,0.258 4.219,0.523 2.109,0.266 4.219,0.523 2.109,0.266 2.11,0.262 2.113,0.265 2.109,0.262 4.219,0.531 2.109,0.262 6.329,0.797 2.113,0.266 6.328,0.796 2.109,0.262 6.328,0.797 2.114,0.266"
         style="fill:none;stroke:#8fb032;stroke-width:1.152;stroke-linecap:square;stroke-linejoin:miter;stroke-miterlimit:3.25;stroke-dasharray:none;stroke-opacity:1"
         id="path16" /><path
         d="m 9.547,32.492 2.109,0.016 2.114,0.019 2.109,0.035 2.109,0.051 2.11,0.055 4.218,0.172 2.11,0.105 2.109,0.117 2.113,0.126 2.11,0.148 2.109,0.152 2.11,0.168 2.109,0.18 2.109,0.184 2.11,0.21 2.109,0.208 2.113,0.226 2.11,0.238 2.109,0.243 4.219,0.523 2.109,0.277 2.11,0.285 2.109,0.293 2.113,0.309 2.11,0.309 2.109,0.324 2.109,0.328 2.11,0.336 4.218,0.703 2.11,0.363 2.113,0.367 2.11,0.376 4.218,0.773 2.11,0.398 2.109,0.403 2.109,0.406 2.11,0.418 2.113,0.418 4.219,0.859 2.109,0.434 2.11,0.445 2.109,0.442 2.109,0.453 2.11,0.457 2.113,0.457 4.219,0.929 2.109,0.477 2.109,0.473 4.219,0.961 2.11,0.484 2.113,0.492 2.109,0.488 6.328,1.489 4.219,1.008 4.219,1.015 2.113,0.508 2.11,0.512 8.437,2.062 2.109,0.52 2.11,0.523 2.113,0.52 6.328,1.57 2.11,0.527 2.109,0.524 4.219,1.055 2.113,0.527 2.109,0.531 4.219,1.055 4.219,1.062 2.109,0.528 2.11,0.531 2.113,0.531 2.109,0.531 2.11,0.528 10.546,2.656 2.114,0.531"
         style="fill:none;stroke:#eb6235;stroke-width:1.152;stroke-linecap:square;stroke-linejoin:miter;stroke-miterlimit:3.25;stroke-dasharray:none;stroke-opacity:1"
         id="path18" /><path
         d="m 9.547,32.484 2.109,0.036 2.114,0.035 2.109,0.07 4.219,0.211 4.218,0.344 2.11,0.211 2.109,0.238 2.113,0.246 2.11,0.301 2.109,0.297 2.11,0.339 2.109,0.36 2.109,0.371 4.219,0.836 2.113,0.453 2.11,0.473 2.109,0.48 4.219,1.047 2.109,0.559 2.11,0.574 2.109,0.582 2.113,0.617 2.11,0.617 2.109,0.649 2.109,0.66 2.11,0.672 4.218,1.398 2.11,0.731 2.113,0.738 2.11,0.75 2.109,0.769 2.109,0.774 2.11,0.797 2.109,0.804 2.109,0.817 2.11,0.832 2.113,0.836 4.219,1.719 2.109,0.871 4.219,1.773 2.109,0.906 2.11,0.911 2.113,0.917 4.219,1.86 4.218,1.898 2.11,0.957 2.109,0.965 2.11,0.969 2.113,0.98 2.109,0.981 2.11,0.988 2.109,0.992 2.109,0.996 2.11,1.008 2.109,1.004 4.219,2.031 2.113,1.016 6.328,3.082 4.219,2.07 4.219,2.078 2.113,1.047 2.109,1.043 2.11,1.047 6.328,3.153 4.219,2.109 2.113,1.055 2.109,1.054 8.438,4.235 2.109,1.062 2.11,1.059 2.113,1.062 2.109,1.059 6.328,3.187 2.11,1.059 4.218,2.125 2.114,1.062"
         style="fill:none;stroke:#8778b3;stroke-width:1.152;stroke-linecap:square;stroke-linejoin:miter;stroke-miterlimit:3.25;stroke-dasharray:none;stroke-opacity:1"
         id="path20" /><path
         d="m 9.547,32.477 2.109,0.054 2.114,0.051 2.109,0.106 2.109,0.156 2.11,0.164 4.218,0.515 2.11,0.313 2.109,0.359 2.113,0.364 2.11,0.453 2.109,0.449 2.11,0.508 2.109,0.543 2.109,0.554 4.219,1.25 2.113,0.684 2.11,0.707 2.109,0.723 4.219,1.57 2.109,0.84 2.11,0.855 2.109,0.875 2.113,0.926 2.11,0.926 2.109,0.973 2.109,0.992 2.11,1.008 2.109,1.046 2.109,1.051 2.11,1.098 2.113,1.105 2.11,1.121 2.109,1.157 2.109,1.16 2.11,1.199 2.109,1.203 2.109,1.227 2.11,1.25 2.113,1.25 2.109,1.285 2.11,1.293 2.109,1.308 4.219,2.657 4.219,2.726 2.113,1.379 4.219,2.789 4.218,2.844 2.11,1.437 4.219,2.899 2.113,1.473 2.109,1.468 2.11,1.485 4.218,2.984 2.11,1.508 2.109,1.512 2.11,1.519 2.109,1.524 2.113,1.527 2.11,1.539 2.109,1.535 2.109,1.547 4.219,3.102 2.109,1.562 2.11,1.559 2.113,1.566 2.109,1.566 2.11,1.571 2.109,1.574 6.328,4.734 2.11,1.582 2.113,1.586 2.109,1.582 2.11,1.586 2.109,1.59 2.109,1.586 6.329,4.77 2.113,1.593 2.109,1.59 2.11,1.594 2.109,1.59 4.219,3.187 2.109,1.59 2.109,1.594 2.114,1.594"
         style="fill:none;stroke:#c56e1a;stroke-width:1.152;stroke-linecap:square;stroke-linejoin:miter;stroke-miterlimit:3.25;stroke-dasharray:none;stroke-opacity:1"
         id="path22" /><path
         d="m 222.602,36.395 h 2.66 l 0.105,-0.004 0.121,-0.008 0.137,-0.02 0.156,-0.023 0.172,-0.035 0.192,-0.051 0.214,-0.066 0.239,-0.083 0.257,-0.101 0.286,-0.129 0.312,-0.148 0.336,-0.176 0.363,-0.203 0.391,-0.227 0.41,-0.246 0.426,-0.262 0.441,-0.277 0.453,-0.281 0.457,-0.282 0.461,-0.285 0.457,-0.277 0.457,-0.266 0.446,-0.254 0.437,-0.234 0.418,-0.211 0.403,-0.184 0.382,-0.156 0.368,-0.133 0.351,-0.113 0.34,-0.09 0.332,-0.07 0.324,-0.055 0.317,-0.039 0.316,-0.031 0.316,-0.016 0.317,-0.011 0.32,-0.004 0.328,-0.004 h 3.52"
         style="fill:none;stroke:#ffffff;stroke-width:2.88;stroke-linecap:butt;stroke-linejoin:round;stroke-miterlimit:3.25;stroke-dasharray:none;stroke-opacity:0.666667"
         id="path24" /><path
         d="m 222.602,36.395 h 2.66 l 0.105,-0.004 0.121,-0.008 0.137,-0.02 0.156,-0.023 0.172,-0.035 0.192,-0.051 0.214,-0.066 0.239,-0.083 0.257,-0.101 0.286,-0.129 0.312,-0.148 0.336,-0.176 0.363,-0.203 0.391,-0.227 0.41,-0.246 0.426,-0.262 0.441,-0.277 0.453,-0.281 0.457,-0.282 0.461,-0.285 0.457,-0.277 0.457,-0.266 0.446,-0.254 0.437,-0.234 0.418,-0.211 0.403,-0.184 0.382,-0.156 0.368,-0.133 0.351,-0.113 0.34,-0.09 0.332,-0.07 0.324,-0.055 0.317,-0.039 0.316,-0.031 0.316,-0.016 0.317,-0.011 0.32,-0.004 0.328,-0.004 h 3.52"
         style="fill:none;stroke:#aaaaaa;stroke-width:0.9;stroke-linecap:square;stroke-linejoin:miter;stroke-miterlimit:3.25;stroke-dasharray:none;stroke-opacity:1"
         id="path26" /><path
         d="m 241.34,26.66 h 7.922 v 9.359 h -7.922 z"
         style="fill:#ffffff;fill-opacity:0.666667;fill-rule:nonzero;stroke:none"
         id="path28" /><path
         d="m 241.34,26.66 h 7.922 v 9.359 h -7.922 z"
         style="fill:none;stroke:#ffffff;stroke-width:0.9;stroke-linecap:square;stroke-linejoin:miter;stroke-miterlimit:3.25;stroke-dasharray:none;stroke-opacity:0.666667"
         id="path30" /><text
         transform="translate(243.49971,33.586712)"
         style="font-variant:normal;font-weight:normal;font-size:6.48px;font-family:Arial;-inkscape-font-specification:ArialMT;writing-mode:lr-tb;fill:#000000;fill-opacity:1;fill-rule:nonzero;stroke:none"
         id="text34"><tspan
           x="0"
           y="0"
           id="tspan32">1</tspan></text><path
         d="m 222.602,40.289 h 2.718 l 0.133,0.004 0.152,0.008 0.176,0.015 0.199,0.024 0.227,0.031 0.254,0.039 0.281,0.055 0.317,0.07 0.347,0.086 0.383,0.102 0.418,0.121 0.449,0.133 0.477,0.148 0.496,0.16 0.516,0.164 0.519,0.164 0.527,0.168 0.524,0.16 0.519,0.157 0.508,0.144 0.488,0.133 0.465,0.113 0.442,0.098 0.422,0.078 0.402,0.063 0.383,0.05 0.375,0.039 0.367,0.028 0.363,0.019 0.36,0.012 0.363,0.008 h 0.367 l 0.375,0.004 h 3.426"
         style="fill:none;stroke:#ffffff;stroke-width:2.88;stroke-linecap:butt;stroke-linejoin:round;stroke-miterlimit:3.25;stroke-dasharray:none;stroke-opacity:0.666667"
         id="path36" /><path
         d="m 222.602,40.289 h 2.718 l 0.133,0.004 0.152,0.008 0.176,0.015 0.199,0.024 0.227,0.031 0.254,0.039 0.281,0.055 0.317,0.07 0.347,0.086 0.383,0.102 0.418,0.121 0.449,0.133 0.477,0.148 0.496,0.16 0.516,0.164 0.519,0.164 0.527,0.168 0.524,0.16 0.519,0.157 0.508,0.144 0.488,0.133 0.465,0.113 0.442,0.098 0.422,0.078 0.402,0.063 0.383,0.05 0.375,0.039 0.367,0.028 0.363,0.019 0.36,0.012 0.363,0.008 h 0.367 l 0.375,0.004 h 3.426"
         style="fill:none;stroke:#aaaaaa;stroke-width:0.9;stroke-linecap:square;stroke-linejoin:miter;stroke-miterlimit:3.25;stroke-dasharray:none;stroke-opacity:1"
         id="path38" /><path
         d="m 241.34,38.203 h 7.922 v 9.363 h -7.922 z"
         style="fill:#ffffff;fill-opacity:0.666667;fill-rule:nonzero;stroke:none"
         id="path40" /><path
         d="m 241.34,38.203 h 7.922 v 9.363 h -7.922 z"
         style="fill:none;stroke:#ffffff;stroke-width:0.9;stroke-linecap:square;stroke-linejoin:miter;stroke-miterlimit:3.25;stroke-dasharray:none;stroke-opacity:0.666667"
         id="path42" /><text
         transform="translate(243.49971,45.131485)"
         style="font-variant:normal;font-weight:normal;font-size:6.48px;font-family:Arial;-inkscape-font-specification:ArialMT;writing-mode:lr-tb;fill:#000000;fill-opacity:1;fill-rule:nonzero;stroke:none"
         id="text46"><tspan
           x="0"
           y="0"
           id="tspan44">2</tspan></text><path
         d="m 222.602,51.973 h 2.605 l 0.113,0.004 0.133,0.003 0.152,0.008 0.176,0.012 0.199,0.02 0.227,0.031 0.254,0.039 0.281,0.051 0.317,0.066 0.347,0.078 0.383,0.098 0.418,0.113 0.449,0.129 0.477,0.141 0.496,0.152 0.516,0.152 0.519,0.16 0.527,0.157 0.524,0.152 0.519,0.149 0.508,0.136 0.488,0.125 0.465,0.106 0.442,0.093 0.422,0.075 0.402,0.058 0.383,0.047 0.375,0.039 0.367,0.024 0.363,0.019 0.36,0.012 0.363,0.008 h 4.168"
         style="fill:none;stroke:#ffffff;stroke-width:2.88;stroke-linecap:butt;stroke-linejoin:round;stroke-miterlimit:3.25;stroke-dasharray:none;stroke-opacity:0.666667"
         id="path48" /><path
         d="m 222.602,51.973 h 2.605 l 0.113,0.004 0.133,0.003 0.152,0.008 0.176,0.012 0.199,0.02 0.227,0.031 0.254,0.039 0.281,0.051 0.317,0.066 0.347,0.078 0.383,0.098 0.418,0.113 0.449,0.129 0.477,0.141 0.496,0.152 0.516,0.152 0.519,0.16 0.527,0.157 0.524,0.152 0.519,0.149 0.508,0.136 0.488,0.125 0.465,0.106 0.442,0.093 0.422,0.075 0.402,0.058 0.383,0.047 0.375,0.039 0.367,0.024 0.363,0.019 0.36,0.012 0.363,0.008 h 4.168"
         style="fill:none;stroke:#aaaaaa;stroke-width:0.9;stroke-linecap:square;stroke-linejoin:miter;stroke-miterlimit:3.25;stroke-dasharray:none;stroke-opacity:1"
         id="path50" /><path
         d="m 241.34,49.75 h 7.922 v 9.363 h -7.922 z"
         style="fill:#ffffff;fill-opacity:0.666667;fill-rule:nonzero;stroke:none"
         id="path52" /><path
         d="m 241.34,49.75 h 7.922 v 9.363 h -7.922 z"
         style="fill:none;stroke:#ffffff;stroke-width:0.9;stroke-linecap:square;stroke-linejoin:miter;stroke-miterlimit:3.25;stroke-dasharray:none;stroke-opacity:0.666667"
         id="path54" /><text
         transform="translate(243.49971,56.677981)"
         style="font-variant:normal;font-weight:normal;font-size:6.48px;font-family:Arial;-inkscape-font-specification:ArialMT;writing-mode:lr-tb;fill:#000000;fill-opacity:1;fill-rule:nonzero;stroke:none"
         id="text58"><tspan
           x="0"
           y="0"
           id="tspan56">5</tspan></text><path
         d="M 222.602,71.449 H 241.34"
         style="fill:none;stroke:#ffffff;stroke-width:2.88;stroke-linecap:butt;stroke-linejoin:round;stroke-miterlimit:3.25;stroke-dasharray:none;stroke-opacity:0.666667"
         id="path60" /><path
         d="M 222.602,71.449 H 241.34"
         style="fill:none;stroke:#aaaaaa;stroke-width:0.9;stroke-linecap:square;stroke-linejoin:miter;stroke-miterlimit:3.25;stroke-dasharray:none;stroke-opacity:1"
         id="path62" /><path
         d="m 241.34,66.77 h 12.242 v 9.359 H 241.34 Z"
         style="fill:#ffffff;fill-opacity:0.666667;fill-rule:nonzero;stroke:none"
         id="path64" /><path
         d="m 241.34,66.77 h 12.242 v 9.359 H 241.34 Z"
         style="fill:none;stroke:#ffffff;stroke-width:0.9;stroke-linecap:square;stroke-linejoin:miter;stroke-miterlimit:3.25;stroke-dasharray:none;stroke-opacity:0.666667"
         id="path66" /><text
         transform="translate(243.85778,73.6955)"
         style="font-variant:normal;font-weight:normal;font-size:6.48px;font-family:Arial;-inkscape-font-specification:ArialMT;writing-mode:lr-tb;fill:#000000;fill-opacity:1;fill-rule:nonzero;stroke:none"
         id="text70"><tspan
           x="0 3.60288"
           y="0"
           sodipodi:role="line"
           id="tspan68">10</tspan></text><path
         d="M 222.602,110.398 H 241.34"
         style="fill:none;stroke:#ffffff;stroke-width:2.88;stroke-linecap:butt;stroke-linejoin:round;stroke-miterlimit:3.25;stroke-dasharray:none;stroke-opacity:0.666667"
         id="path72" /><path
         d="M 222.602,110.398 H 241.34"
         style="fill:none;stroke:#aaaaaa;stroke-width:0.9;stroke-linecap:square;stroke-linejoin:miter;stroke-miterlimit:3.25;stroke-dasharray:none;stroke-opacity:1"
         id="path74" /><path
         d="m 241.34,105.719 h 12.242 v 9.359 H 241.34 Z"
         style="fill:#ffffff;fill-opacity:0.666667;fill-rule:nonzero;stroke:none"
         id="path76" /><path
         d="m 241.34,105.719 h 12.242 v 9.359 H 241.34 Z"
         style="fill:none;stroke:#ffffff;stroke-width:0.9;stroke-linecap:square;stroke-linejoin:miter;stroke-miterlimit:3.25;stroke-dasharray:none;stroke-opacity:0.666667"
         id="path78" /><text
         transform="translate(243.85778,112.64394)"
         style="font-variant:normal;font-weight:normal;font-size:6.48px;font-family:Arial;-inkscape-font-specification:ArialMT;writing-mode:lr-tb;fill:#000000;fill-opacity:1;fill-rule:nonzero;stroke:none"
         id="text82"><tspan
           x="0 3.60288"
           y="0"
           sodipodi:role="line"
           id="tspan80">20</tspan></text><path
         d="m 222.602,149.348 h 3.378 l 0.227,-0.004 h 1.199 l 0.383,-0.004 h 0.867 l 0.477,-0.004 h 0.496 l 0.516,-0.004 h 0.519 l 0.527,-0.004 h 0.524 l 0.519,-0.004 h 0.996 l 0.465,-0.004 h 1.266 l 0.383,-0.004 h 5.996"
         style="fill:none;stroke:#ffffff;stroke-width:2.88;stroke-linecap:butt;stroke-linejoin:round;stroke-miterlimit:3.25;stroke-dasharray:none;stroke-opacity:0.666667"
         id="path84" /><path
         d="m 222.602,149.348 h 3.378 l 0.227,-0.004 h 1.199 l 0.383,-0.004 h 0.867 l 0.477,-0.004 h 0.496 l 0.516,-0.004 h 0.519 l 0.527,-0.004 h 0.524 l 0.519,-0.004 h 0.996 l 0.465,-0.004 h 1.266 l 0.383,-0.004 h 5.996"
         style="fill:none;stroke:#aaaaaa;stroke-width:0.9;stroke-linecap:square;stroke-linejoin:miter;stroke-miterlimit:3.25;stroke-dasharray:none;stroke-opacity:1"
         id="path86" /><path
         d="m 241.34,144.637 h 12.242 v 9.359 H 241.34 Z"
         style="fill:#ffffff;fill-opacity:0.666667;fill-rule:nonzero;stroke:none"
         id="path88" /><path
         d="m 241.34,144.637 h 12.242 v 9.359 H 241.34 Z"
         style="fill:none;stroke:#ffffff;stroke-width:0.9;stroke-linecap:square;stroke-linejoin:miter;stroke-miterlimit:3.25;stroke-dasharray:none;stroke-opacity:0.666667"
         id="path90" /><text
         transform="translate(243.85778,151.56361)"
         style="font-variant:normal;font-weight:normal;font-size:6.48px;font-family:Arial;-inkscape-font-specification:ArialMT;writing-mode:lr-tb;fill:#000000;fill-opacity:1;fill-rule:nonzero;stroke:none"
         id="text94"><tspan
           x="0 3.60288"
           y="0"
           sodipodi:role="line"
           id="tspan92">30</tspan></text><path
         d="M 9.547,32.5 V 29.926"
         style="fill:none;stroke:#000000;stroke-width:0.36;stroke-linecap:butt;stroke-linejoin:miter;stroke-miterlimit:3.25;stroke-dasharray:none;stroke-opacity:1"
         id="path96" /><path
         d="M 19.992,32.5 V 30.957"
         style="fill:none;stroke:#000000;stroke-width:0.36;stroke-linecap:butt;stroke-linejoin:miter;stroke-miterlimit:3.25;stroke-dasharray:none;stroke-opacity:1"
         id="path98" /><path
         d="M 30.438,32.5 V 30.957"
         style="fill:none;stroke:#000000;stroke-width:0.36;stroke-linecap:butt;stroke-linejoin:miter;stroke-miterlimit:3.25;stroke-dasharray:none;stroke-opacity:1"
         id="path100" /><path
         d="M 40.879,32.5 V 30.957"
         style="fill:none;stroke:#000000;stroke-width:0.36;stroke-linecap:butt;stroke-linejoin:miter;stroke-miterlimit:3.25;stroke-dasharray:none;stroke-opacity:1"
         id="path102" /><path
         d="M 51.324,32.5 V 30.957"
         style="fill:none;stroke:#000000;stroke-width:0.36;stroke-linecap:butt;stroke-linejoin:miter;stroke-miterlimit:3.25;stroke-dasharray:none;stroke-opacity:1"
         id="path104" /><path
         d="M 61.766,32.5 V 29.926"
         style="fill:none;stroke:#000000;stroke-width:0.36;stroke-linecap:butt;stroke-linejoin:miter;stroke-miterlimit:3.25;stroke-dasharray:none;stroke-opacity:1"
         id="path106" /><text
         transform="translate(59.965174,40.525308)"
         style="font-variant:normal;font-weight:normal;font-size:6.48px;font-family:Arial;-inkscape-font-specification:ArialMT;writing-mode:lr-tb;fill:#000000;fill-opacity:1;fill-rule:nonzero;stroke:none"
         id="text110"><tspan
           x="0"
           y="0"
           id="tspan108">5</tspan></text><path
         d="M 72.211,32.5 V 30.957"
         style="fill:none;stroke:#000000;stroke-width:0.36;stroke-linecap:butt;stroke-linejoin:miter;stroke-miterlimit:3.25;stroke-dasharray:none;stroke-opacity:1"
         id="path112" /><path
         d="M 82.656,32.5 V 30.957"
         style="fill:none;stroke:#000000;stroke-width:0.36;stroke-linecap:butt;stroke-linejoin:miter;stroke-miterlimit:3.25;stroke-dasharray:none;stroke-opacity:1"
         id="path114" /><path
         d="M 93.098,32.5 V 30.957"
         style="fill:none;stroke:#000000;stroke-width:0.36;stroke-linecap:butt;stroke-linejoin:miter;stroke-miterlimit:3.25;stroke-dasharray:none;stroke-opacity:1"
         id="path116" /><path
         d="M 103.543,32.5 V 30.957"
         style="fill:none;stroke:#000000;stroke-width:0.36;stroke-linecap:butt;stroke-linejoin:miter;stroke-miterlimit:3.25;stroke-dasharray:none;stroke-opacity:1"
         id="path118" /><path
         d="M 113.984,32.5 V 29.926"
         style="fill:none;stroke:#000000;stroke-width:0.36;stroke-linecap:butt;stroke-linejoin:miter;stroke-miterlimit:3.25;stroke-dasharray:none;stroke-opacity:1"
         id="path120" /><text
         transform="translate(110.38226,40.525308)"
         style="font-variant:normal;font-weight:normal;font-size:6.48px;font-family:Arial;-inkscape-font-specification:ArialMT;writing-mode:lr-tb;fill:#000000;fill-opacity:1;fill-rule:nonzero;stroke:none"
         id="text124"><tspan
           x="0 3.60288"
           y="0"
           sodipodi:role="line"
           id="tspan122">10</tspan></text><path
         d="M 124.43,32.5 V 30.957"
         style="fill:none;stroke:#000000;stroke-width:0.36;stroke-linecap:butt;stroke-linejoin:miter;stroke-miterlimit:3.25;stroke-dasharray:none;stroke-opacity:1"
         id="path126" /><path
         d="M 134.875,32.5 V 30.957"
         style="fill:none;stroke:#000000;stroke-width:0.36;stroke-linecap:butt;stroke-linejoin:miter;stroke-miterlimit:3.25;stroke-dasharray:none;stroke-opacity:1"
         id="path128" /><path
         d="M 145.316,32.5 V 30.957"
         style="fill:none;stroke:#000000;stroke-width:0.36;stroke-linecap:butt;stroke-linejoin:miter;stroke-miterlimit:3.25;stroke-dasharray:none;stroke-opacity:1"
         id="path130" /><path
         d="M 155.762,32.5 V 30.957"
         style="fill:none;stroke:#000000;stroke-width:0.36;stroke-linecap:butt;stroke-linejoin:miter;stroke-miterlimit:3.25;stroke-dasharray:none;stroke-opacity:1"
         id="path132" /><path
         d="M 166.207,32.5 V 29.926"
         style="fill:none;stroke:#000000;stroke-width:0.36;stroke-linecap:butt;stroke-linejoin:miter;stroke-miterlimit:3.25;stroke-dasharray:none;stroke-opacity:1"
         id="path134" /><text
         transform="translate(162.60128,40.525308)"
         style="font-variant:normal;font-weight:normal;font-size:6.48px;font-family:Arial;-inkscape-font-specification:ArialMT;writing-mode:lr-tb;fill:#000000;fill-opacity:1;fill-rule:nonzero;stroke:none"
         id="text138"><tspan
           x="0 3.60288"
           y="0"
           sodipodi:role="line"
           id="tspan136">15</tspan></text><path
         d="M 176.648,32.5 V 30.957"
         style="fill:none;stroke:#000000;stroke-width:0.36;stroke-linecap:butt;stroke-linejoin:miter;stroke-miterlimit:3.25;stroke-dasharray:none;stroke-opacity:1"
         id="path140" /><path
         d="M 187.094,32.5 V 30.957"
         style="fill:none;stroke:#000000;stroke-width:0.36;stroke-linecap:butt;stroke-linejoin:miter;stroke-miterlimit:3.25;stroke-dasharray:none;stroke-opacity:1"
         id="path142" /><path
         d="M 197.535,32.5 V 30.957"
         style="fill:none;stroke:#000000;stroke-width:0.36;stroke-linecap:butt;stroke-linejoin:miter;stroke-miterlimit:3.25;stroke-dasharray:none;stroke-opacity:1"
         id="path144" /><path
         d="M 207.98,32.5 V 30.957"
         style="fill:none;stroke:#000000;stroke-width:0.36;stroke-linecap:butt;stroke-linejoin:miter;stroke-miterlimit:3.25;stroke-dasharray:none;stroke-opacity:1"
         id="path146" /><path
         d="M 218.426,32.5 V 29.926"
         style="fill:none;stroke:#000000;stroke-width:0.36;stroke-linecap:butt;stroke-linejoin:miter;stroke-miterlimit:3.25;stroke-dasharray:none;stroke-opacity:1"
         id="path148" /><text
         transform="translate(214.82031,40.525308)"
         style="font-variant:normal;font-weight:normal;font-size:6.48px;font-family:Arial;-inkscape-font-specification:ArialMT;writing-mode:lr-tb;fill:#000000;fill-opacity:1;fill-rule:nonzero;stroke:none"
         id="text152"><tspan
           x="0 3.60288"
           y="0"
           sodipodi:role="line"
           id="tspan150">20</tspan></text><path
         d="M 5.195,32.5 H 222.777"
         style="fill:none;stroke:#000000;stroke-width:0.36;stroke-linecap:butt;stroke-linejoin:miter;stroke-miterlimit:3.25;stroke-dasharray:none;stroke-opacity:1"
         id="path154" /><text
         transform="translate(228.53576,34.745621)"
         style="font-variant:normal;font-weight:normal;font-size:6.48px;font-family:Arial;-inkscape-font-specification:ArialMT;writing-mode:lr-tb;fill:#000000;fill-opacity:1;fill-rule:nonzero;stroke:none"
         id="text158"><tspan
           x="0"
           y="0"
           id="tspan156">x</tspan></text><path
         d="m 9.547,150.754 h 1.547"
         style="fill:none;stroke:#000000;stroke-width:0.36;stroke-linecap:butt;stroke-linejoin:miter;stroke-miterlimit:3.25;stroke-dasharray:none;stroke-opacity:1"
         id="path160" /><path
         d="m 9.547,144.531 h 1.547"
         style="fill:none;stroke:#000000;stroke-width:0.36;stroke-linecap:butt;stroke-linejoin:miter;stroke-miterlimit:3.25;stroke-dasharray:none;stroke-opacity:1"
         id="path162" /><path
         d="m 9.547,138.305 h 1.547"
         style="fill:none;stroke:#000000;stroke-width:0.36;stroke-linecap:butt;stroke-linejoin:miter;stroke-miterlimit:3.25;stroke-dasharray:none;stroke-opacity:1"
         id="path164" /><path
         d="m 9.547,132.082 h 1.547"
         style="fill:none;stroke:#000000;stroke-width:0.36;stroke-linecap:butt;stroke-linejoin:miter;stroke-miterlimit:3.25;stroke-dasharray:none;stroke-opacity:1"
         id="path166" /><path
         d="m 9.547,125.859 h 2.574"
         style="fill:none;stroke:#000000;stroke-width:0.36;stroke-linecap:butt;stroke-linejoin:miter;stroke-miterlimit:3.25;stroke-dasharray:none;stroke-opacity:1"
         id="path168" /><text
         style="font-variant:normal;font-weight:normal;font-size:6.48px;font-family:MathematicaSans;-inkscape-font-specification:MathematicaSans;writing-mode:lr-tb;fill:#000000;fill-opacity:1;fill-rule:nonzero;stroke:none"
         id="text172"
         x="-3.9097743"
         y="127.88795"><tspan
           x="-3.9097743"
           y="127.88795"
           id="tspan170">-</tspan></text><text
         style="font-variant:normal;font-weight:normal;font-size:6.48px;font-family:Arial;-inkscape-font-specification:ArialMT;writing-mode:lr-tb;fill:#000000;fill-opacity:1;fill-rule:nonzero;stroke:none"
         id="text176"
         x="-0.13193442"
         y="127.88795"><tspan
           x="-0.13193442"
           y="127.88795"
           id="tspan174">3</tspan></text><path
         d="m 9.547,119.633 h 1.547"
         style="fill:none;stroke:#000000;stroke-width:0.36;stroke-linecap:butt;stroke-linejoin:miter;stroke-miterlimit:3.25;stroke-dasharray:none;stroke-opacity:1"
         id="path178" /><path
         d="m 9.547,113.41 h 1.547"
         style="fill:none;stroke:#000000;stroke-width:0.36;stroke-linecap:butt;stroke-linejoin:miter;stroke-miterlimit:3.25;stroke-dasharray:none;stroke-opacity:1"
         id="path180" /><path
         d="m 9.547,107.188 h 1.547"
         style="fill:none;stroke:#000000;stroke-width:0.36;stroke-linecap:butt;stroke-linejoin:miter;stroke-miterlimit:3.25;stroke-dasharray:none;stroke-opacity:1"
         id="path182" /><path
         d="m 9.547,100.961 h 1.547"
         style="fill:none;stroke:#000000;stroke-width:0.36;stroke-linecap:butt;stroke-linejoin:miter;stroke-miterlimit:3.25;stroke-dasharray:none;stroke-opacity:1"
         id="path184" /><path
         d="m 9.547,94.738 h 2.574"
         style="fill:none;stroke:#000000;stroke-width:0.36;stroke-linecap:butt;stroke-linejoin:miter;stroke-miterlimit:3.25;stroke-dasharray:none;stroke-opacity:1"
         id="path186" /><text
         style="font-variant:normal;font-weight:normal;font-size:6.48px;font-family:MathematicaSans;-inkscape-font-specification:MathematicaSans;writing-mode:lr-tb;fill:#000000;fill-opacity:1;fill-rule:nonzero;stroke:none"
         id="text190"
         x="-3.9097743"
         y="96.768105"><tspan
           x="-3.9097743"
           y="96.768105"
           id="tspan188">-</tspan></text><text
         style="font-variant:normal;font-weight:normal;font-size:6.48px;font-family:Arial;-inkscape-font-specification:ArialMT;writing-mode:lr-tb;fill:#000000;fill-opacity:1;fill-rule:nonzero;stroke:none"
         id="text194"
         x="-0.13193442"
         y="96.768105"><tspan
           x="-0.13193442"
           y="96.768105"
           id="tspan192">2</tspan></text><path
         d="m 9.547,88.516 h 1.547"
         style="fill:none;stroke:#000000;stroke-width:0.36;stroke-linecap:butt;stroke-linejoin:miter;stroke-miterlimit:3.25;stroke-dasharray:none;stroke-opacity:1"
         id="path196" /><path
         d="m 9.547,82.289 h 1.547"
         style="fill:none;stroke:#000000;stroke-width:0.36;stroke-linecap:butt;stroke-linejoin:miter;stroke-miterlimit:3.25;stroke-dasharray:none;stroke-opacity:1"
         id="path198" /><path
         d="m 9.547,76.066 h 1.547"
         style="fill:none;stroke:#000000;stroke-width:0.36;stroke-linecap:butt;stroke-linejoin:miter;stroke-miterlimit:3.25;stroke-dasharray:none;stroke-opacity:1"
         id="path200" /><path
         d="m 9.547,69.844 h 1.547"
         style="fill:none;stroke:#000000;stroke-width:0.36;stroke-linecap:butt;stroke-linejoin:miter;stroke-miterlimit:3.25;stroke-dasharray:none;stroke-opacity:1"
         id="path202" /><path
         d="m 9.547,63.617 h 2.574"
         style="fill:none;stroke:#000000;stroke-width:0.36;stroke-linecap:butt;stroke-linejoin:miter;stroke-miterlimit:3.25;stroke-dasharray:none;stroke-opacity:1"
         id="path204" /><text
         style="font-variant:normal;font-weight:normal;font-size:6.48px;font-family:MathematicaSans;-inkscape-font-specification:MathematicaSans;writing-mode:lr-tb;fill:#000000;fill-opacity:1;fill-rule:nonzero;stroke:none"
         id="text208"
         x="-3.9097743"
         y="65.648262"><tspan
           x="-3.9097743"
           y="65.648262"
           id="tspan206">-</tspan></text><text
         style="font-variant:normal;font-weight:normal;font-size:6.48px;font-family:Arial;-inkscape-font-specification:ArialMT;writing-mode:lr-tb;fill:#000000;fill-opacity:1;fill-rule:nonzero;stroke:none"
         id="text212"
         x="-0.13193442"
         y="65.648262"><tspan
           x="-0.13193442"
           y="65.648262"
           id="tspan210">1</tspan></text><path
         d="m 9.547,57.395 h 1.547"
         style="fill:none;stroke:#000000;stroke-width:0.36;stroke-linecap:butt;stroke-linejoin:miter;stroke-miterlimit:3.25;stroke-dasharray:none;stroke-opacity:1"
         id="path214" /><path
         d="m 9.547,51.172 h 1.547"
         style="fill:none;stroke:#000000;stroke-width:0.36;stroke-linecap:butt;stroke-linejoin:miter;stroke-miterlimit:3.25;stroke-dasharray:none;stroke-opacity:1"
         id="path216" /><path
         d="m 9.547,44.945 h 1.547"
         style="fill:none;stroke:#000000;stroke-width:0.36;stroke-linecap:butt;stroke-linejoin:miter;stroke-miterlimit:3.25;stroke-dasharray:none;stroke-opacity:1"
         id="path218" /><path
         d="m 9.547,38.723 h 1.547"
         style="fill:none;stroke:#000000;stroke-width:0.36;stroke-linecap:butt;stroke-linejoin:miter;stroke-miterlimit:3.25;stroke-dasharray:none;stroke-opacity:1"
         id="path220" /><path
         d="m 9.547,32.5 h 2.574"
         style="fill:none;stroke:#000000;stroke-width:0.36;stroke-linecap:butt;stroke-linejoin:miter;stroke-miterlimit:3.25;stroke-dasharray:none;stroke-opacity:1"
         id="path222" /><path
         d="m 9.547,26.273 h 1.547"
         style="fill:none;stroke:#000000;stroke-width:0.36;stroke-linecap:butt;stroke-linejoin:miter;stroke-miterlimit:3.25;stroke-dasharray:none;stroke-opacity:1"
         id="path224" /></g><g
       id="g226"><g
         id="g228"
         clip-path="url(#clipPath232)"><path
           d="M 9.547,156.07 V 21.598"
           style="fill:none;stroke:#000000;stroke-width:0.36;stroke-linecap:butt;stroke-linejoin:miter;stroke-miterlimit:3.25;stroke-dasharray:none;stroke-opacity:1"
           id="path234" /></g></g><g
       id="g236"><text
         transform="translate(7.208262,15.905578)"
         style="font-variant:normal;font-weight:normal;font-size:6.48px;font-family:Arial;-inkscape-font-specification:ArialMT;writing-mode:lr-tb;fill:#000000;fill-opacity:1;fill-rule:nonzero;stroke:none"
         id="text240"><tspan
           x="0"
           y="0"
           id="tspan238">w</tspan></text></g></g></svg>
