<?xml version="1.0" encoding="UTF-8" standalone="no"?>
<!-- Generator: Adobe Illustrator 25.0.0, SVG Export Plug-In . SVG Version: 6.00 Build 0)  -->

<svg
   version="1.1"
   id="Livello_1"
   x="0px"
   y="0px"
   viewBox="0 0 595.3 841.9"
   style="enable-background:new 0 0 595.3 841.9;"
   xml:space="preserve"
   sodipodi:docname="struct5_thickness.svg"
   inkscape:version="1.1.1 (3bf5ae0d25, 2021-09-20)"
   xmlns:inkscape="http://www.inkscape.org/namespaces/inkscape"
   xmlns:sodipodi="http://sodipodi.sourceforge.net/DTD/sodipodi-0.dtd"
   xmlns="http://www.w3.org/2000/svg"
   xmlns:svg="http://www.w3.org/2000/svg"><defs
   id="defs151" /><sodipodi:namedview
   id="namedview149"
   pagecolor="#ffffff"
   bordercolor="#666666"
   borderopacity="1.0"
   inkscape:pageshadow="2"
   inkscape:pageopacity="0.0"
   inkscape:pagecheckerboard="0"
   showgrid="false"
   inkscape:zoom="1.0369402"
   inkscape:cx="297.9921"
   inkscape:cy="420.95001"
   inkscape:window-width="1920"
   inkscape:window-height="1009"
   inkscape:window-x="3432"
   inkscape:window-y="344"
   inkscape:window-maximized="1"
   inkscape:current-layer="Livello_1" />
<style
   type="text/css"
   id="style2">
	.st0{fill:#FFFFFF;stroke:#000000;stroke-miterlimit:10;}
	.st1{font-family:'MyriadPro-Regular';}
	.st2{font-size:12px;}
	.st3{fill:none;stroke:#000000;stroke-width:0.5;stroke-miterlimit:10;}
	.st4{fill:none;stroke:#000000;stroke-width:0.25;stroke-miterlimit:10;}
	.st5{fill:none;stroke:#000000;stroke-width:0.25;stroke-miterlimit:10;stroke-dasharray:2.1182,2.1182;}
	.st6{fill:none;stroke:#000000;stroke-width:0.25;stroke-miterlimit:10;stroke-dasharray:2.5565,2.5565;}
</style>
<g
   id="g8">
	<rect
   x="209.7"
   y="659.3"
   class="st0"
   width="136.4"
   height="18"
   id="rect4" />
	<text
   transform="matrix(1 0 0 1 270.2792 671.8969)"
   class="st1 st2"
   id="text6">10°</text>
</g>
<g
   id="g14">
	<rect
   x="209.7"
   y="641.3"
   class="st0"
   width="136.4"
   height="18"
   id="rect10" />
	<text
   transform="matrix(1 0 0 1 268.0096 653.9049)"
   class="st1 st2"
   id="text12">-10°</text>
</g>
<g
   id="g20">
	<rect
   x="209.7"
   y="623.3"
   class="st0"
   width="136.4"
   height="18"
   id="rect16" />
	<text
   transform="matrix(1 0 0 1 269.8516 635.9131)"
   class="st1 st2"
   id="text18">30°</text>
</g>
<g
   id="g26">
	<rect
   x="209.7"
   y="605.3"
   class="st0"
   width="136.4"
   height="18"
   id="rect22" />
	<text
   transform="matrix(1 0 0 1 268.0096 617.9211)"
   class="st1 st2"
   id="text24">-30°</text>
</g>
<g
   id="g32">
	<rect
   x="209.7"
   y="587.3"
   class="st0"
   width="136.4"
   height="18"
   id="rect28" />
	<text
   transform="matrix(1 0 0 1 270.2792 599.9293)"
   class="st1 st2"
   id="text30">0°</text>
</g>
<g
   id="g38">
	<rect
   x="209.7"
   y="569.4"
   class="st0"
   width="136.4"
   height="18"
   id="rect34" />
	<text
   transform="matrix(1 0 0 1 272.9295 581.9374)"
   class="st1 st2"
   id="text36">0°</text>
</g>
<g
   id="g44">
	<rect
   x="209.7"
   y="551.4"
   class="st0"
   width="136.4"
   height="18"
   id="rect40" />
	<text
   transform="matrix(1 0 0 1 272.9295 563.9456)"
   class="st1 st2"
   id="text42">0°</text>
</g>
<g
   id="g50">
	<rect
   x="209.7"
   y="533.4"
   class="st0"
   width="136.4"
   height="18"
   id="rect46" />
	<text
   transform="matrix(1 0 0 1 272.9295 545.9536)"
   class="st1 st2"
   id="text48">0°</text>
</g>
<g
   id="g56">
	<rect
   x="209.7"
   y="515.4"
   class="st0"
   width="136.4"
   height="18"
   id="rect52" />
	<text
   transform="matrix(1 0 0 1 268.0096 527.9618)"
   class="st1 st2"
   id="text54">-30°</text>
</g>
<g
   id="g62">
	<rect
   x="209.7"
   y="497.4"
   class="st0"
   width="136.4"
   height="18"
   id="rect58" />
	<text
   transform="matrix(1 0 0 1 270.2792 509.9699)"
   class="st1 st2"
   id="text60">30</text>
</g>
<g
   id="g68">
	<rect
   x="209.7"
   y="479.4"
   class="st0"
   width="136.4"
   height="18"
   id="rect64" />
	<text
   transform="matrix(1 0 0 1 269.9175 491.978)"
   class="st1 st2"
   id="text66">-10</text>
</g>
<g
   id="g74">
	<rect
   x="209.7"
   y="461.4"
   class="st0"
   width="136.4"
   height="18"
   id="rect70" />
	<text
   transform="matrix(1 0 0 1 270.2792 473.9861)"
   class="st1 st2"
   id="text72">10</text>
</g>
<g
   id="g90">
	<line
   x1="188.7"
   y1="659.3"
   x2="188.7"
   y2="677.3"
   id="line76" />
	<g
   id="g88">
		<line
   class="st3"
   x1="188.7"
   y1="662.3"
   x2="188.7"
   y2="674.3"
   id="line78" />
		<g
   id="g82">
			<path
   d="M188.7,659.3c-0.5,1.4-1.4,3.2-2.4,4.3l2.4-0.9l2.4,0.9C190.1,662.5,189.2,660.7,188.7,659.3z"
   id="path80" />
		</g>
		<g
   id="g86">
			<path
   d="M188.7,677.3c-0.5-1.4-1.4-3.2-2.4-4.3l2.4,0.9l2.4-0.9C190.1,674.1,189.2,675.9,188.7,677.3z"
   id="path84" />
		</g>
	</g>
</g>
<g
   id="g106">
	<line
   x1="198.3"
   y1="461.4"
   x2="198.3"
   y2="677.3"
   id="line92" />
	<g
   id="g104">
		<line
   class="st3"
   x1="198.3"
   y1="464.4"
   x2="198.3"
   y2="674.3"
   id="line94" />
		<g
   id="g98">
			<path
   d="M198.3,461.4c-0.5,1.4-1.4,3.2-2.4,4.3l2.4-0.9l2.4,0.9C199.7,464.6,198.8,462.8,198.3,461.4z"
   id="path96" />
		</g>
		<g
   id="g102">
			<path
   d="M198.3,677.3c-0.5-1.4-1.4-3.2-2.4-4.3l2.4,0.9l2.4-0.9C199.7,674.1,198.8,675.9,198.3,677.3z"
   id="path100" />
		</g>
	</g>
</g>
<text
   transform="matrix(1 0 0 1 163.7256 671.8965)"
   class="st1 st2"
   id="text108">0.2</text>
<g
   id="g120">
	<line
   x1="209.7"
   y1="659.3"
   x2="188.7"
   y2="659.3"
   id="line110" />
	<g
   id="g118">
		<line
   class="st4"
   x1="209.7"
   y1="659.3"
   x2="208.7"
   y2="659.3"
   id="line112" />
		<line
   class="st5"
   x1="206.6"
   y1="659.3"
   x2="190.7"
   y2="659.3"
   id="line114" />
		<line
   class="st4"
   x1="189.7"
   y1="659.3"
   x2="188.7"
   y2="659.3"
   id="line116" />
	</g>
</g>
<g
   id="g132">
	<line
   x1="208"
   y1="461.4"
   x2="198.3"
   y2="461.4"
   id="line122" />
	<g
   id="g130">
		<line
   class="st4"
   x1="208"
   y1="461.4"
   x2="207"
   y2="461.4"
   id="line124" />
		<line
   class="st6"
   x1="204.4"
   y1="461.4"
   x2="200.6"
   y2="461.4"
   id="line126" />
		<line
   class="st4"
   x1="199.3"
   y1="461.4"
   x2="198.3"
   y2="461.4"
   id="line128" />
	</g>
</g>
<g
   id="g144">
	<line
   x1="209.7"
   y1="677.3"
   x2="188.7"
   y2="677.3"
   id="line134" />
	<g
   id="g142">
		<line
   class="st4"
   x1="209.7"
   y1="677.3"
   x2="208.7"
   y2="677.3"
   id="line136" />
		<line
   class="st5"
   x1="206.6"
   y1="677.3"
   x2="190.7"
   y2="677.3"
   id="line138" />
		<line
   class="st4"
   x1="189.7"
   y1="677.3"
   x2="188.7"
   y2="677.3"
   id="line140" />
	</g>
</g>
<text
   class="st1 st2"
   id="text146"
   x="184.69334"
   y="572.31201">h</text>
</svg>
