<?xml version="1.0" encoding="UTF-8" standalone="no"?>
<!-- Generator: Adobe Illustrator 25.0.0, SVG Export Plug-In . SVG Version: 6.00 Build 0)  -->

<svg
   version="1.1"
   id="Livello_1"
   x="0px"
   y="0px"
   viewBox="0 0 595.3 841.9"
   style="enable-background:new 0 0 595.3 841.9;"
   xml:space="preserve"
   sodipodi:docname="struct5_thickness_sigmaX_.svg"
   inkscape:version="1.1.1 (3bf5ae0d25, 2021-09-20)"
   xmlns:inkscape="http://www.inkscape.org/namespaces/inkscape"
   xmlns:sodipodi="http://sodipodi.sourceforge.net/DTD/sodipodi-0.dtd"
   xmlns="http://www.w3.org/2000/svg"
   xmlns:svg="http://www.w3.org/2000/svg"><defs
   id="defs219" /><sodipodi:namedview
   id="namedview217"
   pagecolor="#ffffff"
   bordercolor="#666666"
   borderopacity="1.0"
   inkscape:pageshadow="2"
   inkscape:pageopacity="0.0"
   inkscape:pagecheckerboard="0"
   showgrid="false"
   inkscape:zoom="2.0738804"
   inkscape:cx="306.67149"
   inkscape:cy="587.06373"
   inkscape:window-width="3440"
   inkscape:window-height="1369"
   inkscape:window-x="-8"
   inkscape:window-y="-8"
   inkscape:window-maximized="1"
   inkscape:current-layer="Livello_1" />
<style
   type="text/css"
   id="style2">
	.st0{fill:#FFFFFF;stroke:#000000;stroke-miterlimit:10;}
	.st1{font-family:'MyriadPro-Regular';}
	.st2{font-size:12px;}
	.st3{fill:#FFFFFF;}
	.st4{fill:none;stroke:#000000;stroke-width:0.75;stroke-miterlimit:10;}
	.st5{fill:none;stroke:#000000;stroke-width:0.25;stroke-miterlimit:10;}
	.st6{fill:none;stroke:#000000;stroke-width:0.25;stroke-miterlimit:10;stroke-dasharray:1.9889,1.9889;}
	.st7{fill:none;stroke:#000000;stroke-width:0.25;stroke-miterlimit:10;stroke-dasharray:1.9882,1.9882;}
	.st8{fill:none;stroke:#000000;stroke-width:0.25;stroke-miterlimit:10;stroke-dasharray:2.0554,2.0554;}
	.st9{fill:none;stroke:#000000;stroke-width:0.25;stroke-miterlimit:10;stroke-dasharray:2.1266,2.1266;}
	.st10{fill:none;stroke:#000000;stroke-width:0.25;stroke-miterlimit:10;stroke-dasharray:1.9291,1.9291;}
	.st11{fill:none;stroke:#000000;stroke-width:0.25;stroke-miterlimit:10;stroke-dasharray:1.9944,1.9944;}
	.st12{fill:none;stroke:#000000;stroke-width:0.25;stroke-miterlimit:10;stroke-dasharray:1.9722,1.9722;}
	.st13{fill:none;stroke:#000000;stroke-width:0.25;stroke-miterlimit:10;stroke-dasharray:1.9711,1.9711;}
	.st14{fill:none;stroke:#000000;stroke-width:0.25;stroke-miterlimit:10;stroke-dasharray:1.9922,1.9922;}
	.st15{fill:none;stroke:#000000;stroke-width:0.25;stroke-miterlimit:10;stroke-dasharray:2.0199,2.0199;}
	.st16{fill:none;stroke:#000000;stroke-width:0.25;stroke-miterlimit:10;stroke-dasharray:1.9893,1.9893;}
	.st17{fill:none;stroke:#000000;stroke-width:0.25;stroke-miterlimit:10;stroke-dasharray:2.0265,2.0265;}
	.st18{fill:none;stroke:#5D81B1;stroke-width:1.5;stroke-linecap:square;stroke-miterlimit:3.25;}
</style>
<path
   class="st0"
   d="M309,677.3h37.1v-18h-34.4"
   id="path4" />
<text
   class="st1 st2"
   id="text6"
   x="315.4408"
   y="672.6731">10°</text>
<path
   class="st0"
   d="M311.7,659.3h34.4v-18h-32.9"
   id="path8" />
<text
   class="st1 st2"
   id="text10"
   x="313.0824"
   y="654.68121">-10°</text>
<path
   class="st0"
   d="M313.2,641.3h32.9v-18h-32.4"
   id="path12" />
<text
   class="st1 st2"
   id="text14"
   x="315.76599"
   y="636.68927">30°</text>
<path
   class="st0"
   d="M313.7,623.3h32.4v-18h-32.7"
   id="path16" />
<text
   class="st1 st2"
   id="text18"
   x="313.0824"
   y="618.69739">-30°</text>
<path
   class="st0"
   d="M313.3,605.3h32.7v-18h-33.6"
   id="path20" />
<text
   class="st1 st2"
   id="text22"
   x="319.66833"
   y="600.70563">0°</text>
<path
   class="st0"
   d="M312.5,587.3h33.6v-18h-34.8"
   id="path24" />
<text
   class="st1 st2"
   id="text26"
   x="319.66833"
   y="582.71368">0°</text>
<path
   class="st0"
   d="M311.3,569.4h34.8v-18h-36"
   id="path28" />
<text
   class="st1 st2"
   id="text30"
   x="319.66833"
   y="564.7218">0°</text>
<path
   class="st0"
   d="M310.1,551.4h6.6h29.3v-18h-37"
   id="path32" />
<text
   class="st1 st2"
   id="text34"
   x="319.66833"
   y="546.72992">0°</text>
<path
   class="st0"
   d="M309.1,533.4h7.6h29.3v-18h-35.4"
   id="path36" />
<text
   class="st1 st2"
   id="text38"
   x="313.0824"
   y="528.73798">-30°</text>
<path
   class="st0"
   d="m 329.00408,507.6 c 0.1,0.4 0.2,0.9 0.2,1.3 0.1,2 -1.2,3.7 -3,4.5 -0.6,0.8 -1.4,1.3 -2.4,1.6"
   id="path40" />
<path
   class="st0"
   d="M310.6,515c-0.2,0-0.3,0.1-0.5,0.1c0,0.1,0,0.2,0,0.2h35.9v-18h-35.8"
   id="path42" />
<text
   class="st1 st2"
   id="text44"
   x="318.96228"
   y="510.74619">30</text>
<path
   class="st0"
   d="M311.3,497.4h34.8v-18h-35.7"
   id="path46" />
<path
   class="st0"
   d="m 326.18495,497.4 h 1"
   id="path48" />
<text
   class="st1 st2"
   id="text50"
   x="316.27869"
   y="492.7543">-10</text>
<polyline
   class="st0"
   points="316.8,461.4 346.1,461.4 346.1,479.4 316.8,479.4 "
   id="polyline52" />
<line
   class="st0"
   x1="305.8"
   y1="461.4"
   x2="316.8"
   y2="461.4"
   id="line54" />
<text
   class="st1 st2"
   id="text56"
   x="318.63708"
   y="474.76239">10</text>
<g
   id="g68">
	<line
   class="st3"
   x1="352.9"
   y1="569.8"
   x2="535.6"
   y2="569.8"
   id="line58" />
	<g
   id="g66">
		<line
   class="st4"
   x1="352.9"
   y1="569.8"
   x2="529.5"
   y2="569.8"
   id="line60" />
		<g
   id="g64">
			<path
   d="M528.2,569.8l-1.6-2.7l0.1-0.1l4.4,1.8c1.5,0.3,3.1,0.7,4.6,1c-1.5,0.3-3.1,0.7-4.6,1l-4.4,1.8l-0.1,0L528.2,569.8z"
   id="path62" />
		</g>
	</g>
</g>
<g
   id="g80">
	<line
   class="st3"
   x1="352.9"
   y1="588.2"
   x2="456.3"
   y2="588.2"
   id="line70" />
	<g
   id="g78">
		<line
   class="st5"
   x1="352.9"
   y1="588.2"
   x2="353.9"
   y2="588.2"
   id="line72" />
		<line
   class="st6"
   x1="355.9"
   y1="588.2"
   x2="454.3"
   y2="588.2"
   id="line74" />
		<line
   class="st5"
   x1="455.3"
   y1="588.2"
   x2="456.3"
   y2="588.2"
   id="line76" />
	</g>
</g>
<g
   id="g92">
	<line
   class="st3"
   x1="352.9"
   y1="606.1"
   x2="444.3"
   y2="606.1"
   id="line82" />
	<g
   id="g90">
		<line
   class="st5"
   x1="352.9"
   y1="606.1"
   x2="353.9"
   y2="606.1"
   id="line84" />
		<line
   class="st7"
   x1="355.9"
   y1="606.1"
   x2="442.3"
   y2="606.1"
   id="line86" />
		<line
   class="st5"
   x1="443.3"
   y1="606.1"
   x2="444.3"
   y2="606.1"
   id="line88" />
	</g>
</g>
<g
   id="g104">
	<line
   class="st3"
   x1="352.9"
   y1="642.1"
   x2="398"
   y2="642.1"
   id="line94" />
	<g
   id="g102">
		<line
   class="st5"
   x1="352.9"
   y1="642.1"
   x2="353.9"
   y2="642.1"
   id="line96" />
		<line
   class="st8"
   x1="355.9"
   y1="642.1"
   x2="396"
   y2="642.1"
   id="line98" />
		<line
   class="st5"
   x1="397"
   y1="642.1"
   x2="398"
   y2="642.1"
   id="line100" />
	</g>
</g>
<g
   id="g116">
	<line
   class="st3"
   x1="352.9"
   y1="660.1"
   x2="386.8"
   y2="660.1"
   id="line106" />
	<g
   id="g114">
		<line
   class="st5"
   x1="352.9"
   y1="660.1"
   x2="353.9"
   y2="660.1"
   id="line108" />
		<line
   class="st9"
   x1="356"
   y1="660.1"
   x2="384.7"
   y2="660.1"
   id="line110" />
		<line
   class="st5"
   x1="385.8"
   y1="660.1"
   x2="386.8"
   y2="660.1"
   id="line112" />
	</g>
</g>
<g
   id="g128">
	<line
   class="st3"
   x1="351.1"
   y1="678.1"
   x2="374.3"
   y2="678.1"
   id="line118" />
	<g
   id="g126">
		<line
   class="st5"
   x1="351.1"
   y1="678.1"
   x2="352.1"
   y2="678.1"
   id="line120" />
		<line
   class="st10"
   x1="354"
   y1="678.1"
   x2="372.4"
   y2="678.1"
   id="line122" />
		<line
   class="st5"
   x1="373.3"
   y1="678.1"
   x2="374.3"
   y2="678.1"
   id="line124" />
	</g>
</g>
<g
   id="g140">
	<line
   class="st3"
   x1="352.9"
   y1="624.1"
   x2="436.6"
   y2="624.1"
   id="line130" />
	<g
   id="g138">
		<line
   class="st5"
   x1="352.9"
   y1="624.1"
   x2="353.9"
   y2="624.1"
   id="line132" />
		<line
   class="st11"
   x1="355.9"
   y1="624.1"
   x2="434.6"
   y2="624.1"
   id="line134" />
		<line
   class="st5"
   x1="435.6"
   y1="624.1"
   x2="436.6"
   y2="624.1"
   id="line136" />
	</g>
</g>
<g
   id="g152">
	<line
   class="st3"
   x1="352.9"
   y1="516.2"
   x2="487"
   y2="516.2"
   id="line142" />
	<g
   id="g150">
		<line
   class="st5"
   x1="352.9"
   y1="516.2"
   x2="353.9"
   y2="516.2"
   id="line144" />
		<line
   class="st12"
   x1="355.8"
   y1="516.2"
   x2="485"
   y2="516.2"
   id="line146" />
		<line
   class="st5"
   x1="486"
   y1="516.2"
   x2="487"
   y2="516.2"
   id="line148" />
	</g>
</g>
<g
   id="g164">
	<line
   class="st3"
   x1="352.9"
   y1="534.2"
   x2="479"
   y2="534.2"
   id="line154" />
	<g
   id="g162">
		<line
   class="st5"
   x1="352.9"
   y1="534.2"
   x2="353.9"
   y2="534.2"
   id="line156" />
		<line
   class="st13"
   x1="355.8"
   y1="534.2"
   x2="477.1"
   y2="534.2"
   id="line158" />
		<line
   class="st5"
   x1="478"
   y1="534.2"
   x2="479"
   y2="534.2"
   id="line160" />
	</g>
</g>
<g
   id="g176">
	<line
   class="st3"
   x1="352.9"
   y1="552.2"
   x2="468.4"
   y2="552.2"
   id="line166" />
	<g
   id="g174">
		<line
   class="st5"
   x1="352.9"
   y1="552.2"
   x2="353.9"
   y2="552.2"
   id="line168" />
		<line
   class="st14"
   x1="355.9"
   y1="552.2"
   x2="466.4"
   y2="552.2"
   id="line170" />
		<line
   class="st5"
   x1="467.4"
   y1="552.2"
   x2="468.4"
   y2="552.2"
   id="line172" />
	</g>
</g>
<g
   id="g188">
	<line
   class="st3"
   x1="352.9"
   y1="462.2"
   x2="526.6"
   y2="462.2"
   id="line178" />
	<g
   id="g186">
		<line
   class="st5"
   x1="352.9"
   y1="462.2"
   x2="353.9"
   y2="462.2"
   id="line180" />
		<line
   class="st15"
   x1="355.9"
   y1="462.2"
   x2="524.6"
   y2="462.2"
   id="line182" />
		<line
   class="st5"
   x1="525.6"
   y1="462.2"
   x2="526.6"
   y2="462.2"
   id="line184" />
	</g>
</g>
<g
   id="g200">
	<line
   class="st3"
   x1="352.9"
   y1="480.2"
   x2="516"
   y2="480.2"
   id="line190" />
	<g
   id="g198">
		<line
   class="st5"
   x1="352.9"
   y1="480.2"
   x2="353.9"
   y2="480.2"
   id="line192" />
		<line
   class="st16"
   x1="355.9"
   y1="480.2"
   x2="514"
   y2="480.2"
   id="line194" />
		<line
   class="st5"
   x1="515"
   y1="480.2"
   x2="516"
   y2="480.2"
   id="line196" />
	</g>
</g>
<g
   id="g212">
	<line
   class="st3"
   x1="352.9"
   y1="498.2"
   x2="494.7"
   y2="498.2"
   id="line202" />
	<g
   id="g210">
		<line
   class="st5"
   x1="352.9"
   y1="498.2"
   x2="353.9"
   y2="498.2"
   id="line204" />
		<line
   class="st17"
   x1="355.9"
   y1="498.2"
   x2="492.7"
   y2="498.2"
   id="line206" />
		<line
   class="st5"
   x1="493.7"
   y1="498.2"
   x2="494.7"
   y2="498.2"
   id="line208" />
	</g>
</g>
<polyline
   class="st18"
   points="528.1,461.4 528,461.5 528,461.5 527.9,461.7 527.7,461.9 527.3,462.5 526.6,463.5 525.1,465.7   521.8,470.3 518.7,474.6 518.6,474.7 518.5,474.8 518.4,475.1 518,475.6 517.2,476.7 517.2,476.8 517.1,476.8 517,476.9   516.9,477.2 516.5,477.7 516.4,477.8 516.4,477.9 516.3,478 516.1,478.3 515.7,478.8 515.6,478.9 515.5,479.1 515.3,479.4   517.6,479.5 517.5,479.7 517.4,479.7 517.4,479.8 517.3,479.9 517.2,480 517.2,480.1 517.1,480.2 516.8,480.5 516.4,481.1   516.4,481.2 516.3,481.2 516.2,481.4 516,481.7 514.7,483.4 514.7,483.4 514.6,483.5 514.5,483.6 514.3,483.9 514,484.4   513.2,485.5 511.6,487.6 508.2,492.3 508.1,492.4 508.1,492.4 508,492.6 507.8,492.8 507.4,493.4 506.5,494.6 506.5,494.6   506.4,494.7 506.3,494.8 506.1,495.1 505.7,495.7 505.6,495.8 505.5,496 505.3,496.3 504.8,496.8 504.8,496.9 504.8,497   504.7,497.1 504.6,497.2 504.6,497.2 504.5,497.4 504.4,497.4 504.4,497.5 495.3,497.6 495.3,497.6 495.3,497.7 495.3,497.8   495.2,497.9 495.2,498 495.1,498 495.1,498.2 494.9,498.4 494.7,498.9 494.7,499 494.6,499.1 494.5,499.5 494.2,500 493.7,501.1   493.5,501.6 492.7,503.4 491.6,505.7 489.6,510 489.6,510 489.5,510.1 489.5,510.2 489.4,510.5 489.1,511 488.6,512.1 488.6,512.2   488.5,512.3 488.4,512.6 488.1,513.1 487.6,514.2 487.6,514.2 487.5,514.5 487.4,514.7 487,515.5 488.1,515.6 488,515.7 488,515.7   487.9,515.9 487.9,516 487.8,516.2 487.7,516.5 487.6,516.6 487.5,516.7 487.4,517 487.1,517.6 486.6,518.7 486.5,518.8   486.5,518.9 486.4,519 486.3,519.3 486,519.8 485.5,520.9 484.5,523 482.3,527.6 480.1,532.2 478,536.4 475.9,541 474,545.2   472,549.9 470,554.4 468.1,558.7 466,563.3 464.1,567.6 462.3,571.8 460.2,576.4 458.4,580.7 456.3,585.3 454.3,589.8 452.4,594.1   450.4,598.7 450.4,598.7 450.3,598.8 450.3,598.9 450.1,599.2 449.9,599.7 449.4,600.8 449.4,600.9 449.3,601.1 449.2,601.3   449,601.9 448.5,602.9 448.4,603.1 448.4,603.2 448,604 448,604.1 448,604.1 447.9,604.3 447.8,604.5 447.6,605.1 447.5,605.2   447.4,605.3 447.4,605.4 447.3,605.6 447.3,605.6 447.3,605.7 447.2,605.8 444.3,605.9 444.3,606 444.3,606 444.2,606.1   444.2,606.2 444.2,606.2 444.1,606.4 444,606.6 443.7,607.2 443.7,607.3 443.6,607.4 443.2,608.3 442.6,609.4 441.5,611.7   439.5,616 439.4,616 439.4,616.1 439.3,616.3 439.2,616.5 438.9,617.1 438.3,618.3 438.3,618.4 438.2,618.6 438.1,618.9   437.8,619.4 437.2,620.6 437.2,620.7 437.2,620.7 437.1,620.9 437,621.1 436.7,621.7 436.7,621.7 436.6,621.8 436.6,621.9   436.5,622.2 436.2,622.7 436.2,622.8 436.1,622.9 436.1,623 435.9,623.3 435.8,623.5 435.8,623.6 435.7,623.8 435.6,623.9   436.7,624 436.7,624 436.6,624.1 436.6,624.2 436.6,624.2 436.5,624.4 436.5,624.4 436.5,624.5 436.4,624.6 436.3,624.9 436.2,625   436.2,625 436.1,625.2 436,625.4 435.8,626 435.3,627 434.3,629.1 432.2,633.7 432.1,633.8 432.1,633.8 432.1,634 431.9,634.2   431.7,634.8 431.2,635.8 431.2,635.9 431.1,636 430.9,636.4 430.7,636.9 430.2,638 430.2,638 430.1,638.1 430.1,638.3 429.9,638.6   429.7,639.1 429.6,639.2 429.5,639.4 429.4,639.7 429.1,640.3 429.1,640.4 429,640.6 428.9,640.9 428.8,640.9 428.7,641.2   428.6,641.5 428.5,641.5 428.4,641.7 428.4,641.8 428.3,642 398,642 398,642.1 397.9,642.2 397.8,642.3 397.6,642.6 397.6,642.7   397.5,642.8 397.4,642.9 397.2,643.2 396.8,643.7 395.9,644.9 394.3,647.2 391.1,651.4 391.1,651.5 391,651.5 390.9,651.7   390.7,652 390.3,652.6 389.4,653.7 389.4,653.8 389.3,653.9 389.2,654 389,654.3 388.6,654.9 387.8,656 387.7,656.1 387.7,656.1   387.6,656.3 387.4,656.5 387,657.1 386.9,657.1 386.9,657.2 386.8,657.3 386.6,657.6 386.2,658.2 386.1,658.3 386,658.4   385.8,658.7 385.7,658.8 385.6,659 385.4,659.2 385.3,659.3 385.2,659.5 385.1,659.6 385.1,659.6 385,659.8 384.8,660 384.8,660   387.1,660.1 387.1,660.2 387,660.2 387,660.3 386.9,660.4 386.9,660.4 386.8,660.6 386.6,660.8 386.2,661.4 384,664.5 380.7,669.1   377.7,673.4 377.7,673.4 377.6,673.5 377.5,673.6 377.3,673.9 376.9,674.5 376,675.7 376,675.8 375.9,675.9 375.8,676 375.6,676.3   375.2,676.9 375.1,677 375.1,677.1 375,677.2 374.8,677.5 374.7,677.6 374.6,677.7 374.5,677.8 374.5,677.9 374.4,678 374.3,678.1   "
   id="polyline214" />
</svg>
