<?xml version="1.0" encoding="UTF-8" standalone="no"?>
<svg
   viewBox="0 0 266.77 157.21"
   version="1.1"
   id="svg176"
   sodipodi:docname="variazione_Enarrow.svg"
   inkscape:version="1.1.1 (3bf5ae0d25, 2021-09-20)"
   xmlns:inkscape="http://www.inkscape.org/namespaces/inkscape"
   xmlns:sodipodi="http://sodipodi.sourceforge.net/DTD/sodipodi-0.dtd"
   xmlns="http://www.w3.org/2000/svg"
   xmlns:svg="http://www.w3.org/2000/svg">
  <sodipodi:namedview
     id="namedview178"
     pagecolor="#ffffff"
     bordercolor="#666666"
     borderopacity="1.0"
     inkscape:pageshadow="2"
     inkscape:pageopacity="0.0"
     inkscape:pagecheckerboard="0"
     showgrid="false"
     inkscape:zoom="2.2416315"
     inkscape:cx="195.61646"
     inkscape:cy="50.632765"
     inkscape:window-width="1920"
     inkscape:window-height="1009"
     inkscape:window-x="-8"
     inkscape:window-y="-8"
     inkscape:window-maximized="1"
     inkscape:current-layer="layer1" />
  <defs
     id="defs4">
    <style
       id="style2">.cls-1,.cls-2{fill:none;}.cls-1,.cls-4{stroke:#a67c52;stroke-linecap:square;stroke-width:1.15px;}.cls-1,.cls-2,.cls-4{stroke-miterlimit:3.25;}.cls-2{stroke:#000;stroke-width:0.36px;}.cls-3{font-size:6.48px;font-family:ArialMT, Arial;}.cls-4{fill:#a67c52;}</style>
  </defs>
  <polyline
     class="cls-1"
     points="27.81 83.78 49.39 11.72 71.98 139.96 76.12 118.59 117.09 51.96 135.12 41.43 152.39 35.87 162.71 33.87 175.72 32.23 193.37 30.98 234.34 29.97 251.99 29.84"
     id="polyline6" />
  <line
     class="cls-2"
     x1="17.49"
     y1="147.08"
     x2="17.49"
     y2="144.64999"
     id="line8" />
  <line
     class="cls-2"
     x1="76.120003"
     y1="147.08"
     x2="76.120003"
     y2="144.64999"
     id="line10" />
  <line
     class="cls-2"
     x1="134.74001"
     y1="147.08"
     x2="134.74001"
     y2="144.64999"
     id="line14" />
  <line
     class="cls-2"
     x1="193.37"
     y1="147.08"
     x2="193.37"
     y2="144.64999"
     id="line18" />
  <line
     class="cls-2"
     x1="251.99001"
     y1="147.08"
     x2="251.99001"
     y2="144.64999"
     id="line22" />
  <line
     class="cls-2"
     x1="14.81"
     y1="147.08"
     x2="14.81"
     y2="145.87"
     id="line26" />
  <line
     class="cls-2"
     x1="35.139999"
     y1="147.08"
     x2="35.139999"
     y2="145.87"
     id="line28" />
  <line
     class="cls-2"
     x1="45.459999"
     y1="147.08"
     x2="45.459999"
     y2="145.87"
     id="line30" />
  <line
     class="cls-2"
     x1="52.779999"
     y1="147.08"
     x2="52.779999"
     y2="145.87"
     id="line32" />
  <line
     class="cls-2"
     x1="58.470001"
     y1="147.08"
     x2="58.470001"
     y2="145.87"
     id="line34" />
  <line
     class="cls-2"
     x1="63.110001"
     y1="147.08"
     x2="63.110001"
     y2="145.87"
     id="line36" />
  <line
     class="cls-2"
     x1="67.040001"
     y1="147.08"
     x2="67.040001"
     y2="145.87"
     id="line38" />
  <line
     class="cls-2"
     x1="70.43"
     y1="147.08"
     x2="70.43"
     y2="145.87"
     id="line40" />
  <line
     class="cls-2"
     x1="73.43"
     y1="147.08"
     x2="73.43"
     y2="145.87"
     id="line42" />
  <line
     class="cls-2"
     x1="93.769997"
     y1="147.08"
     x2="93.769997"
     y2="145.87"
     id="line44" />
  <line
     class="cls-2"
     x1="104.09"
     y1="147.08"
     x2="104.09"
     y2="145.87"
     id="line46" />
  <line
     class="cls-2"
     x1="111.41"
     y1="147.08"
     x2="111.41"
     y2="145.87"
     id="line48" />
  <line
     class="cls-2"
     x1="117.09"
     y1="147.08"
     x2="117.09"
     y2="145.87"
     id="line50" />
  <line
     class="cls-2"
     x1="121.73"
     y1="147.08"
     x2="121.73"
     y2="145.87"
     id="line52" />
  <line
     class="cls-2"
     x1="125.66"
     y1="147.08"
     x2="125.66"
     y2="145.87"
     id="line54" />
  <line
     class="cls-2"
     x1="129.06"
     y1="147.08"
     x2="129.06"
     y2="145.87"
     id="line56" />
  <line
     class="cls-2"
     x1="132.06"
     y1="147.08"
     x2="132.06"
     y2="145.87"
     id="line58" />
  <line
     class="cls-2"
     x1="152.39"
     y1="147.08"
     x2="152.39"
     y2="145.87"
     id="line60" />
  <line
     class="cls-2"
     x1="162.71001"
     y1="147.08"
     x2="162.71001"
     y2="145.87"
     id="line62" />
  <line
     class="cls-2"
     x1="170.03999"
     y1="147.08"
     x2="170.03999"
     y2="145.87"
     id="line64" />
  <line
     class="cls-2"
     x1="175.72"
     y1="147.08"
     x2="175.72"
     y2="145.87"
     id="line66" />
  <line
     class="cls-2"
     x1="180.36"
     y1="147.08"
     x2="180.36"
     y2="145.87"
     id="line68" />
  <line
     class="cls-2"
     x1="184.28999"
     y1="147.08"
     x2="184.28999"
     y2="145.87"
     id="line70" />
  <line
     class="cls-2"
     x1="187.67999"
     y1="147.08"
     x2="187.67999"
     y2="145.87"
     id="line72" />
  <line
     class="cls-2"
     x1="190.67999"
     y1="147.08"
     x2="190.67999"
     y2="145.87"
     id="line74" />
  <line
     class="cls-2"
     x1="211.02"
     y1="147.08"
     x2="211.02"
     y2="145.87"
     id="line76" />
  <line
     class="cls-2"
     x1="221.34"
     y1="147.08"
     x2="221.34"
     y2="145.87"
     id="line78" />
  <line
     class="cls-2"
     x1="228.66"
     y1="147.08"
     x2="228.66"
     y2="145.87"
     id="line80" />
  <line
     class="cls-2"
     x1="234.34"
     y1="147.08"
     x2="234.34"
     y2="145.87"
     id="line82" />
  <line
     class="cls-2"
     x1="238.98"
     y1="147.08"
     x2="238.98"
     y2="145.87"
     id="line84" />
  <line
     class="cls-2"
     x1="242.91"
     y1="147.08"
     x2="242.91"
     y2="145.87"
     id="line86" />
  <line
     class="cls-2"
     x1="246.31"
     y1="147.08"
     x2="246.31"
     y2="145.87"
     id="line88" />
  <line
     class="cls-2"
     x1="249.31"
     y1="147.08"
     x2="249.31"
     y2="145.87"
     id="line90" />
  <line
     class="cls-2"
     x1="13.51"
     y1="147.08"
     x2="263.82999"
     y2="147.08"
     id="line92" />
  <path
     d="m 263.18,147.08 -0.78,-1.3 v 0 l 2.12,0.84 2.21,0.49 -2.21,0.49 -2.12,0.84 v 0 z"
     id="path94" />
  <line
     class="cls-2"
     x1="18.379999"
     y1="149.60001"
     x2="20.110001"
     y2="149.60001"
     id="line96" />
  <line
     class="cls-2"
     x1="18.379999"
     y1="142.06"
     x2="21.27"
     y2="142.06"
     id="line98" />
  <line
     class="cls-2"
     x1="18.379999"
     y1="134.53"
     x2="20.110001"
     y2="134.53"
     id="line102" />
  <line
     class="cls-2"
     x1="18.379999"
     y1="126.99"
     x2="20.110001"
     y2="126.99"
     id="line104" />
  <line
     class="cls-2"
     x1="18.379999"
     y1="119.46"
     x2="20.110001"
     y2="119.46"
     id="line106" />
  <line
     class="cls-2"
     x1="18.379999"
     y1="111.92"
     x2="21.27"
     y2="111.92"
     id="line108" />
  <line
     class="cls-2"
     x1="18.379999"
     y1="104.38"
     x2="20.110001"
     y2="104.38"
     id="line112" />
  <line
     class="cls-2"
     x1="18.379999"
     y1="96.849998"
     x2="20.110001"
     y2="96.849998"
     id="line114" />
  <line
     class="cls-2"
     x1="18.379999"
     y1="89.309998"
     x2="20.110001"
     y2="89.309998"
     id="line116" />
  <line
     class="cls-2"
     x1="18.379999"
     y1="81.779999"
     x2="21.27"
     y2="81.779999"
     id="line118" />
  <line
     class="cls-2"
     x1="18.379999"
     y1="74.239998"
     x2="20.110001"
     y2="74.239998"
     id="line122" />
  <line
     class="cls-2"
     x1="18.379999"
     y1="66.709999"
     x2="20.110001"
     y2="66.709999"
     id="line124" />
  <line
     class="cls-2"
     x1="18.379999"
     y1="59.169998"
     x2="20.110001"
     y2="59.169998"
     id="line126" />
  <line
     class="cls-2"
     x1="18.379999"
     y1="51.630001"
     x2="21.27"
     y2="51.630001"
     id="line128" />
  <line
     class="cls-2"
     x1="18.379999"
     y1="44.099998"
     x2="20.110001"
     y2="44.099998"
     id="line132" />
  <line
     class="cls-2"
     x1="18.379999"
     y1="36.560001"
     x2="20.110001"
     y2="36.560001"
     id="line134" />
  <line
     class="cls-2"
     x1="18.379999"
     y1="29.030001"
     x2="20.110001"
     y2="29.030001"
     id="line136" />
  <line
     class="cls-2"
     x1="18.379999"
     y1="21.49"
     x2="21.27"
     y2="21.49"
     id="line138" />
  <line
     class="cls-2"
     x1="18.379999"
     y1="13.96"
     x2="20.110001"
     y2="13.96"
     id="line142" />
  <line
     class="cls-2"
     x1="18.379999"
     y1="6.4200001"
     x2="20.110001"
     y2="6.4200001"
     id="line144" />
  <line
     class="cls-2"
     x1="18.379999"
     y1="154.60001"
     x2="18.379999"
     y2="2.9300001"
     id="line146" />
  <path
     d="m 18.38,3.58 -1.3,0.79 v 0 l 0.84,-2.12 c 0.16,-0.74 0.32,-1.47 0.49,-2.21 l 0.48,2.21 0.84,2.12 v 0 z"
     id="path148" />
  <circle
     class="cls-4"
     cx="49.490002"
     cy="11.72"
     r="1.3099999"
     id="circle150" />
  <circle
     class="cls-4"
     cx="27.809999"
     cy="83.779999"
     r="1.3099999"
     id="circle152" />
  <circle
     class="cls-4"
     cx="71.980003"
     cy="139.96001"
     r="1.3099999"
     id="circle154" />
  <circle
     class="cls-4"
     cx="76.120003"
     cy="119.46"
     r="1.3099999"
     id="circle156" />
  <circle
     class="cls-4"
     cx="117.09"
     cy="51.630001"
     r="1.3099999"
     id="circle158" />
  <circle
     class="cls-4"
     cx="135.12"
     cy="41.43"
     r="1.3099999"
     id="circle160" />
  <circle
     class="cls-4"
     cx="152.39"
     cy="35.869999"
     r="1.3099999"
     id="circle162" />
  <circle
     class="cls-4"
     cx="162.34"
     cy="34.040001"
     r="1.3099999"
     id="circle164" />
  <circle
     class="cls-4"
     cx="175.36"
     cy="32.209999"
     r="1.3099999"
     id="circle166" />
  <circle
     class="cls-4"
     cx="192.97"
     cy="30.91"
     r="1.3099999"
     id="circle168" />
  <circle
     class="cls-4"
     cx="233.95"
     cy="30"
     r="1.3099999"
     id="circle170" />
  <circle
     class="cls-4"
     cx="251.99001"
     cy="30"
     r="1.3099999"
     id="circle172" />
  <g
     inkscape:groupmode="layer"
     id="layer1"
     inkscape:label="Layer 1">
    <text
       class="cls-3"
       id="text12"
       x="73.860855"
       y="159.42546"
       style="font-size:6.48px;font-family:ArialMT, Arial">1</text>
    <text
       class="cls-3"
       id="text16"
       x="130.69086"
       y="159.42546"
       style="font-size:6.48px;font-family:ArialMT, Arial">10</text>
    <text
       class="cls-3"
       id="text20"
       x="187.51086"
       y="159.42546"
       style="font-size:6.48px;font-family:ArialMT, Arial">100</text>
    <text
       class="cls-3"
       id="text24"
       x="244.33086"
       y="159.42546"
       style="font-size:6.48px;font-family:ArialMT, Arial">1000</text>
    <text
       class="cls-3"
       id="text100"
       y="143.94138"
       style="font-size:6.48px;font-family:ArialMT, Arial"
       x="-7.8098521">756.4</text>
    <text
       class="cls-3"
       id="text110"
       y="113.80136"
       style="font-size:6.48px;font-family:ArialMT, Arial"
       x="-7.8098521">756.6</text>
    <text
       class="cls-3"
       id="text120"
       y="83.65136"
       style="font-size:6.48px;font-family:ArialMT, Arial"
       x="-7.8098521">756.8</text>
    <text
       class="cls-3"
       id="text130"
       y="53.51136"
       style="font-size:6.48px;font-family:ArialMT, Arial"
       x="-7.8098521">757.0</text>
    <text
       class="cls-3"
       id="text140"
       y="23.371361"
       style="font-size:6.48px;font-family:ArialMT, Arial"
       x="-7.8098521">757.2</text>
    <text
       xml:space="preserve"
       style="font-size:16px;line-height:1.25;font-family:sans-serif"
       x="8.9220734"
       y="-6.245451"
       id="text3377"><tspan
         sodipodi:role="line"
         id="tspan3375"
         x="8.9220734"
         y="-6.245451">$C_{11}$</tspan></text>
    <text
       xml:space="preserve"
       style="font-size:16px;line-height:1.25;font-family:sans-serif"
       x="268.77744"
       y="151.67525"
       id="text5511"><tspan
         sodipodi:role="line"
         id="tspan5509"
         x="268.77744"
         y="151.67525">$E_m$</tspan></text>
    <text
       xml:space="preserve"
       style="font-size:16px;line-height:1.25;font-family:sans-serif"
       x="196.28561"
       y="114.64864"
       id="text7813"><tspan
         sodipodi:role="line"
         id="tspan7811"
         x="196.28561"
         y="114.64864" /></text>
  </g>
</svg>
