<?xml version="1.0" encoding="UTF-8" standalone="no"?>
<svg
   viewBox="0 0 259.02 200.03"
   version="1.1"
   id="svg144"
   sodipodi:docname="variazione_Ebone.svg"
   inkscape:version="1.1.1 (3bf5ae0d25, 2021-09-20)"
   xmlns:inkscape="http://www.inkscape.org/namespaces/inkscape"
   xmlns:sodipodi="http://sodipodi.sourceforge.net/DTD/sodipodi-0.dtd"
   xmlns="http://www.w3.org/2000/svg"
   xmlns:svg="http://www.w3.org/2000/svg">
  <sodipodi:namedview
     id="namedview146"
     pagecolor="#ffffff"
     bordercolor="#666666"
     borderopacity="1.0"
     inkscape:pageshadow="2"
     inkscape:pageopacity="0.0"
     inkscape:pagecheckerboard="0"
     showgrid="false"
     inkscape:zoom="4.3643454"
     inkscape:cx="129.5727"
     inkscape:cy="100.015"
     inkscape:window-width="3440"
     inkscape:window-height="1369"
     inkscape:window-x="-8"
     inkscape:window-y="-8"
     inkscape:window-maximized="1"
     inkscape:current-layer="layer1" />
  <defs
     id="defs4">
    <style
       id="style2">.cls-1,.cls-2{fill:none;}.cls-1,.cls-4{stroke:#a67c52;stroke-linecap:square;stroke-width:1.15px;}.cls-1,.cls-2,.cls-4{stroke-miterlimit:3.25;}.cls-2{stroke:#000;stroke-width:0.36px;}.cls-3{font-size:6.48px;font-family:ArialMT, Arial;}.cls-4{fill:#a67c52;}</style>
  </defs>
  <g
     id="Livello_2"
     data-name="Livello 2">
    <polyline
       class="cls-1"
       points="254.07 17.35 229.32 30.62 179.82 57.16 155.07 70.43 105.57 96.97 70.92 115.55 41.22 131.48 21.42 142.1"
       id="polyline6" />
    <line
       class="cls-2"
       x1="21.42"
       y1="189.89999"
       x2="21.42"
       y2="187.96001"
       id="line8" />
    <line
       class="cls-2"
       x1="31.32"
       y1="189.89999"
       x2="31.32"
       y2="186.67"
       id="line10" />
    <line
       class="cls-2"
       x1="41.220001"
       y1="189.89999"
       x2="41.220001"
       y2="187.96001"
       id="line14" />
    <line
       class="cls-2"
       x1="51.119999"
       y1="189.89999"
       x2="51.119999"
       y2="187.96001"
       id="line16" />
    <line
       class="cls-2"
       x1="61.02"
       y1="189.89999"
       x2="61.02"
       y2="187.96001"
       id="line18" />
    <line
       class="cls-2"
       x1="70.919998"
       y1="189.89999"
       x2="70.919998"
       y2="187.96001"
       id="line20" />
    <line
       class="cls-2"
       x1="80.82"
       y1="189.89999"
       x2="80.82"
       y2="186.67"
       id="line22" />
    <line
       class="cls-2"
       x1="90.720001"
       y1="189.89999"
       x2="90.720001"
       y2="187.96001"
       id="line26" />
    <line
       class="cls-2"
       x1="100.62"
       y1="189.89999"
       x2="100.62"
       y2="187.96001"
       id="line28" />
    <line
       class="cls-2"
       x1="110.52"
       y1="189.89999"
       x2="110.52"
       y2="187.96001"
       id="line30" />
    <line
       class="cls-2"
       x1="120.42"
       y1="189.89999"
       x2="120.42"
       y2="187.96001"
       id="line32" />
    <line
       class="cls-2"
       x1="130.32001"
       y1="189.89999"
       x2="130.32001"
       y2="186.67"
       id="line34" />
    <line
       class="cls-2"
       x1="140.22"
       y1="189.89999"
       x2="140.22"
       y2="187.96001"
       id="line38" />
    <line
       class="cls-2"
       x1="150.12"
       y1="189.89999"
       x2="150.12"
       y2="187.96001"
       id="line40" />
    <line
       class="cls-2"
       x1="160.02"
       y1="189.89999"
       x2="160.02"
       y2="187.96001"
       id="line42" />
    <line
       class="cls-2"
       x1="169.92"
       y1="189.89999"
       x2="169.92"
       y2="187.96001"
       id="line44" />
    <line
       class="cls-2"
       x1="179.82001"
       y1="189.89999"
       x2="179.82001"
       y2="186.67"
       id="line46" />
    <line
       class="cls-2"
       x1="189.72"
       y1="189.89999"
       x2="189.72"
       y2="187.96001"
       id="line50" />
    <line
       class="cls-2"
       x1="199.62"
       y1="189.89999"
       x2="199.62"
       y2="187.96001"
       id="line52" />
    <line
       class="cls-2"
       x1="209.52"
       y1="189.89999"
       x2="209.52"
       y2="187.96001"
       id="line54" />
    <line
       class="cls-2"
       x1="219.42"
       y1="189.89999"
       x2="219.42"
       y2="187.96001"
       id="line56" />
    <line
       class="cls-2"
       x1="229.32001"
       y1="189.89999"
       x2="229.32001"
       y2="186.67"
       id="line58" />
    <line
       class="cls-2"
       x1="239.22"
       y1="189.89999"
       x2="239.22"
       y2="187.96001"
       id="line62" />
    <line
       class="cls-2"
       x1="249.12"
       y1="189.89999"
       x2="249.12"
       y2="187.96001"
       id="line64" />
    <line
       class="cls-2"
       x1="11.63"
       y1="189.89999"
       x2="256.09"
       y2="189.89999"
       id="line66" />
    <path
       d="m 255.44,189.9 -0.79,-1.3 v 0 l 2.12,0.84 2.21,0.48 -2.21,0.49 -2.12,0.84 v 0 z"
       id="path68" />
    <line
       class="cls-2"
       x1="16.57"
       y1="189.89999"
       x2="19.809999"
       y2="189.89999"
       id="line70" />
    <line
       class="cls-2"
       x1="16.57"
       y1="181.13"
       x2="18.52"
       y2="181.13"
       id="line72" />
    <line
       class="cls-2"
       x1="16.57"
       y1="172.36"
       x2="18.52"
       y2="172.36"
       id="line74" />
    <line
       class="cls-2"
       x1="16.57"
       y1="163.59"
       x2="18.52"
       y2="163.59"
       id="line76" />
    <line
       class="cls-2"
       x1="16.57"
       y1="154.82001"
       x2="19.809999"
       y2="154.82001"
       id="line78" />
    <line
       class="cls-2"
       x1="16.57"
       y1="146.05"
       x2="18.52"
       y2="146.05"
       id="line82" />
    <line
       class="cls-2"
       x1="16.57"
       y1="137.28"
       x2="18.52"
       y2="137.28"
       id="line84" />
    <line
       class="cls-2"
       x1="16.57"
       y1="128.50999"
       x2="18.52"
       y2="128.50999"
       id="line86" />
    <line
       class="cls-2"
       x1="16.57"
       y1="119.74"
       x2="19.809999"
       y2="119.74"
       id="line88" />
    <line
       class="cls-2"
       x1="16.57"
       y1="110.97"
       x2="18.52"
       y2="110.97"
       id="line92" />
    <line
       class="cls-2"
       x1="16.57"
       y1="102.2"
       x2="18.52"
       y2="102.2"
       id="line94" />
    <line
       class="cls-2"
       x1="16.57"
       y1="93.43"
       x2="18.52"
       y2="93.43"
       id="line96" />
    <line
       class="cls-2"
       x1="16.57"
       y1="84.660004"
       x2="19.809999"
       y2="84.660004"
       id="line98" />
    <line
       class="cls-2"
       x1="16.57"
       y1="75.889999"
       x2="18.52"
       y2="75.889999"
       id="line102" />
    <line
       class="cls-2"
       x1="16.57"
       y1="67.120003"
       x2="18.52"
       y2="67.120003"
       id="line104" />
    <line
       class="cls-2"
       x1="16.57"
       y1="58.349998"
       x2="18.52"
       y2="58.349998"
       id="line106" />
    <line
       class="cls-2"
       x1="16.57"
       y1="49.580002"
       x2="19.809999"
       y2="49.580002"
       id="line108" />
    <line
       class="cls-2"
       x1="16.57"
       y1="40.810001"
       x2="18.52"
       y2="40.810001"
       id="line112" />
    <line
       class="cls-2"
       x1="16.57"
       y1="32.040001"
       x2="18.52"
       y2="32.040001"
       id="line114" />
    <line
       class="cls-2"
       x1="16.57"
       y1="23.27"
       x2="18.52"
       y2="23.27"
       id="line116" />
    <line
       class="cls-2"
       x1="16.57"
       y1="14.5"
       x2="19.809999"
       y2="14.5"
       id="line118" />
    <line
       class="cls-2"
       x1="16.57"
       y1="193.61"
       x2="16.57"
       y2="2.9300001"
       id="line122" />
    <path
       d="m 16.57,3.58 -1.29,0.79 v 0 L 16.12,2.25 16.57,0 c 0.17,0.74 0.33,1.47 0.49,2.21 l 0.84,2.12 v 0 z"
       id="path124" />
    <circle
       class="cls-4"
       cx="22.33"
       cy="142.10001"
       r="1.64"
       id="circle126" />
    <circle
       class="cls-4"
       cx="41.220001"
       cy="131.53"
       r="1.64"
       id="circle128" />
    <circle
       class="cls-4"
       cx="70.230003"
       cy="115.69"
       r="1.64"
       id="circle130" />
    <circle
       class="cls-4"
       cx="104.88"
       cy="97.580002"
       r="1.64"
       id="circle132" />
    <circle
       class="cls-4"
       cx="154.38"
       cy="71.040001"
       r="1.64"
       id="circle134" />
    <circle
       class="cls-4"
       cx="179.09"
       cy="57.77"
       r="1.64"
       id="circle136" />
    <circle
       class="cls-4"
       cx="228.63"
       cy="31.219999"
       r="1.64"
       id="circle138" />
    <circle
       class="cls-4"
       cx="254.07001"
       cy="17.35"
       r="1.64"
       id="circle140" />
  </g>
  <g
     inkscape:groupmode="layer"
     id="layer1"
     inkscape:label="Layer 1">
    <text
       class="cls-3"
       id="text12"
       x="24.338564"
       y="199.88106"
       style="font-size:6.48px;font-family:ArialMT, Arial">$2000$</text>
    <text
       class="cls-3"
       id="text24"
       x="73.83857"
       y="199.88106"
       style="font-size:6.48px;font-family:ArialMT, Arial">$3000$</text>
    <text
       class="cls-3"
       id="text36"
       x="123.33855"
       y="199.88106"
       style="font-size:6.48px;font-family:ArialMT, Arial">$4000$</text>
    <text
       class="cls-3"
       id="text48"
       x="172.83855"
       y="199.88106"
       style="font-size:6.48px;font-family:ArialMT, Arial">$5000$</text>
    <text
       class="cls-3"
       id="text60"
       x="222.33856"
       y="199.88106"
       style="font-size:6.48px;font-family:ArialMT, Arial">$6000$</text>
    <text
       class="cls-3"
       id="text80"
       x="3.599432"
       y="156.27151"
       style="font-size:6.48px;font-family:ArialMT, Arial">$200$</text>
    <text
       class="cls-3"
       id="text90"
       x="3.599432"
       y="121.19151"
       style="font-size:6.48px;font-family:ArialMT, Arial">$400$</text>
    <text
       class="cls-3"
       id="text100"
       x="3.599432"
       y="86.111519"
       style="font-size:6.48px;font-family:ArialMT, Arial">$600$</text>
    <text
       class="cls-3"
       id="text110"
       x="3.599432"
       y="51.031517"
       style="font-size:6.48px;font-family:ArialMT, Arial">$800$</text>
    <text
       class="cls-3"
       id="text120"
       y="15.951515"
       style="font-size:6.48px;font-family:ArialMT, Arial"
       x="-0.00057035621">$1000$</text>
  </g>
</svg>
